<svg width="25" height="24" viewBox="0 0 25 24" fill="none" xmlns="http://www.w3.org/2000/svg">
<path d="M21.75 11.9999H9.395M5.034 11.9999H3.25M5.034 11.9999C5.034 11.4217 5.26368 10.8672 5.67251 10.4584C6.08134 10.0496 6.63583 9.81989 7.214 9.81989C7.79217 9.81989 8.34666 10.0496 8.75549 10.4584C9.16432 10.8672 9.394 11.4217 9.394 11.9999C9.394 12.5781 9.16432 13.1326 8.75549 13.5414C8.34666 13.9502 7.79217 14.1799 7.214 14.1799C6.63583 14.1799 6.08134 13.9502 5.67251 13.5414C5.26368 13.1326 5.034 12.5781 5.034 11.9999ZM21.75 18.6069H16.002M16.002 18.6069C16.002 19.1852 15.7718 19.7403 15.3628 20.1492C14.9539 20.5582 14.3993 20.7879 13.821 20.7879C13.2428 20.7879 12.6883 20.5572 12.2795 20.1484C11.8707 19.7396 11.641 19.1851 11.641 18.6069M16.002 18.6069C16.002 18.0286 15.7718 17.4745 15.3628 17.0655C14.9539 16.6566 14.3993 16.4269 13.821 16.4269C13.2428 16.4269 12.6883 16.6566 12.2795 17.0654C11.8707 17.4742 11.641 18.0287 11.641 18.6069M11.641 18.6069H3.25M21.75 5.39289H18.645M14.284 5.39289H3.25M14.284 5.39289C14.284 4.81472 14.5137 4.26023 14.9225 3.8514C15.3313 3.44257 15.8858 3.21289 16.464 3.21289C16.7503 3.21289 17.0338 3.26928 17.2983 3.37883C17.5627 3.48839 17.8031 3.64897 18.0055 3.8514C18.2079 4.05383 18.3685 4.29415 18.4781 4.55864C18.5876 4.82313 18.644 5.10661 18.644 5.39289C18.644 5.67917 18.5876 5.96265 18.4781 6.22714C18.3685 6.49163 18.2079 6.73195 18.0055 6.93438C17.8031 7.13681 17.5627 7.29739 17.2983 7.40695C17.0338 7.5165 16.7503 7.57289 16.464 7.57289C15.8858 7.57289 15.3313 7.34321 14.9225 6.93438C14.5137 6.52555 14.284 5.97106 14.284 5.39289Z" stroke="#919191" stroke-width="1.5" stroke-miterlimit="10" stroke-linecap="round"/>
</svg>
