<svg width="24" height="24" viewBox="0 0 24 24" fill="none" xmlns="http://www.w3.org/2000/svg">
<mask id="path-1-inside-1_934_3932" fill="white">
<path d="M13.5 12.4234C12.936 12.4234 12.4617 12.2311 12.077 11.8464C11.6924 11.4618 11.5 10.9874 11.5 10.4234C11.5 9.85945 11.6924 9.38511 12.077 9.00045C12.4617 8.61578 12.936 8.42345 13.5 8.42345C14.064 8.42345 14.5384 8.61578 14.923 9.00045C15.3077 9.38511 15.5 9.85945 15.5 10.4234C15.5 10.9874 15.3077 11.4618 14.923 11.8464C14.5384 12.2311 14.064 12.4234 13.5 12.4234ZM7.30802 15.6164C6.86335 15.6164 6.48302 15.4581 6.16702 15.1414C5.85035 14.8248 5.69202 14.4444 5.69202 14.0004V6.84645C5.69202 6.40245 5.85035 6.02245 6.16702 5.70645C6.48368 5.39045 6.86368 5.23211 7.30702 5.23145H19.692C20.1367 5.23145 20.517 5.38945 20.833 5.70545C21.149 6.02145 21.3074 6.40178 21.308 6.84645V14.0004C21.308 14.4444 21.1497 14.8244 20.833 15.1404C20.517 15.4578 20.137 15.6164 19.693 15.6164H7.30802ZM8.30802 14.6164H18.692C18.692 14.1684 18.8503 13.7871 19.167 13.4724C19.483 13.1578 19.863 13.0004 20.307 13.0004V7.84645C19.8603 7.84645 19.4797 7.68845 19.165 7.37245C18.8497 7.05578 18.692 6.67545 18.692 6.23145H8.30802C8.30802 6.67878 8.14968 7.05978 7.83302 7.37445C7.51702 7.68911 7.13702 7.84645 6.69302 7.84645V13.0004C7.13968 13.0004 7.52068 13.1588 7.83602 13.4754C8.15068 13.7914 8.30802 14.1714 8.30802 14.6154M18.346 18.6154H4.30802C3.86335 18.6154 3.48302 18.4574 3.16702 18.1414C2.85035 17.8248 2.69202 17.4444 2.69202 17.0004V8.19245H3.69202V17.0004C3.69202 17.1538 3.75602 17.2948 3.88402 17.4234C4.01268 17.5521 4.15402 17.6164 4.30802 17.6164H18.346V18.6154ZM7.30802 14.6154H6.69202V6.23245H7.30802C7.14135 6.23245 6.99702 6.29345 6.87502 6.41545C6.75302 6.53745 6.69202 6.68145 6.69202 6.84745V14.0004C6.69202 14.1671 6.75302 14.3114 6.87502 14.4334C6.99702 14.5554 7.14135 14.6164 7.30802 14.6164"/>
</mask>
<path d="M13.5 12.4234C12.936 12.4234 12.4617 12.2311 12.077 11.8464C11.6924 11.4618 11.5 10.9874 11.5 10.4234C11.5 9.85945 11.6924 9.38511 12.077 9.00045C12.4617 8.61578 12.936 8.42345 13.5 8.42345C14.064 8.42345 14.5384 8.61578 14.923 9.00045C15.3077 9.38511 15.5 9.85945 15.5 10.4234C15.5 10.9874 15.3077 11.4618 14.923 11.8464C14.5384 12.2311 14.064 12.4234 13.5 12.4234ZM7.30802 15.6164C6.86335 15.6164 6.48302 15.4581 6.16702 15.1414C5.85035 14.8248 5.69202 14.4444 5.69202 14.0004V6.84645C5.69202 6.40245 5.85035 6.02245 6.16702 5.70645C6.48368 5.39045 6.86368 5.23211 7.30702 5.23145H19.692C20.1367 5.23145 20.517 5.38945 20.833 5.70545C21.149 6.02145 21.3074 6.40178 21.308 6.84645V14.0004C21.308 14.4444 21.1497 14.8244 20.833 15.1404C20.517 15.4578 20.137 15.6164 19.693 15.6164H7.30802ZM8.30802 14.6164H18.692C18.692 14.1684 18.8503 13.7871 19.167 13.4724C19.483 13.1578 19.863 13.0004 20.307 13.0004V7.84645C19.8603 7.84645 19.4797 7.68845 19.165 7.37245C18.8497 7.05578 18.692 6.67545 18.692 6.23145H8.30802C8.30802 6.67878 8.14968 7.05978 7.83302 7.37445C7.51702 7.68911 7.13702 7.84645 6.69302 7.84645V13.0004C7.13968 13.0004 7.52068 13.1588 7.83602 13.4754C8.15068 13.7914 8.30802 14.1714 8.30802 14.6154M18.346 18.6154H4.30802C3.86335 18.6154 3.48302 18.4574 3.16702 18.1414C2.85035 17.8248 2.69202 17.4444 2.69202 17.0004V8.19245H3.69202V17.0004C3.69202 17.1538 3.75602 17.2948 3.88402 17.4234C4.01268 17.5521 4.15402 17.6164 4.30802 17.6164H18.346V18.6154ZM7.30802 14.6154H6.69202V6.23245H7.30802C7.14135 6.23245 6.99702 6.29345 6.87502 6.41545C6.75302 6.53745 6.69202 6.68145 6.69202 6.84745V14.0004C6.69202 14.1671 6.75302 14.3114 6.87502 14.4334C6.99702 14.5554 7.14135 14.6164 7.30802 14.6164" fill="black"/>
<path d="M6.16702 15.1414L6.87487 14.4351L6.87412 14.4343L6.16702 15.1414ZM7.30702 5.23145V4.23144L7.30551 4.23145L7.30702 5.23145ZM21.308 6.84645H22.308L22.308 6.84495L21.308 6.84645ZM20.833 15.1404L20.1267 14.4326L20.1244 14.4348L20.833 15.1404ZM18.692 14.6164V15.6164H19.692V14.6164H18.692ZM19.167 13.4724L19.8719 14.1818L19.8726 14.181L19.167 13.4724ZM20.307 13.0004V14.0004H21.307V13.0004H20.307ZM20.307 7.84645H21.307V6.84645H20.307V7.84645ZM19.165 7.37245L19.8736 6.66684L19.8736 6.66683L19.165 7.37245ZM18.692 6.23145H19.692V5.23145H18.692V6.23145ZM8.30802 6.23145V5.23145H7.30802V6.23145H8.30802ZM7.83302 7.37445L7.12815 6.6651L7.12741 6.66585L7.83302 7.37445ZM6.69302 7.84645V6.84645H5.69302V7.84645H6.69302ZM6.69302 13.0004H5.69302V14.0004H6.69302V13.0004ZM7.83602 13.4754L8.54462 12.7698L8.54461 12.7698L7.83602 13.4754ZM18.346 18.6154V19.6154H19.346V18.6154H18.346ZM2.69202 8.19245V7.19245H1.69202V8.19245H2.69202ZM3.69202 8.19245H4.69202V7.19245H3.69202V8.19245ZM3.88402 17.4234L3.17507 18.1287L3.17691 18.1306L3.88402 17.4234ZM18.346 17.6164H19.346V16.6164H18.346V17.6164ZM6.69202 14.6154H5.69202V15.6154H6.69202V14.6154ZM6.69202 6.23245V5.23245H5.69202V6.23245H6.69202ZM13.5 12.4234V11.4234C13.1903 11.4234 12.9737 11.3289 12.7841 11.1393L12.077 11.8464L11.3699 12.5536C11.9497 13.1333 12.6817 13.4234 13.5 13.4234V12.4234ZM12.077 11.8464L12.7841 11.1393C12.5946 10.9498 12.5 10.7331 12.5 10.4234H11.5H10.5C10.5 11.2418 10.7901 11.9738 11.3699 12.5536L12.077 11.8464ZM11.5 10.4234H12.5C12.5 10.1138 12.5946 9.89712 12.7841 9.70755L12.077 9.00045L11.3699 8.29334C10.7901 8.8731 10.5 9.60512 10.5 10.4234H11.5ZM12.077 9.00045L12.7841 9.70755C12.9737 9.51798 13.1903 9.42345 13.5 9.42345V8.42345V7.42345C12.6817 7.42345 11.9497 7.71357 11.3699 8.29334L12.077 9.00045ZM13.5 8.42345V9.42345C13.8097 9.42345 14.0263 9.51798 14.2159 9.70755L14.923 9.00045L15.6301 8.29334C15.0504 7.71357 14.3183 7.42345 13.5 7.42345V8.42345ZM14.923 9.00045L14.2159 9.70755C14.4055 9.89712 14.5 10.1138 14.5 10.4234H15.5H16.5C16.5 9.60512 16.2099 8.8731 15.6301 8.29334L14.923 9.00045ZM15.5 10.4234H14.5C14.5 10.7331 14.4055 10.9498 14.2159 11.1393L14.923 11.8464L15.6301 12.5536C16.2099 11.9738 16.5 11.2418 16.5 10.4234H15.5ZM14.923 11.8464L14.2159 11.1393C14.0263 11.3289 13.8097 11.4234 13.5 11.4234V12.4234V13.4234C14.3183 13.4234 15.0504 13.1333 15.6301 12.5536L14.923 11.8464ZM7.30802 15.6164V14.6164C7.13074 14.6164 7.00455 14.565 6.87487 14.4351L6.16702 15.1414L5.45917 15.8478C5.96148 16.3512 6.59596 16.6164 7.30802 16.6164V15.6164ZM6.16702 15.1414L6.87412 14.4343C6.74317 14.3034 6.69202 14.1767 6.69202 14.0004H5.69202H4.69202C4.69202 14.7122 4.95753 15.3462 5.45991 15.8486L6.16702 15.1414ZM5.69202 14.0004H6.69202V6.84645H5.69202H4.69202V14.0004H5.69202ZM5.69202 6.84645H6.69202C6.69202 6.67028 6.7431 6.5443 6.87338 6.4143L6.16702 5.70645L5.46066 4.99859C4.9576 5.50059 4.69202 6.13461 4.69202 6.84645H5.69202ZM6.16702 5.70645L6.87338 6.4143C7.00485 6.2831 7.1322 6.23171 7.30852 6.23144L7.30702 5.23145L7.30551 4.23145C6.59516 4.23251 5.96252 4.49779 5.46066 4.99859L6.16702 5.70645ZM7.30702 5.23145V6.23145H19.692V5.23145V4.23145H7.30702V5.23145ZM19.692 5.23145V6.23145C19.87 6.23145 19.9964 6.28303 20.1259 6.41255L20.833 5.70545L21.5401 4.99834C21.0376 4.49586 20.4034 4.23145 19.692 4.23145V5.23145ZM20.833 5.70545L20.1259 6.41255C20.2558 6.54244 20.3078 6.66946 20.308 6.84794L21.308 6.84645L22.308 6.84495C22.307 6.1341 22.0422 5.50045 21.5401 4.99834L20.833 5.70545ZM21.308 6.84645H20.308V14.0004H21.308H22.308V6.84645H21.308ZM21.308 14.0004H20.308C20.308 14.1766 20.2569 14.3026 20.1267 14.4326L20.833 15.1404L21.5394 15.8483C22.0424 15.3463 22.308 14.7123 22.308 14.0004H21.308ZM20.833 15.1404L20.1244 14.4348C19.9943 14.5655 19.8685 14.6164 19.693 14.6164V15.6164V16.6164C20.4055 16.6164 21.0398 16.35 21.5416 15.8461L20.833 15.1404ZM19.693 15.6164V14.6164H7.30802V15.6164V16.6164H19.693V15.6164ZM8.30802 14.6164V15.6164H18.692V14.6164V13.6164H8.30802V14.6164ZM18.692 14.6164H19.692C19.692 14.4337 19.7449 14.308 19.8719 14.1818L19.167 13.4724L18.4622 12.7631C17.9558 13.2662 17.692 13.9032 17.692 14.6164H18.692ZM19.167 13.4724L19.8726 14.181C20.0021 14.0521 20.1288 14.0004 20.307 14.0004V13.0004V12.0004C19.5972 12.0004 18.9639 12.2635 18.4614 12.7638L19.167 13.4724ZM20.307 13.0004H21.307V7.84645H20.307H19.307V13.0004H20.307ZM20.307 7.84645V6.84645C20.1258 6.84645 20.0003 6.79404 19.8736 6.66684L19.165 7.37245L18.4564 8.07806C18.9591 8.58285 19.5949 8.84645 20.307 8.84645V7.84645ZM19.165 7.37245L19.8736 6.66683C19.7435 6.5362 19.692 6.40903 19.692 6.23145H18.692H17.692C17.692 6.94186 17.9558 7.57535 18.4564 8.07806L19.165 7.37245ZM18.692 6.23145V5.23145H8.30802V6.23145V7.23145H18.692V6.23145ZM8.30802 6.23145H7.30802C7.30802 6.41308 7.25548 6.53858 7.12815 6.6651L7.83302 7.37445L8.53788 8.08379C9.04389 7.58097 9.30802 6.94448 9.30802 6.23145H8.30802ZM7.83302 7.37445L7.12741 6.66585C6.99789 6.79481 6.87123 6.84645 6.69302 6.84645V7.84645V8.84645C7.4028 8.84645 8.03614 8.58341 8.53863 8.08305L7.83302 7.37445ZM6.69302 7.84645H5.69302V13.0004H6.69302H7.69302V7.84645H6.69302ZM6.69302 13.0004V14.0004C6.87358 14.0004 6.99964 14.0527 7.12742 14.1811L7.83602 13.4754L8.54461 12.7698C8.04173 12.2648 7.40578 12.0004 6.69302 12.0004V13.0004ZM7.83602 13.4754L7.12742 14.1811C7.25638 14.3106 7.30802 14.4372 7.30802 14.6154H8.30802H9.30802C9.30802 13.9057 9.04498 13.2723 8.54462 12.7698L7.83602 13.4754ZM18.346 18.6154V17.6154H4.30802V18.6154V19.6154H18.346V18.6154ZM4.30802 18.6154V17.6154C4.13005 17.6154 4.00364 17.5639 3.87412 17.4343L3.16702 18.1414L2.45991 18.8486C2.96239 19.351 3.59665 19.6154 4.30802 19.6154V18.6154ZM3.16702 18.1414L3.87412 17.4343C3.74317 17.3034 3.69202 17.1767 3.69202 17.0004H2.69202H1.69202C1.69202 17.7122 1.95753 18.3462 2.45991 18.8486L3.16702 18.1414ZM2.69202 17.0004H3.69202V8.19245H2.69202H1.69202V17.0004H2.69202ZM2.69202 8.19245V9.19245H3.69202V8.19245V7.19245H2.69202V8.19245ZM3.69202 8.19245H2.69202V17.0004H3.69202H4.69202V8.19245H3.69202ZM3.69202 17.0004H2.69202C2.69202 17.466 2.89743 17.8496 3.17508 18.1287L3.88402 17.4234L4.59296 16.7182C4.59885 16.7241 4.62565 16.7529 4.6506 16.8079C4.67693 16.8659 4.69202 16.9331 4.69202 17.0004H3.69202ZM3.88402 17.4234L3.17691 18.1306C3.45649 18.4101 3.84115 18.6164 4.30802 18.6164V17.6164V16.6164C4.37517 16.6164 4.4425 16.6315 4.5008 16.658C4.55607 16.6832 4.58505 16.7103 4.59112 16.7163L3.88402 17.4234ZM4.30802 17.6164V18.6164H18.346V17.6164V16.6164H4.30802V17.6164ZM18.346 17.6164H17.346V18.6154H18.346H19.346V17.6164H18.346ZM7.30802 14.6154V13.6154H6.69202V14.6154V15.6154H7.30802V14.6154ZM6.69202 14.6154H7.69202V6.23245H6.69202H5.69202V14.6154H6.69202ZM6.69202 6.23245V7.23245H7.30802V6.23245V5.23245H6.69202V6.23245ZM7.30802 6.23245V5.23245C6.86588 5.23245 6.47007 5.40618 6.16791 5.70834L6.87502 6.41545L7.58212 7.12255C7.56121 7.14347 7.5221 7.17478 7.46406 7.19931C7.40533 7.22413 7.34978 7.23245 7.30802 7.23245V6.23245ZM6.87502 6.41545L6.16791 5.70834C5.86661 6.00964 5.69202 6.4048 5.69202 6.84745H6.69202H7.69202C7.69202 6.8901 7.6835 6.94613 7.65856 7.005C7.63394 7.06311 7.60267 7.102 7.58212 7.12255L6.87502 6.41545ZM6.69202 6.84745H5.69202V14.0004H6.69202H7.69202V6.84745H6.69202ZM6.69202 14.0004H5.69202C5.69202 14.4426 5.86575 14.8384 6.16791 15.1406L6.87502 14.4334L7.58212 13.7263C7.60304 13.7473 7.63435 13.7864 7.65888 13.8444C7.6837 13.9031 7.69202 13.9587 7.69202 14.0004H6.69202ZM6.87502 14.4334L6.16791 15.1406C6.47007 15.4427 6.86588 15.6164 7.30802 15.6164V14.6164V13.6164C7.34979 13.6164 7.40533 13.6248 7.46406 13.6496C7.5221 13.6741 7.56121 13.7054 7.58212 13.7263L6.87502 14.4334Z" fill="#0E2C48" mask="url(#path-1-inside-1_934_3932)"/>
</svg>
