<svg width="100" height="147" viewBox="0 0 100 147" fill="none" xmlns="http://www.w3.org/2000/svg">
<path d="M36.17 90.5259L36.4254 90.2932L36.5883 90.0343L36.845 89.4707L36.8215 89.294L36.729 89.1061L36.518 88.8821L36.4131 88.6942L36.3551 88.4229L36.402 87.9414L36.3909 87.5693L36.5624 87.4362L36.5994 87.1475L36.4834 86.8439L36.086 86.6908L35.5258 86.6448L35.1753 86.4693L35.2691 86.315L35.4789 85.103L35.3641 84.6899L35.8059 84.5506L35.9997 84.5792L36.3045 84.7459H36.4427L36.692 84.6066L36.803 84.4672L37.4114 84.5232L37.9655 84.2158L38.0211 83.9371L38.1038 83.7691L38.0235 83.4331L38.2333 83.4369L38.1544 83.3274L38.2444 83.2241L38.2802 82.8682L38.1864 82.6853L38.2827 82.5522L38.5357 82.5223L38.6579 82.4091L38.9281 82.5845L39.0219 82.582L39.1058 82.4924L39.2021 82.4986L39.2724 82.4327L39.3946 82.4215L39.4464 82.3058L39.4193 82.1913L39.5094 82.0258L39.6081 81.9312L39.6204 81.869L39.7574 81.8043L39.8092 81.7272L39.8031 81.5654L39.8611 81.4646L39.787 81.3028L39.8561 81.0614L39.9487 80.9495L40.2498 80.83L40.2659 80.6147L40.0721 80.2999L40.1992 80.0647L40.4041 79.9751L40.3621 79.893L40.3646 79.7897L40.1832 79.7673L40.2091 79.557L40.1647 79.4015L40.0709 79.3107L39.8784 79.3206L39.866 79.2173L39.8833 79.129L39.9907 79.0083L40.0363 78.8279L40.1462 78.6537L40.2696 78.5827L40.5818 78.5193L40.9829 78.0676L41.2038 78.0128L41.5641 77.8448L41.6468 77.6769L41.785 77.5375L42.3663 77.3135L42.56 77.0622L43.0203 76.6552L43.2943 76.6304L43.4288 76.5545L43.4954 76.4786L43.5497 76.3205L44.0273 76.4201L44.1655 76.2521L44.2211 76.1127L44.1655 75.8327L43.0413 74.6457L43.0092 74.5934L42.9685 74.1629L42.4502 74.184L42.2009 74.1006L42.228 73.9613L42.8377 73.5979L43.5658 72.6398L44.5197 71.6157L44.8554 71.164L45.2454 70.8019L45.4946 70.242L45.813 70.0192L45.7711 69.2253L45.7069 69.0673L45.8229 68.8918L45.8846 68.857L45.934 68.745L46.0191 68.0308L46.0771 67.915L46.2487 67.7259L46.2622 67.5231L46.335 67.4633L46.3461 67.3128L46.5411 67.0764L46.7065 66.6894L47.4247 66.0498L47.6654 65.5894L47.9196 65.3592L47.9776 65.2833L48.0072 65.1053L48.1565 64.9784L48.2713 64.7358L48.2997 64.5852L48.1973 64.248L48.2269 63.9643L48.1923 63.7254L48.0998 63.4454L48.1676 63.2177L48.5206 62.7423L48.5983 62.5121L48.7378 62.4126L49.2944 63.1592L49.904 63.8075L51.0702 64.9224L51.6576 65.3567L52.6831 65.5956L53.3063 65.5881L53.5038 65.954L53.6358 66.3534L53.4705 66.9183L53.5371 67.7495L55.872 68.8135L57.8971 69.0748L58.4105 69.3423L58.9967 69.5787L59.8519 69.7106L60.7922 69.738L61.2414 69.6795L61.4253 69.7567L61.5796 69.5078L61.5179 68.9877L61.587 68.8371L61.6092 68.6542L61.9276 68.3742L62.3645 68.358L62.8778 68.4526L63.0654 68.5633L63.2518 68.7836L63.3924 69.0349L63.6096 69.2241L64.2637 69.4593L64.3883 69.6795L64.7154 69.9632L64.8561 70.0105L65.0424 69.9943L65.167 69.6646L65.3855 69.4754L65.8051 69.397L65.9926 69.2552L66.5838 68.9715L66.896 69.0038L67.1292 69.1133L67.3008 69.1295L67.6117 69.0661H67.8141L68.0437 68.9105L68.5793 68.8657L69.3086 68.7214L69.4456 68.7911L69.5258 69.0163L69.5505 69.1905L69.4888 69.3162L69.4641 69.4966L69.5209 69.6534L70.1984 69.9047L70.4538 69.891L72.4283 70.1001L72.6912 70.3452L72.7924 71.1416L73.2379 71.4477L73.581 71.5908L73.5402 71.979L73.8845 72.2441L74.3695 73.0815L74.915 73.2657L75.0964 73.5307L75.2186 74.123V74.6942L75.0569 75.284L76.1084 75.452L77.5732 75.396L77.9335 76.1488L78.1174 76.4549L78.753 76.5321L78.9813 76.8879L79.3342 77.0771L79.8945 76.9937L80.1648 76.9091L80.6423 76.5955L81.1607 76.323L81.3063 76.1762L81.5136 76.1127L81.7629 76.155L83.0291 75.6312L83.6942 75.2541L83.9435 75.1484L84.1508 75.1285L84.4198 75.1907L84.6901 75.1484L85.2504 74.8136L85.5626 74.4777L85.8526 74.0596L85.9982 73.975L86.3302 73.8493L86.6005 73.8281L87.1607 74.0173L86.9324 74.1429L86.6449 74.5225L86.598 74.6419L86.6239 74.678L86.5264 74.7688L86.4968 74.8895L86.3031 75.1683L86.3401 75.5689L86.4561 75.6585L86.2562 76.0567L86.1007 76.4226L86.092 76.5171L86.0217 76.5283L85.9365 76.4848L85.7502 76.5657L85.6552 76.8431L85.591 76.8842L85.5675 76.9962L85.4824 77.0634L85.3689 77.8461L85.4269 78.1061L85.3911 78.1796L85.2923 78.2293L85.1097 78.5404L85.0455 78.7992L84.8839 79.0518L84.8542 79.226L84.7395 79.511L84.5457 79.7872L84.5001 80.1493L84.4384 80.29L84.2483 80.4841L83.8658 80.4219L83.6609 80.5413L83.2228 80.6396L83.1734 80.7105L81.8974 83.6409L81.2224 84.9923L81.1681 85.3071L81.2557 85.617L81.1064 85.8932L81.0039 85.9903L80.4264 86.8887L80.2857 87.0094L80.0907 87.1002L78.9578 87.4959L78.827 87.573L78.2482 87.7647L78.1841 87.746L78.0286 87.7958L77.7781 88.0247L77.6806 88.072L77.5695 88.2599L77.4325 88.3769L77.3116 88.6009L76.9142 88.9032L76.8908 88.9767L76.5403 89.1347L76.2984 89.1571L76.0343 89.1023L75.8554 88.7141L75.6357 88.7701L75.1927 89.2517L74.5559 89.1832L74.1252 89.5117L73.3847 89.5466L71.4559 89.8415L70.8882 89.4259L70.6463 89.4234L68.8039 90.2235L66.6344 90.3554L63.7886 90.4139L57.6984 90.4027L56.6383 90.3641L54.0813 90.3504L52.8263 90.272L51.9637 90.2907L51.6897 89.6921L51.5194 89.4284L50.6074 88.6793L49.6942 88.0509L49.3758 87.746L48.8538 87.685L47.4235 88.0957L46.2351 88.0807L45.2145 87.0069L45.0627 86.9297L44.8184 87.0218L44.5592 87.3292L43.5189 87.7186L42.8685 87.8194L42.5489 88.0807L41.9393 88.357L41.2124 89.172L39.2218 89.732L38.258 89.9074L36.17 90.5259Z" fill="#8E9D30" stroke="#F7FFC4" stroke-width="1.22174"/>
<path d="M36.1699 90.5258L38.258 89.9074L39.2218 89.7319L41.2124 89.172L41.9392 88.3569L42.5489 88.0807L42.8685 87.8194L43.5189 87.7186L44.5592 87.3291L44.8183 87.0218L45.0627 86.9297L45.2145 87.0068L46.2351 88.0807L47.4235 88.0956L48.8538 87.685L49.3758 87.746L49.6942 88.0508L50.6074 88.6792L51.5194 89.4283L51.6897 89.6921L51.9636 90.2906L52.8263 90.272L54.0813 90.3504L56.6383 90.3641L56.563 91.4354L56.8024 91.8859L57.0665 92.0252L57.5713 92.8813L57.7675 93.832L58.234 94.0734L58.3648 94.7267L59.1262 95.9125V96.3082L58.5092 97.7405L57.7761 98.9064L57.2233 99.0271L56.6075 98.9873L56.0102 99.3258L56.0854 99.5037L56.7037 99.9305L58.0069 101.175L58.6141 101.854L58.9189 102.289L58.7572 103.337L59.6852 103.665L60.4837 103.747L61.1995 105.417L61.0674 106.186L60.8909 108.183L60.6256 108.574L60.0592 108.433L59.4372 108.505L59.0077 108.422L58.4351 108.549L57.9156 108.482L56.8901 109.05L56.6025 109.392L56.162 110.835L55.6794 111.365L55.5893 111.814L55.6659 112.059L55.5091 113.272L55.2043 114.362L55.5104 114.667L55.5832 115.006L55.4919 115.282L54.7601 115.65L53.8172 116.556L53.099 116.647L52.5745 116.805L52.2475 117.16L51.8637 117.273L51.7773 117.685L52.0648 118.316L53.2286 118.971L53.1632 119.34L53.2421 119.812L53.1632 120.521L52.7325 121.4L52.3672 121.072L51.8686 120.048L51.5675 119.983L51.3194 120.048L51.006 120.573L50.4692 121.059L49.4227 121.847L48.7822 122.516L48.4675 123.684L48.3762 124.209L48.1146 124.497L47.6703 124.419L47.4346 124.603L47.1989 124.72L47.0681 124.682V124.485L47.2124 124.209L47.1075 124.038L45.407 123.356L45.2108 123.042L44.9751 122.976L44.7677 123.069L44.5172 122.949L44.3087 122.687L44.0075 122.779L43.7064 123.593L42.9944 123.825L42.6982 124.143L42.4378 124.186L42.2157 124.609L41.8874 124.92L41.6628 125.801L41.3703 126.08L40.6286 126.374L40.1461 126.617L39.5933 126.72H39.1107L37.7829 126.617L37.404 126.668L36.956 126.858L36.4377 126.702H36.1971L35.7133 126.84L35.4727 126.824L35.1617 126.409L34.731 126.08L34.7483 125.717L34.6619 125.492L34.3694 125.448L34.0757 125.093L34.0411 124.627L33.8338 123.83L33.5759 123.485L33.1773 123.177L32.696 123.308L32.4714 123.261L32.3171 123.018L32.0234 123L30.9337 123.302L30.7795 123.168L30.698 122.845L30.5512 122.468L30.2994 122.326L29.9884 122.361L27.777 122.958L24.8152 123.865L23.7465 124.021L23.4355 122.987L23.3195 122.378L23.0566 121.876L23.2738 121.569L23.7638 121.547L24.2932 120.584L24.3154 119.989L24.6153 119.677L24.6597 119.348L24.6424 119.107L24.7979 118.501L25.1089 118.223L25.4187 118.155L25.7815 117.998L26.2751 118.24L27.1822 118.812L27.4709 119.21L27.7128 119.315L27.851 119.002L27.9189 118.639L28.299 118.414L28.2126 118.241L28.3521 117.982L28.5409 117.792L28.3854 117.011L28.3508 116.44L28.7815 115.904L28.937 115.436L28.9888 115.108L29.4923 114.971L30.1711 114.644L30.5919 114.727L30.7968 114.513L31.3163 114.331L31.7655 114.33L32.5578 114.051L32.9897 113.756L33.455 113.705L33.7993 113.566L33.9387 113.586L33.9745 113.339L33.972 112.96L33.782 112.77L33.4377 112.631L33.2908 112.523L33.2476 112.354L33.007 112.111L32.9539 111.932L32.6787 111.719L32.4652 111.456L32.4406 111.116L32.0839 110.83L32.0284 110.5L31.731 110.206L31.4891 109.894L31.42 109.565L31.4274 109.432L31.61 109.288L31.7902 108.03L31.7285 107.867L31.5347 107.781L31.0744 108.072L30.4327 107.864L30.1612 108.317L30.1094 108.612L29.9267 109.193L29.5392 109.558L29.3146 109.508L29.1271 109.068L28.9136 109.156L28.7173 109.499L28.2509 109.671L27.9386 110.061L27.4882 110.199L26.9884 110.051L26.7231 109.903L26.206 109.753L25.8123 109.57L25.51 109.618L25.183 109.471L25.0571 109.218L25.1089 108.82L25.2619 108.365L25.8506 107.504L26.074 107.451L26.4022 106.568L26.1258 106.308L25.6396 106.295L24.9189 106.758L24.6424 106.723L24.7806 105.908L25.2126 105.528L25.8827 105.102L26.4886 104.4L26.6256 104.16L27.5573 104.314L28.2644 104.072L29.6417 103.336L30.0637 102.811L30.2822 102.754L31.1435 103.724L31.6717 103.81L32.2308 103.395L32.5417 102.2L32.7022 101.333L33.181 100.7L33.7993 100.534L33.7141 100.222L33.8215 99.8745L33.8499 99.5398L33.7869 99.2362L34.1066 98.9238L34.4718 98.8118L34.6397 98.4647L34.8482 98.237L35.1617 98.0192L35.2481 97.5849L35.0087 97.3199L35.0876 97.127L35.2431 97.0785L35.5085 96.2062L35.2431 95.2443L35.3197 94.9718L35.4912 94.7466L35.4085 94.433L35.9342 93.9266L36.3353 93.6018L36.766 92.9821L36.3131 92.6922L36.2526 91.8784L36.144 91.6233L36.2452 91.1331L36.1699 90.5258Z" fill="#8E9D30" stroke="#F7FFC4" stroke-width="1.22174"/>
<path d="M63.7614 38.0392L63.617 38.0068L63.269 37.4108L63.2061 37.1644L63.3986 37.1532L63.485 37.1059L63.633 36.694L63.6947 36.6144L64.0242 36.3991L64.0798 36.2498L64.0773 35.7732L64.1921 35.5853L64.4969 35.2431L64.5882 35.064L64.6586 34.84L64.6808 34.6048L64.6265 34.3161L64.6314 34.1257L64.8313 33.7798L64.7992 33.3132L64.819 33.0593L64.8832 32.8279L65.2139 32.4832V32.1311L65.0572 31.9121L64.9856 31.6806L64.9819 31.4243L64.9091 31.1655L65.0337 30.5421L65.1337 30.3156L65.5162 30.002L65.6779 29.8079L65.789 29.518L65.958 28.7962L66.0666 28.6594L66.19 28.3931L66.253 28.3545L66.3196 28.1952L66.5467 28.0248L66.7553 27.7L66.9613 27.1886L66.9515 26.7929L67.0119 26.3001L67.1711 26.1446L67.6672 26.0326L67.9622 25.8273L68.2411 25.7887L68.3324 25.6991L68.3509 25.5062L68.5002 25.3544L68.5805 25.0981L68.9223 24.7235L69 24.7211L69.0568 24.6763L69.1753 24.4349L69.2765 24.3278L69.4098 24.2843L69.4283 24.237L69.3555 24.0815L69.3616 23.9769L69.3974 23.9234L69.6615 23.7778L69.8108 23.5613L69.8232 23.4319L69.9268 23.3262L69.97 23.0064L70.3958 22.5186L70.5636 21.94L70.7561 21.8292L70.8598 21.8466L71.0795 22.0196H71.2387L71.6681 22.149L71.8619 22.3817L72.1543 22.602L72.4098 22.6256L72.6319 22.5932L73.3933 22.2958L73.5464 22.1913L73.8216 21.8541L73.9425 21.6413L74.6151 21.2133L74.8545 21.1299L75.026 21.0104L75.5653 20.8611L75.88 20.6907L76.2761 20.5588L76.4131 20.4181L76.6254 19.9192L76.8216 19.8258L77.4201 19.7338L78.2112 19.3692L78.727 19.2024L78.9849 19.0071L79.0183 18.8528L78.9911 18.6425L79.0244 18.3501L79.1133 18.039L79.0207 17.5935L78.9146 17.4143L78.7097 17.3036L78.5789 17.1418L78.1668 16.9091L78.0483 16.7884L77.9088 16.5532L77.9199 16.4388L78.1334 16.3193L78.3087 16.1127L78.421 16.0655L78.611 15.8203L78.6406 15.7394L78.5851 15.554L78.6443 15.243L78.5814 15.0625V14.9555L78.6888 14.7875L78.5851 14.7042L78.5789 14.6444L78.7838 14.3831L78.8455 14.2475L78.8665 14.2724L79.0553 14.0708L79.0072 13.7921L79.1034 13.6191L79.2466 13.4673L79.2157 13.3466L79.1293 13.2956L78.8048 12.6498L78.7875 12.5203L78.8159 12.3237L78.9381 12.1956L79.096 12.147L79.1701 12.0848L79.1725 12.004L79.0479 11.836L79.0183 11.7227L79.1812 11.4913L79.2083 11.1926L79.2466 11.1167L79.5119 10.9139L79.5057 10.7285L79.449 10.6115L79.3243 10.5481L79.3453 10.461L79.2564 10.3328L79.1516 10.4373L79.0615 10.4523L78.9516 10.4548L78.9183 10.4846L78.9269 10.5568L78.7665 10.5307L78.7517 10.4709L78.7048 10.4498L78.553 10.4311L78.5419 10.395L78.6456 10.3229L78.4728 10.1039L78.4901 10.0143L78.1914 9.97195L78.1581 9.92964L77.8767 9.85374L77.894 9.7965L77.9779 9.74299L78.0236 9.5663L77.9261 9.63225L77.8558 9.43315L77.8804 9.28383L77.7447 9.17184L77.6262 9.1594L77.546 9.06234L77.4362 9.07354L77.4127 9.04368L77.4522 8.918L77.4201 8.84334L77.5559 8.83836L77.4868 8.65793L77.2252 8.58701L77.1634 8.49617L77.0746 8.45635L77.0993 8.36427L77.0635 8.33938L76.9462 8.41031L76.8845 8.30579L76.734 8.26846L76.6081 8.38169L76.5588 8.24357L76.4193 8.17886L76.228 8.23237L76.0355 8.18011L75.7023 8.25228L75.5653 8.19753L75.3629 8.205L75.0988 8.07185L75.0273 8.08305L74.8039 8.24979L74.7471 8.25228L74.6595 8.0843L74.5929 8.14278L74.6644 8.2697L74.6015 8.33565L74.504 8.13407L74.4472 8.09425L74.1202 8.15273L74.061 8.13158L73.7451 8.20375L73.6883 8.16767L73.6278 8.02581L73.4205 7.88147L73.2847 7.66495L73.0885 7.60647L73.1663 7.47457L73.1132 7.40613L73.1219 7.36383L73.2502 7.34889L73.2687 7.28668L73.3785 7.29912L73.3292 7.18215L73.4032 7.10998L73.3082 7.05896L73.1836 7.09132L73.1725 6.89596L73.1107 6.74912L73.2588 6.58736L73.3181 6.39573L73.4045 6.34098L73.3909 6.29494L73.6216 6.19664L73.7784 6.06225V5.90173L74.0388 5.6342L74.0918 5.47368L74.2732 5.15264V5.0195L74.1178 4.96599L74.0388 4.67109L73.8561 4.45706L73.5439 4.26916L73.5957 4.08251L73.7006 3.94813L74.0129 3.84111L74.3263 3.62709L74.5349 3.57358L74.8212 3.62709L75.0038 3.70797L75.0816 3.62709L75.2124 3.19904L75.1865 3.03852L75.1075 2.878L74.8989 2.82449L74.8212 2.74361V2.6366H74.9779L75.0557 2.58309L75.316 2.9315L75.5505 3.06465L75.785 3.33342L76.3329 3.41306L76.5415 3.57358L76.5674 3.65446L76.2539 3.76148L76.1503 3.94813L76.2021 4.05514L76.5674 4.02901L76.7241 4.10865L76.9586 3.94813V3.62709L77.3486 3.03852L77.3757 2.85062L77.5053 2.66397L77.4535 2.07416V1.53163L77.5843 1.51172L77.7657 1.56523L77.9742 1.834L78.0816 2.08411L77.9496 2.30187L77.8928 2.49474L77.899 2.64158L78.0298 2.76103H78.1668L78.2149 2.80085L78.2568 3.00492L78.3309 3.14304L78.4383 3.17913L78.5209 3.13433L78.7863 2.84316L78.8282 2.87924L78.7715 3.16046L78.7863 3.26001L78.9775 3.24508L79.3107 3.49768L79.6439 3.49146L79.8611 3.43795L79.9957 3.52132L80.082 3.67811L80.0425 3.8013L79.8611 4.03523L79.8636 4.13975L79.9451 4.26668L80.082 4.31769L80.1623 4.21566L80.2449 4.00288L80.3881 3.93942L80.451 3.97799L80.5127 4.10118L80.5609 4.26916L80.5695 4.53919L80.6115 4.60265L80.6917 4.6574L80.9508 4.66611L81.2988 4.61509L81.4531 4.69348L81.5197 5.08669L81.7123 5.53963L81.7468 5.71757L81.7258 5.98386L81.774 6.17922L81.7172 6.32605L81.7974 6.57865L81.6876 6.73668L81.6752 6.93826L81.7727 7.04901L81.8505 7.02163L81.9726 6.84867L82.0442 6.83623L82.0911 6.91213L82.1479 7.32276L82.3676 7.6886L82.4564 7.94369L82.4206 8.43769L82.4465 8.57581L82.3244 8.94413L82.4367 9.3249L82.3737 9.77535L82.4009 9.94831L82.3231 10.2059L82.4502 10.5145L82.2281 10.6974L82.2121 10.787L82.2688 10.9015L82.3638 10.9226L82.7501 11.3992L82.913 11.4739L83.05 11.612L83.1771 11.6842L83.3462 11.7053L83.4535 11.6406L83.5251 11.4838L83.5942 11.4303L83.7127 11.4191L83.9348 11.5149L84.078 11.6294L84.036 11.9828L84.2285 12.04L84.3705 12.3399L84.3038 12.4942L84.268 12.5241L84.1434 12.5104L84.099 12.5676L84.3334 12.8327L84.5827 12.8588L84.695 12.9646L84.6457 13.1649L84.5519 13.2719L84.3988 13.2284L84.273 13.2694L84.2779 13.3988L84.3976 13.6179L84.4112 13.8219L84.3717 13.8991L84.1594 14.0583L84.1286 14.199L84.2187 14.4428L84.2865 14.8112L84.384 14.9145L84.4544 14.948L84.5198 14.9331L84.5877 14.688L84.7999 14.8784L84.811 15.1907L84.8666 15.3139L85.1047 15.5665L85.0109 15.7606L84.7111 15.8477L84.6148 15.9846L84.6963 16.0866L84.8505 16.1687L84.911 16.3517L84.8925 16.4002L84.8456 16.4325L84.6592 16.3641L84.5284 16.3902L84.4766 16.4437L84.4272 16.6441L84.4729 16.8469L84.5321 16.8631L84.6123 16.9651L84.5728 17.0099L84.5716 17.1655L84.5852 17.2339L84.6827 17.3334L84.6099 17.5039L84.6333 17.5823L84.7703 17.8673L84.8962 17.9432L84.8986 18.1273L84.8357 18.2256L84.8715 18.3127L85.3306 18.5442L85.4009 18.63L85.4046 18.8963L85.2701 19.1589L85.2849 19.2522L84.9579 19.4451L84.9196 19.577L84.8246 19.628L84.8567 19.7711L84.7111 19.8395L84.6457 20.0399L84.5395 20.1257L84.5716 20.2302L84.4976 20.29L84.4828 20.3771L84.3396 20.55L84.3273 20.7205L84.4803 21.0988L84.2767 21.3091L84.194 21.6451L84.252 21.7981L84.2125 21.8454L84.0323 21.9163L84.0052 21.9574L84.0595 22.0806L84.0508 22.1403L83.9311 22.2013V22.2585L84.0076 22.373L83.9632 22.6467L83.983 22.7164L84.1249 22.8633L83.9361 23.02L84.0508 23.1258L83.9546 23.3038L84.0249 23.412L84.0113 23.5526L84.0965 23.6484L84.0249 23.7517L84.0619 23.9521L83.9114 24.13L84.0422 24.1847L84.0903 24.3975L84.0274 24.7248L84.1347 24.7596L84.1668 24.8069L84.0644 24.9438L84.1619 25.0608L84.1397 25.1379L84.1866 25.1715L84.2594 25.3694L84.252 25.5958L84.2026 25.6879L84.2532 25.7539L84.231 25.9293L84.3692 26.1259L84.3927 26.3051L84.5346 26.4071L84.6469 26.544L84.6938 26.992L84.7641 27.2632L84.7814 27.6067L84.4852 27.9601L84.4581 28.0559L84.4753 28.3931L84.5494 28.474L84.5988 28.6556L84.7826 28.9481L84.8764 29.1957L85.08 29.4097L85.2072 29.6188L85.412 30.1737L85.5564 30.4512L85.5947 30.7611L85.5589 30.9514L85.4256 31.1991L85.4478 31.8511L85.6193 32.0514L85.7637 32.141L86.245 32.3177L86.3857 32.4247L86.6572 32.7259L86.7892 33.1589L87.1928 33.6243L87.1854 34.0909L87.3211 34.2228L87.3705 34.3236L87.3347 34.4244L87.3557 34.4779L87.5001 34.5861L87.5531 34.7205L87.5136 34.7877L87.5346 34.8387L87.7827 34.8898L88.1122 35.0553L88.2566 35.3029L88.4009 35.4659L88.5922 35.5679L88.7983 35.8392L88.9365 36.1042L89.3302 36.3854L89.3981 36.4962L89.4647 36.7488L89.5647 36.9068L89.6943 37.0238L89.7708 37.2764L90.0151 37.3896L90.1225 37.6435L90.1817 37.6733L90.2175 37.6136L90.3212 37.59L90.8654 38.0354L91.1036 38.1101L91.3035 38.2868L91.4565 38.2669L91.5861 38.3888L91.8391 38.4797L92.1711 38.7186L92.2365 38.7957L92.2796 39.0073L91.7576 39.1802L91.5157 39.2026L91.0875 39.3594L90.5384 39.4552L90.2237 39.4602L89.793 39.6157L89.1204 39.6755L87.8863 39.1877L87.5297 39.1454L86.9472 38.9923L86.593 38.8604L86.2944 39.2723L85.9994 39.1914L85.6206 38.95L85.4083 38.8841H85.2812L85.0097 39.0346L84.9542 39.1118L84.948 39.2399L84.8826 39.281L84.4433 39.2449L84.0582 39.072L83.9657 38.9612L83.825 38.8716L83.63 38.797L83.4091 38.7995L82.9525 38.9986L82.5662 39.0745L82.2096 39.3059L81.9381 39.5697L81.5099 39.7899L81.0385 39.7476L80.4967 39.4714L80.0339 39.4378L79.8513 39.4614L79.0726 39.2474L78.9344 39.1603L78.6456 39.1068L77.8015 38.8219L77.0474 38.6825L76.7797 38.7447L76.1861 38.7771L75.7381 38.7571L75.458 38.7932L75.3025 38.8517L74.8014 38.7671L73.8931 38.848L73.5513 38.9488L73.4328 39.0533L73.3329 39.2648L73.36 38.8629L73.4847 38.3975L73.4625 38.191L73.3859 38.1001L72.4949 37.6783L72.1297 37.585L71.8298 37.6957H71.5891L71.4633 37.4332L71.2559 37.1793L70.8808 36.9927L70.6179 36.5037L70.4168 36.3518L70.1835 36.2361L69.5134 36.2025L69.1148 36.0097L68.3892 36.149L66.9317 35.8603L66.638 35.9885L66.4072 36.5012L66.4912 36.7787L66.8059 37.04L66.8207 37.2042L66.7219 37.3336L65.926 37.5103L65.5459 37.697L65.3015 37.8936L65.209 37.906L65.0942 37.8339L64.6339 37.7791L64.2377 37.8488L63.986 38.0193L63.7614 38.0392Z" fill="#8E9D30" stroke="#F7FFC4" stroke-width="1.22174"/>
<path d="M76.3132 89.2136L76.3614 89.3119L76.2355 89.6827L76.2503 89.8208L76.3601 89.9627L76.4305 90.1954L76.8118 90.5289L76.876 90.6284L76.9513 90.8847L77.1117 91.0677L77.1611 91.324L77.3202 91.4783L77.4313 91.5305L77.5942 91.5393L77.9472 91.4422L78.0619 91.5243L78.2075 91.4385L78.4013 91.2556L78.5124 91.2444L78.6407 91.2891L78.7826 91.5567L78.7666 92.2075L78.8567 92.5658L78.8925 93.7044L78.8678 94.0864L78.7419 94.3365L78.653 94.6327V94.7857L78.4568 95.3531L78.4507 95.5062L78.479 95.6555L78.595 95.8173L78.6654 96.1383L78.906 96.539L78.7518 96.7032L78.7542 96.8028L78.7012 96.9297L78.5667 97.0641L78.6037 97.2197L78.5395 97.4523L78.5704 97.7958L78.5358 97.9015L78.2322 98.0683L78.231 98.3072L78.1409 98.4092L77.9681 98.7415L77.92 98.9667L77.862 99.0289L77.8558 99.0849L77.9237 99.1558L77.7744 99.2429L77.5954 99.4607L77.6571 99.6187L78.0755 99.9497L78.2446 100.129L78.3853 100.126L78.4988 100.223L78.7259 100.266L78.8011 100.231L79.043 100.317H79.1812L79.2713 100.481L79.4095 100.547L79.4823 100.722L79.7255 101.786L79.6699 101.89L79.5268 101.957L79.4972 102.104L79.5959 102.293L79.5848 102.427L79.6798 102.733L79.5576 102.803L79.5946 102.88L79.5157 102.924L79.5737 103.012L79.507 103.15L79.702 103.413L79.7304 103.515L79.6712 103.732L79.6884 103.788L79.6008 103.938L79.7032 104.044L79.8711 104.555L79.9809 104.717L79.9575 104.811L79.876 104.87L79.913 104.967L79.8896 105.043L79.9599 105.135L80.0611 105.554L80.034 105.625L80.055 105.722L79.9698 105.949L79.818 106.027L80.0414 106.331L80.1019 106.853L80.0722 107.179L80.1179 107.378L80.0883 107.594L80.1895 107.749L80.224 107.881L80.1895 108.002L80.3956 108.123L80.5177 108.358L80.6954 108.39L80.7214 108.473L80.9509 108.756L81.1434 108.9L81.2471 109.082L81.3433 109.092L81.463 109.165L81.521 109.262L81.7568 109.292L81.7975 109.43L81.99 109.507L82.2072 109.819L82.4194 109.858L82.8736 110.097L82.9402 110.235L83.0686 110.25L83.2056 110.218L83.3635 110.263L83.4302 110.392L83.7991 110.461L83.8892 110.752L83.8831 110.845L83.9818 110.996L84.0163 111.145L84.0657 111.164L84.1533 111.105L84.1854 111.134L84.2372 111.217L84.2027 111.296L84.4026 111.52L84.4544 111.673L84.5914 111.841L84.6901 111.864L84.8099 112.204L84.7987 112.407L84.8839 112.51L84.8247 112.771L84.9049 112.968L84.9579 113.015L84.8987 113.147L84.9542 113.365L84.9444 113.508L85.0295 113.585L84.9937 113.65L85.0258 113.732L84.9987 113.797L85.0394 113.876L84.9518 114.043L85.048 114.266L85.1961 114.326L85.2331 114.414L85.3467 114.502L85.3664 114.64L85.4503 114.781L85.4886 114.936L85.7996 114.899L85.8675 114.923L85.9242 115.085L85.7872 115.169L85.5626 115.225L85.4491 115.351L85.0147 115.454L84.9012 115.445L84.8222 115.506L84.452 115.611L84.3273 115.812L84.742 115.829L84.8296 115.999L84.9542 116.478L86.7424 119.425L88.928 121.787L90.0386 122.911L91.7046 124.877L91.8132 125.047L91.9292 125.141L92.4932 125.833L92.6907 125.992L93.0942 126.529L93.7335 127.25L93.8248 127.335L93.9124 127.227L94.1136 127.249L94.2678 127.156L94.5356 127.138L94.6084 127.168L94.6664 127.28L94.8787 127.299L95.0749 127.543L95.3649 128.074L95.4661 128.115L95.9054 128.684L95.9696 128.675L96.0054 128.567L96.0757 128.526L96.3633 128.515L96.4003 128.583L96.4941 128.639L96.5188 128.762L96.6989 128.857L96.7545 128.851L96.7656 129.051L96.968 129.327L97.0519 129.6L97.2284 129.755L97.4085 130.319L97.4307 130.801L97.3024 130.916L97.2284 131.046L96.9754 131.146L96.9458 131.188L97.0605 131.604L97.121 131.686L97.0975 131.775L97.1296 131.944L97.0593 132.02L97.1284 132.093L97.0667 132.152L97.0877 132.205L97.1864 132.249L97.3518 132.256L97.4382 132.342L97.253 132.663L97.1543 133.114L97.1889 133.287L97.3764 133.656L97.3456 134.011L97.1531 134.553L97.1679 134.665L97.3641 134.923L97.3789 135.005L97.3555 135.164L97.2592 135.337L97.3592 135.528L97.3629 135.604L97.6097 135.808L97.7676 136.256L98.1872 136.811L98.2107 137.042L98.4723 137.777L98.46 137.883L98.381 138.026L98.3921 138.136L98.7228 138.416L98.7389 138.509L98.592 138.732L98.3316 138.846L98.1724 139.032L98.1008 139.031L97.9799 138.761L97.5171 138.737L97.395 138.813L97.316 139.475L97.3209 139.721L97.411 139.862L97.4406 139.996L97.4258 140.193L97.3493 140.301L97.1346 140.435L97.1839 140.552L97.369 140.669L97.3727 140.758L97.2851 140.939L97.0963 141.102L97.0062 141.245L97.0395 141.515L97.005 141.647L97.316 141.95L97.4554 142.66L97.5393 142.708L97.6985 142.668L97.7565 142.7L97.7331 142.953L97.7676 143.109L97.9182 143.611L98.0811 143.831L98.1675 144.292L98.0762 144.518L98.0786 144.764L98.2415 145.022L98.1366 145.308L98.0145 145.266L97.8985 145.141H97.7454L97.3641 145.267L97.1198 145.677L96.7088 145.623L96.6632 145.579L96.5854 145.342L96.6385 145.052L96.6187 144.987L96.5323 144.917L96.5286 144.844L96.7286 144.456L96.7458 144.38L96.7113 144.285L96.636 144.247L96.2522 144.304L95.7845 144.29L95.4723 144.142L95.2366 144.115L95.165 143.943L95.0021 143.939L94.8565 144.068L94.7812 144.064L94.8157 143.956L94.6874 143.557L94.6294 143.49L94.3764 143.465L94.2024 143.277L93.8519 143.138L93.6903 142.974L93.6039 142.754L93.3114 142.425L93.1226 142.333L92.8499 142.368L92.7746 142.276L92.3192 142.114L92.1156 142.16L91.9033 142.12L91.3196 141.981L91.1259 141.863L90.768 141.935L90.5224 141.758L90.4323 141.767L90.3323 141.86L90.2719 141.851L89.8659 141.571L89.7819 141.574L89.6832 141.652L89.0958 141.812L88.965 141.876L88.7922 142.042L88.5972 142.074L87.9753 142.394L87.842 142.168L87.8519 142.027L87.6532 142.144L87.494 142.097L87.468 142.029L87.5088 141.813L87.4631 141.675L87.2891 141.481L87.1645 141.377L86.9942 141.316L86.8954 141.181L86.6856 141.145L86.7942 140.934L86.6758 140.878L86.4314 140.857L86.3179 140.807L86.0921 140.827L85.8613 141.077L85.7712 141.008L85.6564 140.753L85.5305 140.766L85.496 140.801L85.4577 141.089L85.3874 141.161L85.1406 141.116L85.0505 141.272L85.0295 141.423L84.9629 141.538L84.5495 141.515L84.5532 141.299L84.4372 141.243L84.2508 141.512L84.1891 141.562L84.1348 141.549L84.041 141.458L84.0274 141.272L83.909 141.177L83.7115 141.097L83.4302 140.839L83.3401 140.923L83.2611 141.148L83.1883 141.204L83.0167 141.257L82.6157 141.29L82.5108 141.247L82.296 141.029L82.4972 140.795L82.5478 140.565L82.5132 140.5L82.1998 140.417L82.1122 140.352L82.0776 140.226L82.0838 139.956L82.0468 139.889L81.9826 139.878L81.837 139.985L81.9295 140.162L81.9036 140.252L81.6938 140.21L81.5753 140.243L81.4026 140.468L81.2409 140.529L81.1854 140.523L81.0225 140.35L80.9793 140.346L80.7991 140.483L80.7349 140.478L80.6745 140.392L80.7645 140.164L80.6979 140.047L80.5622 140.055L80.4165 140.157L80.3462 140.148L80.3376 140.048L80.4857 140.052L80.5042 139.979L80.1586 139.706L80.0883 139.709L80.0685 139.746L80.1265 139.887L80.1228 139.94H80.0772L79.9723 139.884L79.8155 139.872L79.7687 139.737L79.6033 139.599L79.2232 139.639L79.159 139.618L79.0924 139.507L79.1393 139.393L79.1195 139.337L79.0529 139.287L78.9011 139.272L78.6666 138.833L78.5975 138.756L78.4001 138.693L78.3421 138.583L78.2989 138.565L78.173 138.678L78.0977 138.67L77.9657 138.568L77.825 138.753L76.3984 139.276H76.312L76.117 139.042L75.9307 138.937L75.4951 138.905L75.3618 138.931L74.8262 138.835L74.3153 138.904L74.1462 139.068L74.0105 139.077L66.7146 139.088L66.4888 133.93L66.3913 133.173L66.1395 130.191L66.1654 129.745L65.6163 129.994L65.3497 130.395L65.1054 130.361L64.9486 130.387L64.9363 130.598L64.6747 130.558L64.5179 130.742L64.6611 131.071L64.4908 131.241L63.8046 131.404L62.9741 130.873L62.5916 131.02L62.2411 130.782L61.914 130.467L61.6796 130.558L61.6574 130.619L61.8746 131.201L61.6401 131.28L61.5216 130.782L61.3266 130.567L60.8157 130.204L60.6454 130.401L60.2209 130.481L59.9259 130.165L59.7038 130.361L59.573 130.545L59.325 130.415L58.566 130.349L58.0292 129.994L57.7157 130.191L57.1406 130.06L56.6297 130.073L56.4076 129.89L56.1719 129.928L55.8708 129.627L55.6227 129.549L55.1908 128.867L55.1711 127.596L55.0736 126.531L54.4713 125.442L53.9481 124.838L52.7263 123.689L52.4832 123.316L52.5092 122.58L52.6017 121.754L52.7325 121.4L53.1632 120.52L53.2422 119.812L53.1632 119.339L53.2286 118.971L52.0649 118.315L51.7773 117.684L51.8637 117.272L52.2475 117.159L52.5746 116.804L53.099 116.646L53.8173 116.555L54.7601 115.649L55.4919 115.281L55.5832 115.005L55.5104 114.666L55.2044 114.362L55.5092 113.272L55.6659 112.058L55.5894 111.813L55.6795 111.364L56.162 110.834L56.6026 109.392L56.8901 109.05L57.9156 108.481L58.4352 108.548L59.0078 108.421L59.4373 108.505L60.0592 108.432L60.6257 108.573L60.891 108.182L61.0675 106.185L61.1995 105.416L60.4838 103.746L59.6853 103.664L58.7573 103.337L58.9189 102.288L58.6141 101.854L58.007 101.174L56.7038 99.9298L56.0855 99.503L56.0102 99.3251L56.6075 98.9866L57.2233 99.0264L57.7762 98.9057L58.5092 97.7398L59.1263 96.3076V95.9119L58.3648 94.726L58.234 94.0727L57.7675 93.8313L57.5713 92.8807L57.0666 92.0246L56.8025 91.8852L56.5631 91.4347L56.6384 90.3634L57.6984 90.4019L63.7886 90.4131L66.6344 90.3547L68.8039 90.2228L70.6464 89.4226L70.8882 89.4251L71.4559 89.8407L73.3848 89.5458L74.1252 89.511L74.5559 89.1825L75.1927 89.2509L75.6357 88.7694L75.8554 88.7134L76.0343 89.1016L76.2984 89.1564L76.3132 89.2136Z" fill="#8E9D30" stroke="#F7FFC4" stroke-width="1.22174"/>
<path d="M14.9362 118.744L15.0349 118.871L15.0633 118.955L15.0312 118.991L14.9609 118.934L14.9164 118.755L14.9362 118.744ZM12.7864 115.662L12.8469 115.831L13.016 115.823L13.0517 115.869L13.0554 115.912L13.0727 115.948L13.1961 116.111L13.2035 116.245L13.1431 116.383L13.0653 116.443L13.0369 116.652L12.9629 116.73L12.8642 116.742L12.8284 116.816L12.8457 116.837L12.8629 116.88L12.8839 116.89L12.8876 116.765L13.0567 116.786L13.0949 116.773L13.2257 116.786L13.3738 116.917L13.4158 116.91L13.4047 116.942L12.8469 117.196L12.5791 117.234L12.0423 117.079L11.5659 116.798L11.9472 116.36L11.8979 116.342L11.909 116.254L11.9658 116.29L12.0719 116.265L12.2126 116.325L12.2693 116.311L12.2767 116.261L12.3718 116.29L12.5199 116.148L12.5026 115.876L12.5766 115.866L12.6581 115.735L12.7864 115.662ZM13.8169 115.526L13.9082 115.561L13.8946 115.681L13.9761 115.597L14.0637 115.681L14.1303 116.113L14.0773 116.159L14.0452 116.269L13.9255 116.23L13.7243 116.234L13.5972 116.109L13.5096 116.123L13.3899 116.027L13.5343 115.836L13.5207 115.761L13.6231 115.74L13.6515 115.665L13.8169 115.526ZM12.9172 115.487L12.9592 115.523L12.9802 115.8L12.8679 115.81L12.8321 115.685L12.7617 115.603L12.9172 115.487ZM13.7922 115.332L13.944 115.357L13.9859 115.46L13.8169 115.428L13.7638 115.368L13.7922 115.332ZM13.4886 115.299L13.5552 115.332L13.591 115.406L13.6404 115.385L13.7391 115.537L13.6404 115.573L13.654 115.598L13.591 115.644L13.5664 115.719L13.4639 115.662L13.4146 115.686L13.4109 115.754L13.4738 115.836L13.3121 115.942L13.1357 115.842L13.111 115.714L13.0086 115.579L13.0542 115.545L13.4109 115.491L13.4318 115.413L13.4244 115.35L13.4886 115.299ZM13.4392 115.016L13.5059 115.087L13.5022 115.129L13.5651 115.125L13.5972 115.196L13.5367 115.271L13.4627 115.275L13.3738 115.345L13.3825 115.456L13.2072 115.481L13.1406 115.414L13.169 115.297L13.1517 115.053L13.1937 115.024L13.3035 115.074L13.4392 115.016ZM13.0653 114.881H13.0641L13.0653 114.879V114.881ZM13.3615 114.868L13.3899 114.921L13.3047 115.031L13.2591 114.914L13.3615 114.868ZM13.148 114.813L13.2097 114.885L13.1073 115.037L13.0789 115.392L13.0295 115.441L12.8703 115.466L12.7445 115.572L12.7457 115.531L12.8185 115.444L12.8358 115.36L12.9246 115.292L12.8901 115.174L12.9888 115.153L12.995 115.056L13.0505 115.044L13.1073 114.842L13.148 114.813ZM13.4997 114.496L13.5491 114.517L13.3899 114.751L13.3516 114.631L13.3973 114.474L13.4997 114.496ZM13.496 114.279L13.6083 114.418L13.5491 114.484L13.4615 114.456L13.4047 114.346L13.496 114.279ZM13.5984 114.339L13.728 114.44L13.9082 114.436L14.0415 114.314L14.1809 114.031L14.2957 113.905L14.0415 113.57L14.1081 113.281L13.9859 113.182L13.8082 113.249L13.243 113.36L13.0764 113.17L12.7445 113.137L12.6889 112.925L12.8259 112.423L12.9283 111.858L13.0752 111.723L13.3269 111.192L13.7873 110.45L13.612 110.043L13.6601 109.817L13.67 109.411L13.8884 109.072L14.0131 108.765L14.2846 108.263L14.7992 107.488L15.257 107.631L15.5989 107.48L15.5717 107L16.3159 106.066L16.4578 105.248L17.5216 104.129L17.5574 104.026L17.5154 103.895L17.1587 103.725L17.1723 103.427L17.6709 102.373L17.8424 102.301L18.2447 102.27L18.3287 102.1L17.7141 100.993L17.2427 100.634L16.8885 99.3284L16.9428 99.1243L17.4006 99.194L17.5709 99.1243L17.8757 98.6054L18.014 98.4785H18.4286L18.2694 99.3757L18.3287 99.5698L18.5792 99.6818L18.7581 99.6855L19.0308 99.4466L19.2431 99.469L19.5689 99.4317L19.8972 99.7652L20.1662 100.406L20.1181 100.891L19.9712 101.313L20.2624 102.117L20.9893 102.384V102.896L21.0893 103.293L21.3312 103.326L21.5792 103.86L21.9149 103.843L21.9852 103.611L22.3209 102.936L23.0465 102.509L23.0996 102.029L23.2588 101.815L23.5525 101.851L23.9499 102.01L24.2806 101.91L24.9001 101.868L25.0112 101.974L24.9754 102.33L25.0457 102.579L25.3382 102.869L25.4246 103.038L25.5147 103.593L25.7183 103.772L25.9626 103.631L26.0466 103.73L26.1268 104.074L26.6229 104.161L26.4859 104.402L25.88 105.102L25.2099 105.528L24.7792 105.91L24.641 106.725L24.9174 106.76L25.6368 106.298L26.1243 106.309L26.4007 106.569L26.0725 107.453L25.8479 107.505L25.2605 108.366L25.1074 108.821L25.0556 109.22L25.1815 109.471L25.5085 109.619L25.8109 109.572L26.2045 109.753L26.7216 109.904L26.9869 110.051L27.4867 110.199L27.9372 110.061L28.2494 109.671L28.7146 109.5L28.9121 109.156L29.1243 109.068L29.3119 109.507L29.5365 109.557L29.924 109.192L30.1067 108.611L30.1585 108.316L30.43 107.862L31.0717 108.07L31.532 107.779L31.7258 107.865L31.7875 108.028L31.6073 109.286L31.4247 109.43L31.4173 109.563L31.4864 109.893L31.7282 110.205L32.0257 110.499L32.0812 110.827L32.4378 111.113L32.4625 111.453L32.6748 111.717L32.95 111.931L33.003 112.11L33.2449 112.353L33.2881 112.521L33.435 112.629L33.7793 112.767L33.9693 112.958L33.9718 113.337L33.9348 113.583L33.7966 113.564L33.4523 113.702L32.987 113.754L32.5563 114.049L31.7628 114.328H31.3148L30.7953 114.509L30.5904 114.723L30.1684 114.64L29.4896 114.967L28.9861 115.104L28.9343 115.433L28.7788 115.9L28.3481 116.437L28.3827 117.008L28.5382 117.787L28.3493 117.978L28.2099 118.237L28.2963 118.41L27.9174 118.635L27.8483 118.999L27.7101 119.31L27.4682 119.207L27.1782 118.807L26.2724 118.236L25.7788 117.995L25.416 118.15L25.1062 118.22L24.7952 118.496L24.6397 119.102L24.657 119.345L24.6126 119.672L24.3115 119.984L24.2892 120.579L23.7598 121.542L23.2699 121.565L23.2427 121.266L22.8984 121.11L22.7775 120.885L22.6393 120.798L22.2765 121.058L21.7347 121.059L21.6039 121.336L20.9029 122.235L20.9301 122.522L20.8795 122.859L20.9313 123.222L20.7067 123.465L20.7413 123.69L20.5167 124.209L19.8441 124.572L19.3961 125.021L18.8001 125.125L18.7791 125.186L18.7322 125.044L18.789 125.026L18.8099 124.856L18.6693 124.587L18.246 124.052L17.5648 123.291L17.0958 122.788L16.6898 122.427L16.6269 122.356L15.7914 121.739L15.6001 121.633L15.5507 121.591L15.5396 121.512L15.3953 121.42L15.3916 121.374L15.4545 121.367L15.4829 121.402L15.568 121.292L15.5359 121.265L15.4977 121.327H15.4693L15.5433 121.2L15.5224 121.137L15.5088 121.091L15.4668 121.016L15.5125 120.962L15.573 120.636L15.6223 120.562L15.668 120.498L15.6544 120.392L15.5902 120.308L15.5088 120.156L15.2694 119.604L14.3451 118.127L14.3623 118.088L14.5882 118.314L14.7646 118.414L14.909 118.811L14.9164 118.92L14.9905 119.001L15.1632 119.059L15.2373 119.005L15.4212 119.069L15.6865 119.065L15.7778 118.994L15.7951 118.735L15.7322 118.792L15.7433 118.831L15.705 118.998L15.4619 118.948L15.1966 118.827L15.1151 118.597L14.9004 118.25L14.9707 118.215L15.0028 118.109L14.9892 117.85L15.1484 117.503L15.3286 117.443L15.4483 117.557L15.7445 117.733L15.7828 117.822L15.7655 117.871L15.8148 117.854L15.8469 117.787L16.0061 118.046L16.0308 118.032L15.9851 117.978L15.9987 117.915L16.0802 117.993L16.1332 117.997L16.0654 118.15L16.1431 118.193L16.1752 118.296L16.2209 118.53L16.2073 118.693L16.1295 118.912L15.8926 119.032L15.8506 119.113L16.0444 119.251L16.058 119.453L16.111 119.51L16.2097 119.539L16.132 119.411L16.1394 119.368L16.0937 119.336L16.1221 119.255L15.9531 119.071L15.9568 119.021L16.1789 118.925L16.2455 119.004L16.2492 118.887L16.3196 118.812L16.3332 118.734L16.6009 118.766L16.5306 118.716L16.3899 118.709L16.3517 118.67L16.2912 118.565L16.3048 118.306L16.0999 117.838L16.174 117.686L16.3122 117.633L16.3578 117.41L16.227 117.31L16.2134 117.243L16.2492 117.197L16.1542 117.14L15.9605 116.892L15.9888 116.832L16.1542 116.861L16.3196 116.762L16.1999 116.464L16.0061 116.556L15.7445 116.564L15.6063 116.521L15.4261 116.546L15.2953 116.45L15.2669 116.263L15.2953 116.146L15.3903 116.226L15.4286 116.219L15.4076 116.052L15.552 115.769L15.6507 115.694L15.7211 115.573L15.9716 115.75L16.2147 115.708L16.2431 115.8L16.3949 115.825L16.4578 115.93L16.5207 115.917L16.4923 115.882L16.4393 115.839L16.2171 115.663L16.1147 115.655L16.0061 115.718L15.8889 115.606L15.8926 115.525L15.8296 115.443L15.8334 115.343L15.858 115.329L15.8901 115.404L15.9568 115.425L16.0024 115.35L15.8864 115.314L16.1937 115.006L16.2073 114.935H16.1579L15.8408 115.038L15.6569 115.034L15.689 115.113L15.4952 115.287L15.4421 115.404L15.2768 115.408L15.3261 115.467L15.315 115.521L14.8806 115.698L14.6931 115.708L14.5623 115.662L14.4956 115.566L14.5906 115.385L14.5869 115.368L14.6252 115.265L14.661 115.207L14.5548 115.288L14.5265 115.426L14.4808 115.472L14.4388 115.423L14.4561 115.296L14.6252 115.1L14.5931 115.097L14.4845 115.224L14.4105 115.285L14.3648 115.409L14.4216 115.568L14.3475 115.582L14.2204 115.528L14.234 115.4L14.2093 115.375V115.454L14.0859 115.45L14.0748 115.365L14.0217 115.358L14.0575 115.27L13.9588 115.281L13.9514 115.21L13.8453 115.107L13.9193 115.064L13.8699 115.043L13.8206 115.103L13.7675 115.074L13.8206 114.911L13.8699 114.865L13.7749 114.858L13.7823 114.954L13.7404 115.042L13.691 115.021L13.6095 114.875L13.6231 114.808L13.5775 114.783L13.5565 114.702L13.617 114.535L13.6774 114.501L13.6651 114.415L13.6182 114.391L13.5984 114.339Z" fill="#8E9D30" stroke="#F7FFC4" stroke-width="1.22174"/>
<path d="M90.9963 68.9729L91.0543 69.1844L90.9828 69.4084L90.8359 69.5813L90.8149 69.661L90.8939 69.7854L90.8853 69.8439L90.5805 70.1201L90.462 70.2757L90.2362 70.4312L90.1596 70.593L89.9819 70.6838L89.8869 70.8369L89.9104 70.9277L89.7351 71.0397L89.7339 71.1218L89.6586 71.189L89.5118 71.2599L89.5266 71.3782L89.4315 71.5872L89.2995 71.6183L89.1971 71.8423L89.0885 71.8983L89.4032 72.192L89.4858 72.4433L89.0083 72.5478L88.9046 72.6748L88.469 73.0095L88.116 73.4077L87.8877 73.45L87.5138 73.7013L87.1608 74.0161L86.6006 73.827L86.3303 73.8482L85.9983 73.9738L85.8527 74.0585L85.5627 74.4765L85.2505 74.8125L84.6902 75.1472L84.42 75.1896L84.1509 75.1273L83.9436 75.1472L83.6943 75.253L83.0292 75.6301L81.763 76.1539L81.5137 76.1116L81.3064 76.1751L81.1608 76.3219L80.6425 76.5944L80.1649 76.908L79.8946 76.9926L79.3343 77.076L78.9814 76.8868L78.7531 76.5309L78.1175 76.4538L77.9337 76.1477L77.5733 75.3949L76.1085 75.4509L75.057 75.2829L75.2187 74.6931V74.1219L75.0965 73.5296L74.9151 73.2646L74.3696 73.0804L73.8847 72.243L73.5403 71.9779L73.5811 71.5897L73.238 71.4466L72.7925 71.1405L72.6913 70.3441L72.4284 70.099L70.4539 69.8899L70.1985 69.9036L69.521 69.6523L69.4642 69.4955L69.4889 69.3151L69.5506 69.1894L69.5259 69.0152L69.4457 68.7899L69.3087 68.7203L68.5794 68.8646L68.0438 68.9094L67.8142 69.0649H67.6119L67.3009 69.1284L67.1293 69.1122L66.8961 69.0027L66.5839 68.9704L65.9927 69.2541L65.8052 69.3959L65.3856 69.4743L65.1671 69.6635L65.0425 69.9932L64.8562 70.0094L64.7155 69.9621L64.3884 69.6784L64.2638 69.4582L63.6097 69.223L63.3925 69.0338L63.2519 68.7825L63.0655 68.5622L62.8779 68.4515L62.3646 68.3569L61.9277 68.3731L61.6093 68.6531L61.5871 68.836L61.518 68.9865L61.5797 69.5067L61.4254 69.7555L61.2415 69.6784L60.7923 69.7369L59.852 69.7095L58.9968 69.5776L58.4106 69.3412L57.8972 69.0737L55.8721 68.8123L53.5372 67.7484L53.4706 66.9172L53.6359 66.3523L53.5039 65.9529L53.3064 65.587L52.6832 65.5945L51.6577 65.3556L51.0703 64.9213L49.9041 63.8064L49.2945 63.1581L48.7379 62.4115L48.7675 62.1788L48.7527 61.6972L48.649 60.9867L48.5034 60.3733L48.5947 59.7026L48.8724 59.114L49.3981 58.9746L49.5919 59.0866H49.8683L50.2287 58.8066L50.3286 58.4445L50.6273 58.4259L50.7087 58.3699L50.8482 58.1347L50.7544 57.6843L50.5878 57.3757L50.4224 57.1803L50.4496 56.8991L50.7815 56.8157L51.1419 56.8991L51.6417 56.5681L52.2501 56.7087L52.7918 56.9202L52.9609 56.8953L53.6582 56.323L53.7927 56.3068L54.037 56.3441L54.1061 56.2844L54.2147 56.1587L54.3097 55.9011L54.5109 55.7493L54.5479 55.6274L54.5417 55.1831L54.6615 54.9554L54.9601 54.8434L55.4377 54.8795L55.6598 54.6493L55.7586 54.4303L55.7339 54.2262L55.9301 53.7571L56.014 53.2806V52.6347L56.1683 52.147L56.2435 52.0263L56.2078 51.4228L56.0967 51.0569V50.8329L56.346 50.2705L56.4287 49.7653L56.7816 49.1344L56.8149 48.8657L56.9642 48.7213L56.9778 48.4911L56.9272 47.9984L56.9248 47.5155L56.9655 47.3787L56.9457 47.1746L56.8458 47.0887L56.4546 47.0825L56.3595 47.0327L56.3731 46.8399L56.3398 46.754L56.4546 46.6557L56.9309 46.4044L57.1136 46.3446L57.2691 46.2414L57.3308 46.1082L57.4369 45.995L57.6492 45.8855L57.8849 45.6428L58.2181 45.5843L58.7808 45.1376L58.9338 45.1513L59.0906 45.0953L59.3435 45.1202L59.5138 45.0393L59.8495 45.0642L60.2308 44.9472L60.3666 44.9783L60.5727 44.9062L60.7751 44.6946L60.9713 44.7208L61.0996 44.4582L61.1823 44.3811L61.1996 44.1957L61.3341 43.9256L61.2465 43.795L61.2638 43.7178L61.2292 43.632L61.2909 43.5038L61.2243 43.3433L61.2712 43.2226L61.4452 43.0384L61.3896 42.8095L61.4378 42.6253L61.4995 42.5432L61.4847 42.3939L61.5266 42.0766L61.5624 41.982L61.7808 41.7717L61.8672 41.5701L61.9709 41.4357L61.9499 41.3262L61.7636 41.1072L61.5686 40.9529L61.46 40.9567L61.2119 40.8335L61.1478 40.5983L61.0688 40.5012L61.0885 40.4452L61.0466 40.2636L61.0749 40.1354L61.1959 39.9985L61.4538 39.8492L61.5945 39.5929L61.6895 39.2805L61.6833 39.1499L61.4736 38.9894L61.3662 38.8139L61.3353 38.6098L61.3946 38.4493L61.708 38.1619L61.8253 37.9056L62.1943 37.3929L62.3818 37.3095L62.8039 37.3157L63.0396 37.1963L63.2062 37.1639L63.2691 37.4103L63.6171 38.0063L63.7615 38.0387L63.9861 38.0188L64.2379 37.8483L64.634 37.7786L65.0943 37.8334L65.2091 37.9056L65.3017 37.8931L65.546 37.6965L65.9261 37.5099L66.7221 37.3332L66.8208 37.2037L66.806 37.0395L66.4913 36.7782L66.4074 36.5007L66.6382 35.988L66.9319 35.8599L68.3893 36.1485L69.115 36.0092L69.5136 36.2021L70.1837 36.2357L70.4169 36.3514L70.6181 36.5032L70.8809 36.9922L71.2561 37.1789L71.4634 37.4327L71.5893 37.6953H71.8299L72.1298 37.5845L72.4951 37.6778L73.3861 38.0997L73.4626 38.1905L73.4848 38.3971L73.3602 38.8624L73.333 39.2644L73.3195 39.4448L73.2429 39.6389L73.1467 40.1018L73.0109 40.3133L72.215 41.3748L71.9558 41.6124L71.8472 41.8265L71.5202 42.0231L71.3795 42.2047L71.2067 42.6154L71.1364 43.0658L71.1697 43.3719L71.4831 43.6531L71.6781 44.1185L71.8842 44.3027L71.9879 44.4657L72.1557 44.6013L72.268 44.7855L72.616 45.165L73.0109 45.4636L73.317 45.552L73.3886 45.9141L73.5798 45.9788L73.7477 46.1032L74.0722 46.6694L74.4128 46.9033L74.693 46.9929L74.9225 46.9892L75.1755 47.4695L75.3939 47.7507L75.679 47.8988L75.7901 47.9971L75.8789 48.2634L75.8407 48.516L75.6975 48.8532L75.6741 49.0461L75.7271 49.1792L76.3565 49.7628L76.554 50.0888L76.8946 50.2693L77.1562 50.5331V50.5953L77.0414 50.7346L77.0451 50.8056L77.3685 51.2996L77.7091 51.3854L78.0003 51.5634L78.7728 52.3187L78.8456 52.3548L79.554 53.1424L80.0057 53.4796L80.1525 53.67L80.2759 53.7609L80.4635 54.0334L80.6276 54.123L81.1645 54.1553L81.3471 54.2773L81.5112 54.2424L81.6902 54.2574L81.7544 54.1765L81.8395 54.1503L81.9185 54.1715L81.9888 54.0856L82.0653 54.1665L82.1209 54.123L82.2974 54.1777L82.4096 54.3942L82.4146 54.5075L82.6454 54.6929L82.459 54.8646L82.6367 54.9741L82.9724 54.9691L83.0304 55.06L83.2969 55.1495L83.4561 55.3486L83.3821 55.7381L83.4463 55.8713L83.6832 55.8576L84.0325 55.9584L84.2756 56.14L84.5249 56.2035L84.8975 56.7784L85.0456 57.1903L85.5997 57.7875L85.8947 58.0128L86.2266 58.3487L86.4118 58.6474L86.4846 59.0219L87.1263 60.148L87.2312 60.6097L87.2978 60.7578L87.4299 60.9668L87.5631 61.2953L88.6528 63.4517L88.5603 64.059L88.6652 64.3775L88.8848 64.5841L88.9663 64.7458L89.3513 65.9379L89.55 66.3361L90.0831 67.2034L90.2238 67.2706L91.1037 67.4597L91.1827 67.5717L91.1025 67.8704L91.158 67.9525L91.1284 68.0583L91.1605 68.1715L91.1617 68.5013L91.1938 68.566L91.1518 68.7551L90.9963 68.9729Z" fill="#8E9D30" stroke="#F7FFC4" stroke-width="1.22174"/>
<path d="M22.2956 78.1813L22.4091 78.7014L22.6794 78.9739L23.136 79.1631L23.6543 79.183L24.2775 79.0784L25.6683 78.9951L26.3532 79.0374L26.5408 78.9329L26.5173 78.4687L26.7925 78.3829L26.8592 78.2709L26.9727 78.1763L26.9925 77.8963L27.1171 77.64L27.259 76.9295L27.2232 76.7739L27.2578 76.6059L27.243 76.331L27.2985 76.2837L27.2775 76.2053L27.3664 75.394L27.3985 75.3467L27.4861 75.3877L27.5441 75.4798L27.6465 75.5147L27.7378 75.618L27.7415 75.8705L27.8193 76.051L27.7119 76.4492L28.092 76.7764L28.3931 76.8498L28.4462 76.8324L28.4758 76.7553L28.7313 76.8859L28.7621 76.932L28.756 77.0962L28.8066 77.1995L28.9645 77.2157L29.7383 77.696L30.2603 77.8976L30.6515 77.8851L30.9415 78.1365V78.6603L31.2118 79.0573L31.2537 79.6235L31.5228 80.0005L31.8967 80.2307L32.3952 80.2942H32.9345L33.6614 80.8591L33.7972 81.3083V81.485L33.728 81.7699L33.6577 82.6061L33.8329 83.0653L33.8206 83.3005L33.9958 84.1603L34.1711 84.4428L34.3698 84.607L34.5685 84.6667L35.3644 84.6891L35.4792 85.1023L35.2694 86.3142L35.1756 86.4685L34.9658 86.644L34.872 86.6788L34.814 86.8555L34.6721 87.0696L34.4401 87.2201L33.9489 87.255L32.9913 87.0907L32.8519 87.1965L32.7581 87.3147L32.8284 87.8435L32.9481 88.0812L32.7864 88.2853L32.747 88.8938L32.5051 89.1787L31.6782 89.6652L31.0106 89.8631L30.7502 90.097L30.4726 90.0634L29.9481 89.878L29.4804 89.781H29.0608L28.851 89.8992L28.3561 90.9743L27.9884 91.966L27.6687 92.3891L26.2236 92.3555L25.2611 92.5583L24.8871 92.5869L24.1652 92.7325L24.0591 93.5165L23.7937 93.7479L23.537 93.6421L23.2285 93.3024L22.2573 92.9876L21.5452 93.5725L21.2528 93.6023L20.1841 93.4132L19.8126 93.2315L19.3597 93.3709L19.0894 93.6745L18.3897 93.3149L17.5074 93.0548L17.0039 92.7388L16.7904 92.3878L16.546 92.1925L16.103 92.2783L15.7365 91.9324L15.56 91.6736L15.1885 91.4869L14.938 91.2406L15.0639 91.039L15.2613 90.5649L14.9615 90.1605L14.8911 89.9378L14.9195 89.7001L15.8636 89.2148L16.3498 88.7083L16.6262 87.8734L16.9409 87.2948L16.7904 86.8642L16.9409 85.6709L16.588 85.1894L16.7546 84.6829L16.799 84.0944L16.3486 83.6576L16.6546 82.5091L16.7879 82.2577L16.8656 81.9242L16.9878 81.8483L16.973 81.6803L17.0458 81.6268L16.9779 81.4029L17.0359 81.3469L16.9705 81.2063L17.0322 81.0582L17.0483 80.8354L17.2062 80.6339L17.2112 80.5368L17.1445 80.4709L17.3284 80.0304L17.4777 80.1125L17.4938 80.156L17.5913 80.1685L17.6357 80.0963L17.8208 80.2021L18.2737 80.2207L18.5477 80.3713L19.0376 79.8039L19.4967 79.4119L19.725 79.0312L20.1113 78.7014L20.2248 78.6765L20.3581 78.4438L21.5576 77.4235L22.0413 76.9133L22.2228 76.978L22.2092 77.146L22.3351 77.1696L22.3585 77.2219L22.2474 77.3911L22.3215 77.5641L22.3795 77.5753L22.4214 77.8167L22.361 78.1029L22.2993 78.0917L22.2956 78.1813Z" fill="#8E9D30" stroke="#F7FFC4" stroke-width="1.22174"/>
<path d="M35.1758 86.4688L35.5263 86.6442L36.0866 86.6902L36.4839 86.8433L36.6 87.1469L36.5629 87.4356L36.3914 87.5687L36.4025 87.9408L36.3556 88.4224L36.4136 88.6936L36.5185 88.8815L36.7295 89.1055L36.8221 89.2934L36.8455 89.4701L36.5888 90.0338L36.4259 90.2926L36.1705 90.5253L36.2458 91.1325L36.1446 91.6228L36.2532 91.8779L36.3136 92.6917L36.7666 92.9816L36.3359 93.6013L35.9348 93.926L35.4091 94.4325L35.4918 94.7461L35.3202 94.9713L35.2437 95.2438L35.509 96.2057L35.2437 97.078L35.0882 97.1265L35.0092 97.3194L35.2486 97.5844L35.1623 98.0187L34.8488 98.2364L34.6402 98.4641L34.4724 98.8113L34.1071 98.9233L33.7875 99.2356L33.8504 99.5392L33.822 99.874L33.7147 100.221L33.7998 100.533L33.1816 100.699L32.7027 101.332L32.5423 102.2L32.2313 103.394L31.6723 103.81L31.1441 103.724L30.2827 102.753L30.0643 102.811L29.6422 103.336L28.265 104.071L27.5579 104.314L26.6262 104.159L26.1301 104.072L26.0511 103.729L25.9672 103.629L25.724 103.77L25.5204 103.591L25.4291 103.037L25.3427 102.868L25.0515 102.578L24.9799 102.329L25.0157 101.973L24.9046 101.867L24.2851 101.91L23.9544 102.009L23.557 101.85L23.2633 101.813L23.1041 102.027L23.051 102.507L22.3254 102.934L21.9897 103.611L21.9194 103.842L21.5825 103.86L21.3344 103.326L21.0926 103.292L20.9938 102.895V102.384L20.267 102.116L19.9757 101.312L20.1226 100.891L20.1707 100.405L19.9017 99.7645L19.5734 99.431L19.2476 99.4696L19.0341 99.4459L18.7614 99.6848L18.5824 99.6811L18.3319 99.5691L18.2739 99.375L18.4331 98.4778L18.712 98.2962L18.9465 98.0025L19.0551 97.7225L19.313 97.5346L19.4278 97.2273L19.5228 95.8647L19.6586 95.591L20.4336 95.0982L20.7976 94.7958L20.905 94.6241L21.2468 94.547L21.5615 94.3205L21.5158 94.0044L21.253 93.6025L21.5455 93.5727L22.2575 92.9878L23.2287 93.3026L23.5373 93.6423L23.7939 93.7481L24.0593 93.5167L24.1654 92.7327L24.8873 92.5872L25.2613 92.5585L26.2238 92.3557L27.6689 92.3893L27.9886 91.9662L28.3563 90.9745L28.8512 89.8994L29.061 89.7812H29.4806L29.9483 89.8782L30.4728 90.0636L30.7504 90.0972L31.0108 89.8633L31.6785 89.6654L32.5053 89.1789L32.7472 88.894L32.7867 88.2855L32.9483 88.0814L32.8286 87.8437L32.7583 87.3149L32.8521 87.1967L32.9915 87.0909L33.9492 87.2552L34.4403 87.2203L34.6723 87.0698L34.8142 86.8557L34.8722 86.679L34.966 86.6442L35.1758 86.4688Z" fill="#8E9D30" stroke="#F7FFC4" stroke-width="1.22174"/>
<path d="M52.7323 121.399L52.6015 121.754L52.509 122.58L52.483 123.316L52.7262 123.689L53.9479 124.837L54.4711 125.442L55.0734 126.531L55.1709 127.596L55.1906 128.866L55.6225 129.548L55.8706 129.627L56.1717 129.928L56.4074 129.889L56.6295 130.072L57.1404 130.06L57.7155 130.19L58.029 129.994L58.5658 130.348L59.3248 130.414L59.5728 130.545L59.7036 130.361L59.9257 130.164L60.2207 130.48L60.6452 130.401L60.8155 130.204L61.3264 130.566L61.5214 130.782L61.6399 131.279L61.8744 131.201L61.6572 130.619L61.6794 130.558L61.9138 130.467L62.2409 130.782L62.5914 131.019L62.9739 130.872L63.8045 131.404L64.4906 131.241L64.6609 131.07L64.5177 130.742L64.6745 130.558L64.9361 130.597L64.9484 130.387L65.1052 130.361L65.3495 130.395L65.6161 129.994L66.1652 129.745L66.1393 130.19L66.3911 133.173L66.4886 133.93L66.7144 139.087L64.4795 139.079L63.3293 139.117L61.983 139.09L61.999 138.936L61.8558 138.858L62.0804 138.613L61.9953 138.458L61.999 138.352L61.8855 138.279L61.8299 138.077L61.7695 138.068L61.6732 138.08L61.5634 138.065L61.5337 138.01L61.5547 137.939L61.3857 137.781H61.3338L61.2586 137.857L61.1771 137.836L61.1475 137.909L61.029 137.959L60.9439 137.922L60.8192 137.959L60.7958 137.851L60.6625 137.888L60.5773 137.796L60.5712 137.761L60.6933 137.78L60.6514 137.678L60.5662 137.675L60.4823 137.727L60.2528 137.645L59.6394 137.844L59.6826 138.061L59.5605 138.014L59.4679 138.046L59.4531 138.128L59.3346 138.178L59.3025 138.241L59.1631 138.083L59.0903 138.124L59.0199 138.116L58.9558 138.215L58.7213 138.25L58.6658 138.23L58.6485 138.107L58.5843 138.157L58.5177 138.15L58.456 138.083L58.2091 138.086L58.1191 138.089L57.8315 138.185L57.739 138.153L57.4971 138.155L57.3638 138.036L57.1725 138.042L57.117 138.073L57.1836 138.162L56.9195 138.264L56.8085 138.259L56.6863 138.138L56.6221 138.19L56.5678 138.352L56.5098 138.326L56.4506 138.352L56.3963 138.346L56.3494 138.255L56.01 138.208L55.9829 138.041L55.9051 137.98L55.841 138.097L55.7533 138.126L55.5941 138.085L55.5534 138.223L55.3498 138.333L54.9203 138.419L54.8179 138.346L54.618 138.318L54.5193 138.355L54.2428 138.175L54.0565 138.16L54.0071 138.201L53.8566 138.223L53.4345 138.149L53.2543 138.017H52.9693L52.915 137.965L52.9236 137.879L52.8039 137.836L52.3942 138.002L52.1906 138.026L51.8857 137.941H51.7352L51.5168 138.024L51.2416 138.046L50.875 138.006L49.6336 137.737L49.3016 137.732L49.1794 137.742L49.1103 137.915L49.035 137.986L48.7796 137.98L48.7092 138.047L48.5525 138.08L48.3464 137.971L48.1922 137.731L48.1169 137.703L48.049 137.742L47.6171 137.679L47.527 137.767L47.4418 137.793L47.369 137.781L47.2555 137.661L47.0728 137.556L46.8581 137.705L46.5323 137.696L46.4225 137.627L46.1609 137.6L46.1201 137.607L46.0881 137.674L45.977 137.668L45.6611 137.554L45.6142 137.656L45.4982 137.615L45.376 137.637L45.2415 137.551L45.1378 137.604L45.0934 137.569L45.0268 137.63L44.7972 137.593L44.6405 137.671L44.4393 137.582L44.4085 137.666L44.327 137.693L44.1752 137.625L44.0309 137.701L43.9198 137.647L43.7828 137.655L43.7396 137.781L43.6199 137.778L43.615 137.684L43.4348 137.731L43.3731 137.67L43.2423 137.629L43.2139 137.729L42.9264 137.705L42.8622 137.668L42.7338 137.724L42.7055 137.787L42.4352 137.744L42.3093 137.782L42.3068 137.683L42.2279 137.572L42.2402 137.469L42.06 137.501L41.949 137.39L41.812 137.355L41.6639 137.159L41.6084 137.154L41.3381 137.215H41.2653L41.2159 137.162L41.0592 137.245L40.958 137.357L40.7396 137.342L40.5545 137.445L40.2459 137.298L40.1151 137.287L39.856 137.317L39.7955 137.404L39.6943 137.46L39.6301 137.431L39.5339 137.46L39.4006 137.393L39.1933 137.394L38.9588 137.502L38.7984 137.391L38.5898 137.383L38.5084 137.4L38.5812 137.488L38.5318 137.53L38.4504 137.532L38.2899 137.418L38.1739 137.486L38.032 137.483L37.7432 137.399L37.6482 137.454L37.5544 137.451L37.41 137.589L37.5174 137.654L37.5692 137.744L37.5791 137.776L37.5088 137.849L37.5729 137.946L37.4804 138.078L37.3496 138.169L37.3175 138.284L37.2249 138.374L37.3088 138.442L37.2743 138.483L37.2977 138.574L37.2607 138.664L37.3101 138.728L37.2286 138.913L37.3175 139.044L35.6737 139.049L35.3615 138.963L35.2047 138.878L35.0949 138.891L34.8913 139.035L22.5863 139.059L22.2642 139.239L22.0964 139.026L21.8817 139.043L21.6608 139.223L21.5176 139.153L20.9894 139.185L20.8438 139.15L20.7438 138.948L20.6575 139.15L20.5908 139.199L20.0145 138.997L19.9417 139.026L19.8516 139.003L19.6134 138.861L19.3864 138.82L19.1272 138.704L19.0766 138.713L18.9655 138.832L18.8989 138.82L18.8532 138.766L18.8397 138.57L18.7989 138.503L18.7348 138.45L18.6533 138.445L18.5706 138.305L18.1399 138.122L17.9277 137.557L17.9672 137.283L17.9511 137.067L17.8043 136.831L17.8265 136.785L17.7944 136.58L17.8475 136.452L17.8228 136.092L17.7734 135.897L17.7944 135.805L17.8758 135.741L17.8857 135.628L17.8228 135.327L17.8475 135.208L17.7524 134.818L17.7549 134.758L17.8154 134.737L17.8438 134.645L17.8327 134.012L17.9215 133.88L18.0276 133.4L18.0585 133.371L18.1362 132.678L18.1893 132.525L18.2313 132.515L18.3164 132.344L18.2843 132.097L18.3584 132.072L18.5077 131.868L18.4966 131.701L18.5385 131.619L18.5102 131.482L18.6583 131.12L18.736 131.064L18.5879 130.49L18.62 130.459L18.6311 130.235L18.6977 130.013L18.7681 130.016L18.7854 129.981L18.8212 129.73L18.7755 129.55L18.8532 129.4L18.8841 129.132L18.9273 129.118L18.9766 128.83L19.1136 128.692L19.1284 128.587L19.2025 128.502L19.2518 128.516L19.4851 128.346L19.5406 128.13L19.5937 128.076L19.6085 127.801L19.6677 127.744L19.6221 127.529L19.7393 127.458L19.7603 127.408L19.6788 127.167L19.3925 126.601L19.2654 126.205L19.1099 125.864L19.0754 125.687L18.7829 125.188L18.8039 125.127L19.3999 125.024L19.8491 124.574L20.5217 124.21L20.7451 123.691L20.7105 123.466L20.9351 123.225L20.8833 122.861L20.9351 122.524L20.9067 122.238L21.6077 121.338L21.7385 121.062L22.2803 121.061L22.6431 120.802L22.7801 120.888L22.901 121.113L23.2465 121.269L23.2737 121.568L23.0565 121.875L23.3194 122.377L23.4354 122.986L23.7463 124.02L24.8151 123.864L27.7768 122.957L29.9883 122.36L30.2993 122.325L30.551 122.467L30.6979 122.844L30.7793 123.167L30.9336 123.301L32.0233 122.999L32.317 123.017L32.4713 123.26L32.6959 123.307L33.1772 123.176L33.5758 123.483L33.8337 123.829L34.041 124.626L34.0756 125.092L34.3693 125.447L34.6617 125.491L34.7481 125.716L34.7309 126.079L35.1616 126.408L35.4725 126.823L35.7132 126.839L36.1969 126.701H36.4376L36.9559 126.857L37.4039 126.667L37.7827 126.615L39.1106 126.719H39.5931L40.146 126.615L40.6285 126.373L41.3702 126.079L41.6627 125.8L41.8873 124.919L42.2155 124.608L42.4377 124.185L42.6981 124.142L42.9942 123.824L43.7063 123.592L44.0074 122.778L44.3085 122.686L44.5171 122.948L44.7676 123.068L44.9749 122.975L45.2106 123.041L45.4068 123.355L47.1074 124.037L47.2123 124.208L47.0679 124.484V124.681L47.1987 124.719L47.4344 124.602L47.6701 124.418L48.1144 124.496L48.376 124.208L48.4674 123.683L48.782 122.515L49.4225 121.846L50.469 121.058L51.0058 120.572L51.3193 120.047L51.5674 119.982L51.8685 120.047L52.367 121.071L52.7323 121.399Z" fill="#8E9D30" stroke="#F7FFC4" stroke-width="1.22174"/>
<path d="M1.76636 105.948L1.7244 106.015L1.75279 106.153L1.79474 106.117L1.86509 106.242L1.78734 106.334H1.75155L1.74045 106.27L1.6701 106.225L1.68368 106.143L1.63431 106.155L1.58865 106.066L1.59976 105.942L1.71947 105.896L1.76636 105.948ZM1.71947 109.236L1.79721 109.211L1.83547 109.128H1.90951L1.9453 109.015L1.9342 108.919L1.73674 108.866L1.67381 108.695L1.81819 108.603L1.72317 108.567L1.68491 108.422L1.56521 108.343L1.50103 108.244L1.34554 108.378L1.31716 108.637L1.25669 108.673L1.19992 108.666L1 108.704L1.02838 109.026L1.09502 109.303L1.18264 109.402L1.39737 109.466L1.56274 109.42L1.71083 109.26L1.71947 109.236ZM1.50474 107.297L1.5578 107.251L1.56891 107.067L1.49363 107.006L1.37022 107.08L1.33443 107.247L1.36282 107.297H1.50474ZM3.68165 109.239L3.8754 109.26L3.84331 109.328L3.51134 109.615L2.24518 109.579L1.949 109.626L1.78611 109.605L1.73674 109.566L1.79721 109.549L1.83547 109.407L1.90211 109.357L1.94407 109.262L2.13412 109.321L2.32416 109.264L2.34144 109.232L2.33033 109.104L2.29825 109.242L2.15016 109.284L1.98479 109.192L1.97122 109.125L2.00947 109.046L1.96011 108.891L1.77623 108.841L1.70589 108.717L1.833 108.649L1.85028 108.603L1.8293 108.565L1.74415 108.544L1.72317 108.413L1.80832 108.356L1.80092 108.335L1.69108 108.402L1.5467 108.292L1.53312 108.218L1.66393 108.101L2.06254 107.902L2.1156 107.844L2.09463 107.785L2.09092 107.714V107.689L1.93543 107.533L1.87866 107.299L1.93913 107.221V107.129L1.74538 107.062L1.70342 107.012L1.73181 106.976L1.94407 106.94L2.08228 106.819L2.08599 106.79L2.0539 106.695L1.94777 106.62L1.94407 106.57L2.17731 106.56L2.25876 106.489L2.24765 106.28L2.39944 106.248L2.67464 106.188L2.64626 106.359L2.78694 106.372L2.79311 106.43L2.73758 106.734L2.70549 106.748L2.74375 106.823L2.70796 107.072L2.72524 107.085L2.9338 107.315L3.04363 107.592L3.12138 108.407L3.16333 108.581L3.2127 108.617L3.26576 108.773L3.25836 108.83L3.17321 108.901L2.91158 108.759L2.8832 108.795L2.90418 108.812L3.07325 108.951L3.10163 108.972L3.30279 108.929L3.33857 108.862L3.42619 108.826L3.69399 109.029L3.68658 109.079L3.75075 109.075L3.76433 109.213L3.68165 109.239ZM1.21843 108.3L1.46895 108.144L1.51091 108.06L1.57385 108.05L1.83547 107.904L1.86385 107.862L2.01564 107.848L2.0576 107.816L2.0539 107.734L1.9342 107.603L1.85645 107.4V107.301L1.92309 107.148L1.70713 107.067L1.62938 107.08L1.59112 107.257L1.51338 107.322L1.46648 107.328L1.22337 107.299L1.19128 107.303L1.1666 107.552L1.0506 107.722L1 107.931L1.02098 108.066L1.21843 108.3ZM12.9644 114.854L12.9224 114.803L12.8755 114.799L12.8261 114.814L12.8274 114.901L12.7768 114.963L12.6558 114.984L12.6892 115.297L12.7225 115.335L12.778 115.35L12.8953 115.282L12.8595 115.151L12.9619 115.137L12.9582 115.053L13.0285 115.018L13.0619 114.884L13.0631 114.881L13.1063 114.785L13.0606 114.737L13.0335 114.753V114.809L13.0261 114.834L12.9644 114.854ZM21.5609 94.3209L21.2462 94.5474L20.9044 94.6233L20.797 94.795L20.433 95.0974L19.6592 95.5901L19.5235 95.8639L19.4285 97.2277L19.3137 97.535L19.0558 97.7229L18.9472 98.0029L18.7115 98.2966L18.4326 98.4782H18.0179L17.8797 98.6052L17.5749 99.124L17.4046 99.1937L16.9467 99.124L16.8924 99.3281L17.2466 100.633L17.718 100.993L18.3326 102.099L18.2487 102.27L17.8464 102.301L17.6748 102.373L17.1763 103.427L17.1627 103.724L17.5193 103.895L17.5613 104.025L17.5255 104.129L16.4617 105.247L16.3198 106.066L15.5757 106.999L15.6028 107.48L15.261 107.63L14.8031 107.487L14.2885 108.262L14.017 108.765L13.8924 109.071L13.674 109.411L13.6641 109.817L13.616 110.043L13.7912 110.45L13.3309 111.192L13.0791 111.723L12.9323 111.857L12.8299 112.422L12.6929 112.925L12.7484 113.136L13.0804 113.17L13.247 113.359L13.8122 113.248L13.9899 113.181L14.1121 113.281L14.0454 113.57L14.2996 113.904L14.1849 114.031L14.0454 114.314L13.9121 114.436L13.732 114.439L13.6024 114.339L13.6197 114.271L13.5493 114.229L13.3864 114.307L13.4 114.424H13.358L13.3654 114.47L13.2803 114.58L13.3432 114.729L13.3185 114.789L13.2556 114.821L13.1248 114.772L13.0643 114.704L13.0187 114.722L13.0224 114.806L12.9841 114.824L12.9101 114.767L12.8471 114.777L12.8015 114.809L12.7805 114.933L12.6398 114.966L12.6151 115.117L12.4029 115.164L12.3856 115.125L12.4312 114.983L12.3918 114.941L12.3572 114.976L12.2585 114.997L12.2474 115.014L12.1314 115.093L12.0857 115.277L12.0117 115.284L11.9265 115.384L11.8105 115.43L11.6698 115.597L11.4551 115.639L11.3453 115.777L11.2749 115.717L11.1651 115.753L11.0664 115.853L11.0836 115.962L10.9948 115.991L11.0059 116.1L10.9281 116.137L10.7628 116.079L10.8158 116.242L10.6258 116.256L10.5554 116.373L10.5838 116.444L10.4641 116.519L10.3296 116.444L10.358 116.356L10.3012 116.26L10.163 116.273L10.1174 116.206L10.1383 116.38L10.0643 116.413L10.026 116.38L10.0433 116.338L9.99765 116.317L9.96556 116.229L10.0285 116.179L10.0532 115.966L9.96186 115.799L10.0223 115.813L10.0581 115.763L9.91373 115.639L9.85326 115.625L9.77181 115.667L9.71134 115.631L9.60521 115.667L9.57683 115.639L9.50648 115.689L9.26831 115.684L9.24363 115.588H9.09183L8.96843 115.709L8.89068 115.655L8.90426 115.623L8.80923 115.655L8.77098 115.602L8.69693 115.592L8.54884 115.375L8.3193 115.212L7.94538 115.017L7.7578 114.974L7.70103 114.89L7.66278 114.926L7.55664 114.933L7.51469 114.891V114.803L7.39128 114.789L7.21851 114.58L7.07042 114.545L7.06672 114.485L7.16544 114.397L7.21481 114.273L7.18642 113.868L7.34809 113.5L7.28762 113.379L7.316 113.312L7.18519 113.103L7.17161 112.975L7.0445 112.869L7.01242 112.738L6.90999 112.692L6.63479 112.522L6.61751 112.489L6.52249 112.486L6.4904 112.305L6.28184 112.117L6.27814 111.983L6.34478 111.898L6.39415 111.672L6.33368 111.491L6.34478 111.424L6.27444 111.269L6.0449 111.138L5.9252 110.897L5.84375 110.581L5.86102 110.523L5.82524 110.395L5.84622 110.36L5.86719 110.197L6.02639 110.021L6.13993 110L6.0375 109.936L5.98443 109.723L6.0412 109.706L6.26704 109.376L6.12882 109.28L6.08686 109.365L6.01652 109.347L5.85732 109.184L5.89311 108.72L5.87213 108.617L5.86843 108.479L5.89311 108.379L5.85115 108.347L5.7623 108.223L5.74502 108.305L5.6068 108.22L5.47229 107.982L5.33161 107.854L5.30322 107.758L5.27114 107.745L5.2082 107.837L5.06875 107.719L5.06505 107.605L5.13909 107.421L5.15267 107.172L4.9873 107.134L4.97002 107.218L4.88857 107.318L4.51465 107.406L4.35915 107.527H4.10864L4.05557 107.293L3.9951 107.194L4.00621 107.134L4.14319 106.971L4.24192 106.683L4.31226 106.58L4.30856 106.474L4.37149 106.336L4.33817 106.35L4.25673 106.428L4.2703 106.474L4.16417 106.729L4.1111 106.772L4.07532 106.736L3.93093 107.148L4.05434 107.544L4.12838 107.59L4.31843 107.612L4.30115 107.814L4.32954 107.91L4.55167 108.244L4.69976 108.581L4.79108 108.705L4.79478 108.801L4.67138 108.929L4.42086 108.989L4.32583 108.893V108.847L4.25549 108.819L4.07161 108.613L3.8211 108.552L3.59156 108.361L3.62365 108.318L3.50764 107.893L3.54343 107.868L3.54713 107.826L3.48419 107.822L3.43607 107.686L3.27317 107.439L3.54466 107.308L3.68905 107.149L3.72731 106.932L3.58292 106.706L3.72114 106.67L3.78407 106.566V106.492L3.74212 106.502L3.71373 106.619L3.64709 106.629L3.61871 106.64L3.53356 106.711V106.772L3.6113 106.85L3.63969 106.946L3.59032 107.212L3.51628 107.258L3.26576 107.301L3.04363 107.17L3.06831 107.131L3.00537 107.114L2.90665 107.043L2.8326 106.656L2.89307 106.681L2.82643 106.589L2.86222 106.522L3.03129 106.564L3.10533 106.55L3.13742 106.487L3.12014 106.366L3.18061 106.327L3.2164 106.243L3.11027 106.339L3.09916 106.289L3.16704 106.106L3.08189 106.208L3.06091 106.325L3.09916 106.492L3.06461 106.528L2.93626 106.471L2.83754 106.467L2.81286 106.35L2.67464 106.332L2.724 106.191L2.78077 106.177V106.145L2.44634 106.222L2.39204 106.216L2.21927 106.269L2.22297 106.464L2.14892 106.546L1.97986 106.525L1.95147 106.454L1.87373 106.412L1.86015 106.441L1.93173 106.502L1.91322 106.671L2.05143 106.784L1.98849 106.873L1.84411 106.911L1.67134 106.723L1.62938 106.556L1.68244 106.401L1.66146 106.248L1.70342 106.273L1.7281 106.447L1.77006 106.468L1.87496 106.35L1.86385 106.325L1.89224 106.194L1.87496 106.141H1.8367L1.88607 106.062L1.79104 106.095L1.76266 106.07L1.75155 106.016L1.80092 105.949L1.73798 105.871L1.68491 105.86L1.66887 105.892L1.59976 105.921L1.57878 105.888L1.5504 105.86L1.45908 105.821L1.58989 105.506L1.72564 105.364L1.80092 105.337L1.88236 105.368L1.93913 105.485L2.04773 105.54L2.16373 105.536L2.65983 105.232L2.65243 105.032L2.59072 104.915L2.34391 104.679L2.34761 104.482L2.55864 104.223L2.64873 104.164L2.91652 104.13L2.96341 104.068L2.98069 103.977L2.91899 103.828L2.9449 103.704L3.03005 103.709L3.15223 103.624L3.17814 103.574L3.14236 103.507L3.325 103.341L3.34228 103.25L3.47309 103.173L3.52862 103.178L3.5459 103.135L3.48419 103.055L3.36449 103.037L3.3287 102.967L3.52862 102.766L3.58415 102.751L3.57798 102.613L3.7088 102.53L3.68165 102.427L3.7742 102.271L3.83467 102.068L4.1111 101.853L4.12838 101.68L4.39864 101.605L4.51465 101.519L4.64546 101.351L4.74295 101.098L5.03666 100.65L5.05024 99.6417L5.00704 99.292L5.29829 98.1522L5.37603 98.0751L5.33407 97.9195L5.37356 97.5985L5.31186 97.3957L5.33407 97.2687L5.56361 96.9888L5.69566 96.491L5.97333 96.0816L6.03379 95.8838L6.15597 95.7569L6.18805 95.6536L6.17571 95.4358L6.12512 95.289L5.64753 94.8174L5.48587 94.5038L5.28348 94.408L5.07739 94.1206L5.0416 93.8742L5.06751 93.812L5.14403 93.924L5.18475 93.9327L5.48587 93.5457L5.57842 93.3453L5.48463 93.2371L5.49574 93.1749L5.65247 93.0392L5.71047 92.8688L5.66357 92.7754L5.50808 92.7319L5.43157 92.6523L5.34888 92.4756L5.48216 92.3922L5.61544 92.1682L5.96222 91.9878L6.18559 91.6307L6.29912 91.5124L6.52989 91.444L6.98403 91.0757L7.3123 90.8791L9.10294 89.2726L9.30533 89.0711L9.49908 88.5522L9.74466 88.3095L10.0791 88.0619L10.2815 87.9748L10.743 87.8678L10.9997 87.4671L11.3169 86.8636L11.4403 86.718L11.5069 86.7118L11.539 86.667L11.5045 86.5699L11.5945 86.5762L11.6587 86.5164L11.7093 86.2576L11.6636 86.1071L11.7266 86.0473L11.7513 85.7972L11.8241 85.7263L12.2758 85.8968L12.7533 86.1655L12.8817 86.183L13.0483 85.6006L13.0532 85.3841L13.1162 85.3318L13.2174 84.9896L13.2346 84.9162L13.205 84.8341L13.2914 84.4658L13.3716 84.4471L14.0787 84.5566L14.2626 84.5019L14.7982 84.1883L14.8414 84.141L14.7994 83.9282L14.8216 83.7279L14.9808 83.433L15.2943 83.5051L15.4177 83.5835L15.4843 83.53L15.63 83.5151L15.6534 83.4268L15.8644 83.6993L15.9866 83.6458L16.0915 83.6781L16.1347 83.6221L16.2112 83.6868L16.3482 83.6507L16.7986 84.0875L16.7542 84.6761L16.5888 85.1825L16.9418 85.6641L16.7912 86.8561L16.9418 87.2879L16.6271 87.8665L16.3507 88.7015L15.8657 89.2079L14.9204 89.6932L14.892 89.9321L14.9623 90.1536L15.2622 90.558L15.0648 91.0321L14.9389 91.2337L15.1894 91.4801L15.5609 91.6667L15.7373 91.9256L16.1039 92.2715L16.5469 92.1856L16.7912 92.381L17.0035 92.7319L17.5082 93.0479L18.3906 93.308L19.0903 93.6676L19.3606 93.3653L19.8135 93.2246L20.1837 93.4063L21.2524 93.5955L21.5153 93.9974L21.5609 94.3209ZM12.1091 115.431L12.2363 115.254L12.4016 115.229L12.3572 115.129L12.3856 114.988L12.2646 115.025L12.1511 115.121L12.124 115.288L12.0191 115.317L12.0709 115.344L12.1091 115.431ZM12.6632 115.318L12.6558 115.162L12.5386 115.164L12.3955 115.269L12.2646 115.277L12.2227 115.419L12.1696 115.468L12.0882 115.461L12.0462 115.383L11.9894 115.369L11.8302 115.461L11.6748 115.631L11.4736 115.667L11.4489 115.752L11.4983 115.869L11.6254 115.99L11.6711 115.982L11.6785 116.018L11.792 116.078L11.8241 116.11L11.9685 116.266L12.0919 116.237L12.2264 116.295L12.2548 116.227L12.3683 116.249L12.4917 116.149L12.4535 116.032L12.4386 116.011V115.88L12.5621 115.834L12.6151 115.728L12.7175 115.65L12.7101 115.537L12.7978 115.416L12.6632 115.318ZM5.52782 108.601L5.4254 108.296L5.01198 107.75L5.00458 107.619L5.07122 107.299L5.04283 107.165L4.96879 107.303L4.89104 107.357L4.50971 107.452L4.42826 107.51L4.39247 107.638L4.42456 107.839L4.76393 108.353L4.92313 108.428L4.91942 108.488L5.20203 108.725L5.23411 108.789L5.28718 108.775L5.31556 108.931L5.5488 109.084L5.65123 109.101L5.69319 109.072L5.68579 108.913L5.52782 108.601ZM11.8833 116.236L11.7451 116.091L11.576 116.023L11.4033 115.857L11.2873 115.906L11.2416 115.939L11.1885 115.975L11.1676 116.081L11.1145 116.113L11.1009 116.23L11.2354 116.489L11.5674 116.8L11.9487 116.362L11.8994 116.344L11.8833 116.236ZM5.12551 109.728L5.06875 109.771L5.06505 109.841L5.02679 109.82L4.99841 109.853L4.98483 110.027H5.02309L5.14649 109.899L5.10083 109.789L5.12551 109.728Z" fill="#8E9D30" stroke="#F7FFC4" stroke-width="1.22174"/>
</svg>
