<svg width="100" height="100" viewBox="0 0 100 100" fill="none" xmlns="http://www.w3.org/2000/svg">
<path d="M24.0759 23.2131L24.456 23.0596L24.8929 23.1071L25.4025 23.3899L26.2763 24.4309H27.5511L27.7325 23.5325L28.352 23.4374H28.8987L30.3179 24.2882L30.6092 24.0054H30.9374L31.4113 24.3358L31.7026 24.8087L31.7384 25.7546L31.6705 26.1946L31.6298 26.4628L32.4307 27.455L32.6849 28.1156L33.7771 29.3906L34.6878 29.6734L36.4353 29.9562L36.3625 30.7119L36.1083 31.6541L35.6344 32.5025L35.1247 33.1632H34.6878L34.7964 34.5296L34.2152 35.7534V37.1649L34.0325 37.7768L33.049 37.7304L32.7577 38.4825L31.0102 40.4096L30.5364 40.7387L30.4278 41.0678L30.6092 41.3969H31.0102L31.4471 41.1617H31.884L32.1024 41.5371L32.1752 42.0076L31.8482 42.9462L31.6433 43.2472L31.0102 44.3077V44.8818L30.4969 44.8026L29.9452 44.4637L27.4968 43.5483L26.7872 42.6658L26.6021 42.5634L26.4182 42.6317L25.5235 43.6836L25.1286 43.8872H24.7608L24.2869 43.6836L24.05 43.2082L23.7871 43.0388L23.4971 43.14L23.6551 45.5827L23.2861 45.8533L20.5229 45.7862L19.6023 45.5144L17.6549 45.1756L16.3653 44.7685L15.1546 44.6673L13.812 43.5812L13.4171 43.4801L13.3381 42.9035L12.9962 42.8011H12.1805L11.6017 42.6999L10.6539 42.2587L8.89041 42.394L8.20672 42.8011L8.03395 43.0071L7.04421 42.5695L7.00348 41.9467L6.79986 41.2799L5.49419 39.9623L5.37695 39.7356L5.47938 39.3187L6.46295 37.6963L6.39631 36.9503L6.20626 36.5213L6.07915 36.3201L5.7225 36.063L6.30005 36.0008L7.51687 35.6863L8.53129 34.8465L8.81636 34.3211L9.58767 33.797L10.7638 33.6909L11.1698 33.5861L11.5758 33.3241L11.9004 33.2716L12.3471 33.5861L13.037 33.797L13.7268 33.7434L14.0106 33.5337H14.3759L14.9041 33.7434L15.3904 34.1115H16.2431L17.1761 33.5861H17.7043L18.272 33.7434L19.0025 34.4796L19.5702 34.532L19.8948 34.3211L20.2601 34.2163H20.9104L21.356 34.3735H21.9249L23.1824 33.9018L23.6291 33.4813H23.9944L24.1573 33.0608V32.6415L23.4662 31.8528L23.4268 31.3799V30.6961L23.792 29.7502L22.3309 29.5405V28.6983L22.2087 28.3302L21.2757 26.9089L21.235 26.3299L21.356 25.7509L21.762 25.2768L22.3716 24.8026L23.0207 24.6442L23.9537 24.5917L24.0759 23.2131Z" fill="#792873" stroke="white" stroke-width="1.22175"/>
<path d="M30.0969 53.3387L29.9205 53.0157L29.5836 52.6769L28.7715 52.4526L28.3964 52.2137L28.6419 50.3414L28.616 49.9355L27.8793 48.9872L27.8003 48.5472L27.9052 48.1413L28.194 47.9719L28.9048 47.9036L30.2475 47.9377L30.9312 48.0389L31.1953 48.2766L31.4581 48.3436L31.5063 48.2449L32.3208 49.0433L32.7947 49.231L33.4129 49.2773L33.8868 49.5114L34.4693 50.1196L34.6877 50.2134L34.8704 50.1196L35.4887 49.4175L36.1082 49.3712L36.4352 49.231L37.0177 48.6679L37.7471 48.1998L38.3839 47.1918L38.311 48.8787L38.7109 49.4882L39.513 49.7222L40.1313 49.6759L40.3868 49.5821V49.1128L40.5682 48.9263H41.0051L41.3333 48.5508L41.6604 48.457L42.0972 48.5045L42.2441 48.0352L42.4983 47.661L44.6654 47.544L45.175 46.419L45.7205 46.1837L46.303 46.2313L46.9595 45.9497L49.9078 46.0435L50.0485 45.9351L50.2175 46.0204V46.2544L49.7807 48.5984V49.8161L52.3661 53.6996L52.3303 55.523L52.5117 56.0374V56.8773L52.3303 58.4192L52.5747 58.8507L52.6215 58.9324L51.638 59.5857L51.2369 60.2378L51.0555 60.7985L50.958 61.6688H50.7223L49.9609 62.1942L49.6091 62.644L49.3413 63.3558L48.6416 63.7861L47.9357 64.0676L47.4705 64.1773L45.6699 64.209L43.8299 64.4077L42.7784 64.5491L41.9072 64.8209L41.6036 64.7795L41.4481 64.6174L41.4999 64.0116L41.2074 63.8434L40.7829 63.8616L40.6213 63.2437L40.214 62.6939L40.0388 62.5842L39.6932 62.6988L39.713 62.3819L39.9043 61.8943L39.6179 61.6737L39.4081 61.6798L39.1675 61.8736L38.9108 61.9029L37.2584 60.8131L37.4213 60.5243L37.3793 60.3049L36.8388 60.4901L36.6425 60.4158L36.55 60.2841L36.4994 59.4309L36.2921 59.0664L35.7836 58.7117L35.4924 58.3692L35.2875 57.327L34.7643 56.7359L34.225 56.4336L33.1686 54.9075L32.4577 54.7039L32.1394 54.3517L31.0299 53.5265H30.3549L30.0969 53.3387Z" fill="#792873" stroke="white" stroke-width="1.22175"/>
<path d="M8.03367 43.0077L8.20645 42.8017L8.89013 42.3946L10.6536 42.2593L11.6014 42.7005L12.1802 42.8017H12.996L13.3378 42.9041L13.4168 43.4806L13.8117 43.5818L15.1544 44.6679L16.365 44.769L17.6546 45.1761L19.602 45.515L20.5227 45.7868L23.2858 45.8539L23.6548 45.5833L23.4968 43.1406L23.7868 43.0394L24.0497 43.2088L24.2866 43.6842L24.7605 43.8878H25.1283L25.5232 43.6842L26.4179 42.6323L26.6018 42.564L26.7869 42.6664L27.4965 43.5489L29.9449 44.4643L30.4966 44.8032L31.01 44.8824L31.1556 44.9055L31.3395 45.5491L31.6023 45.9221L31.3913 47.3446L31.6159 47.4982L31.5888 48.0735L31.5061 48.2454L31.4579 48.3441L31.1951 48.2771L30.931 48.0394L30.2473 47.9382L28.9046 47.9041L28.1938 47.9723L27.905 48.1418L27.8001 48.5477L27.8791 48.9877L28.6158 49.936L28.6417 50.3419L28.3962 52.2142L27.9556 51.9765L27.6631 51.9887L27.4323 52.1118L27.2793 51.9107L27.0066 51.8339L26.8178 51.6132L26.2155 51.5499L25.5726 51.6839L25.4418 51.8717L25.2036 51.8314L24.9901 52.0813L24.3409 52.0447L24.1324 52.124L24.0065 52.4323L23.4203 52.4884L22.8465 52.3214L22.0752 52.4177L21.7654 52.1959L20.3005 52.5262L18.6012 52.6201L18.2211 52.6018L17.9126 52.4701L17.1857 52.7846L16.6007 52.7139L15.2185 52.7968L14.3905 52.4445L13.8746 52.0313L12.8725 51.6047L12.5739 51.339L12.1457 51.2073L11.0461 50.3821L10.0477 50.5077L9.47139 50.376L8.76426 49.7629L7.74243 49.3461L7.30803 48.7988L7.24756 48.3916L7.36233 47.9126L7.77081 47.3544L9.31466 46.9436L9.32577 46.6986L9.11721 46.4158L7.95593 45.4894L7.35616 44.8093L7.32654 44.602L7.44378 44.4887L8.33973 44.4241L8.33232 43.2905L8.03367 43.0077Z" fill="#792873" stroke="white" stroke-width="1.22175"/>
<path d="M31.0098 44.8817V44.3076L31.6429 43.2471L32.1019 43.7445L33.5224 43.6969L35.1242 43.1338H35.6709L35.9622 43.2752L36.2164 44.0723L36.7261 44.3539L38.2921 45.6679L38.6562 46.2774L38.5476 46.9807L38.3835 47.1916L37.7467 48.1996L37.0173 48.6677L36.4348 49.2308L36.1078 49.371L35.4883 49.4173L34.87 50.1194L34.6874 50.2132L34.4689 50.1194L33.8864 49.5111L33.4125 49.2771L32.7943 49.2308L32.3204 49.0431L31.5059 48.2447L31.5886 48.0728L31.6157 47.4975L31.3911 47.3439L31.6021 45.9214L31.3393 45.5485L31.1554 44.9049L31.0098 44.8817Z" fill="#792873" stroke="white" stroke-width="1.22175"/>
<path d="M64.1513 29.8666L63.902 29.9238L63.7119 29.7532L63.2282 27.9492L63.5207 27.3032L64.0192 26.7522L65.1028 26.8851L65.7038 27.5494L65.5717 28.5367L65.3817 28.7829L65.1472 28.9158L64.7375 28.9914L64.4598 29.713L64.1513 29.8666ZM43.2075 27.6445L43.5852 27.7432L44.5774 27.6676L44.9279 27.2508L45.6004 26.7803L45.9855 26.2781L46.2348 26.1074L46.8851 26.3792L48.0081 27.1715L48.7548 27.2861L49.2398 27.0996L50.2209 27.0058L52.1498 24.986L53.2777 24.4534L53.7121 24.4594L54.5056 24.2193L55.3818 24.106L56.3457 24.2571L57.2219 24.5228L58.1857 24.9775L60.043 26.701L59.8875 26.9753L59.8369 27.4287L59.9048 27.6408L60.4638 27.9858L60.6107 28.1942L60.4959 29.1316L60.7699 29.2888L61.0068 29.5996L61.8855 29.6374L62.3248 29.9409L62.6173 30.4151L62.5445 30.643L62.2224 30.8332L62.1348 31.0989L62.2964 31.573L62.0472 31.801L61.9744 32.085L62.0916 32.7298L62.563 33.4124L63.8144 34.3704L64.0587 34.4155L64.1858 34.5618L64.1414 35.036L64.4931 35.2444L64.772 35.7186L65.9296 36.3999L66.4035 36.4329L66.7503 36.3439L67.2044 36.6279L67.761 37.3288L68.2448 37.5933L68.3472 38.104L68.5817 38.5391L68.8161 38.7281L70.149 38.7476L70.8252 39.2583L71.2646 39.3912L71.6225 39.3631L72.2284 39.5606L72.6529 39.9007L72.8985 40.359L75.4235 41.0733L75.6579 41.2061L76.0516 41.7522L77.4733 41.7156L78.3088 42.3202L78.3125 43.026L77.983 43.2502L77.7411 43.182L77.7238 43.4636L78.4248 44.2107L78.932 44.8921L78.9888 45.103L78.6284 45.6527L78.5284 46.1208L78.3112 47.7663L78.3248 48.377L78.2076 48.5842L78.0175 48.6781L77.6609 48.6817L76.7748 49.1461L76.7588 49.5082L76.9204 49.8092L76.8908 50.3553L76.6563 51.278L76.2083 51.946L76.1442 52.3287L76.0393 52.4604L75.8616 52.5628L75.479 52.5043L74.9372 52.8078L74.7521 53.4611L74.5473 53.5367L74.3375 53.5123L73.8142 52.8029L73.3897 52.3702L73.1256 52.2202L72.6566 52.408L72.4012 52.2824L70.1848 52.3007L69.7306 52.0752L69.5554 52.0935L69.2913 52.3007L68.9099 52.4323L67.8992 52.4506L67.6228 52.7115L67.4463 53.5233L66.7219 53.533L66.5763 53.3307L66.1024 53.0966L65.1188 53.0503L64.9004 53.7524L64.1723 54.3131L62.6432 54.6873L59.1113 54.875L56.1988 55.9026L54.597 57.1178L53.3221 58.5184L52.7754 58.845L52.5842 58.8572L52.3386 58.4245L52.5212 56.8838V56.0428L52.3386 55.5284L52.3756 53.7049L49.7902 49.8214V48.6037L50.227 46.2597V46.0257L50.058 45.9404L49.9173 45.6271L49.2978 45.2517L48.8251 45.2992L48.3883 45.0652L47.8428 44.3144L47.6243 42.859L47.1554 42.074L45.8917 36.2585L46.2397 35.7381L46.8864 35.1457L46.8592 35.0079L45.8756 34.8202L45.5844 34.6788L44.8662 34.034L44.5181 33.015L44.317 32.0192L44.0973 31.6401L43.9505 31.4365L43.0718 31.1428L43.0483 27.6091L43.2075 27.6445Z" fill="#792873" stroke="white" stroke-width="1.22175"/>
<path d="M43.0389 27.6028L43.0624 31.1364L43.9423 31.4302L44.0879 31.6325L44.3075 32.0116L44.5087 33.0075L44.8567 34.0265L45.575 34.6713L45.8662 34.8115L46.8498 35.0004L46.8769 35.1381L46.2303 35.7305L45.8822 36.2522L47.146 42.0677L47.6149 42.8527L47.8333 44.308L48.3788 45.0589L48.8157 45.2929L49.2896 45.2466L49.9079 45.622L50.0485 45.9353L49.9079 46.0438L46.9596 45.9499L46.3031 46.2315L45.7206 46.1839L45.1751 46.4192L44.6654 47.5443L42.4984 47.6613L42.2441 48.0355L42.0973 48.5048L41.6604 48.4572L41.3334 48.5511L41.0051 48.9265H40.5683L40.3868 49.113V49.5823L40.1314 49.6761L39.5131 49.7225L38.7109 49.4884L38.3111 48.879L38.3839 47.192L38.548 46.9811L38.6566 46.2778L38.2926 45.6683L36.7265 44.3544L36.2169 44.0728L35.9626 43.2756L35.6714 43.1342H35.1247L33.5228 43.6974L32.1024 43.7449L31.6433 43.2476L31.8482 42.9465L32.1752 42.0079L32.1024 41.5374L31.884 41.162H31.4471L31.0102 41.3973H30.6091L30.4277 41.0682L30.5363 40.7391L31.0102 40.4099L32.7577 38.4828L33.0489 37.7308L34.0325 37.7771L34.2152 37.1652V35.7537L34.7964 34.5299L34.6878 33.1635H35.1247L35.6344 32.5028L36.1083 31.6545L36.3625 30.7123L36.4353 29.9565L34.6878 29.6737L33.7771 29.391L32.6849 28.116L32.4307 27.4553L31.6297 26.4631L31.6705 26.195L32.6121 25.4234L33.1946 25.0931L35.5258 24.9517L35.7442 25.1406L36.1083 25.2344H36.6907L37.0548 24.998H37.6015L38.6937 25.3295L39.9673 25.9902L40.8299 26.2791L41.0841 26.6325L42.0183 26.8751L42.3367 27.075L42.3688 27.3602L42.5453 27.5455L42.628 27.5028L43.0389 27.6028Z" fill="#792873" stroke="white" stroke-width="1.22175"/>
<path d="M45.2646 3.11948L45.3226 3.53391L45.5854 3.83986L46.0816 4.03123L46.4024 4.26038L46.6357 4.6419L46.5493 5.02343L45.8187 5.82547L45.235 6.09242L44.9141 6.13142L44.2711 6.7421L44.8709 7.43444L45.5743 7.80865L45.9915 8.23893L46.3654 8.29621L46.7615 8.59485L47.2218 9.0105L47.3107 9.28354L47.1231 10.0295L46.9812 10.316L46.6949 10.6024L45.5423 11.2192L45.003 11.3057L44.4649 11.5349L43.8059 11.5775L43.29 11.7921L42.8828 12.265L42.7187 12.8525L42.7075 13.3108L42.8828 14.0556L43.5862 14.5139L45.3769 14.91L45.6953 15.0527L46.0581 15.6109V16.012L45.8927 16.3837L45.2893 16.7701L44.729 18.2999L44.5636 19.4152L44.2785 19.7723L43.7726 20.0575L43.4986 20.3428L42.0485 21.1375L41.5426 21.9944L41.4549 22.7221L41.5981 22.8939L42.3336 23.1792L42.4003 23.3498L41.8289 23.9349L41.8832 24.2774L42.2719 24.9771L42.8075 25.5146L42.6767 25.8291L42.7483 26.0704L42.4891 26.903L42.3361 27.0748L42.0177 26.8749L41.0835 26.6324L40.8293 26.2789L39.9666 25.99L38.6931 25.3293L37.6009 24.9978H37.0542L36.6901 25.2343H36.1076L35.7436 25.1404L35.5251 24.9515L33.1939 25.0929L32.6115 25.4232L31.6698 26.1948L31.7377 25.7547L31.7019 24.8089L31.4107 24.3359L30.9368 24.0056H30.6085L30.3173 24.2884L28.8981 23.4376H28.3514L27.7319 23.5327L27.5504 24.431H26.2756L25.4019 23.39L24.8922 23.1073L24.4554 23.0597L24.0753 23.2133V22.9573H23.6285L22.8165 23.1158L22.2081 23.0634L22.1673 22.8001L22.2488 22.5892L22.1673 22.3247L21.2344 21.903L20.22 22.0614L19.8139 21.5336L19.5696 20.901L19.4486 19.0007L19.7325 18.4193L20.3409 17.8915L20.7469 17.6806L21.2344 17.5222H21.8428L22.2895 17.204L22.5734 16.8347V16.2009L22.4105 15.8827H22.9794L23.3854 15.4598L23.8716 14.5614L23.9124 14.1909L23.7507 13.9788L23.4261 13.9264L22.2895 14.0848L21.7613 13.9788L21.6404 13.7143L21.7206 12.2333L21.396 11.7567L20.9505 11.597L20.8284 10.9096L20.5852 10.5378L20.3816 10.4318H19.9756L19.4894 10.2209L19.1648 10.0088L18.7995 9.58461L18.7588 7.30524L19.0722 6.43006L20.1644 6.01684L22.2945 6.1046L22.8819 5.99978L23.22 5.0795L23.4286 4.04464L23.589 3.88496L23.7655 3.87887L24.1431 4.21528L24.3566 4.27379L25.0255 4.197L25.4463 4.5322L25.6302 4.91616L25.977 5.10753L26.4719 5.25136L26.8199 5.22699L27.0741 5.02587L27.3271 5.05878L27.622 5.18554L28.0836 5.6341L28.4304 5.61094L28.5587 5.34644L28.6685 4.50904L28.8524 4.32865L29.5953 4.74673L30.3654 5.61094L31.0182 5.80719L31.7821 6.25209L31.9574 6.47272L32.4634 6.41543L33.4272 5.87301L34.0393 4.73454L34.2479 4.69188L34.391 4.77721L34.1936 5.86935L34.4354 5.89861L34.8958 5.50977L35.556 5.38057L35.7646 5.58169L35.8189 5.79744L35.9842 5.89861L36.1484 5.78281L36.5112 4.07267L36.6432 3.97272H36.8407L37.1813 4.18847L37.6539 4.2165L38.3129 4.18847L38.5326 4.04464H38.7301L38.9386 4.67725L39.0818 4.82109L39.9099 4.90031L40.0012 4.99417L40.0308 5.33547L40.1888 5.41835L40.7922 4.88934L42.0868 4.84303L42.3435 4.9442L42.8038 4.79793L43.838 5.22699L44.5365 5.34888L44.9585 5.32572L45.462 5.13435L45.3102 4.75892L45.0523 4.66628L44.6537 4.82718L44.0144 4.51148L43.2888 4.40544L42.6026 3.63874L42.5323 2.58072L42.5915 2.18091L42.8087 1.67507L43.0074 1.52148L43.3826 1.62143L44.0157 2.39666L44.7709 2.54172L45.2461 2.80256L45.2646 3.11948Z" fill="#792873" stroke="white" stroke-width="1.22175"/>
<path d="M9.32176 21.3224L9.19959 20.7971L8.48135 19.8073L8.32092 18.8919L8.33572 18.3007L8.49616 17.4816L8.2913 17.1196L8.2333 16.2042L7.52986 15.6691L6.60676 14.772L5.37391 14.037L4.7075 13.9468L4.18548 13.4043L3.76342 13.1167L3.3426 12.9741L2.39111 12.9326L2.26894 12.6035L2.06778 12.4134L2.1048 11.0275L2.01348 10.6691L1.73828 10.2388L1.4458 10.0596L1.3335 9.53795L1.84811 8.50187L2.44171 8.50309L2.88351 8.26662L3.89177 8.02771L4.55077 7.74005L5.1999 7.78758L6.25752 8.45799L6.73388 8.26662L8.14197 8.15326L8.60105 8.21786L10.7212 9.271L11.7406 7.97652L12.676 7.34268L13.2696 7.06964L14.7345 6.92703L15.1923 6.75882L16.0525 6.6869L16.5646 6.80636L16.7855 6.99773L17.0595 7.0221L18.048 6.30416L18.396 6.3517L18.9082 6.27979L19.0723 6.42971L18.7589 7.30489L18.7996 9.58427L19.1649 10.0084L19.4894 10.2205L19.9757 10.4314H20.3817L20.5853 10.5375L20.8284 10.9092L20.9506 11.5967L21.3961 11.7564L21.7207 12.233L21.6405 13.7139L21.7614 13.9785L22.2896 14.0845L23.4262 13.926L23.7507 13.9785L23.9124 14.1905L23.8717 14.5611L23.3855 15.4594L22.9794 15.8824H22.4105L22.5734 16.2005V16.8344L22.2896 17.2037L21.8428 17.5218H21.2344L20.747 17.6803L20.341 17.8912L19.7325 18.419L19.4487 19.0004L19.5696 20.9007L19.814 21.5333L20.22 22.0611L21.2344 21.9026L22.1674 22.3244L22.2489 22.5889L22.1674 22.7997L22.2081 23.063L22.8165 23.1154L23.6286 22.957H24.0753V23.213L23.9531 24.5915L23.0202 24.644L22.371 24.8024L21.7614 25.2766L21.3554 25.7507L21.2344 26.3297L21.2752 26.9087L22.2081 28.33L22.3303 28.6981V29.5404L23.7915 29.75L23.4262 30.6959V31.3797L23.4657 31.8526L24.1568 32.6413V33.0606L23.9939 33.4811H23.6286L23.1818 33.9016L21.9243 34.3733H21.3554L20.9099 34.2161H20.2595L19.8942 34.3209L19.5696 34.5318L19.002 34.4794L18.2714 33.7432L17.7037 33.5859H17.1755L16.2425 34.1113H15.3898L14.9036 33.7432L14.3754 33.5335H14.0101L13.7262 33.7432L13.0364 33.7968L12.3465 33.5859L11.8998 33.2714L11.5752 33.3239L11.1692 33.5859L10.7632 33.6908L9.58709 33.7968L8.81579 34.3209L8.53071 34.8463L7.51629 35.6861L6.29948 36.0006L5.72192 36.0628L5.06415 35.4204L4.494 35.2888L4.17437 34.9584L4.14105 34.6037L4.42736 34.505L4.46809 34.0589L5.06909 33.7639L6.28467 32.7437L6.41425 32.69L6.48706 32.8375L6.64379 32.9106L6.79681 32.2012L7.0535 32.4231L7.29292 32.4341L7.10904 31.3383L7.9692 31.0823L8.54058 30.418L8.93549 29.5074L9.11197 29.3746L9.34644 28.6152L9.57969 28.3678L9.75616 27.8936L9.81416 27.3231L10.1227 27.1147L10.4349 26.4882L10.2461 26.103L10.3559 26.0408L10.3855 25.4509L10.1807 25.0243L10.393 24.2771L10.2066 23.5981L9.32176 21.3224Z" fill="#792873" stroke="white" stroke-width="1.22175"/>
<path d="M74.1006 71.4553L73.8217 70.3644L73.1614 69.7464L72.268 69.4478L71.2029 69.2893L71.0635 67.8217L71.04 65.9982L71.5312 64.7428L71.414 63.9346L71.1807 63.3666L71.2745 62.1989L71.8817 61.1201L73.1454 59.5026L74.029 58.9688L74.4696 60.1755L75.2026 60.2511L76.0369 60.5887L77.1512 61.3371L78.0879 61.4882H78.6877L79.0246 61.6955L79.6824 62.4268L79.7749 62.9351L79.9551 63.274L80.6906 63.9529L80.9288 64.5672L81.7075 65.0463L81.5471 65.3997L81.6643 65.83L81.8544 65.9995L82.4109 65.6057L82.7195 65.6618L83.803 66.8234L84.1979 67.0099L84.7113 67.4402L84.9198 67.8607L84.8137 68.2264L84.9976 68.7018L85.0334 69.5782L85.3407 69.4795L85.6344 69.0492L86.4686 68.9748L87.567 69.1052L88.2852 68.5068L89.4267 67.89L90.962 67.7754L91.1039 68.4568L91.2803 68.6811L91.774 68.6262L92.4367 67.9327L92.6132 68.007L92.5354 68.3715L92.6564 68.7749V69.3173L92.4811 69.8585L92.6564 70.1767L93.34 70.3705L93.6066 70.1365L94.0546 70.2864L94.4174 69.9841L95.9724 69.7903L97.051 70.3644L97.3731 70.607L97.5631 70.9812L97.6952 71.5406L97.6223 71.7284H97.183L96.9572 71.4504L96.6425 71.4565L96.4475 71.5504L96.1242 72.0209L95.2665 72.528L95.2381 72.7815L95.3837 73.1947L96.3685 74.1357L96.5869 74.527L96.3068 74.5623L96.06 74.4173L95.5046 74.2832L95.3097 73.9724L95.0283 73.8566L94.6124 74.154L94.0583 75.1072L93.8744 75.2181L92.8193 74.9658L92.2466 74.9865L92.0307 75.2888L91.9356 75.7617L91.5815 76.1542L91.6456 77.2829L92.0998 77.9911L92.3059 78.5311L92.5687 78.6993L92.7292 78.6957L94.0583 79.75L94.3792 79.9085L94.7124 79.7342L95.1295 79.3198L95.248 79.3295L96.1291 80.4765L96.1427 80.8227L95.791 81.1213L95.7478 81.381L96.6289 82.7815L97.4841 83.0752L97.6754 83.6262L97.9124 83.898L98.8614 83.9797L99.0008 84.015L99.0736 84.1625L98.9231 84.2917L97.9592 84.2734L97.3731 84.477L97.4323 84.7561L97.3521 85.0182L96.9263 85.7008L96.5993 85.9641L96.3191 86.3919L96.055 86.2066L95.791 84.9243L95.4392 84.7988L95.1912 85.0999L95.3084 85.6862L95.2344 85.8166L94.9999 85.7788L94.6642 85.3997L94.0743 85.1279L93.4375 85.1084L93.2105 85.3644L93.2068 86.0994L93.477 86.86L93.8905 86.9404L94.3076 87.1988L94.7839 86.9977L95.048 87.1586L94.8061 87.5864L94.8173 87.8814L95.3208 88.2227L95.3232 88.653L95.4503 88.9212L95.9403 89.193L96.2229 89.6123L96.1859 89.8829L95.9008 90.0718L95.7971 90.4192L95.9946 90.6557L96.5586 90.7617L96.1723 91.2858L96.1427 91.5089L96.4648 92.9375L95.7181 93.1959L95.6737 93.5859L95.8206 94.104L95.5984 94.3758L95.1764 94.605L95.1616 94.8829L95.206 95.29L95.6157 95.8275L96.1723 96.827L96.4166 97.7997L96.1093 98.0252L95.8193 97.9375L95.7428 97.4158L95.6182 97.2988L94.563 97.467L94.1582 97.3402L93.7979 97.0404L93.6523 97.0221L93.2882 97.1147L92.7736 97.0721L92.5835 97.3122L92.3861 97.3317L90.9138 96.2566L90.5917 96.1274H90.1672L89.8599 96.2383L89.2293 96.8124L88.98 96.7198L88.3062 96.7381L88.2075 97.1342L88.2926 97.5523L88.0729 97.8485L87.8089 97.8302L87.8669 97.1269L87.6916 96.8685H87.5596L87.3547 97.0343L87.193 97.4975V97.8668L87.0474 97.9411L86.6809 97.8668L86.5637 98.1447L86.85 98.6298V98.8882L86.7031 99.0369L86.4538 98.8882L86.3637 98.6615L86.3391 98.5969L86.0441 98.4263H85.7652L85.3999 98.6481L85.1358 99.1661L84.8433 99.0187L84.8569 98.5555L84.6521 98.408L84.3571 99.2612L83.9054 99.2222L84.0523 97.3158L83.8906 96.7052L83.4809 96.1128L83.2316 95.3168L82.9243 93.8895L82.8244 92.9399L82.854 92.3085L82.1037 91.693L82.0012 91.3773L82.0308 89.9121L81.8408 89.5782L81.0633 89.2247L80.5401 88.8054L80.4747 88.4385L80.5586 87.5998L79.965 86.81L80.1106 85.9397L79.6824 85.5106V84.8256L79.5799 84.3892L79.5479 83.0606L79.6824 82.701L79.907 82.6157L79.965 82.0197L79.9218 81.5175L79.7206 81.1945L78.6988 80.9519L77.9954 80.4485L77.6881 80.095L77.1747 79.9646L76.2812 79.2564L75.7394 78.959L75.5457 78.7103L74.1018 78.5299L73.9068 78.4629L73.4737 78.0033L73.3589 77.6986L73.3984 77.1269L73.7871 76.3712L74.8176 74.9487V74.5197L74.651 73.9931L74.3289 73.6567L74.2302 73.3629L74.3264 72.1001L74.1006 71.4553Z" fill="#792873" stroke="white" stroke-width="1.22175"/>
<path d="M60.0397 26.7012L58.1837 24.9777L57.2198 24.523L56.3436 24.2573L55.381 24.1062L54.5048 24.2195L53.7113 24.4597L53.2769 24.4536L52.149 24.9862L50.2201 27.0048L49.239 27.0986L48.754 27.2851L48.0074 27.1717L46.8843 26.3794L46.2352 26.1076L45.9859 26.2783L45.6021 26.7805L44.9283 27.251L44.5791 27.6666L43.5856 27.7434L43.208 27.6447L42.628 27.5033L42.5453 27.546L42.3688 27.3607L42.3367 27.0755L42.4897 26.9036L42.7489 26.0711L42.6773 25.8297L42.8081 25.5152L42.2725 24.9777L41.8838 24.278L41.8295 23.9355L42.4009 23.3504L42.3342 23.1798L41.5987 22.8946L41.4556 22.7227L41.5432 21.995L42.0492 21.1381L43.4992 20.3434L43.7732 20.0582L44.2792 19.7729L44.5642 19.4158L44.7296 18.3005L45.2899 16.7707L45.8934 16.3843L46.0587 16.0126V15.6115L45.6959 15.0533L45.3775 14.9107L43.5868 14.5145L42.8834 14.0562L42.7082 13.3115L42.7193 12.8531L42.8834 12.2656L43.2907 11.7927L43.8065 11.5782L44.4655 11.5355L45.0036 11.3063L45.5429 11.2198L46.6955 10.603L46.9818 10.3166L47.1237 10.0301L47.3113 9.28416L47.2225 9.01112L46.7622 8.59547L46.366 8.29684L45.9921 8.23955L45.575 7.80927L44.8715 7.43506L44.2718 6.74272L44.9147 6.13204L45.2356 6.09304L45.8193 5.8261L46.5499 5.02405L46.6363 4.64253L46.403 4.26101L46.0822 4.03185L45.5861 3.84048L45.3232 3.53453L45.2652 3.1201L45.2467 2.80318L45.4454 2.58134L45.7391 2.75686L45.9834 3.15058L46.6289 3.32001L47.2521 3.32488L47.4273 3.20177L47.7963 2.58134L49.0761 1.6123L49.3155 1.7732L49.5635 2.64594L50.2522 3.56257L50.2793 3.85754L50.03 4.73639L49.4574 5.15935L49.4957 5.44823L49.7227 5.54331L50.1041 5.44823L50.4484 5.83097L50.7705 6.00406L51.0198 6.3673L51.3641 6.35754L51.5689 6.17592L51.717 5.78709L52.1403 5.68714L52.3674 5.43848L52.5204 5.40923L52.9672 5.73589L53.7459 6.77197L54.6332 6.91581L54.8812 7.17422L54.9553 7.75807L54.7726 7.88728L54.395 8.41995L53.0301 8.91726L51.5171 9.09767L51.1469 9.36461L50.8618 9.82657L50.6026 10.6981L50.3003 11.1357L50.436 11.6074L50.71 11.8073L51.1012 11.7805L51.6886 11.3636L51.9873 11.3539L52.2539 11.4709L52.4748 11.3868L52.5821 10.5726L52.4488 10.1252L52.6315 9.89971L52.8647 9.87533L53.5336 10.2386L53.6583 10.4482L53.6805 10.6786L53.5126 11.204L53.5928 11.4904L54.1433 11.4258L55.0293 11.7512L55.4242 12.4582L55.9623 13.0335L56.5004 12.8495L56.8817 12.1998L57.3457 12.0974L57.5444 12.2571L57.7567 12.9641L58.1294 13.4407L59.0537 13.3846L59.6609 13.604L59.8373 13.537L60.0521 13.2078L61.2886 12.5691L62.0167 12.4802L62.1636 12.5399L62.3117 12.7861L62.1735 13.0726L61.902 13.4163L61.1702 13.9599L61.1911 14.1988L61.5206 14.8485L61.9563 14.9948L62.5388 14.7315L62.7239 14.7473L63.2002 15.1959L63.5433 15.72L63.5075 15.9492L63.3681 16.1308L63.4705 16.388L64.1961 16.4831L64.4158 16.6257L64.8181 17.151L65.3525 17.4277L65.6968 17.4363L65.8795 17.5508L65.9387 17.9324L66.1139 18.1237L66.5459 17.808H66.7729L67.0074 17.9324L67.1666 18.1481L67.4912 19.1098L67.5134 19.6254L67.3159 19.9302L67.1395 20.4726L66.3484 21.1869L65.777 21.9572L65.682 22.3095L65.4265 22.5764L64.269 22.6995L63.4631 23.4236L62.5696 23.5126L61.9402 23.7222L60.9739 24.3109L60.7247 24.6535L60.7098 24.9582L60.8419 25.4141L60.637 25.6237L60.4902 25.5664L60.3877 25.3385L60.0508 25.3763L60.0397 26.7012Z" fill="#792873" stroke="white" stroke-width="1.22175"/>
<path d="M51.7227 61.8455L51.5129 61.7065L50.9575 61.6687L51.055 60.7984L51.2364 60.2377L51.6375 59.5856L52.6211 58.9323L52.5742 58.8506L52.7667 58.8384L53.3122 58.5118L54.587 57.1112L56.1888 55.896L59.1025 54.8684L62.6345 54.6819L64.1635 54.3077L64.8916 53.747L65.1101 53.0449L66.0936 53.0912L66.5663 53.3253L66.7132 53.5276L67.4524 53.5264L67.6424 54.2882L67.8485 54.4016L69.2097 54.3455L69.5466 54.4954L70.5573 54.6088L71.246 55.0976L71.436 55.3414L72.5788 55.4169L72.9157 55.473L73.1057 55.6046L73.355 55.8679L73.5327 56.3823V56.5335L73.239 56.7955L73.1662 57.0027L73.2835 57.3221L73.84 58.1863L74.0288 58.9688L73.1452 59.5027L71.8815 61.1202L71.2744 62.199L71.1806 63.3667L71.4138 63.9347L71.531 64.7429L71.0399 65.9983L71.0633 67.8218L71.2028 69.2894L70.724 69.0359L70.4524 69.0091L70.0378 69.3418L69.7897 69.6697L69.0147 69.8404L68.2681 70.4206L67.1253 70.2524L66.8773 70.4206L66.4811 71.13L66.0714 71.3542L65.7197 71.336L65.4556 71.5602L65.3643 71.9015L64.3289 72.6061L63.9624 72.9242L63.8994 73.1168L62.9652 73.0461L62.5135 72.1453L62.2383 71.8857L61.5633 71.9064L61.103 71.5602L60.0046 71.5968L59.7122 71.4298L58.8471 70.6448L58.251 69.2528L57.7105 68.8591L56.8417 68.7433L56.5689 68.8896L56.1345 69.4125L55.8655 69.9269L55.4977 69.9671L54.6006 69.56L54.6117 67.8072L54.8338 67.3343L54.5413 67.0722L54.5265 66.5859L54.8375 66.2263L54.6302 65.5912L54.1748 65.267L53.7404 64.6368L53.4356 63.8067L52.8444 62.8791L51.9979 62.2246L51.7227 61.8455Z" fill="#792873" stroke="white" stroke-width="1.22175"/>
</svg>
