<svg width="100" height="66" viewBox="0 0 100 66" fill="none" xmlns="http://www.w3.org/2000/svg">
<path d="M18.6406 47.1403L19.0638 46.983L19.5685 47.1034L19.9837 46.7775L20.1897 46.4211L20.4181 45.1577L20.6066 44.9153L20.9882 44.9009L21.1991 45.0454L21.6558 44.9153L21.9624 45.5302L22.5022 45.7758L22.7466 45.7886L22.9063 45.6586L22.6939 45.2733L22.7785 45.0598H23.2129L23.0532 45.4467L23.0963 45.8593L23.4493 46.0728L23.403 46.6539L23.6729 47.4662L23.617 47.8997L23.9939 48.195L23.9843 48.2946L23.3646 48.5691L22.852 49.0989L22.7961 49.3059L23.1906 52.0671L23.5659 52.491L24.5273 52.8313L26.177 53.9004L27.3764 55.1221L28.3059 55.8558L28.4751 56.2202L27.9689 56.9346L28.0248 57.4611L27.6319 58.4339L27.6527 58.8947L27.6255 59.7006L27.8188 60.1083L27.4482 60.4037L27.0761 60.3764L26.9452 60.0987L26.2489 60.7119L25.7921 60.4615L25.5957 59.9943L25.3194 59.8258L25.2156 60.2929L24.9792 60.4567L24.7844 60.386L24.4362 60.4743L24.3388 60.6702L23.5483 60.7408L23.3726 61.1887L23.0117 61.5901L22.9095 61.4632L22.4463 61.3509L21.8922 61.4231L21.5776 61.3011L21.1847 61.6173L21.1176 61.9513L20.6688 62.0203L20.3782 61.9818L20.0923 61.7153L19.626 61.7811L19.2746 61.4183L18.6326 61.5403L17.8836 61.3862L17.6233 61.5307L17.3566 61.4809L16.3936 62.2482L16.0758 61.5178L15.4689 61.5066L15.0712 61.8822L14.6768 62.0331L14.5857 62.2017L14.6544 62.5918L14.2759 63.0991L13.2171 63.3367L12.3723 63.3158L11.4875 62.892L11.1585 63.0012L10.1109 62.8005L10.0502 62.7491L10.2402 62.5308L10.5085 62.465L10.4542 61.9143L10.5373 61.6382L10.3105 61.1438L10.7273 60.5466L10.5069 60.1822L10.55 59.9542L10.451 59.9077L10.4111 59.5368L10.574 59.341L10.59 59.0873L10.4095 58.6796L10.59 58.5094L10.6331 58.1354L10.5165 57.7693L10.3121 57.596L10.3456 56.949L10.245 56.6424L10.4111 56.3582L10.812 56.3293L10.7672 56.1576L10.9461 55.8076L11.5785 55.0033L11.5482 54.6116L11.208 53.8298L10.4989 53.6805L10.5133 53.3899L10.1332 52.7751L10.0661 52.1442L9.74354 51.5358L9.53113 51.5181L9.41295 50.701L9.09993 50.2772L9.14944 49.436L9.12229 49.009L8.97217 48.8581L9.01209 48.6269L9.63813 48.3235L9.97191 46.7807L10.2722 46.5608L10.4271 46.7358L10.6682 47.5224L11.2671 47.4951L11.6264 47.9671L13.1388 47.585L13.9102 46.8755L14.105 46.8305L16.0678 47.4903L16.6044 47.5336L17.0899 47.8852L18.1567 47.5946L18.6406 47.1403Z" fill="#35A42B" stroke="white" stroke-width="1.22173"/>
<path d="M75.1916 29.1352L76.1467 28.6006L77.7277 28.7547L78.2148 28.9457L79.2194 29.8174L80.029 30.3488L80.9186 30.238L81.2939 30.4949L81.9982 30.0149L83.5904 30.2669L84.3378 30.2236L84.7004 30.3504L84.5966 30.633L84.6557 30.7726L85.4446 31.2382L86.0994 31.4019L86.7941 31.1547L87.3626 31.1884L87.6437 32.577L87.4632 33.0362L87.6565 33.7891L87.6038 34.1085L84.9415 33.9464L84.7499 34.2257L84.686 34.6543L84.8952 34.9305L85.1619 34.9915L84.8265 35.0172L84.6908 35.2852L84.3985 35.1616L84.1606 35.4699L83.7054 35.4217L83.4866 35.754L83.477 36.7076L83.739 37.2068L83.6288 37.239L83.2119 36.9869L82.9516 37.1298L82.6913 37.0094L82.3112 37.2919L81.979 37.1153L81.674 37.1924L81.2396 37.7832L81.1262 38.703L80.9841 38.5842L80.9314 38.6436L80.8355 38.5987L80.7381 38.7159L80.711 38.6244L80.5848 38.7817L80.572 39.1589L80.8387 39.4286L80.8435 39.5876L80.7333 39.6823L80.8867 39.9391L81.0352 39.7802L80.8994 39.5956L81.0575 39.1734L81.6277 39.8653L81.864 39.6759L82.003 39.2729L82.3495 39.488L82.6274 39.5089L82.5891 39.3484L82.7248 39.1429L83.1001 39.5346L83.3557 39.4768L83.3828 39.228L83.5345 39.464L83.7565 39.4126L83.7006 39.655L83.7948 39.7256L83.6639 39.9953L83.8955 40.2458L84.135 40.2939L84.3762 40.0949L84.4273 39.9536L84.4991 39.9199L84.4608 40.0579L84.5742 40.0708L84.5982 40.2811L84.9798 40.265L84.908 40.4914L84.6525 40.5428L84.6684 40.8189L84.8936 40.9505L84.6876 41.0902L84.7115 41.2748L85.1124 41.9908L85.3823 42.0293L85.4334 41.8832L85.8598 41.8431L85.7991 42.1032L85.657 42.1674L85.9924 42.4547L85.6139 42.6008L85.6602 42.7132L85.3887 42.8801L85.3855 43.0953L85.5516 43.3425L85.3536 43.4003L85.3552 43.7053L85.7081 43.8305L85.847 43.983L85.7512 43.9959L85.748 44.1837L86.3613 44.577L86.5449 44.866L86.7015 44.8788L86.7637 45.1469L87.0081 45.2978L86.917 45.4583L87.0592 45.476L87.139 45.6285L87.246 45.5739L87.2876 45.8195L87.5846 45.9576L87.829 46.2931L87.8785 46.6238L88.0829 46.8004L88.3831 46.7715L88.6514 47.2146L88.7297 47.6496L88.7361 47.51L89.0842 47.6641L89.006 47.8246L89.418 48.3576L89.3621 48.4667L89.7103 48.9837L89.7614 49.2871L89.3557 49.4043L88.8702 49.1683L88.6035 49.4396L88.5412 49.3304L88.3145 49.4267L88.2011 49.2726L88.1372 49.4348L88.0254 49.324L87.8561 49.5343L87.6804 49.3449L87.6661 49.1169L87.3307 49.0623L87.0464 48.8328L87.0799 49.0463L86.9841 49.1362L86.9123 48.9002L86.8116 49.1586L86.596 48.9981L86.4092 49.2453L86.4076 49.4492L86.5178 49.5054L86.4332 49.7221L86.628 49.751L86.6663 50.0544L86.3437 49.926L86.3421 50.1748L86.1585 49.9501L86.0115 50.0576L85.9652 49.9228L85.7752 49.9501L85.8854 49.7141L85.748 49.6804L85.6762 49.8168L85.5899 49.6403L85.2258 49.6322L85.3136 49.5455L85.1411 49.3882L85.0693 49.5166L84.5327 49.4235L84.6077 49.5696L84.3283 49.56L84.1206 49.8923L84.0791 49.7639L83.9194 49.8811L83.8651 49.7574L83.6559 49.8939L83.5952 49.8008L83.5313 49.8875L83.3477 49.812L83.4643 49.9886L83.2359 50.1989L83.1289 50.2278L83.089 50.0512L82.8366 50.3916L82.8191 50.2776L82.6083 50.2663L82.4917 50.5505L82.637 50.6324L82.4262 50.7271L82.5779 50.9181L82.3974 50.9566L82.0732 50.703L81.5893 49.804L81.4664 49.9405L80.9569 49.8104L80.901 49.6146L80.6168 49.6194L80.358 49.1314L80.1201 49.1394L80.0163 48.9211L79.7448 48.8392L79.3343 47.7684L78.8377 47.7026L78.6812 47.2595L78.5454 47.2932L78.4528 47.1295L78.2691 47.115L78.1637 46.9015L77.8986 46.9096L77.8124 46.7699L77.4914 46.855L77.3428 46.7362L77.0602 46.8758L76.9643 47.1648L76.696 47.2788L76.7439 47.6898L76.506 47.6223L76.4309 47.4698L76.2329 47.5758L75.9965 47.4297L75.658 47.5324L75.2986 47.1295L74.6582 46.9834L74.1823 47.1985L73.8278 46.7201L73.0101 46.2385L72.5789 45.6558L72.5246 45.3154L72.9702 44.7873L72.9446 44.5288L72.5741 43.7904L72.5789 43.5255L72.828 42.9797L72.4288 42.6795L72.1397 42.0486L71.5744 41.5621L71.4194 40.8815L71.6239 40.6375L72.7737 40.44L73.0676 40.074L73.0788 39.6759L72.9446 39.5394L72.2691 39.7288L71.9528 39.5876L71.7388 38.9631L71.3332 38.4735L71.0777 37.7671L70.5443 37.0913L69.9278 35.6561L69.3385 35.1119L68.615 34.1551L68.6741 33.5739L68.2094 32.6878L67.9906 32.4807L67.355 32.4085L66.919 31.8707L66.9142 31.3955L67.0947 30.9187L66.7785 29.7869L66.8487 29.3728L66.3521 29.3647L66.6204 29.2315L67.3502 29.3262L67.4524 29.4418L67.2847 29.7404L67.4316 29.9587L68.6454 29.9475L69.6547 29.2299L70.4452 29.27L70.9371 29.1721L71.5616 29.4354L72.4479 29.2604L72.6444 29.3118L72.9318 29.7757L73.2528 29.8672L74.4091 29.2427L75.1916 29.1352Z" fill="#35A42B" stroke="white" stroke-width="1.22173"/>
<path d="M80.2234 15.0352L80.6754 15.3273L81.1305 15.9261L81.2631 16.8396L81.394 16.9808L81.7773 16.9712L82.7036 16.2135L83.0358 16.1701L83.3296 16.435L83.3344 17.2586L84.1601 17.676L85.0065 17.6358L85.3323 18.286L85.6853 18.5717L86.9629 20.1771L87.1657 20.1016L87.8796 19.2652L88.5376 19.299L88.7739 19.3953L89.2786 19.9459L89.7066 20.7598L90.0659 21.0616L89.7785 22.0505L89.285 22.972L88.3092 23.1678L88.0249 23.3541L87.985 23.6751L87.9498 23.5066L87.7231 23.5258L87.9051 23.5933L87.7742 23.7281L87.8764 23.9817L88.3395 24.0139L88.3699 24.1038L87.8413 26.3753L87.4691 26.8794L87.4707 27.6853L87.7247 29.2088L87.5745 29.4977L87.6704 30.7964L87.4659 30.8607L87.3653 31.1849L86.7968 31.1512L86.1021 31.3984L85.4473 31.2347L84.6584 30.7692L84.5977 30.6295L84.7015 30.3486L84.339 30.2217L83.5915 30.2651L81.9993 30.013L81.2934 30.493L80.9197 30.2378L80.0302 30.3486L79.2205 29.8156L78.2143 28.9439L77.7272 28.7544L76.1462 28.6003L75.1911 29.1349L75.2359 28.5072L74.966 28.3563L74.8701 27.9261L74.4038 27.7479L74.4326 27.6114L74.6274 27.5231L74.8606 27.2037H75.4147L75.8316 26.9789L77.0229 26.7397L76.7738 25.9098V25.3351L76.3793 24.9016L76.539 24.29L77.9732 23.4391L77.6777 22.7858L77.6458 22.1597L77.4701 21.768L77.4078 21.1917L77.4797 21.0006L77.9189 21.1419L78.2255 20.8658L78.168 20.0968L78.0227 19.6618L78.0642 19.1272L78.8771 17.8879L78.8036 17.6037L78.5034 17.5379L78.81 16.9664V16.7304L78.3868 16.541L78.3884 15.9727L78.5018 15.8459L78.9394 15.8089L79.9104 15.4847L80.1084 15.3466L80.2234 15.0352Z" fill="#35A42B" stroke="white" stroke-width="1.22173"/>
<path d="M48.2994 14.4061L49.2656 14.1926L49.6377 14.5008L49.8693 14.4928L50.0418 14.3097L50.0977 14.6934L49.823 15.061L49.791 15.3083L50.3724 16.7852L50.6758 16.9843L50.7764 17.2989L51.0527 17.3872L51.1964 17.5702L51.2108 17.9523L50.9633 18.5735L52.5347 19.4372L53.0139 19.0503L53.2502 19.0263L53.8858 19.6122L54.4224 19.8658L55.1491 19.8273L56.0658 20.1901L56.7988 19.8915L57.0991 20.6075L57.8944 20.7873L58.9548 21.8083L58.8031 22.2739L59.1736 22.5789L59.2135 22.8004L59.5841 23.1809L59.6511 23.396L59.6431 23.6721L59.1465 24.0205L59.0443 24.5888L58.8398 25.0078L58.7807 26.0834L58.9101 26.634L59.0139 26.8668L59.5936 27.3612L59.5218 27.5956L59.0842 27.8252L58.9995 28.135L60.7802 28.7627L60.3586 29.408L58.53 30.3841L58.4502 30.5494L58.6306 30.8801L58.5795 31.2831L57.4903 32.1532L57.2556 32.166L56.5944 31.9172L55.6633 32.1483L54.8249 31.9926L54.3905 32.0376L53.7661 31.9236L52.7599 32.2976L52.2664 32.6235L51.7985 32.2511L51.7059 31.7085L51.444 31.2558L51.6436 30.9716L52.0636 30.6843L52.1179 30.3552L51.7937 30.1946L51.7825 29.6119L51.107 29.5252L50.7876 29.1817L50.802 28.4223L51.444 27.8043L51.4695 27.5795L51.3418 27.35L50.7077 27.1814L50.2877 26.825L49.9444 26.8941L49.288 26.6083L48.7626 26.7223L48.3713 26.3836L47.2502 26.4397L47.1288 26.1139L47.3444 25.4348L47.1799 25.2309L46.7471 25.2357L45.947 25.6034L44.952 25.3449L44.4713 24.714L43.9746 24.3753L43.8916 23.7492L44.2334 23.7973L44.4378 23.6529L44.4554 23.0364L44.9057 22.3638L44.944 21.8083L46.0923 20.6332L46.26 20.0681L46.1338 19.7294L45.5126 19.6074L45.5493 19.251L45.7665 18.7871L45.6835 18.543L44.5783 18.6634L44.4266 18.588L44.3723 18.3295L44.548 18.0374L45.4216 17.7436L45.5956 17.5541L45.808 16.2137L45.42 15.5667L45.6404 15.1333L45.6899 14.5425L45.5014 13.8956L45.6851 13.5841L46.4181 13.125L47.7069 14.2295L48.2994 14.4061Z" fill="#35A42B" stroke="white" stroke-width="1.22173"/>
<path d="M6.03225 1.4845L6.2782 1.67232L7.07192 1.79433L8.03972 2.7158L8.97559 3.1958L9.80604 3.84115L11.4494 4.13653L11.6842 4.34522L11.7512 4.96168L11.2114 5.87672L9.97213 6.08542L9.57288 6.24916L9.19757 6.60074L8.56515 8.69732L8.8063 9.44701L9.13689 9.75524L10.2053 10.041L10.5662 10.2625L11.8982 10.59L11.7672 10.8677L11.6091 10.9432L10.3283 11.1102L10.2963 11.4441L10.3874 11.5661L11.7401 12.0878L11.8694 12.2596L11.9189 12.6433L11.7672 12.8311L11.0421 12.9627L9.87791 13.5647L9.58565 13.9709L9.22632 15.276L8.66097 15.8459L8.17867 16.9841L7.61811 17.2586L7.48715 17.4384L7.41369 18.4305L7.0831 19.0823L6.83396 19.2765L6.04183 19.2316L5.8965 19.0823L5.7368 18.5285L4.78976 18.3358L4.43841 17.7611L4.05193 17.7547L3.78842 17.5893L3.05698 15.5843L3.13204 14.7736L2.91165 14.3176L3.09371 13.942L2.89408 13.5728L2.46608 13.4283L2.04925 13.0879L1.78893 12.693L1.71228 12.1841L1.58132 11.9883L1.68193 11.3574L1.33697 11.0154L1 10.2144L1.44717 8.95096L1.57174 8.10173L1.4823 7.71966L1.78574 7.43391L1.79053 6.49478L1.90392 6.28448L1.81928 6.02763L2.2904 5.89278L2.36067 5.74669L3.68781 5.67285L3.91618 5.37425L3.75808 4.99539L4.20046 4.86375L4.47195 4.93599L4.5534 4.74817L5.12673 4.7289L5.17145 4.52342L5.04049 4.40623L5.11556 3.99686L4.96384 3.77372L5.10917 2.87312L5.24172 2.91968L5.24332 2.66764L5.01175 2.50068L5.11556 2.30804L5.20978 2.37065L5.35192 2.28396L5.22894 2.09613L5.42378 2.05921L5.36469 1.96289L5.51801 1.76864L5.49565 1.55834L5.63938 1.64343L5.81346 1.43152L5.89171 1.6049L5.9524 1.39941L6.03225 1.4845Z" fill="#35A42B" stroke="white" stroke-width="1.22173"/>
<path d="M25.5065 11.6634L26.2603 11.7083L27.5891 12.2397L28.0761 12.6266L29.4001 13.0359L31.4395 12.6956L32.0703 12.702L31.7334 14.2319L31.4682 14.0618L31.4092 14.386L31.1201 13.9751L30.8422 13.9927L29.9319 15.1566L29.4161 14.9479L29.1973 15.0763L29.456 15.9513L29.4799 17.1521L30.5899 17.624L30.3934 17.9772L30.3312 18.7221L30.1028 18.7718L29.8361 18.6723L28.6798 18.9308L28.5409 19.0512L28.5776 19.2567L28.3908 19.7704L26.6404 19.9261L26.2635 20.2054L25.9729 22.6536L26.1821 22.9586L26.3034 22.9763L26.9486 22.774L27.268 23.1577L27.4214 25.182L26.5542 25.1804L26.5701 26.2496L26.5861 26.7199L26.4136 26.8933L25.6471 26.5016L24.1171 26.4599L23.7099 26.1564L23.0998 26.2865L22.2166 26.8451H22.0058L21.4117 26.4599L19.8498 27.8437L19.4266 27.5659L18.4844 26.1211L18.3486 25.2992L18.9507 24.4484L18.9219 24.2381L18.5387 24.0968L17.5437 24.0069L17.3744 23.6377L17.3696 23.1625L17.5932 22.8864L18.1841 22.8944L18.2799 22.6793L18.2224 22.3373L17.6922 21.9793L16.6031 21.7514L16.2262 21.464L16.2134 21.2344L17.0614 20.3724L17.6715 19.1844L17.5772 18.0896L18.1953 17.083L18.4907 16.9401L18.9443 17.1216L19.8195 17.2179L20.2491 16.5468H20.9869L20.8815 16.0155L20.2315 15.4729L20.1165 15.2449L20.2203 14.9158L20.717 14.3957L21.1322 13.402L21.1833 12.1289L20.9438 11.36L21.022 10.644L21.8349 10.424L22.469 10.4048L22.8203 10.5252L23.0247 10.8302L23.753 11.0582L24.3311 11.3873L25.5065 11.6634Z" fill="#35A42B" stroke="white" stroke-width="1.22173"/>
<path d="M43.8911 23.7488L43.9741 24.3748L44.4708 24.7136L44.9515 25.3445L45.9465 25.6029L46.7466 25.2353L47.1794 25.2305L47.3439 25.4344L47.1283 26.1134L47.2497 26.4393L48.3708 26.3831L48.7621 26.7219L49.2875 26.6079L49.9439 26.8936L50.2872 26.8246L50.7072 27.181L51.3413 27.3495L51.469 27.5791L51.4435 27.8039L50.8015 28.4219L50.7871 29.1812L51.1065 29.5248L51.782 29.6115L51.7932 30.1942L52.1174 30.3548L52.0631 30.6838L51.6431 30.9712L51.4435 31.2554L51.7054 31.7081L51.798 32.2507L52.2659 32.6231L52.2356 32.8896L51.8635 33.0437L51.3477 32.5942L50.8829 32.949L50.5907 32.9779L50.0237 32.8495L49.5638 32.3807L49.0623 32.3422L49.131 32.9233L48.9457 33.0887L47.042 32.5589L46.4511 32.6488L45.4546 32.0436L45.001 32.3951L44.4389 32.4385L43.7649 32.8414L42.6167 32.6953L42.6997 32.0388L42.2478 31.143L41.5259 30.1701L40.9238 30.0064L40.737 29.7865L40.4639 28.8521V28.2245L40.6507 27.6144L40.9318 27.2099L41.6457 26.9562L41.6377 26.4152L41.478 26.0251L41.4892 25.3958L41.6537 25.0266L42.0976 24.72L42.0529 23.2832L42.9616 23.6139L43.8911 23.7488Z" fill="#35A42B" stroke="white" stroke-width="1.22173"/>
<path d="M88.4233 7.00471L89.1068 9.52189L90.9498 10.4851L92.8982 11.3616L94.6278 11.4933L96.1801 11.8994L98.2578 11.787L98.1716 12.1113L98.2482 12.5191L98.0231 12.8803L98.1029 13.6059L98.2626 13.9478L98.1013 14.7666L98.7385 16.054L98.5549 16.6721L97.8921 18.0431L97.2357 18.7944L96.9834 18.8746L96.565 19.4654L96.4995 19.9374L96.2072 19.4799L95.677 19.3354L95.2474 18.9854L94.4425 18.7318L93.513 18.7944L93.0898 19.0191L92.3089 19.1347L91.6381 18.9613L90.6176 19.6484L90.0666 21.0611L89.7073 20.7593L89.2793 19.9454L88.7746 19.3948L88.5383 19.2984L87.8803 19.2647L87.1664 20.1011L86.9636 20.1766L85.686 18.5712L85.333 18.2855L85.0072 17.6353L84.1608 17.6754L83.3351 17.2581L83.3303 16.4345L83.0365 16.1696L82.7043 16.213L81.778 16.9707L81.3947 16.9803L81.2638 16.8391L81.1312 15.9256L80.6761 15.3268L80.2241 15.0346L79.8105 14.2721L79.6332 14.2817L78.7005 14.9223L78.461 14.8292L77.7807 13.8772L77.0588 13.7761L76.6611 13.3009L76.9071 13.264L76.9662 13.1275L76.9726 12.906L76.7617 12.4773L76.7953 12.145L77.9068 10.8688L78.8171 10.6761L80.3678 9.20724L80.5579 9.16871L80.8821 9.53955L81.1999 9.48015L81.6854 8.8942L81.9952 8.10597L82.3881 8.52979L82.8752 8.59079L82.8768 8.1445L83.4725 7.28564L83.8158 7.01273L84.584 6.74625L84.6862 7.0015L85.0727 7.11869L86.7736 6.84096L87.909 5.93555L88.3323 6.4621L88.4233 7.00471Z" fill="#35A42B" stroke="white" stroke-width="1.22173"/>
<path d="M46.7665 50.2529L46.5557 50.9641L47.0523 52.9387L47.3574 52.5903L47.5841 52.5036L47.7327 52.1633L47.9339 52.1119L48.3092 53.0173L48.9384 53.2597L49.4878 53.6868L50.8421 54.1058L51.5943 53.7815L51.7875 53.8248L52.1405 54.2711L52.2842 55.2215L52.6148 55.8861L52.5525 56.334L52.3944 56.6117L52.5573 57.0259L52.939 56.7803L53.5363 57.0468L53.9739 56.753L54.1016 56.387L54.4147 56.2489L55.3473 56.3741L55.6108 57.2314L55.2243 57.432L54.9417 57.7563L54.6334 58.7902L54.6526 59.1578L54.9928 59.3087L55.2611 59.7245L55.4815 59.8304L55.3489 60.3618L55.3777 60.9108L56.7288 62.2047L56.8917 62.4889L56.9667 63.1647L56.5163 63.42L56.1395 63.4842L55.9191 63.3092L55.9494 62.9978L55.6699 63.0106L55.202 62.6109L55.0918 62.8164L54.6686 62.9031L54.4929 63.1423L54.2262 63.0748L53.9819 63.2627L53.581 63.2177L53.3766 63.7635L53.0125 63.4489L52.6052 63.2948L51.9041 63.5002L51.088 63.2257L50.8229 63.4168L50.6121 64.0573L50.1713 63.8679L49.7465 63.8374L49.0582 64.1087L48.9959 64.3093L48.8011 64.282L48.3092 64.4779L48.0521 64.4121L47.5554 64.7958L46.9789 64.7091L46.7776 64.929L46.4534 64.7315L45.952 64.6754L45.7795 63.9915L45.5304 63.7491L45.1838 63.6174L45.1311 63.3943L44.965 63.3124L45.0161 62.9448L44.6919 62.7746L44.6552 62.179L44.5035 61.8516L45.1023 61.0778L45.0337 60.9188L44.727 60.9622L44.62 60.8691L44.8293 60.129L44.7175 59.7341L44.5673 59.519L44.1218 59.3183L43.237 59.7453L42.4305 59.4435L42.389 58.8897L42.1351 58.1368L42.1079 57.827L42.2676 57.6199L43.4111 57.1993L43.7465 56.806L43.7034 55.8235L43.9094 55.0577L43.566 54.1138L43.4478 53.6129L43.5117 53.4219L43.8631 53.2501L44.1505 52.8279L44.4348 52.6738L44.7063 51.953L45.2844 51.1359L46.7665 50.2529Z" fill="#35A42B" stroke="white" stroke-width="1.22173"/>
<path d="M2.83686 34.5615L3.11953 34.6932L3.47727 35.0993L4.06657 35.2213L4.4259 35.4156L4.6415 36.268L5.00243 36.939L5.89677 37.4158L5.96385 38.4304L6.6362 39.4964L6.83423 40.23L6.99713 40.3327L7.74454 40.3937L8.08151 40.901H8.53667L8.60534 41.3345L8.75546 41.3955L9.08285 41.0616L9.29207 41.1129L9.55398 41.4581H9.74722L9.94845 40.8705L10.4803 40.6875L10.6448 40.3536L10.83 40.2412L11.1446 40.3135L11.3091 40.6169L11.9128 40.9299L12.4111 40.8448L12.7752 40.2428L12.903 40.2172L13.0722 40.9187L13.6184 41.1483L13.9826 41.442L14.4792 41.5127L14.9551 41.1499L15.3784 41.3329L15.9309 41.3008L16.2998 41.4115L16.6672 42.5481L17.7132 43.4006V43.6189L16.9307 43.9111L16.5346 44.863L16.5761 44.9947L16.8349 45.1167L17.8857 44.7683L18.1588 45.6721L19.2943 46.1618L19.2607 46.547L18.9557 46.6578L18.6411 47.141L18.1572 47.5953L17.0904 47.8859L16.6049 47.5343L16.0683 47.491L14.1055 46.8312L13.9107 46.8761L13.1393 47.5857L11.6269 47.9678L11.2676 47.4958L10.6687 47.5231L10.4276 46.7365L10.2726 46.5615L9.9724 46.7814L9.63862 48.3242L9.01258 48.6276L8.95509 48.4799L8.75227 48.4028L8.32586 48.4735L7.93459 47.9806L7.57366 48.1395L6.91408 47.9662L6.60106 47.5247L5.98301 47.5745L5.23081 46.9403L4.806 46.8633L4.63512 46.6225L4.29335 46.4748L3.98672 46.1104L3.7264 46.0141L3.44373 45.7315L3.27923 44.8566L2.78096 44.6832L2.44878 43.8115L2.20443 43.5049H2.0591L1.71095 43.0137L1.6822 42.7969L1.34363 42.4165L1.07373 42.3169L1.14081 42.1371L1.66144 42.0553L1.76045 41.9333L2.06709 41.9365L2.19485 42.1018L2.49828 41.8899L2.64521 41.6443L2.5989 41.3072L2.92469 40.9091L2.89595 40.6169L3.53955 40.5077L3.58107 40.1851L3.76952 39.9924L3.90847 39.1464L4.14004 38.7852L3.94839 38.1864L3.56351 37.7915L3.1914 37.5972L2.7602 37.061L2.26831 36.9439L2.29227 36.4928L2.7027 35.4059L2.53342 35.2406L2.84963 34.7798L2.83686 34.5615Z" fill="#35A42B" stroke="white" stroke-width="1.22173"/>
<path d="M27.2676 23.1586L27.5071 23.0398L28.3855 22.9467L28.895 22.547L29.4236 22.3993L30.4393 22.6658L31.4135 22.5663L32.0651 22.2548L32.3525 22.2741L32.8907 21.6962L33.0728 22.0413L33.5232 22.1408L34.0662 22.669L36.8578 23.0286L36.976 22.783L36.9472 22.0638L37.035 21.8872L37.5397 22.4443L37.9262 21.7363L38.648 21.152L39.2805 20.8807L40.0119 20.9192L40.4303 21.2146L41.1746 21.4811L41.6281 21.2114H41.9811L42.5688 20.635L42.9664 19.7505L43.2076 19.8324L43.5222 20.8373L43.7011 21.0717L44.5571 21.465L44.9436 21.8085L44.9052 22.364L44.4549 23.0366L44.4373 23.6531L44.2329 23.7976L43.8911 23.7494L42.9616 23.6146L42.0529 23.2839L42.0976 24.7206L41.6537 25.0273L41.4892 25.3965L41.478 26.0258L41.6377 26.4159L41.6457 26.9569L40.9318 27.2105L40.6507 27.6151L40.4639 28.2251V28.8528L40.737 29.7871L40.9238 30.007L41.5259 30.1708L42.2478 31.1436L42.6997 32.0394L42.6167 32.696L41.0676 33.3815L40.7178 33.3719L40.0774 33.0829L38.6113 33.3269L38.1881 33.2033L37.8192 32.5018L37.1452 31.9688L35.1058 31.7264L34.5149 32.4584L33.0329 32.4857L31.4534 32.0282L30.591 32.0972L29.4779 31.8917L29.4443 31.675L29.965 31.3266L29.973 31.0409L30.1231 30.7937L29.7063 30.479L29.6456 29.7181L29.1457 29.3633L29.2543 29.145L29.6456 28.856L28.5532 28.2685L28.4159 27.2603L27.6349 26.8686L27.5423 26.3003L26.5697 26.2505L26.5537 25.1814L27.4209 25.183L27.2676 23.1586Z" fill="#35A42B" stroke="white" stroke-width="1.22173"/>
<path d="M17.7358 9.39453L18.4369 9.66584L19.1013 9.75252L19.5836 10.2614L20.1713 10.5664L20.8005 10.7093L21.0225 10.6451L20.9443 11.3611L21.1838 12.13L21.1327 13.4031L20.7175 14.3968L20.2208 14.9169L20.117 15.246L20.232 15.474L20.882 16.0166L20.9874 16.548H20.2496L19.82 17.219L18.9448 17.1227L18.4912 16.9413L18.1958 17.0841L17.5777 18.0907L17.6719 19.1855L17.0619 20.3735L16.2139 21.2356L16.2266 21.4651L16.6035 21.7525L17.6927 21.9804L18.2229 22.3384L18.2804 22.6804L18.1846 22.8955L17.5937 22.8875L17.3701 23.1636L17.3749 23.6388L17.5442 24.008L16.5221 23.9486L16.1659 24.2247L15.821 24.7111L15.1598 24.7272L14.4891 24.9375L12.71 24.9263L12.3426 24.7047L11.8555 23.9903L11.2263 23.6388L10.8271 23.1122L10.5284 23.0929L10.1004 23.3257L9.44562 22.8554L9.01921 22.1859L8.99845 21.9804L8.69023 21.7942L8.63433 21.3287L8.34527 20.6111L7.86616 20.3382L7.47488 19.8951L7.41739 19.6061L6.83447 19.277L7.08361 19.0828L7.4142 18.431L7.48766 17.4389L7.61862 17.2591L8.17918 16.9846L8.66148 15.8464L9.22683 15.2765L9.58616 13.9714L9.87842 13.5652L11.0427 12.9632L11.7677 12.8316L11.9194 12.6438L11.8699 12.2601L11.7406 12.0883L10.3879 11.5666L10.2968 11.4446L10.3288 11.1106L11.6096 10.9437L11.7677 10.8682L11.8987 10.5905L13.3025 10.3369L14.4891 9.73968L15.3115 9.49246L17.7358 9.39453Z" fill="#35A42B" stroke="white" stroke-width="1.22173"/>
<path d="M23.2137 45.0594L23.7519 44.5135L24.453 44.0994L25.2739 43.0061L25.622 43.446L26.1315 43.1715L26.1762 42.9772L25.8967 42.4218L26.2161 41.4281L26.4189 41.2852L27.0562 41.213L27.358 40.9465L27.9473 39.7039L27.9186 39.3315L27.7141 39.1886L26.9092 39.5386L26.5771 39.5482L26.3423 39.3716L25.7434 38.4181L25.5246 37.2124L25.6156 36.9556L26.5403 36.7501L27.2127 37.1932L27.5608 37.2237L28.5254 36.1738L28.9726 36.2621L29.284 36.1882L29.4597 35.3984L30.1416 35.3374L30.8715 35.0195L31.3298 35.2796L31.8505 35.408L32.1587 36.6024L32.3551 36.9636L32.8151 36.6907L33.2223 37.0728L33.2479 37.4998L33.1265 37.8209L32.6106 38.3667L32.5228 38.7937L33.1281 40.2915L33.192 40.9015L33.917 41.693L33.9474 42.3367L33.6487 42.5823L33.8995 43.3336L33.9234 44.3273L33.9825 44.6051L34.6852 45.5217L34.7619 45.8059L34.6437 46.0049L34.2221 45.9728L33.834 46.1703L33.8004 46.9858L33.5896 47.5669L33.7429 48.3953L33.6902 49.1514L33.2846 50.4228L33.2383 51.1131L33.0738 51.5337L32.8869 51.7826L32.1331 52.1084L31.7514 52.6238L31.6412 53.298L31.7866 53.9899L31.5326 54.0509L31.317 54.3559L30.8523 54.6128L29.9149 54.3768L28.4999 54.571L28.3066 55.8553L27.3772 55.1217L26.1778 53.9L24.5281 52.8308L23.5666 52.4905L23.1913 52.0667L22.7969 49.3055L22.8528 49.0984L23.3654 48.5686L23.9851 48.2941L23.9947 48.1946L23.6178 47.8992L23.6736 47.4658L23.4037 46.6535L23.4501 46.0723L23.0971 45.8588L23.054 45.4463L23.2137 45.0594Z" fill="#35A42B" stroke="white" stroke-width="1.22173"/>
<path d="M5.15492 29.9873L5.42801 30.3147L5.69631 30.2152L5.96301 30.3517L6.05884 30.5475L6.31596 30.1879L6.45171 30.2842L6.57787 30.1285L6.99949 30.1622L7.20391 29.96L7.38437 30.1382L7.48818 30.6776L8.12859 30.6326L8.35856 30.8573L8.63645 31.469L9.39823 31.5894L9.85978 32.0132L10.5401 32.1368L10.8563 32.6409L11.7091 33.0101L11.9247 33.3521L12.1036 33.7133L12.6179 33.9958L12.9341 34.5416L13.303 34.6733L13.5713 34.9333L13.7581 35.9672L13.6064 36.3203L14.3283 36.4456L14.9336 37.3574L15.3472 37.2707L15.3871 37.534L15.0789 37.9514L14.7723 39.0077L14.8106 40.3193L14.9543 41.1492L14.4784 41.512L13.9817 41.4414L13.6176 41.1476L13.0714 40.9181L12.9021 40.2165L12.7744 40.2422L12.4102 40.8442L11.912 40.9293L11.3083 40.6162L11.1438 40.3128L10.8292 40.2406L10.6439 40.353L10.4794 40.6869L9.94761 40.8699L9.74639 41.4574H9.55315L9.29123 41.1123L9.08202 41.0609L8.75463 41.3948L8.60451 41.3338L8.53583 40.9004H8.08068L7.74371 40.3931L6.99629 40.3321L6.8334 40.2294L6.63537 39.4957L5.96301 38.4298L5.89594 37.4152L5.0016 36.9384L4.64067 36.2674L4.42507 35.4149L4.06574 35.2207L3.47643 35.0987L3.1187 34.6925L2.83602 34.5609L2.61244 34.3474L2.78492 34.2575L3.0644 33.6539L3.20494 33.6298L3.25125 33.2461L2.63639 32.4595L2.57251 32.1545L2.34414 31.8527L2.32178 31.4738L2.85519 31.3004L3.34388 30.9055L3.49081 30.7369L3.5483 30.395L3.76709 30.2586L4.39313 30.6069L4.38834 30.3292L4.54804 30.0178L5.15492 29.9873Z" fill="#35A42B" stroke="white" stroke-width="1.22173"/>
<path d="M38.1548 12.9999L38.511 12.9324L39.2903 12.4396L40.536 12.5263L41.1493 12.2662L41.3122 12.0912L41.7066 12.0238L42.3103 12.0768L43.2078 12.8281L43.893 12.9951L44.1948 12.9662L44.535 12.7623L45.1898 12.6868L46.4179 13.1251L45.6848 13.5842L45.5012 13.8956L45.6896 14.5426L45.6401 15.1334L45.4197 15.5668L45.8078 16.2138L45.5954 17.5542L45.4213 17.7437L44.5478 18.0374L44.3721 18.3296L44.4264 18.5881L44.5781 18.6635L45.6832 18.5431L45.7663 18.7871L45.5491 19.2511L45.5124 19.6075L46.1336 19.7295L46.2598 20.0682L46.0921 20.6333L44.9438 21.8084L44.5573 21.4649L43.7013 21.0715L43.5225 20.8372L43.2078 19.8322L42.9667 19.7503L42.569 20.6349L41.9813 21.2112H41.6284L41.1748 21.4809L40.4306 21.2144L40.0122 20.919L39.2807 20.8805L38.6483 21.1518L37.9265 21.7362L37.54 22.4441L37.0353 21.8871L36.9475 22.0637L36.9762 22.7828L36.858 23.0285L34.0664 22.6689L33.5234 22.1407L33.0731 22.0412L32.891 21.696L32.3528 22.274L32.0653 22.2547L31.4138 22.5661L30.4396 22.6657L29.4238 22.3992L28.8952 22.5469L28.3858 22.9466L27.5074 23.0397L27.2679 23.1585L26.9484 22.7748L26.3032 22.9771L26.1819 22.9594L25.9727 22.6544L26.2633 20.2063L26.6402 19.9269L28.3906 19.7712L28.5774 19.2575L28.5407 19.052L28.6796 18.9316L29.8359 18.6732L30.1026 18.7727L30.331 18.7229L30.3932 17.978L30.5897 17.6249L29.4797 17.1529L29.4558 15.9521L29.1971 15.0772L29.4159 14.9488L29.9317 15.1575L30.842 13.9936L31.1199 13.9759L31.409 14.3869L31.468 14.0626L31.7332 14.2328L32.0701 12.7029L32.5876 12.393L33.0204 11.8825L34.6653 11.2998L36.5131 11.7461L37.4681 12.6756L38.1548 12.9999Z" fill="#35A42B" stroke="white" stroke-width="1.22173"/>
<path d="M33.0334 32.4849L34.5154 32.4576L35.1063 31.7256L37.1458 31.968L37.8197 32.501L38.1886 33.2025L38.6118 33.3261L40.0779 33.0821L40.7183 33.3711L41.0681 33.3807L42.6172 32.6952L42.4543 33.0725L42.5262 34.9604L42.0183 36.0969L42.301 37.301L42.7785 38.1454L43.3279 38.3669H43.6617L44.9952 37.7938L45.222 37.9014L45.3657 38.3605L45.3018 38.7698L44.639 39.4425L44.6646 39.6544L45.1054 40.1553L45.0974 40.4587L44.9664 40.5165L44.441 40.2997L44.3276 40.5566L44.326 42.5151L44.4985 42.5103L44.9568 42.8217L45.0607 43.0674L43.8469 43.5056L43.478 43.7544L43.3087 44.5539L43.379 45.1286L43.7415 45.4754L44.5097 45.7627L45.3194 45.5043L46.0141 45.5139L46.6242 45.1174L47.0745 45.8029L47.7437 46.4065L47.1081 48.0664L47.2119 48.7166L47.1751 49.7456L46.7663 50.2529L45.2842 51.1358L44.7061 51.9529L44.4346 52.6737L44.1503 52.8279L43.8629 53.2501L43.5115 53.4218L42.9749 52.937L42.7545 52.5084L42.5661 52.4859L42.269 52.754L42.2211 53.8119L41.619 54.5135L41.1176 54.6355L40.5203 54.4798L40.2296 54.9453L39.8416 55.101L39.5365 55.5971L39.0494 54.5408L39.059 54.1956L39.2602 53.7445L39.1357 53.6899L39.043 53.3689L38.7907 53.584L38.5783 53.1907L38.8163 52.8857L38.9632 52.0653L38.9376 51.7796L38.631 51.4023L38.4617 51.3012L37.8644 51.3782L36.9701 51.1519L35.7819 51.619L35.1495 51.6656L34.9355 51.5291L34.3957 50.6799L33.9661 50.7265L33.2841 50.4231L33.6898 49.1516L33.7425 48.3955L33.5892 47.5671L33.8 46.986L33.8335 46.1705L34.2216 45.973L34.6432 46.0051L34.7614 45.8061L34.6847 45.5219L33.982 44.6053L33.9229 44.3276L33.899 43.3338L33.6483 42.5825L33.9469 42.3369L33.9166 41.6932L33.1915 40.9017L33.1276 40.2917L32.5223 38.7939L32.6102 38.3669L33.126 37.8211L33.2474 37.5L33.2218 37.073L34.1417 36.9109L34.5202 35.9316L33.7105 35.1225L32.7348 34.7228L32.4633 34.4306L32.4058 33.9297L33.0334 32.4849Z" fill="#35A42B" stroke="white" stroke-width="1.22173"/>
<path d="M63.6741 7.46431L64.7026 7.42578L65.145 7.55421L65.5203 8.16103L66.5951 8.0326L66.9943 8.56397L67.1205 9.25909L68.2783 9.63474L68.8309 9.66845L69.1567 9.86751L69.5799 9.77119L69.7827 10.1276L69.9041 10.1597L70.4711 9.57213L71.0731 10.3122L71.7774 10.5321L72.231 11.3878L72.7915 11.4488L73.0103 12.1038L73.6763 12.7266L73.8328 12.9739L73.8248 13.4667L73.5901 13.8215L72.9049 14.1618L72.7053 14.6306L72.3907 14.8152L71.9739 14.8216L71.4788 14.5551L71.3287 15.2342L70.4152 16.0144L70.3449 16.3531L70.5333 16.4077L70.4647 16.9856L69.8834 17.4094L69.8945 17.6936L69.5001 17.8445L69.4234 17.997L69.5592 18.3068L69.4745 18.5605L70.0974 18.9201L70.2507 19.2347L70.0462 19.6104L69.5719 19.9346L69.1535 20.0101L68.9682 19.8431L68.7287 20.0021L68.4109 19.7372L68.1921 20.3328L68.0516 20.4451L67.7944 20.3103L67.1492 20.3584L66.2868 19.9796L65.5171 20.3296L65.0427 20.2445L65.0954 20.5784L64.899 20.6843L64.4582 21.4372L64.4295 21.8562L63.7683 22.1757L63.5815 21.8675L63.7987 21.4453L63.5926 21.121L63.088 20.9412L62.9746 20.5559L64.0877 19.7805L64.5429 19.2925L64.4997 18.7499L64.6626 18.4465L64.6355 18.2763L63.7891 18.0724L63.6038 17.8108L63.393 17.053L62.7478 16.9118L62.3006 16.321L61.9078 16.1219L61.689 15.8651L61.4526 15.8394L61.1651 15.9694L60.8026 16.4767L60.6445 16.4077L59.6464 16.4912L59.3637 16.2985L59.089 15.5842L58.7983 15.186L58.9485 14.9789L58.8622 14.653L59.5426 14.3994L59.9195 14.3753L60.6094 13.5293L61.2019 13.6626L62.3198 14.5182L63.6901 14.0607L64.57 14.2613L65.5123 14.1442L66.0313 13.3447L66.0297 12.2498L65.7806 11.6157L65.4564 11.3268L64.8208 11.2096L64.2362 10.6894L64.0574 10.6622L63.7252 10.9367L63.599 10.7328L62.8899 10.85L62.4923 10.7922L62.0962 10.5755L62.1074 10.0955L62.232 9.8932L62.6919 9.63313L63.1534 8.21722L63.6006 7.72598L63.6741 7.46431Z" fill="#35A42B" stroke="white" stroke-width="1.22173"/>
<path d="M63.1518 5.43066L63.3323 6.14665L63.9935 6.7936L63.6741 7.46464L63.6006 7.72631L63.1534 8.21754L62.6919 9.63346L62.2319 9.89353L62.1074 10.0958L62.0962 10.5758L62.4923 10.7925L62.8899 10.8503L63.599 10.7331L63.7252 10.937L64.0573 10.6625L64.2362 10.6898L64.8207 11.2099L65.4564 11.3271L65.7805 11.6161L66.0297 12.2502L66.0313 13.345L65.5122 14.1445L64.57 14.2617L63.69 14.061L62.3198 14.5185L61.2019 13.6629L60.6094 13.5296L59.9194 14.3757L59.5425 14.3997L58.8622 14.6534L58.9484 14.9793L58.7983 15.1864L59.089 15.5845L59.3637 16.2989L58.3543 16.7853L58.0844 18.1595L57.7698 18.5415L57.5367 19.0584L57.1741 19.3298L57.9647 20.0072L57.8944 20.7874L57.0991 20.6076L56.7988 19.8916L56.0658 20.1902L55.1491 19.8274L54.4224 19.8659L53.8858 19.6123L53.2502 19.0263L53.0139 19.0504L52.5348 19.4373L50.9633 18.5736L51.2108 17.9524L51.1964 17.5703L51.0527 17.3873L50.7764 17.299L50.6758 16.9843L50.3724 16.7853L49.7911 15.3084L49.823 15.0611L50.0977 14.6935L50.0418 14.3098L49.8693 14.4928L49.6377 14.5009L49.2656 14.1926L49.8757 13.886L51.0415 13.8652L52.6258 12.8987L53.7357 12.8618L54.5518 12.4236L54.9974 11.6337L55.6043 11.3608L56.0434 10.929L57.2141 9.12938L58.8366 8.12765L59.2231 7.29287L59.6352 6.82732L60.2772 6.42919L61.0996 6.42758L62.7382 5.54143L63.1518 5.43066Z" fill="#35A42B" stroke="white" stroke-width="1.22173"/>
<path d="M75.0641 3.17238L75.5975 3.13064L76.773 3.62829L77.2648 3.65719L77.8286 3.45492L78.0442 3.84823L77.9324 4.08903L78.1512 4.5899L79.1781 4.96555L79.8568 5.94481L80.9843 5.72488L83.1627 5.93678L83.6626 5.1614L84.1225 5.54668L84.584 6.74748L83.8159 7.01397L83.4725 7.28688L82.8768 8.14574L82.8752 8.59202L82.3881 8.53102L81.9953 8.10721L81.6854 8.89543L81.1999 9.48139L80.8821 9.54078L80.5579 9.16995L80.3679 9.20848L78.8172 10.6774L77.9068 10.87L76.7953 12.1463L76.7618 12.4786L76.9726 12.9072L76.9662 13.1287L76.9071 13.2652L76.6612 13.3021L76.3258 13.1913L75.976 13.3294L75.4123 12.7964L75.0961 12.2378L74.93 12.2105L74.0772 12.6776L73.6763 12.7274L73.0103 12.1045L72.7915 11.4495L72.231 11.3885L71.7774 10.5329L71.0731 10.313L70.4711 9.57289L69.9041 10.1604L69.7827 10.1283L69.5799 9.77195L69.1567 9.86827L68.8309 9.66921L68.2783 9.6355L67.1205 9.25985L66.9943 8.56473L66.5951 8.03336L65.5203 8.16179L65.145 7.55497L64.7026 7.42654L63.6741 7.46507L63.9935 6.79404L63.3323 6.14708L63.1519 5.4311L63.9248 5.21759L64.8623 5.4022L66.3156 4.99926L67.3121 5.06026L68.2368 4.81946L68.767 4.54816L69.2733 4.6204L69.7859 4.51445L71.2504 3.66361L72.1256 3.30562L73.4304 3.2687L74.569 2.92676L75.0641 3.17238Z" fill="#35A42B" stroke="white" stroke-width="1.22173"/>
<path d="M60.7805 28.763L61.5759 28.0808L61.8905 27.1448L62.2562 27.2107L62.7161 26.9795L62.8375 27.0614L62.772 27.6393L62.8854 27.7597L63.2895 27.376L63.652 27.6907L64.0592 27.84L64.5847 27.8111L65.6403 27.5044L67.2533 27.7533L66.228 28.6651L66.1402 29.1178L66.3318 29.3506L66.8285 29.3602L66.7582 29.7744L67.0744 30.9062L66.894 31.383L66.8988 31.8581L67.3348 32.3959L67.972 32.4682L68.1908 32.6753L68.6539 33.5614L68.5948 34.1442L68.2834 33.9034L68.1828 33.9579L68.1764 34.1442L68.483 34.6739L68.4782 35.3144L68.0167 35.894L67.8458 35.8121L67.6813 35.5231L67.2278 36.2552L66.4548 36.3338L65.0542 37.2136L64.1806 37.0691L63.5466 37.594L63.85 37.8027L63.9043 38.1527L63.4987 38.4545L63.1809 38.9441L62.5261 39.0292L62.2929 39.3519L61.2133 39.0517L61.0025 39.1849L61.0456 40.1369L60.8939 40.1979L60.5713 39.9122L60.3861 39.8865L60.3765 40.1835L60.7406 40.6763L61.0424 40.5286L61.413 40.1096L61.5471 40.3745L61.4465 41.67L60.9019 42.5899L60.5234 43.7409L58.8849 42.7536L58.5942 42.8034L58.2956 43.1534L58.2908 42.8307L58.0049 42.7006L57.711 42.3603L57.1393 42.1645L56.954 41.951L56.5053 40.3986L55.9048 39.6633L55.9351 39.3792L56.2881 38.7226L55.7179 37.395L56.1236 36.7288L56.2018 36.3467L55.7163 35.5264L55.5279 34.3866L54.8859 33.0991L54.8252 31.993L55.6636 32.1487L56.5947 31.9175L57.2559 32.1664L57.4906 32.1535L58.5798 31.2834L58.6309 30.8805L58.4505 30.5498L58.5303 30.3844L60.3589 29.4084L60.7805 28.763Z" fill="#35A42B" stroke="white" stroke-width="1.22173"/>
<path d="M33.2842 50.4238L33.9662 50.7272L34.3958 50.6807L34.9356 51.5299L35.1496 51.6664L35.782 51.6198L36.9702 51.1527L37.8645 51.379L38.4618 51.302L38.6311 51.4031L38.9377 51.7803L38.9633 52.0661L38.8163 52.8864L38.5784 53.1914L38.7908 53.5848L39.0431 53.3696L39.1358 53.6907L39.2603 53.7453L39.0591 54.1964L39.0495 54.5415L39.5366 55.5979L39.8416 55.1018L40.2297 54.9461L40.5204 54.4805L41.1177 54.6363L41.6191 54.5142L42.2212 53.8127L42.2691 52.7548L42.5662 52.4867L42.7546 52.5092L42.975 52.9378L43.5116 53.4226L43.4478 53.6136L43.5659 54.1145L43.9093 55.0585L43.7033 55.8242L43.7464 56.8067L43.411 57.2L42.2675 57.6206L42.1078 57.8277L42.135 58.1375L42.3889 58.8904L42.4304 59.4443L43.2369 59.7461L44.1217 59.3191L44.5673 59.5197L44.7174 59.7348L44.8292 60.1297L44.62 60.8698L44.727 60.9629L45.0336 60.9196L45.1023 61.0785L44.5034 61.8523L44.6551 62.1798L44.6918 62.7754L45.016 62.9455L44.9649 63.3132L44.4251 63.1237L44.1265 62.7593L43.8821 62.8845L43.5356 62.7384L43.1619 62.2456L41.9817 62.0192L41.4067 61.7977L40.9596 61.3498L40.6561 61.3948L40.4645 61.6741L40.3383 61.6934L39.4759 61.4991L39.5382 61.7897L39.436 62.4511L39.2204 62.6212L38.3388 61.9021L38.0753 61.1861L37.5291 61.1235L37.3583 60.9966L36.9734 61.1588L37.0389 60.8586L36.9127 60.7831L36.2212 60.9645L36.0215 60.6515L36.0056 60.1715L35.6367 59.9291L35.4322 59.3688L35.4738 59.0766L35.2214 58.5854L35.3332 58.3767L35.1735 58.2258L35.0346 58.2563L35.0378 58.0894L34.9228 58.0123L34.1003 58.3526L33.9214 58.5212L33.9023 58.8471L33.7282 58.9787L33.5493 58.8294L33.1692 58.8118L33.0127 58.6047L32.6901 58.6689L32.4027 59.0718L31.9794 58.8808L31.4205 59.1922L31.3151 58.8776L31.4013 58.6352L30.9062 58.2146L30.9749 58.0139L30.7801 57.8999L30.4447 58.1134L30.2754 58.4104L29.964 58.3655L29.6653 58.7668L29.7021 58.9916L29.5855 59.1088L29.3747 59.075L29.4002 58.9643L29.2006 58.8246L29.1655 58.6625L28.7758 58.7106L28.7311 58.5694L28.3574 58.518L28.2951 58.3703L27.899 58.5485L27.8288 58.77L27.6531 58.8952L27.6323 58.4345L28.0252 57.4617L27.9693 56.9351L28.4756 56.2207L28.3063 55.8563L28.4995 54.572L29.9145 54.3778L30.8519 54.6138L31.3167 54.3569L31.5323 54.0519L31.7862 53.9909L31.6409 53.299L31.7511 52.6248L32.1328 52.1094L32.8866 51.7836L33.0734 51.5347L33.2379 51.1141L33.2842 50.4238Z" fill="#35A42B" stroke="white" stroke-width="1.22173"/>
<path d="M10.0995 23.3251L10.5275 23.0923L10.8262 23.1115L11.2254 23.6381L11.8547 23.9897L12.3418 24.7041L12.7091 24.9256L14.4882 24.9368L15.1589 24.7265L15.8201 24.7105L16.1651 24.2241L16.5212 23.9479L17.5433 24.0073L18.5382 24.0972L18.9215 24.2385L18.9503 24.4488L18.3482 25.2996L18.4839 26.1216L19.4262 27.5664L19.8494 27.8441L21.4113 26.4603L22.0054 26.8456H22.2162L23.0994 26.2869L23.7094 26.1569L24.1167 26.4603L25.6466 26.502L26.4132 26.8937L26.5857 26.7204L26.5697 26.25L27.5423 26.2998L27.635 26.8681L28.4159 27.2598L28.5532 28.2679L29.6456 28.8555L29.2543 29.1444L29.1457 29.3628L29.6456 29.7175L29.7063 30.4785L30.1231 30.7931L29.973 31.0404L29.965 31.3261L29.4444 31.6745L29.4779 31.8912L30.5911 32.0967L31.4535 32.0276L33.0329 32.4852L32.4053 33.93L32.4628 34.4308L32.7343 34.723L33.7101 35.1227L34.5198 35.9318L34.1413 36.9111L33.2214 37.0732L32.8141 36.6912L32.3542 36.9641L32.1577 36.6029L31.8495 35.4085L31.3289 35.2801L30.8705 35.02L30.1407 35.3379L29.4588 35.3989L29.2831 36.1887L28.9717 36.2625L28.5245 36.1742L27.5599 37.2241L27.2117 37.1936L26.5394 36.7506L25.6147 36.9561L25.5237 37.2129L25.7425 38.4185L26.3414 39.3721L26.5761 39.5487L26.9083 39.5391L27.7132 39.1891L27.9176 39.332L27.9464 39.7044L27.3571 40.9469L27.0552 41.2134L26.418 41.2857L26.2152 41.4285L25.8958 42.4223L26.1753 42.9777L26.1305 43.1719L25.6211 43.4465L25.2729 43.0066L24.4521 44.0998L23.751 44.514L23.2128 45.0598H22.7784L22.6937 45.2733L22.9061 45.6586L22.7464 45.7887L22.5021 45.7758L21.9623 45.5302L21.6557 44.9154L21.1989 45.0454L20.9881 44.9009L20.6064 44.9154L20.418 45.1578L20.1896 46.4212L19.9836 46.7776L19.5683 47.1034L19.0637 46.983L18.6405 47.1404L18.9551 46.6572L19.2601 46.5464L19.2936 46.1611L18.1582 45.6715L17.8851 44.7677L16.8342 45.116L16.5755 44.994L16.534 44.8624L16.93 43.9104L17.7126 43.6182V43.3999L16.6665 42.5475L16.2992 41.4109L15.9303 41.3001L15.3777 41.3322L14.9545 41.1492L14.8108 40.3193L14.7724 39.0077L15.0791 37.9514L15.3873 37.534L15.5566 37.709L16.2273 37.8743L16.3982 38.1376L16.8007 38.3896L17.4954 39.3946L17.6838 39.4556L17.9537 39.2966L18.0256 38.6706L18.3147 37.8631L18.7491 37.9128L18.8832 37.9979L19.3272 39.0221L19.4006 39.3849L19.3336 39.9388L19.4422 40.3947L19.7392 40.2807L20.4691 40.5568L21.4209 40.2101L21.0648 39.0221L20.6735 38.388L20.699 38.0782L20.4786 37.9514L19.9692 37.131L20.0458 36.1486L19.9101 35.3844L19.8111 35.2608L19.2952 35.1308L19.1787 34.9815L19.2809 34.5898L19.6322 34.4517L19.8159 33.8176L20.3892 33.6153L20.5888 33.4163L21.0392 31.7018L20.838 30.9103L20.584 30.8734L20.2918 31.1591L19.9325 31.2667L18.6772 30.448L16.8598 30.9119L16.5707 30.8654L16.328 30.6117L16.0836 29.976L15.7594 29.6373L15.6205 29.6517L14.806 31.6809L14.7756 32.0854L14.5073 32.49L14.4962 32.681L14.7389 32.8688L14.6255 33.2413L14.1752 33.0952L13.803 33.3087L12.5031 33.2654L11.9249 33.352L11.7093 33.0101L10.8565 32.6409L10.5403 32.1368L9.85997 32.0132L9.39843 31.5894L8.63664 31.469L8.35876 30.8573L8.12878 30.6326L7.48837 30.6775L7.38457 30.1381L7.2041 29.96L7.60655 29.1701L7.45643 28.8266L7.66085 28.589L7.67523 28.0929L8.67337 27.6322L8.92251 27.2293L9.43356 26.9596L9.80886 25.9659L10.2896 25.7539L10.7767 25.3285L11.0034 24.3461L10.831 24.1454L11.1456 23.6012L10.6697 23.3218L10.0995 23.3251Z" fill="#35A42B" stroke="white" stroke-width="1.22173"/>
<path d="M11.9253 33.3525L12.5034 33.2658L13.8034 33.3091L14.1755 33.0956L14.6259 33.2417L14.7393 32.8693L14.4965 32.6814L14.5077 32.4904L14.776 32.0858L14.8063 31.6813L15.6208 29.6521L15.7598 29.6377L16.084 29.9764L16.3283 30.6121L16.5711 30.8658L16.8601 30.9123L18.6776 30.4484L19.9328 31.2671L20.2922 31.1596L20.5844 30.8738L20.8383 30.9107L21.0396 31.7022L20.5892 33.4167L20.3896 33.6157L19.8162 33.818L19.6326 34.4521L19.2812 34.5902L19.179 34.9819L19.2956 35.1312L19.8114 35.2612L19.9105 35.3848L20.0462 36.149L19.9696 37.1315L20.479 37.9518L20.6994 38.0786L20.6738 38.3884L21.0651 39.0225L21.4213 40.2105L20.4694 40.5573L19.7396 40.2811L19.4425 40.3951L19.3339 39.9392L19.401 39.3854L19.3275 39.0225L18.8836 37.9983L18.7494 37.9133L18.315 37.8635L18.026 38.671L17.9541 39.2971L17.6842 39.456L17.4957 39.395L16.801 38.39L16.3986 38.138L16.2277 37.8747L15.5569 37.7094L15.3877 37.5344L15.3477 37.2711L14.9341 37.3578L14.3288 36.446L13.607 36.3208L13.7587 35.9676L13.5718 34.9337L13.3035 34.6737L12.9346 34.542L12.6184 33.9962L12.1042 33.7137L11.9253 33.3525Z" fill="#35A42B" stroke="white" stroke-width="1.22173"/>
<path d="M52.2667 32.6233L52.7602 32.2974L53.7663 31.9233L54.3908 32.0373L54.8252 31.9924L54.8859 33.0985L55.5279 34.3859L55.7163 35.5257L56.2018 36.3461L56.1236 36.7281L55.7179 37.3944L56.2881 38.722L55.9351 39.3786L55.9048 39.6627L56.5052 40.398L56.954 41.9503L57.1393 42.1638L57.711 42.3597L58.0049 42.7L58.2907 42.8301L58.2955 43.1527L58.5942 42.8028L58.8848 42.753L60.5234 43.7403L61.0983 44.0999L59.8063 45.3777L59.784 45.8561L60.0794 46.5352L60.3477 47.8532L59.752 48.0057L59.3991 47.9254L58.88 48.4793L58.5463 48.3846L57.8787 47.0136L57.1984 46.9285L56.8231 46.5641L56.2801 46.548L55.8393 46.2109L55.6237 46.3554L55.3793 47.2801L54.7373 47.6493L54.3796 47.6654L54.1656 47.858L53.8478 47.8403L53.5811 46.9494L53.1994 46.5464L52.8944 45.8288L52.6021 45.8369L52.0064 46.3827L51.8323 46.3923L51.81 44.9812L51.6119 44.5863L51.4219 44.6826L51.1552 45.1129L50.4796 45.5624L50.5084 45.6828L50.7719 45.6587L50.6234 45.9492L50.3615 45.938L49.9319 45.6089L49.7242 45.6571L49.6588 46.1804L49.1094 46.9125L48.9369 46.9221L48.1847 46.4549L47.7439 46.4068L47.0748 45.8032L46.6244 45.1177L46.0143 45.5142L45.3196 45.5046L44.5099 45.763L43.7418 45.4757L43.3792 45.1289L43.309 44.5542L43.4782 43.7547L43.8472 43.5059L45.0609 43.0677L44.9571 42.822L44.4987 42.5106L44.3263 42.5154L44.3279 40.5569L44.4413 40.3L44.9667 40.5168L45.0976 40.459L45.1056 40.1556L44.6648 39.6547L44.6393 39.4428L45.3021 38.7701L45.3659 38.3608L45.2222 37.9016L44.9954 37.7941L43.6619 38.3672H43.3281L42.7787 38.1457L42.3012 37.3012L42.0186 36.0972L42.5264 34.9607L42.4545 33.0728L42.6174 32.6955L43.7657 32.8416L44.4397 32.4387L45.0018 32.3953L45.4554 32.0437L46.4519 32.649L47.0428 32.5591L48.9465 33.0888L49.1317 32.9235L49.0631 32.3423L49.5645 32.3809L50.0245 32.8496L50.5914 32.9781L50.8837 32.9492L51.3484 32.5944L51.8643 33.0439L52.2364 32.8898L52.2667 32.6233Z" fill="#35A42B" stroke="white" stroke-width="1.22173"/>
<path d="M59.3639 16.2985L59.6465 16.4911L60.6447 16.4076L60.8028 16.4767L61.1653 15.9694L61.4528 15.8394L61.6891 15.865L61.9079 16.1219L62.3008 16.321L62.748 16.9117L63.3932 17.053L63.604 17.8107L63.7892 18.0724L64.6357 18.2763L64.6628 18.4464L64.4999 18.7498L64.543 19.2925L64.0879 19.7805L62.9747 20.5559L63.0881 20.9411L63.5928 21.1209L63.7988 21.4452L63.5816 21.8674L63.7685 22.1757L64.4296 21.8562L64.4584 21.4372L64.8992 20.6843L65.0956 20.5783L65.0429 20.2444L65.5172 20.3295L66.287 19.9795L67.1494 20.3584L67.7946 20.3102L68.0517 20.4451L68.1923 20.3327L68.411 19.7371L68.7289 20.002L68.9684 19.8431L69.1537 20.01L69.5721 19.9346L69.3757 20.1898L69.4811 21.4516L70.0017 21.93L70.0799 22.3346L69.8452 22.6878L69.1521 23.3187L69.0834 23.7714L68.8071 24.2931L68.4478 24.4328L68.1715 24.3365L68.3025 24.9641L68.6107 25.6288L68.6059 25.8888L68.2849 26.0831L68.2018 26.4716L67.7595 26.7605L67.6588 27.2213L67.7658 27.4958L67.2532 27.7526L65.6402 27.5038L64.5846 27.8104L64.0591 27.8393L63.6519 27.69L63.2894 27.3754L62.8853 27.7591L62.7719 27.6386L62.8374 27.0607L62.716 26.9789L62.2561 27.21L61.8904 27.1442L61.5757 28.0801L60.7804 28.7624L58.9997 28.1347L59.0844 27.8249L59.522 27.5953L59.5938 27.3609L59.0141 26.8665L58.9103 26.6337L58.7809 26.0831L58.84 25.0075L59.0444 24.5885L59.1467 24.0202L59.6433 23.6718L59.6513 23.3957L59.5842 23.1806L59.2137 22.8001L59.1738 22.5786L58.8033 22.2736L58.955 21.808L57.8946 20.787L57.9649 20.0068L57.1743 19.3294L57.5368 19.0581L57.77 18.5412L58.0846 18.1591L58.3545 16.7849L59.3639 16.2985Z" fill="#35A42B" stroke="white" stroke-width="1.22173"/>
<path d="M61.0973 44.1001L61.578 44.4453L62.2679 44.5961L62.7917 45.0762L63.2405 45.1099L63.7452 45.3266L64.138 45.1002L64.5389 45.4213L65.1601 45.2736L65.4093 45.7167L65.989 45.6525L65.8213 46.8549L65.9171 47.8614L65.5274 48.2419L65.5163 48.6866L65.7335 48.8214L65.8612 49.2228L66.0513 49.3977L66.088 49.7333L66.7108 50.4926L67.0494 50.9597L66.8019 51.3418L67.0063 51.6228L66.7811 51.7415L66.762 51.992L66.5448 52.175L66.3675 52.647L63.9719 52.6566L63.6541 52.7754L63.0824 54.1688L63.0744 54.4674L63.5328 54.9827L63.0856 54.9057L62.739 55.0437L62.3813 54.9859L61.8814 54.7612L61.5285 54.3839L61.348 54.5381L61.0653 54.5076L60.7683 54.3872L60.6293 54.1929L59.8676 54.591L59.6935 54.9538L59.2767 54.88L59.0243 55.0373L58.8966 55.466L59.077 56.3296L59.3501 56.4372L59.4412 56.7566L59.7957 56.8257L59.8676 56.6748L60.0848 56.6298L60.1023 57.0071L60.3451 57.2045L60.2524 58.2464L60.7188 58.2994L60.8449 59.0282L60.6405 59.2899L60.6134 59.5612L60.3594 59.6832L60.3483 59.8245L60.4233 60.0572L60.6868 60.1728L61.0845 60.7588L60.5974 60.831L60.4185 61.0718L60.5064 61.3383L60.4297 61.6802L60.2684 61.966L60.0816 62.0254L59.9873 62.4364L59.4795 62.4187L59.315 62.6258L58.5021 62.5471L58.0629 62.6948L57.9208 63.0592L57.4656 63.2085L56.9657 63.1652L56.8907 62.4893L56.7278 62.2052L55.3767 60.9113L55.348 60.3623L55.4805 59.8309L55.2601 59.7249L54.9918 59.3091L54.6516 59.1582L54.6325 58.7906L54.9407 57.7568L55.2234 57.4325L55.6099 57.2318L55.3464 56.3746L54.4137 56.2494L54.1007 56.3874L53.9729 56.7534L53.5353 57.0472L52.938 56.7807L52.5563 57.0263L52.3934 56.6122L52.5515 56.3344L52.6138 55.8865L52.2832 55.2219L52.1395 54.2716L51.7866 53.8253L51.5933 53.7819L50.8411 54.1062L49.4868 53.6872L48.9375 53.2602L48.3082 53.0178L47.9329 52.1124L47.7317 52.1638L47.5832 52.5041L47.3564 52.5908L47.0514 52.9391L46.5547 50.9646L46.7655 50.2534L47.1743 49.7461L47.2111 48.7171L47.1073 48.0669L47.7429 46.407L48.1837 46.4551L48.9359 46.9223L49.1083 46.9127L49.6577 46.1806L49.7232 45.6573L49.9308 45.6091L50.3604 45.9382L50.6223 45.9495L50.7709 45.6589L50.5073 45.683L50.4786 45.5626L51.1541 45.1131L51.4208 44.6828L51.6109 44.5865L51.8089 44.9814L51.8313 46.3925L52.0054 46.3829L52.6011 45.8371L52.8933 45.8291L53.1983 46.5466L53.58 46.9496L53.8467 47.8406L54.1646 47.8582L54.3786 47.6656L54.7363 47.6495L55.3783 47.2803L55.6226 46.3556L55.8382 46.2111L56.279 46.5483L56.822 46.5643L57.1973 46.9287L57.8777 47.0138L58.5452 48.3848L58.879 48.4795L59.398 47.9256L59.751 48.0059L60.3467 47.8534L60.0784 46.5354L59.7829 45.8563L59.8053 45.378L61.0973 44.1001Z" fill="#35A42B" stroke="white" stroke-width="1.22173"/>
<path d="M68.5938 34.1436L69.3173 35.0988L69.9066 35.6446L70.5246 37.0798L71.058 37.7557L71.312 38.462L71.7192 38.9532L71.9332 39.5761L72.2494 39.719L72.9234 39.5296L73.0575 39.666L73.048 40.0642L72.7541 40.4318L71.6026 40.6292L71.3982 40.8716L71.5531 41.5523L72.1185 42.0387L72.4075 42.6696L72.8068 42.9714L72.5577 43.5172L72.5529 43.7805L72.9234 44.519L72.9489 44.7758L72.5034 45.304L72.5577 45.6443L72.9889 46.2271L73.8065 46.7087L74.1611 47.1871L73.9327 47.2336L74.0094 47.6558L73.6995 48.0989L73.2859 48.1342L73.3306 48.5002L72.9825 48.9915L72.4586 48.908L72.1009 49.2002L71.5451 49.1424L71.2273 49.327L71.1203 49.5903L70.6364 49.4683L70.2739 49.16L69.7884 49.6176L69.7101 49.8247L69.0841 49.6144L68.3463 49.6657L67.6963 49.3703L67.6005 49.6754L66.7109 50.4925L66.0881 49.7331L66.0513 49.3976L65.8613 49.2226L65.7335 48.8213L65.5163 48.6865L65.5275 48.2418L65.9172 47.8613L65.8214 46.8548L65.9891 45.6524L65.4093 45.7166L65.1602 45.2735L64.539 45.4212L64.1381 45.1001L63.7452 45.3265L63.2406 45.1098L62.7918 45.076L62.268 44.596L61.5781 44.4451L61.0973 44.1L60.5224 43.7404L60.9009 42.5894L61.4455 41.6695L61.5461 40.374L61.412 40.1091L61.0414 40.5281L60.7396 40.6758L60.3755 40.1829L60.3851 39.886L60.5703 39.9116L60.8929 40.1974L61.0446 40.1364L61.0015 39.1844L61.2123 39.0512L62.2919 39.3514L62.5251 39.0287L63.1799 38.9436L63.4977 38.454L63.9033 38.1522L63.849 37.8022L63.5456 37.5935L64.1796 37.0686L65.0532 37.2131L66.4538 36.3333L67.2268 36.2547L67.6803 35.5226L67.8448 35.8116L68.0157 35.8935L68.4772 35.3139L68.482 34.6734L68.1754 34.1436L68.1818 33.9574L68.2824 33.9028L68.5938 34.1436Z" fill="#35A42B" stroke="white" stroke-width="1.22173"/>
<path d="M73.6761 12.7269L74.0769 12.6771L74.9297 12.21L75.0958 12.2373L75.412 12.7959L75.9758 13.3289L76.3255 13.1908L76.6609 13.3016L77.0586 13.7768L77.7804 13.8779L78.4608 14.8299L78.7003 14.923L79.633 14.2825L79.8103 14.2728L80.2239 15.0354L80.1089 15.3468L79.9109 15.4849L78.9399 15.8091L78.5023 15.8461L78.3889 15.9729L78.3873 16.5412L78.8105 16.7306V16.9666L78.5039 17.5381L78.8041 17.6039L78.8776 17.8881L78.0647 19.1274L78.0232 19.662L78.1685 20.097L78.226 20.866L77.9194 21.1421L77.4802 21.0008L77.4083 21.1919L77.4706 21.7682L77.6463 22.1599L77.6782 22.786L77.9737 23.4394L76.5395 24.2902L76.3798 24.9018L76.7743 25.3353V25.91L77.0234 26.7399L75.832 26.9791L75.4152 27.2039H74.861L74.6279 27.5234L74.433 27.6117L74.4043 27.7481L74.8706 27.9263L74.9665 28.3565L75.2364 28.5074L75.1916 29.1351L74.3899 29.2282L73.2337 29.8527L72.9127 29.7612L72.6252 29.2973L72.4288 29.2459L71.5424 29.4209L70.9196 29.1576L70.4261 29.2571L69.6356 29.2154L68.6262 29.9346L67.4109 29.9442L67.264 29.7275L67.4316 29.4273L67.3294 29.3117L66.5996 29.2186L66.3313 29.3502L66.1396 29.1175L66.2275 28.6648L67.2528 27.7529L67.7654 27.4961L67.6584 27.2216L67.759 26.7608L68.2014 26.4719L68.2845 26.0834L68.6055 25.8891L68.6103 25.629L68.302 24.9644L68.1711 24.3367L68.4474 24.4331L68.8067 24.2934L69.083 23.7717L69.1517 23.319L69.8448 22.6881L70.0795 22.3349L70.0013 21.9303L69.4806 21.4519L69.3752 20.1901L69.5717 19.9349L70.046 19.6106L70.2504 19.235L70.0971 18.9203L69.4743 18.5607L69.5589 18.3071L69.4231 17.9972L69.4998 17.8447L69.8943 17.6938L69.8831 17.4097L70.4644 16.9859L70.5331 16.4079L70.3446 16.3534L70.4149 16.0146L71.3284 15.2344L71.4785 14.5554L71.9736 14.8219L72.3904 14.8154L72.7051 14.6308L72.9047 14.1621L73.5898 13.8217L73.8246 13.4669L73.8326 12.9741L73.6761 12.7269Z" fill="#35A42B" stroke="white" stroke-width="1.22173"/>
</svg>
