<svg width="100" height="70" viewBox="0 0 100 70" fill="none" xmlns="http://www.w3.org/2000/svg">
<path d="M55.0368 42.688L55.0577 42.4123L55.3502 42.1058L55.3342 41.4252L55.1713 41.2037L54.553 40.7619L54.3901 40.4726L54.732 40.2856V39.9791L54.8788 39.6394L55.0911 39.4868L55.3835 39.6062L55.5304 39.8277L55.6118 40.1846L55.8882 40.3213L56.1807 40.7126L56.5879 40.5428L57.5319 40.3557L57.9231 40.6105V40.832L57.6948 41.2579L57.7318 41.5495L57.5109 41.5188L57.2382 41.7194L56.715 41.9126L56.4423 42.2831L56.14 42.4369L55.307 42.6917H55.0368V42.688Z" fill="#D72B2B" stroke="white" stroke-width="1.22173"/>
<path d="M32.2012 45.3314L32.2234 45.3782L31.884 45.4471L31.5817 45.9013L31.5891 45.7007L31.8396 45.4004L32.2012 45.3314ZM30.8746 27.0513L31.2547 26.9122L31.3978 26.7239L31.6347 26.6304L31.8248 26.7264L32.2517 27.2482L32.0617 27.6248L32.1086 28.0506L32.2986 28.1454L32.5837 28.5245V28.7608L32.3937 28.7595L32.2517 28.9011L32.2986 30.0814L32.7256 30.6032L32.6775 30.9884L32.8342 31.2469L33.334 31.4832L33.624 31.7872L34.3385 32.8296L34.8604 32.7853L35.0418 32.9194L35.5725 32.9847L36.1685 33.4905L36.3301 33.9803V34.7902L36.2339 35.3969L35.8995 35.6652L35.9513 35.7169L36.2364 35.8597L36.6164 36.192L36.9015 36.6646L36.9484 37.4658L36.6164 37.9827L36.7114 38.1722L36.9484 38.4098L37.8023 38.9328L37.8973 39.0744V39.3574L38.1824 39.6885L38.2293 39.8768L38.3712 39.9248L38.6562 39.7845L38.8463 39.7857L38.9882 40.1168L39.6052 40.262L39.7471 40.4048L39.889 40.358L40.2691 40.8786L40.933 40.9771L41.0749 41.1186V41.2134L40.933 41.3069V41.59L41.1699 41.7328V42.0158L41.4068 42.3937L41.3587 42.7235L41.8153 43.0373L42.0226 43.3856V43.7622L41.4994 44.465L41.4513 45.1702L41.5932 45.5948V45.8299L41.3081 46.4871L41.0231 46.6262L40.548 46.6237L40.216 46.8096L39.1721 46.8514L39.0351 46.9806L38.8068 46.8034V46.588L39.1165 45.9099L39.3374 45.8557L39.3744 45.532L39.2486 45.0238L39.2782 44.7924L39.4189 44.5536L39.3892 44.2065L39.2054 43.9752L39.0943 43.2121L38.9104 43.0201L38.5637 42.8589L38.1651 42.7813L37.9516 42.7887L37.4876 42.6275L37.1261 42.6509L36.7201 42.5118L36.2561 42.5807L36.0858 42.9586L35.6724 43.1358L35.6872 43.3672L35.7242 43.521L35.8723 43.8681L35.6514 44.2533L35.475 44.4379L35.3281 44.4761L35.2467 44.6533L34.7827 44.8921L34.3397 44.8145L33.4475 44.9228L33.4253 44.7148L33.1822 44.6607L32.9613 44.7911L33.0057 45.0225L32.7848 45.0914L32.5195 45.3462L32.4603 45.2921L32.5491 45.2071L32.3653 45.1924L32.5417 44.977L32.4393 44.9536L32.4171 44.8613L32.174 44.8379L32.0555 44.9536L32.1074 45.0151L31.9013 45.0311L31.747 45.1616L31.5262 45.4927L31.4521 45.8003L31.5039 45.8779L31.2682 46.0933L31.1572 46.3394L30.2502 47.2022L30.0367 47.2329L29.8084 47.4409L29.4469 47.4483L29.1297 47.6255L28.9236 47.5566L28.8274 47.3523L28.973 47.3572L29.1161 47.1234V46.8416L29.2593 46.7012L29.3543 46.2779L29.2593 45.8545L28.9742 45.5702L28.7373 45.0988L28.8792 44.9118L29.0692 44.8182V44.5831L28.9273 44.3936L28.6904 44.3456L28.4054 44.4859L28.3572 44.6275L28.1672 44.7678L27.5971 44.5758L27.5502 44.3407L27.3601 44.1044L27.0751 44.0552L26.9332 44.1487L26.8382 43.7721L26.6012 43.3943V43.3007L27.2664 43.1629L27.4083 43.0693L27.5514 42.5057L27.6464 42.4121V41.9888L27.8365 41.8964L28.1215 41.8977L28.3116 41.6638L28.2647 41.334L28.1697 41.1925L27.4576 40.7642L27.2207 40.3863L27.0788 39.915L27.3639 40.011L27.5539 40.2953L27.6008 40.5783L27.6958 40.5796L27.8377 40.3925L28.3128 40.3014L28.4547 40.1611L27.9327 39.6405L26.9838 39.3057L26.5568 39.2565L26.2249 39.019L25.7029 38.9218L25.3709 38.6842L24.6589 38.4922L24.4689 38.3507L24.2788 38.0196L23.8519 37.7341L23.71 37.419L24.3874 37.3969L25.0316 36.731H25.3105L25.6251 35.952L26.099 35.9397L26.3692 35.6726L26.6062 35.6271L26.5593 35.2972L26.2742 35.0129V34.7766L26.4161 34.6363L26.6062 34.6376L26.7012 34.544L26.6543 34.3077L26.5124 34.2597V34.0714L26.4174 33.9766L26.3705 33.2222L26.5124 32.9871L26.7974 32.8001L27.1294 32.8025L27.3194 32.9453L27.4144 33.3231L27.6514 33.7957L27.8414 33.797L27.9364 33.5139L28.2215 33.2321L28.3165 32.9022L28.6497 32.3385V32.0087L28.3177 31.3466L28.1277 30.6377L28.2227 30.4961L28.4128 30.4506L28.6978 29.8857L28.7447 29.6026L28.6497 29.5078V29.3663L29.0298 29.1792L29.1729 29.1805L29.3629 28.8506L30.0281 28.7128L30.2181 28.4309L29.9812 27.8636L30.7882 27.727L30.9314 27.5387V27.3491L30.8363 27.2544L30.8746 27.0513Z" fill="#D72B2B" stroke="white" stroke-width="1.22173"/>
<path d="M13.7825 36.4409L13.9726 36.5357L14.1145 36.7252L14.4945 36.916L15.0165 37.06L15.3485 37.0624L15.6335 36.9221L15.9655 36.9714L16.6775 37.3529L16.8206 37.636L17.0094 37.6372L17.1995 37.4501L17.5314 37.5461L17.5796 37.8292L18.5285 38.0224L19.0505 37.6483L19.2887 37.6495L19.4306 37.4157L19.6206 37.2754L19.9526 37.2766L20.3326 37.4206L21.2347 37.4255L22.3268 36.9603L22.9438 36.8224L23.5608 37.0144L23.6558 37.1092L23.7027 37.4083L23.8446 37.7221L24.2728 38.0076L24.4616 38.3387L24.6516 38.4815L25.3637 38.6735L25.6956 38.911L26.2188 39.0082L26.5508 39.2458L26.9777 39.295L27.9267 39.631L28.4487 40.1516L28.3068 40.2919L27.8317 40.3842L27.6885 40.5713H27.5935L27.5466 40.2882L27.3566 40.0039L27.0728 39.9079L26.9296 40.0014L26.8827 40.1897L27.1197 40.4273V40.6156L26.4545 40.5639V40.7054L26.6446 40.8014V41.1313L26.5495 41.3183L26.3126 41.3171L26.2176 41.4106L26.0276 41.3626L25.8844 41.4562L25.7894 41.5965V41.9263L25.4575 42.0186L25.2205 41.8291L25.0774 41.9226L24.8873 42.2512L24.7454 42.25L24.6023 42.3903L24.0803 42.3411L24.0334 42.5281L24.1753 42.6241L24.4135 42.6254L24.5085 42.7201L24.4604 42.9072L24.2703 43.0475L23.9853 42.9995L23.8903 43.1866L23.4633 43.2789L22.9413 43.5115L22.8463 43.7466L22.5612 43.9804V44.2155V44.357L22.5131 44.7324L22.75 44.8752L22.655 45.1102L22.1812 45.1078L21.7542 45.2456L21.516 45.1976L21.1372 44.7718L21.0891 44.3484L20.8521 44.1121L20.9003 43.8758L20.8053 43.6407L20.3783 43.3552L20.0932 42.8838L19.9982 42.8358L19.4762 42.8321L19.3331 43.0204L18.2891 43.5324L17.909 43.8598L17.6721 43.8586L16.7701 43.1004L16.485 43.0044L16.3912 42.8149L15.6311 42.4346L15.0622 42.3842L14.5402 42.2402L11.5502 40.7633L11.312 40.3854L11.2183 39.3947L11.3133 39.0193L11.9303 37.7504V36.9492L12.1203 36.8557L12.9755 36.7658L13.5925 36.5812L13.7825 36.4409Z" fill="#D72B2B" stroke="white" stroke-width="1.22173"/>
<path d="M27.0721 39.9082L27.2141 40.3796L27.451 40.7574L28.163 41.1857L28.258 41.3272L28.3049 41.6571L28.1149 41.8909L27.8298 41.8897L27.6398 41.9832V42.4066L27.5448 42.5001L27.4029 43.065L27.2609 43.1586L26.5958 43.2964V43.3912L26.8327 43.769L26.9278 44.1456L27.0697 44.0521L27.3547 44.1013L27.5448 44.3376L27.5917 44.5727L28.1618 44.7647L28.3518 44.6244L28.3999 44.4841L28.685 44.345L28.9219 44.393L29.0638 44.5825V44.8176L28.8738 44.9112L28.7319 45.0982L28.9688 45.5696L29.2539 45.8539L29.3489 46.2785L29.2539 46.7019L29.1107 46.8422V47.124L28.9676 47.3579L28.8232 47.3529L28.6023 47.172L28.6097 46.9874L28.4542 46.5714L28.1741 46.441L28.0347 46.1874L27.3708 45.8797L27.0758 45.9647L27.0388 45.8182L26.7513 45.6877L26.5082 45.6804L26.3465 45.5031L26.1997 45.5265L25.964 45.6114L25.9048 45.7111L25.9492 45.8034L26.2441 45.6336L26.333 45.6496L26.3626 45.7493L25.7579 46.18L25.2791 46.7117L25.0953 47.1732V47.4428L25.1989 47.7431L25.3766 47.8354L25.4136 48.036L25.6419 48.1972L25.7826 48.4508L25.5469 48.7043L25.8863 49.1658L26.0566 49.2434L26.2194 49.828L26.5292 50.1664L26.3009 50.4901L26.2713 50.9676L26.1318 51.183L26.08 51.4673L25.4679 52.5897L25.3643 52.682L25.1878 52.698L24.8855 53.082L24.9003 53.3208L24.3327 53.7134L24.3401 54.2512L24.1562 54.2746L23.9649 54.5897L23.8168 54.6278L23.633 54.8198L23.2788 55.5115L22.5335 56.6253L22.3496 56.7176L22.0621 57.1939L21.6931 57.3933L21.6339 57.5238L21.0884 57.9385L20.8454 58.261L20.6689 58.6991L20.5874 58.7151L20.5159 58.4763L20.4776 58.165L20.6195 57.9779L20.5245 57.3674L20.3456 57.237L20.3147 56.837L19.6866 56.0518H19.3411L19.1844 56.5749L18.7451 56.7053L18.2465 56.0863L17.9615 55.8967L17.7406 55.9336V55.7564L17.6147 55.5275L17.3013 55.2986H16.7361L16.5473 55.0697L16.4844 54.874L16.5782 54.5798V53.9915L16.6411 53.8611L16.9545 54.0248L17.3001 53.9263L17.8023 53.2716L17.8652 52.9774L17.8023 52.4211L17.363 51.7011L17.9282 51.6679L18.1157 51.439L18.0849 51.3085L17.8652 51.1116L17.363 50.7842L16.7916 50.7215L16.8706 50.4889V49.8772L17.1075 49.5498L17.4876 49.4575L17.8677 49.6483L18.2947 49.604L18.5797 49.7L18.6747 49.6064L18.2959 48.3351L17.5839 46.9677V46.7794L18.2959 45.8428L19.0548 46.4114L20.1469 46.6526L20.7639 46.6563L21.9029 46.3339L22.1398 46.1L22.3299 45.6779L22.5668 45.4908L22.6618 45.1155L22.7568 44.8804L22.5199 44.7376L22.568 44.361V44.2195V43.9844L22.8531 43.7506L22.9481 43.5155L23.4701 43.2829L23.897 43.1918L23.9921 43.0035L24.2771 43.0527L24.4672 42.9124L24.5153 42.7241L24.4203 42.6294L24.1833 42.6281L24.0414 42.5334L24.0896 42.3451L24.6115 42.3955L24.7534 42.2552L24.8954 42.2564L25.0854 41.9278L25.2273 41.8343L25.4642 42.0238L25.7962 41.9315V41.6017L25.8912 41.4614L26.0343 41.3679L26.2244 41.4159L26.3194 41.3223L26.5563 41.3236L26.6513 41.1352V40.8054L26.4613 40.7106V40.5691L27.1264 40.6196V40.4313L26.8895 40.195L26.9376 40.0067L27.0721 39.9082Z" fill="#D72B2B" stroke="white" stroke-width="1.22173"/>
<path d="M8.47868 8.70264L8.71437 8.98571L8.99819 9.03494L9.09321 9.1777L9.56831 9.13339L11.0874 9.75738L12.0363 9.76353L12.7027 9.62569L13.3653 9.67615L13.5554 9.48785L13.8404 9.39431L14.5043 9.44477L14.6475 9.82507L14.5993 10.0146L14.7413 10.2054L15.0744 10.3026L15.2163 10.4921L15.4533 10.6361L15.8802 10.7801L16.2122 11.2097L16.5923 11.3056L17.0192 11.5456V11.7352L16.3072 12.4896L16.0222 13.057V13.9099L16.1641 14.3837V14.8108L16.0209 15.0471L15.689 15.1862L15.6421 15.2809L15.7359 15.9455L15.6408 16.5597L15.6877 17.3178L14.9757 17.4556L14.3118 17.3104L14.4068 17.7843L14.9288 18.1658L15.0238 18.4021L14.9757 18.5448L14.6438 18.7319L14.3106 19.2501L13.9786 19.2008L13.8367 19.0113L13.5048 18.9153L13.1247 19.0076L12.6027 18.7208L12.3646 18.9559L12.2695 19.6648L12.1745 19.7596L11.8426 19.6624L11.5106 19.8974L11.2256 20.274L11.1244 20.2408L10.8443 20.1842L10.4284 20.2174L10.3753 20.0882L10.094 20.034L9.94838 19.959H9.75094L9.55226 19.7965L9.27091 19.5701L9.32274 19.4396L9.27091 19.3534L8.84271 19.1479L8.89454 19.0507L8.82173 18.8661L8.74893 18.8882L8.64527 19.3116L8.46881 19.127L8.42562 18.8895L8.19732 18.9658L8.17635 18.8353L8.01963 18.8144L8.07146 18.5535L7.87402 18.4993V18.3701L7.92584 18.1633L7.82095 18.055L7.64326 17.6649L7.51862 17.6981L7.37178 17.4384L7.19531 17.3843L7.56922 17.1775L8.08997 17.1443L8.2146 16.732L8.54778 16.6015L8.81803 16.3947L8.99449 16.492L9.08828 16.2311L9.39061 16.4477L9.44244 16.5769H9.62013L9.69294 16.4907L9.63988 16.3172V16.1535L9.51401 15.5578L9.7423 15.2428L9.76328 14.8305L10.0125 14.5154L9.95949 14.364L10.0434 14.2336L10.0113 14.0157L9.83362 13.8644L9.76081 13.4201L9.61643 13.2921L9.68677 13.1591L9.61396 12.9536L9.70775 12.8773L9.79043 12.5844L9.75834 12.2804L9.66456 12.3776L9.45724 12.3025L9.36223 12.0207L9.38197 11.7278L9.20551 11.8041L9.11172 11.7278L9.11049 11.2392L8.93403 10.9463L8.28741 10.3284L8.23311 8.93894L8.47868 8.70264Z" fill="#D72B2B" stroke="white" stroke-width="1.22173"/>
<path d="M48.8236 12.8634L49.0606 13.149L49.4875 13.2462L49.6307 13.389L49.8195 13.3902L49.9626 13.4862V13.6277L50.0576 13.7237L50.3896 13.6782L50.6265 13.821L51.0066 15.0554L50.8634 16.0018L51.0535 16.1446L51.1954 16.6664L51.7174 17.7113L51.9074 17.8061L52.7613 17.7642L53.4734 17.9095L53.6634 18.0535L53.5684 18.5728L53.6153 18.9051L53.9003 19.1907L55.1343 19.4344L56.1314 19.8651L57.7442 20.3008L57.9343 20.3968L58.1243 20.6343L58.7413 21.0159L59.5002 21.2091L60.2123 21.2128L60.4973 20.6946L60.6874 20.6011L61.1624 20.6036L61.4944 20.7943L62.0164 20.8448L62.4433 20.7525L62.6815 21.038L63.2504 20.9469L63.4885 21.0429L63.4404 21.2312L63.2504 21.23L63.0135 21.5131L62.8703 22.0792L62.6803 22.078L62.6334 22.2675L62.4433 22.2663L62.3483 22.1715L62.2533 22.3598L62.0164 22.4054L62.1114 22.5949L62.0164 22.6897L61.5882 22.9703L61.3044 22.969V23.2533L61.5882 23.5856L61.7782 24.1542L61.1612 24.1505L61.0181 24.2909L60.6861 24.1481L60.211 24.0976H60.0691L59.6421 24.3315L58.8351 24.2318L58.3131 24.4656L57.743 24.2724V25.5487L57.553 25.6902L56.6509 25.6373L56.7459 24.8816L57.031 24.2219L56.9841 24.1272L56.6509 23.9832L56.1771 23.9327L55.8451 23.6472L55.275 23.3604L55.0381 23.3592L54.7049 23.689L54.563 23.6878L54.231 23.449L53.1389 23.1598L52.807 22.8743L52.712 22.873L52.6651 22.7315L52.3319 22.729L52.19 22.4447L52.0481 22.5863L51.7149 22.6786L51.573 22.5838V22.489L51.241 22.4398L51.146 22.6281L51.0029 22.5801L50.956 22.7697L50.8128 22.7204L50.861 22.4374L50.8128 22.3426L50.6709 22.4841L50.529 22.4361L50.2909 22.8595V22.5284L50.1958 22.6232L50.1008 22.5284L49.9589 22.622L49.7689 22.6207L49.8639 22.2897L49.6739 22.2417L49.4838 22.3352L49.1519 22.7118L49.01 22.5223L48.9149 22.6158L48.8668 22.8521L48.393 22.7069L48.2498 22.4706L47.966 22.5629L47.871 22.3266L47.7759 22.4201L47.6809 22.3254L47.4909 22.4189L47.3009 22.3229L47.1108 22.3697L46.9689 22.4632V22.558L47.0639 22.5112L47.0627 22.6527L46.8739 22.6515L46.6839 22.2724L46.3038 21.9857L45.9718 21.8897L45.498 21.3198L45.2598 21.1771L44.976 20.7968L44.881 20.4645L44.786 20.0854L44.644 19.8959V19.5168L44.786 19.187L45.071 18.9987L45.261 18.7156V18.243L45.4992 17.7236L45.4511 17.3913L45.7361 16.5889L45.8793 15.7372L46.6394 15.1723L46.8295 15.0788L47.0664 15.08L47.3515 14.7982L47.9216 14.6111V14.4696L47.5415 14.3256L47.4465 14.088L47.5884 13.8037L48.0635 13.5699L48.2535 13.5711L48.4435 13.4296L48.4917 13.0518L48.3967 12.861L48.2535 12.813L48.8236 12.8634Z" fill="#D72B2B" stroke="white" stroke-width="1.22173"/>
<path d="M77.304 25.5112L77.5249 25.5814L78.0185 26.4084L78.4467 26.4318L78.5429 26.7567L78.7934 26.8798L78.8675 26.833L79.118 27.1038L79.2586 27.073L79.4067 27.1653L79.9596 27.073L80.41 27.142L80.7789 27.057L80.9714 26.902L81.0159 26.7247L80.7061 26.4158L80.7135 26.3149L80.9937 26.1918L81.1775 26.3383L81.465 26.3457L81.6205 26.2607L81.6798 26.1291L81.6353 26.0368L81.9007 25.8595L82.3066 26.006L82.4609 25.8509H82.6312L82.9705 25.9752L83.3173 25.9986L84.7043 26.9647L84.9178 26.9573L85.0659 26.8257L85.4571 26.865L86.0469 27.2675L86.253 27.2133L86.6059 27.3143V27.7906L86.369 27.6946L86.4159 28.0256L86.3209 28.1192L86.0839 28.0232L85.942 28.3062L85.5619 28.3518L85.4669 28.5401L85.5138 29.1074L85.3238 29.1542L84.9918 29.4361V29.5776L85.2288 29.9567L85.8927 31.4705L85.9396 32.3677L85.8445 32.6975L85.5126 32.8846L85.1325 33.4015L84.6574 33.6821L84.2305 34.4821L83.9935 34.5276L83.5666 34.3836L82.9027 34.4267L82.8076 34.5202L82.7126 34.8501L82.7595 35.2747L82.5695 35.4617L82.6176 35.698L82.8076 35.8876V36.0291L82.3326 36.0267L82.0006 35.8359L81.9056 35.8827L81.5736 36.5879L81.3836 36.8229L81.0517 37.6697L80.6247 38.2334L79.8177 38.8414L79.7226 39.1712L79.2006 39.6869L78.6305 39.8727L78.7737 38.7429L79.0106 38.6506L78.9156 38.4623L78.1567 38.4574L77.8716 38.6444L77.5866 38.69L76.8745 38.3097L76.6376 37.7423L75.8787 37.2192L75.4517 37.0752L75.1667 37.2155L74.8816 37.2143L74.7397 36.8832L74.3609 36.7393L74.409 36.2679L74.5509 36.2691L74.6928 36.1288H74.7878L74.8829 35.9885L74.9779 35.6119V35.0458L75.2629 34.199L75.216 33.7276L75.358 33.3978V33.1147L75.121 32.5941L74.3152 31.5985L74.0783 31.4089L73.4144 31.2169L73.2725 30.7443L73.0356 30.6963L72.8455 30.5536L72.5136 29.7487L72.2285 29.4644V29.1813L72.3704 28.9462L72.4654 28.0022L72.7024 27.9567L73.1775 28.1955L73.9845 28.7665L74.2214 28.8158L74.6015 29.0545L75.9305 29.2982L76.1206 29.2527L76.2637 29.0176L76.2168 28.6865L75.7417 28.1647L75.2197 27.8312L74.8397 27.1678L74.7928 26.6484L75.1729 26.5561L75.4567 26.2669L75.6331 26.3432V26.4897L75.7072 26.5364L75.8108 26.4515L76.0465 26.4823L76.2094 26.2817L76.2168 26.4281L76.4747 26.4441L76.6586 26.4749L76.7623 26.3826H76.9979L77.0424 26.5291L77.1386 26.5451L77.072 26.7457L77.2929 26.8232L77.4915 26.5217L77.4619 25.8485L77.2916 25.6245L76.9745 25.702L77.1287 25.5555L77.304 25.5112Z" fill="#D72B2B" stroke="white" stroke-width="1.22173"/>
<path d="M44.6554 6.77832V6.88786L45.054 7.37646L46.2485 8.34751L46.6841 8.59612L47.385 8.83611L48.4833 8.86811L48.7708 9.02319L49.5161 9.22503L49.6852 9.20903L49.9801 9.41087L50.18 9.3641L50.644 9.42687L52.0533 9.13765L52.0989 9.32595L52.0039 9.61025V10.0841L51.9089 10.4631L51.7657 10.6047L51.1018 10.8853L50.6736 11.2619L50.3417 11.3074L50.0097 11.4957L49.8666 11.3997L49.2977 11.444L49.1077 11.3481L48.9658 11.4416L49.0596 12.1542L48.8226 12.8631L48.2525 12.8126L47.9206 12.5259L47.5886 12.0508L47.4936 11.7185L47.6355 11.529L47.5886 11.3862L47.4467 11.2434L47.1135 11.1474L46.8297 11.145L46.5915 11.2865L46.2596 11.3321L46.0227 11.6619L45.7376 11.7554L45.6426 11.8502L45.3094 12.8434L45.0725 12.9369L44.7874 12.8409L44.6455 12.6502L44.5974 12.0816L44.5024 11.9856L43.9804 11.8883L43.7435 11.7443L43.5065 11.4108H43.4115L42.7945 12.8286L42.8414 13.4932L42.6032 13.8711V14.2501L42.6983 14.4864L42.9833 14.82V15.1523L42.6501 15.8599L42.3182 17.2322L42.1281 17.61L42.1269 17.8463L41.985 17.8919L41.9369 18.1762L41.8431 18.2697L41.2249 18.2673L41.1311 18.1245V17.2728L40.7041 16.4655L40.6091 16.4642L40.4191 16.6525L40.229 16.9836L39.802 17.0279L38.5199 16.879L38.378 16.7362L38.3299 16.4987L38.2349 16.4507L38.3311 16.2144L38.5211 16.0261L38.7581 16.0273L38.9481 16.2181L39.0431 16.1713V16.0298L38.9 15.887L38.7581 15.4599L38.7112 14.9861V14.7966L39.0431 14.2292L38.9962 13.5191L39.1394 13.3295L39.5182 13.2372L39.9933 12.8606V12.292L40.1365 12.1037L40.2784 12.057L40.3734 10.9665L40.8016 10.4472V10.2108L40.6584 9.97332V9.83055L40.8485 9.49948L40.8497 9.26195L40.7547 9.21395V9.07242L41.0385 8.97888L40.9447 8.88411L40.9916 8.74135L41.2286 8.50628L41.3717 8.60104L41.4667 8.55428L41.6086 8.69704L41.7518 8.55551L42.0837 8.55797V8.65273L42.1787 8.70073L42.2256 8.36843L42.6538 8.41889L42.8439 8.27736L42.9377 8.27859L43.1277 8.65889L43.3177 8.66012L43.4609 8.42382L43.6497 8.61458L43.6978 8.37705L43.7928 8.37828L43.8878 8.61581L44.0766 8.56904L44.0298 8.42628H43.8878V8.28351L44.5048 8.19244L44.5517 8.09767V7.86014L44.3629 7.43184L44.648 6.77832H44.6554Z" fill="#D72B2B" stroke="white" stroke-width="1.22173"/>
<path d="M75.4469 26.2546L75.1631 26.5438L74.783 26.6361L74.8299 27.1555L75.21 27.8189L75.732 28.1524L76.2071 28.6742L76.254 29.0053L76.1121 29.2404L75.922 29.2871L74.593 29.0435L74.2129 28.8047L73.976 28.7567L73.169 28.1856L72.6939 27.9469L72.4569 27.9924L72.3619 28.9364L72.22 29.1715V29.4545L72.5051 29.7388L72.837 30.5437L73.0271 30.6865L73.264 30.7357L73.4059 31.2083L74.0698 31.4003L74.3067 31.5911L75.1138 32.5868L75.3507 33.1074V33.3904L75.2088 33.7203L75.2557 34.1929L74.9706 35.0408V35.607L74.8756 35.9836L74.7806 36.1251H74.6856L74.5436 36.2654L74.4017 36.2642L74.3536 36.7356L74.1154 37.0642L73.8304 37.2045L73.2134 37.2488L73.1184 37.4371V37.8137L72.9765 38.002V38.5201L73.0715 38.6617L72.7864 38.6604L72.7383 38.9435L72.2632 39.2241L71.8831 39.5995L71.6931 40.0229L71.1711 39.1724L71.1242 38.8894L70.8873 38.4635L70.7923 37.9442L70.3653 37.6586L70.1753 37.2328L70.1284 36.855L69.8433 36.5239L69.7014 36.146L69.4163 36.0033L69.3695 35.815L69.7026 35.3928L69.5126 35.1085V34.3541L69.2276 33.8335V33.5504L69.0856 33.4077L68.8006 33.3584L68.7056 33.1221L68.8006 32.3677L68.8956 32.2261L69.0856 32.0858L69.1338 31.756L69.3238 31.7105L69.752 31.1468L70.274 31.0077L70.464 30.5363L70.8441 30.4908L71.0341 30.161V29.8779L70.8441 29.7351L70.559 29.7339L69.8001 29.8717L69.325 29.5382L68.613 29.2982L68.091 28.9179L67.6159 28.7739L67.1421 28.3936L66.857 28.3444L66.6201 28.2016L66.4782 27.9653L66.2881 27.8226L65.6243 27.5358L65.1504 27.1075L64.8653 26.9647L64.3902 26.8675L64.1533 26.4884L64.4384 25.8288L64.7777 24.4663L65.0801 24.5279L65.6995 24.3728L65.7514 24.2805L65.9648 24.3039L66.0907 24.1722L66.282 24.3347L66.4732 24.3273L66.5251 24.443H66.857L67.3506 24.2879L67.6011 24.2571L67.7788 24.2263L68.0071 24.4503L67.9997 24.5746L68.634 24.5439L68.6932 24.4663L68.8475 24.6054L68.9437 24.7297L69.0326 24.7765L69.3423 24.6214L69.4312 24.0417L69.1584 23.9728L69.0918 24.1045L68.9585 23.9962L68.8993 24.1353L68.7228 24.1033L68.3983 24.1968L68.3909 24.1193L69.1436 23.91L69.5348 23.9642L70.1025 23.8633L70.4048 24.0097L70.7441 24.3347L70.9132 24.3814L70.8614 24.5205L70.9502 24.6128L70.854 24.7137L70.8614 24.8528L71.023 25.1162L71.6943 25.2786L71.9967 25.526L72.8444 25.3796L73.0431 25.5962L73.1616 25.6035L73.2134 25.766L73.649 25.8743L74.1352 26.2915L74.9607 25.9666H75.1594L75.4469 26.2546Z" fill="#D72B2B" stroke="white" stroke-width="1.22173"/>
<path d="M6.82112 35.459L7.89594 35.4651L10.222 35.9488L11.7411 35.9107L12.2631 36.1494L13.5921 36.3451L13.7821 36.4411L13.5921 36.5814L12.9751 36.766L12.1199 36.8559L11.9299 36.9494V37.7506L11.3129 39.0195L11.2179 39.3949L11.3117 40.3856L11.5498 40.7635L14.5398 42.2403L15.0618 42.3843L15.6307 42.4348L16.3908 42.8151L16.4846 43.0046L16.7697 43.1006L17.6717 43.8588L17.9087 43.86L18.2887 43.5326L19.3327 43.0206L19.4758 42.8323L19.9978 42.836L20.0929 42.884L20.3779 43.3554L20.8049 43.6409L20.8999 43.876L20.8518 44.1123L21.0887 44.3486L21.1368 44.772L21.5157 45.1978L21.7538 45.2458L22.1808 45.108L22.6546 45.1104L22.5596 45.4858L22.3227 45.6729L22.1327 46.095L21.8957 46.3289L20.7555 46.6525L20.1385 46.6489L19.0464 46.4076L18.2875 45.839L17.5755 46.7756V46.9639L18.2875 48.3313L18.6663 49.6039L18.5713 49.6962L18.2863 49.6014L17.8593 49.6457L17.4792 49.4562L17.1004 49.5472L16.8622 49.8758V50.4863L16.7832 50.7189L16.3513 50.4223L15.8491 49.866L14.8446 48.9811L13.8093 48.8839L13.2417 48.7202L12.6382 48.3473L11.9891 48.1627H11.5177L11.1735 47.967L10.8909 47.6384L10.2171 47.1584L9.88516 46.7325L9.61861 46.7313L9.44708 46.591L8.88314 46.3929L9.7198 44.9898L7.04201 43.9277L6.81248 43.54L6.11403 43.3899L5.73766 42.5394L4.86152 42.0668L4.11124 41.7653L3.86074 40.9899L4.75539 40.8262L4.73442 40.4705L2.7526 38.3697L2.42806 37.6472H2.20964L1.92705 37.2596L1.55192 37.3137L1.3335 37.1094L1.62472 36.9248L2.03071 36.7943L2.45644 36.222L3.03025 36.4583L3.4782 36.814L3.65589 36.7599L3.87308 36.4239H4.1026L4.65544 36.7574L4.74922 37.0159L4.92692 36.9949L5.05032 36.7353L5.49827 36.7882L5.70681 36.9716L6.15476 36.8411L6.47807 36.9162L6.70636 36.7857L6.62244 36.062L6.79891 35.8245L6.82112 35.459Z" fill="#D72B2B" stroke="white" stroke-width="1.22173"/>
<path d="M87.2454 48.9796L87.3935 49.1261L88.3079 49.3796L88.8533 49.7255L89.3691 49.7415L89.2877 49.6565L89.3247 49.595L89.7381 49.6639L89.8788 49.9101L90.1811 49.9569L90.3588 50.0873L90.8598 50.0184L91.0585 50.1033L91.4571 49.9642L91.6927 50.0184L92.1061 50.3261L92.364 50.6571L92.5047 50.9722L92.4899 51.3033L92.269 51.4424L92.1876 51.2959L92.0543 51.3267L91.9877 51.2036H91.7594L91.214 51.0042L90.513 50.8811L90.2403 51.0424L90.0639 51.0116L89.7171 51.1113L89.5332 51.3119L89.3346 51.3279L87.5428 50.7051L87.6094 50.6054L87.5576 50.459L87.1232 49.9285L86.7987 49.6898L86.8431 49.243L87.0134 49.0732L87.2454 48.9796ZM86.6111 27.3125L86.8986 27.459L87.0541 27.443L87.4379 27.7679L87.8143 27.8368L88.6768 28.4325L88.7731 28.5715L89.068 28.6946L89.4222 29.1586L90.3588 29.9623L90.4328 30.1555L91.0893 30.8669L91.1337 31.0293L91.4879 31.2226L91.6138 31.4847L92.0346 31.7321L93.0674 32.8139L93.4142 33.0539L93.5475 33.0465L93.6289 32.8607L93.814 32.969L93.7844 33.0613L93.8806 33.1844L94.7432 33.9486L95.0085 34.0877L95.2812 34.1185L95.554 34.4742L95.8859 34.7523L95.8933 34.8914L96.0192 35.0612L96.5276 35.3308L96.7263 35.7086L97.0952 36.0175L97.3457 36.18H97.4494L97.5678 36.0409L98.0614 36.4581L98.5119 36.6747L99.0055 37.3455L98.9092 37.5079L99.0721 37.6089L99.0277 37.9485L98.8586 37.9645L99.0067 38.1725L98.808 38.6894L98.6093 38.9208L98.3811 39.3836L98.0121 39.8156L97.9677 40.0629L97.8566 40.1405L97.5543 40.6808L97.2297 40.7657L97.2371 41.0512L96.9866 41.5066V41.6457L96.5732 41.9854L96.419 42.0161L96.2351 42.325L95.8513 42.6795L95.7193 43.1423L95.6823 44.4751L95.2985 44.9453L94.642 45.1533L92.828 44.5761L92.6072 44.3841L92.4011 44.3459L92.1061 44.1613L91.8556 43.9385L91.4065 44.1539L91.3102 44.3151L91.2954 44.5773L91.6348 45.0007L91.6718 45.2862L91.2954 46.1182L90.9857 46.4345L90.8376 46.7495L90.7204 47.3354L90.6019 47.4129L90.6167 48.1292L90.6315 48.2141L90.6463 48.5218L90.5797 48.6917L90.1009 48.4763L90.012 48.5378L89.6209 48.5304L89.3333 48.6917L88.899 48.699L88.5448 48.5833L88.4411 48.7138L88.2943 48.6904L88.1684 48.8443L88.0426 48.8676L87.9796 48.8295L88.0216 48.72L88.161 48.7446L88.2573 48.491L88.0216 48.3212L87.8747 48.3286L87.7637 48.4677L87.8081 48.6449L87.9624 48.683L87.9377 48.7446L87.6094 48.891L87.7057 48.6597L87.602 48.0517L87.2923 47.6591L86.8579 46.6043L86.3643 45.9348L86.0324 45.1877L85.4351 44.7484L85.2438 44.3939L85.3253 44.2327L85.2438 44.133L83.6816 43.4019L83.7593 43.1583L83.9494 42.9244L83.9975 41.9361L84.2825 41.7958L84.2357 41.6075L84.4257 41.3737L84.4738 41.1386L84.6639 40.9515L85.0908 40.106L84.9958 40.0113V39.0217L84.2838 38.5467L83.7618 37.695L83.5249 37.599L83.478 36.9393L83.383 36.7978L83.146 36.7498V36.4667L82.861 36.2772L82.8141 36.0409V35.8994L82.624 35.7098L82.5771 35.4735L82.7672 35.2865L82.7203 34.8618L82.8153 34.532L82.9103 34.4385L83.5742 34.3954L84.0012 34.5394L84.2381 34.4939L84.6663 33.6939L85.1414 33.4133L85.5215 32.8964L85.8534 32.7093L85.9485 32.3794L85.9016 31.4822L85.2377 29.9684L85.0007 29.5894V29.4478L85.3339 29.166L85.524 29.1205L85.4771 28.5531L85.5721 28.3648L85.9522 28.3192L86.0941 28.0362L86.331 28.1322L86.426 28.0386L86.3791 27.7076L86.616 27.8036V27.3273H86.6111V27.3125Z" fill="#D72B2B" stroke="white" stroke-width="1.22173"/>
<path d="M15.0229 18.4028L15.2598 18.5001L15.4968 18.4533L16.1138 18.7413L16.4457 19.2163L16.4938 19.7837L17.4897 20.5468L17.7747 20.548L18.3436 20.9775L18.9606 21.1695L19.2938 21.4083H19.2457L19.1038 21.5966L18.9606 22.8729L19.0556 23.2039L18.9125 23.3922L18.5805 23.5793L18.0104 23.5769L17.6304 23.9055L17.4415 23.9042L17.3934 23.7147L17.0615 23.7135L16.5876 23.2372L15.6856 23.0907L15.4005 23.183L14.9254 23.8907L14.9723 24.4581L14.6404 24.975L14.2603 25.9189L14.2122 26.5331L14.1171 26.6266L13.8321 26.6722L12.93 26.4309L12.6931 26.4765L12.408 26.7115L11.411 27.9337V28.0752L11.506 28.1712L11.696 28.2192L11.6479 28.6906L11.2209 29.397L11.1728 29.9632L11.2678 29.9644L11.5529 29.6825L11.6479 29.7293L11.5998 30.7213L11.7417 31.2407L11.5516 31.4757L11.4579 31.8056L11.3147 31.8991L11.6948 32.1379V32.3262L11.8836 32.5637L12.2637 32.7545H12.4537L12.5006 32.8972L12.8338 33.088L12.8807 33.3231L12.7375 33.6061L12.5956 33.6997L12.5487 33.888L12.6425 34.0775L12.7856 34.1723L12.9744 34.5981L13.2595 34.7409L13.7346 34.6966L13.9715 34.8393L14.1616 35.3119V35.5002L13.9715 36.2067L13.7815 36.4418L13.5915 36.3458L12.2624 36.1501L11.7404 35.9113L10.2214 35.9495L7.89528 35.4658L6.82046 35.4596L6.77727 35.3821L6.95374 35.1987L7.17216 35.2849L7.27581 35.1975L7.32764 34.8086L8.5456 34.3421L8.94789 32.0616L8.98738 31.2616L8.84176 31.024V30.8185L8.86151 30.0936L8.81955 30.0395L8.5382 30.0075L8.56905 29.8019L8.48514 29.6518L7.91133 29.2309L7.71388 29.2099L7.31653 28.0641L7.35726 27.8906L7.10799 27.7823L7.0142 27.9349L6.53418 27.7626L6.48235 27.6001L6.13806 27.5029L5.98257 27.6555L5.88879 27.45L5.69135 27.6555L5.56548 27.7318L5.41 27.8943V27.8081L5.2323 27.6568L5.23353 28.0998L5.03609 28.122L4.8584 28.0469L4.73376 28.2524L4.66095 28.2315L4.58691 27.7663L4.71278 27.8414L4.8584 27.8094L4.83618 27.4192L5.08669 27.322L5.06571 27.1374L5.19034 27.0832L5.21132 27.2666L5.38778 27.2457L5.35693 27.1152L5.48157 26.9848L5.46059 26.8235L5.65803 26.8765L5.76169 26.6168H5.93938L5.95913 26.4654L6.03193 26.5085L6.10597 26.8002L6.68843 26.6697L6.7094 26.5392L6.8871 26.4851L6.95991 26.6365L6.90808 26.7226L7.08454 26.8198L7.18943 26.7977L7.20918 26.6894L7.08454 26.5922L7.10552 26.4088L7.261 26.2783L7.35479 26.3325L7.51151 26.2451L7.31283 26.1159L7.63491 25.7257H7.70771L7.78052 25.8882L7.88541 25.855L7.81137 25.6494L8.18651 25.2913L8.43578 25.4217L8.50858 25.2039L8.78006 25.1608L8.9047 24.9984L9.08116 24.9221V24.8457L8.95653 24.8137L9.08116 24.6082L9.25763 24.7374L9.47604 24.5319L9.18482 24.4236L9.20456 24.2501H9.45383L9.5797 24.1627L9.52787 23.9362L9.3292 23.8279L9.38103 23.6975L9.57847 23.5682L9.93263 23.7516L10.0573 23.567L9.97458 23.3393H10.1301H10.2757L10.4744 23.4353L10.7236 23.2839L10.9519 22.8175L10.7224 22.6563L11.0975 22.5036L10.8989 22.319L11.0037 22.2981L11.0247 22.2107L11.0025 22.0815L10.8989 22.0384L10.9297 21.908L11.2012 21.951L11.274 21.8747L10.8989 21.6692L10.9717 21.5609L11.1481 21.6151L11.2209 21.5178L11.3974 21.5388L11.4505 21.4083L11.1271 21.2249L11.1469 20.9652L11.4282 20.8348L11.501 20.9431L11.5739 20.8348L11.3962 20.7043L11.1765 20.3474L11.2246 20.2748L11.5097 19.8982L11.8416 19.6631L12.1736 19.7603L12.2686 19.6656L12.3636 18.9567L12.6018 18.7216L13.1238 19.0084L13.5038 18.916L13.8358 19.012L13.9777 19.2016L14.3096 19.2508L14.6428 18.7327L14.9748 18.5456L15.0229 18.4028Z" fill="#D72B2B" stroke="white" stroke-width="1.22173"/>
<path d="M80.778 44.0145L81.1692 44.4686L81.2802 44.8157L81.3098 44.9314L81.2506 45.0852L80.6607 44.8932L80.4028 44.6926V44.5929L80.5287 44.6163L80.6176 44.0391L80.778 44.0145ZM78.6234 39.8681L79.1935 39.6835L79.7155 39.1678L79.8105 38.838L80.6176 38.23L81.0445 37.6663L81.3765 36.8196L81.5665 36.5845L81.8997 35.8793L81.9947 35.8325L82.3267 36.0233L82.8017 36.0257L82.8486 36.262L83.1337 36.4528V36.7359L83.3706 36.7839L83.4656 36.9254L83.5125 37.5851L83.7507 37.6811L84.2727 38.5328L84.9847 39.0078V39.9973L85.0797 40.0921L84.6528 40.9376L84.4627 41.1247L84.4146 41.3598L84.2245 41.5948L84.2714 41.7831L83.9864 41.9234L83.9383 42.9117L83.7482 43.1456L83.6705 43.3892L83.4113 43.3819L82.8881 43.2736L82.6376 43.1345L82.476 43.2342L82.3797 43.0409L82.181 42.9954L81.7973 43.1566L81.7528 43.3105L81.6418 43.388L81.1112 43.3499L80.6546 43.5271L79.4527 43.6354L78.8616 43.6046L78.6715 43.1173L78.7665 42.7886L78.6246 42.5523V42.4108L78.1977 41.7967L78.0558 41.7019L77.8657 41.3241V41.089L78.0558 40.7136L78.4827 40.2915L78.6234 39.8681Z" fill="#D72B2B" stroke="white" stroke-width="1.22173"/>
<path d="M38.2352 16.4507L38.3302 16.4987L38.3784 16.7362L38.5203 16.879L39.8024 17.0279L40.2294 16.9836L40.4194 16.6525L40.6094 16.4642L40.7044 16.4655L41.1314 17.2728V18.1245L41.2252 18.2673L41.8434 18.2697L41.9372 18.1762L41.9853 17.8919L42.1273 17.8464L42.2223 18.415L42.3642 18.746L42.7443 19.0796L43.0293 19.6026L43.1712 20.1232L43.5032 20.5515L44.3102 20.4137L44.8803 20.4641L44.9753 20.7964L45.2592 21.1767L45.4973 21.3195L45.9712 21.8893L46.3031 21.9853L46.6832 22.2721L46.8732 22.6512L47.062 22.6524L47.2052 22.7004L47.1571 22.8419L47.062 22.8887L46.9201 22.7459H46.8251L46.6832 23.1705L46.3982 23.3108L45.828 23.3551L45.7811 23.2604L45.4961 23.2579L45.0691 23.8228L44.8791 23.8216L44.499 24.0087L44.309 24.2437L44.1189 24.7163V24.101L43.787 23.8634L43.0281 23.6222L42.648 23.8573L42.5999 24.2819L42.1248 24.6573L41.7459 24.4665L41.0327 24.5563L40.7007 24.7434L40.4638 25.0733V25.4043L40.6057 25.5939L40.6539 26.0197L40.8908 26.7766L40.8895 27.4855L40.5576 27.6726L40.3676 27.6713L40.1775 27.8129L40.0825 28.1427L39.6074 28.5649L39.4174 28.8467L38.6585 29.2676L38.3253 29.9741L38.3734 30.2571L38.6572 30.4011L38.9423 30.7802L39.3224 31.0657L39.6062 31.7746L40.2232 32.3445L40.3663 32.6288L40.2232 32.8171V32.9586L40.3651 33.6195L39.985 33.7586L39.8431 33.9001L39.6531 34.2287L39.7481 34.5118L39.7 34.6533L39.178 34.6509L38.8929 34.7899L38.656 35.025V35.5911L38.4178 35.6834L37.944 35.681L37.7539 35.5382L37.327 35.489L36.5668 35.6736L35.9498 35.7167L35.8992 35.6662L36.2324 35.3979L36.3299 34.7899V33.9813L36.1682 33.4915L35.5722 32.9857L35.0416 32.9217L34.859 32.7863L34.337 32.8306L33.6225 31.7882L33.3325 31.4842L32.834 31.2479L32.6772 30.9894L32.7241 30.603L32.2972 30.0824L32.2503 28.9008L32.3922 28.7605L32.5822 28.7618V28.5255L32.2984 28.1452L32.1084 28.0504L32.0602 27.6246L32.2515 27.248L31.8233 26.7261L31.6333 26.6301L31.3963 26.7237L31.2544 26.912L30.8744 27.0511L30.7793 26.6732L30.4943 26.1994L30.2105 26.0086L30.4005 25.7735V25.584L30.3055 25.1582L30.1636 24.9206L30.2105 24.6376L30.8756 24.688L31.1125 24.501L31.2544 24.1711L31.3976 24.0776L31.8245 24.1268L32.2046 23.845L32.6316 23.7527L32.7747 23.6124L32.9648 23.0462L33.3917 23.0487L33.9137 22.9096L34.0569 22.7681L34.1519 22.7693V22.6745L34.2938 22.581L34.5788 22.5342L34.6739 22.3939L34.9577 22.3004L35.0539 21.6863L35.244 21.2617L35.434 21.0734L35.5759 21.1214L35.7178 21.5004L36.0498 21.5497L36.2398 21.6924L36.478 21.6001L36.668 21.3638V21.269L36.478 21.221L36.5249 20.89L36.3361 20.7472L36.5261 20.4174L36.4311 20.1331L36.573 19.9448L36.478 19.8968L36.4311 19.6592L36.573 19.4242L36.3842 19.2814L35.7672 19.0882L34.722 18.6094L34.627 18.4667L35.007 18.4691V18.3263L34.722 18.1824L34.6282 17.8033L35.007 17.8057L35.1021 17.6174L35.2921 17.6187L35.5303 17.4304L36.1942 17.4808L36.2892 17.3393V17.103L36.3842 17.0095L37.2394 16.7768L37.7613 16.4482L38.2352 16.4507Z" fill="#D72B2B" stroke="white" stroke-width="1.22173"/>
<path d="M54.8267 7.65527L55.0105 7.67127L55.224 7.74881L55.5486 7.72543L55.7917 7.90388L55.9546 7.88911L56.073 8.10572L56.2273 8.12172L56.2421 8.37033L56.3963 8.50941L56.4852 8.54879L56.6333 8.44048L56.8097 8.64971L57.1935 8.72725L57.5699 9.50384L57.6291 9.84476L57.5551 10.1401L57.3329 10.481L57.3268 11.0016L57.0676 11.4829L57.2749 11.9641L57.4884 12.2201L57.8056 12.3198L58.0265 12.5376L57.9092 12.7308V13.8643L57.8204 14.0416L57.9166 14.4379L58.219 15.1431L58.6089 15.7474V16.1424L58.8532 16.4994L59.4357 16.9646L59.4653 17.212L59.6788 17.3596L59.6936 17.5221L59.9071 17.8162L60.5438 18.4205L60.5932 18.8008L61.0202 19.1824L60.8301 19.1811L60.4982 18.9904L60.4032 19.0371L60.6401 19.3227L60.5932 19.4642L60.4982 19.463L60.2131 19.2254L60.0231 19.271L60.07 19.5553L60.2131 19.7928V19.9823H60.3081L60.355 20.1251L60.26 20.1719V20.3614L60.165 20.4549L59.975 20.3122L59.833 20.359L59.7849 20.7368L60.165 20.9756L60.2119 21.2119L59.4999 21.2082L58.7409 21.0149L58.1239 20.6334L57.9339 20.3959L57.7439 20.2999L56.131 19.8642L55.1339 19.4334L53.8999 19.1897L53.6149 18.9042L53.568 18.5719L53.663 18.0525L53.473 17.9086L52.761 17.7633L51.907 17.8052L51.717 17.7104L51.195 16.6655L51.0531 16.1437L50.8631 16.0009L51.0062 15.0545L50.6261 13.82L50.3892 13.6773L50.0572 13.7228L49.9622 13.6268V13.4853L49.8191 13.3893L49.6303 13.3881L49.4871 13.2453L49.0602 13.1481L48.8232 12.8625L49.0602 12.1536L48.9664 11.441L49.1083 11.3475L49.2983 11.4435L49.8672 11.3992L50.0104 11.4952L50.3423 11.3069L50.6743 11.2613L51.1025 10.8847L51.7663 10.6041L51.9095 10.4626L52.0045 10.0835V9.60969L52.0995 9.32539L52.0539 9.13708L52.3266 8.93647L52.5105 8.43187L52.6659 8.24603L53.0115 7.95065L53.2262 7.94327L53.4323 7.8805L53.9555 7.72543H54.0665L54.148 7.82635L54.6564 7.80296L54.8267 7.65527Z" fill="#D72B2B" stroke="white" stroke-width="1.22173"/>
<path d="M40.3662 32.6291L40.2231 32.3448L39.6061 31.775L39.3223 31.0661L38.9422 30.7805L38.6571 30.4015L38.3733 30.2575L38.3252 29.9744L38.6584 29.268L39.4173 28.847L39.6073 28.5652L40.0824 28.1431L40.1774 27.8132L40.3675 27.6717L40.5575 27.6729L40.8895 27.4858L40.8907 26.7769L40.6538 26.02L40.6056 25.5942L40.4637 25.4047V25.0736L40.7007 24.7438L41.0326 24.5567L41.7459 24.4668L42.1247 24.6576L42.5998 24.2822L42.6479 23.8576L43.028 23.6226L43.7869 23.8638L44.1189 24.1013V24.7167L44.2139 25.1425L44.7359 25.7124L44.6408 26.468L44.6877 26.8459L44.7827 26.9406L45.3047 27.0379L45.6367 27.1819L45.7317 27.3246V27.7492L46.4906 28.3203L46.4388 28.3671L46.7843 28.6809L47.3223 28.9713L47.6938 29.4107L48.0973 29.7184L48.47 30.2735L48.5909 30.7707L48.3416 30.975L48.0566 31.0673L47.9615 31.2088V32.0113L47.8665 32.2463L47.6284 32.4334L47.0583 32.6193L46.7263 32.8531L46.4894 33.1349L46.4413 33.3712L46.5832 33.5608L46.6313 33.8906L46.5832 34.0321L46.2031 34.3595L46.1093 34.5958L45.8242 34.8297L45.6811 34.8284L45.2418 34.5134L44.8753 34.4001L44.6371 34.2574L44.3521 33.9251L43.9251 33.7343L43.2131 33.9657L42.6911 33.9165L42.5492 34.0568L42.4061 34.0555L41.9322 33.5817L41.3152 33.3417L40.9351 32.8211L40.6982 32.6783L40.3662 32.6291Z" fill="#D72B2B" stroke="white" stroke-width="1.22173"/>
<path d="M13.7119 1.2627L13.8081 1.339L14.6929 1.47931L15.01 1.355L16.0207 1.79068L16.3526 2.10206L16.9191 2.2719L17.4744 2.62266L17.6447 2.60666L17.9396 2.79373L18.9058 2.99557L19.5327 3.08911L19.6005 3.01896L20.0201 3.03496L20.0942 3.13588L20.2718 3.13465L20.2867 3.26757L20.5162 3.34633L20.7445 3.48541L21.3491 3.59494L21.5947 3.46941L22.092 3.38449L22.2512 3.46449L22.2969 3.60479L22.2018 3.79555V4.03309L22.3437 4.31493L22.3906 4.88845L23.1508 5.27244L24.0528 5.51489L24.4341 5.75612L24.1479 6.93886L23.9109 7.1727V7.60223L23.8159 7.74376V7.93453L24.0528 8.50436V9.26495H23.9578L23.8628 9.12096L23.7221 9.26495L23.2939 9.16526L23.1989 9.44956L23.5309 10.2077L23.5777 10.8268L23.4827 11.0163V11.2538L23.2939 11.3941L23.1027 11.7732L22.3437 11.484L22.1068 11.9566L21.8218 12.0021L21.4417 11.6686L20.8728 11.6674L20.3027 11.0926L20.162 11.1381L19.9708 11.4224L19.6857 11.3732L19.4957 11.6095L18.8318 11.9381L18.5467 11.9369L18.3567 11.7941L18.1666 11.7929L18.0247 12.0292H17.9297V11.7917L17.3127 11.3141L17.3608 11.0778L17.1239 11.1234L17.1733 11.5L17.0289 11.5492L16.6019 11.3104L16.2218 11.2132L15.8899 10.7849L15.4629 10.6409L15.226 10.4969L15.0841 10.3062L14.7521 10.2089L14.6102 10.0182L14.6584 9.82863L14.5164 9.44833L13.8526 9.39664L13.5675 9.49018L13.3775 9.67848L12.7148 9.62802L12.0497 9.76586L11.1007 9.76094L9.58166 9.13573L9.10657 9.18003L9.01155 9.03727L8.72649 8.98804L8.4908 8.70497L8.58828 8.60405L8.51054 8.15852L8.21315 8.02929L8.04656 7.76838L7.9429 7.74622L8.01571 7.48531L7.87009 7.43115L7.81826 7.3007L7.84048 7.14562L8.51424 6.99793L8.73513 6.60164L8.72156 6.37641L8.59445 6.29149L8.57224 6.02688L8.4254 6.12042L8.1823 5.6232L7.99843 5.28844L8.15391 5.2109L8.08728 4.80722L7.91081 4.79984L7.85899 4.99429L7.74052 5.04845L7.71214 5.16537L7.43079 5.28105V5.41274L7.51223 5.45213L7.46287 5.56166L7.30615 5.4829L7.3876 5.18013L7.35798 4.95491L8.17736 4.23247L8.23659 4.02324L8.94491 3.89155L9.61621 3.54941L9.65323 3.29341L10.037 3.19988L10.4652 2.84296L10.6059 2.64112L10.6577 2.39744L10.4664 1.72299L10.6071 1.75253L10.6145 1.62576L10.8366 1.65653L10.9835 1.78084L11.0427 2.05283L11.2636 2.16113L11.5795 1.94329L11.5511 1.69592L11.6474 1.58761L11.9497 1.52607L12.046 1.59623L12.2817 1.41654L12.5605 1.323L13.0492 1.43254L13.7119 1.2627Z" fill="#D72B2B" stroke="white" stroke-width="1.22173"/>
<path d="M61.0175 24.2904L61.1125 24.2916L61.3026 24.5292L61.5395 24.6719L61.6826 24.6732L61.9196 24.8159L62.4884 25.339L62.7735 25.766L63.9125 26.198L64.1506 26.4823L64.3876 26.8614L64.8614 26.9586L65.1465 27.1026L65.6216 27.5297L66.2855 27.8177L66.4755 27.9605L66.6174 28.1968L66.8556 28.3395L67.1394 28.3888L67.6145 28.769L68.0884 28.913L68.6103 29.2946L69.3224 29.5346L69.7974 29.8669L70.5576 29.7303L70.8414 29.7315L71.0315 29.8743V30.1573L70.8414 30.4872L70.4613 30.5327L70.2713 31.0028L69.7493 31.1419L69.3224 31.7056L69.1323 31.7524L69.0842 32.0822L68.8942 32.2225L68.8473 32.033L68.6103 31.8902H68.4672L68.3722 31.9357L67.9921 32.5474L67.8502 32.5942L67.5651 33.1591L66.9481 33.9566L66.4718 35.511L66.1399 36.1215L65.8091 36.5116L64.6911 36.1104H64.2148L64.0235 36.5104L63.388 36.6433L63.1338 36.8095L62.6205 36.7688L62.0578 36.9473L61.7727 36.8513L61.2026 37.2722V37.5085L60.9657 38.0254L60.5856 38.2125L60.4906 38.3996L60.1105 38.6334L59.9686 38.2556L60.0155 37.8322L59.8736 37.6894L59.7786 37.3116L59.3035 37.3091L59.2097 37.1676L59.1616 36.4599L59.2566 36.4612V36.3664L59.1616 36.2716L58.9727 36.2704L58.8296 36.4587L58.7346 36.4107L58.6396 36.1264L58.2607 35.6538L58.2126 35.3227L58.0238 35.1332V34.9917L57.6906 35.084L57.3587 35.036L56.8367 35.3621L56.6466 35.3609L56.4097 35.1713L56.0765 35.1701L55.8865 35.0274L55.5546 34.9314L55.5077 35.0717L55.6027 35.1677L55.6014 35.4495L55.4126 35.6846L55.0795 35.7301L54.7956 36.1055L54.5575 36.1042L54.4156 36.0095L53.9405 36.0058L53.6554 36.2409L53.4654 36.2864L52.8484 35.7178L52.4695 35.7153L52.1364 35.8076L51.6144 35.7104L51.4725 35.6156L51.0936 34.8587L50.6654 34.2901L50.6185 34.1018L50.3335 34.0526L50.0965 34.1929L49.9534 33.9566L49.4327 33.4815L48.8144 33.3831L48.6725 33.2415L48.5775 32.9572L47.8667 32.2459L47.9617 32.0108V31.2084L48.0567 31.0668L48.3418 30.9745L48.5911 30.7702L48.7206 30.5992L49.1957 30.3653L49.7658 30.4625L50.4779 30.3727L50.9998 30.4699L51.0949 30.3764L51.1899 29.9986L51.3799 29.8115L51.9019 29.8139L52.4239 29.4866L52.6139 29.4878L52.804 29.7721L53.089 29.7266L53.3259 29.8226L53.4679 29.681L53.611 29.2577L53.7529 29.1641L54.0861 29.3069L54.5131 29.6872L54.7969 29.8299L55.272 29.8804L55.557 29.5986L55.7471 29.1272L55.984 28.8921L56.4122 27.8558L56.4603 27.1482L56.2703 27.0054L56.1753 26.5796L56.6504 25.6368L57.5524 25.6897L57.7424 25.5482V24.2719L58.3126 24.4652L58.8345 24.2313L59.6416 24.331L60.0685 24.0972H60.2105L60.6855 24.1476L61.0175 24.2904Z" fill="#D72B2B" stroke="white" stroke-width="1.22173"/>
<path d="M10.9386 68.8326L11.0867 68.9249L11.1089 69.0788L10.888 69.1169L10.814 69.0172L10.7844 68.8794L10.9386 68.8326ZM14.1619 65.0223L14.3161 65.1983L14.6333 65.2216L14.7961 65.3373L14.98 65.805L15.1577 65.981H15.5267L15.365 66.1422L15.3354 66.3342L14.7604 66.8253L13.9644 67.1244L13.5078 67.1625L13.3894 67.101L13.2857 66.8093L13.4548 66.3268L13.6535 66.0512L13.7053 65.6672L13.9706 65.5059L14.1619 65.0223ZM8.88279 46.3926L9.44673 46.5907L9.61825 46.731L9.88603 46.7323L10.218 47.1581L10.8905 47.6393L11.1731 47.9667L11.5186 48.1636H11.99L12.6391 48.3482L13.2425 48.7211L13.8102 48.8848L14.8455 48.9833L15.85 49.8669L16.3522 50.4232L16.7854 50.7211L17.3567 50.7838L17.8589 51.1112L18.0786 51.3081L18.1094 51.4386L17.9219 51.6675L17.3567 51.7008L17.796 52.4207L17.8589 52.7481L17.796 53.2712L17.2938 53.9259L16.9482 54.0244L16.6348 53.8607L16.5719 53.9912V54.5794L16.4781 54.8736L16.541 55.0705L16.7298 55.2994H17.295L17.6084 55.5283L17.7343 55.7573V55.9345L17.9552 55.8976L18.2402 56.0871L18.7388 56.7062L19.1781 56.5757L19.3348 56.0526H19.6803L20.3084 56.8378L20.3405 57.2378L20.5195 57.3683L20.6145 57.9787L20.4726 58.1658L20.5108 58.4772L20.3985 58.524L20.3541 58.6544L20.3615 59.2464L20.1036 59.4544L19.9703 59.3239L19.7346 59.4396L19.2558 60.0845L18.7326 61.0974L18.4303 62.5325L18.3266 62.8008L18.1724 62.8857L18.1946 63.2229L18.0761 63.3386L18.0835 63.4851L17.928 63.7607L17.6849 63.8764L17.6775 64.0758L17.353 64.5435L17.4048 64.7355L17.2136 65.0579H17.0223L16.7718 65.4419L16.5805 65.1355L16.256 64.8906L16.1597 64.653L16.1819 64.4918L15.444 63.8088L15.0898 62.7109L14.7801 62.0439L14.5222 61.698L14.3235 61.5294L13.9545 61.399L13.9768 61.2919L13.8299 61.1922L13.2104 60.9547L11.9863 60.9005L10.9164 61.2082L10.4006 61.2242L10.3414 61.1553L10.1427 61.1787L9.94403 60.9485L9.69353 60.8796V60.8181L10.1513 60.711L10.4537 60.4427L10.6449 59.7129L10.9103 59.8199L11.1163 59.7658L11.315 59.3978L11.3224 59.0372L11.1817 58.6606L10.8498 58.3074L10.8572 58.0994L10.6215 57.6083L10.1563 57.3006L10.0822 57.1468L10.1711 57.0237L10.3846 57.0397L10.4586 56.9708L10.6277 56.4797L10.6129 56.1954L10.3772 55.8348L10.3253 55.5431L10.1637 55.2514L9.44056 54.6053L8.88772 54.321L8.42991 53.7979L7.99677 53.6601L8.08562 53.5542L8.11647 53.3179L8.40769 53.1124L8.45952 52.6496L8.58416 52.5746V52.3383L8.68781 52.2841L8.63475 52.0257L8.53109 52.0047L8.65573 51.8214L8.58292 51.6921L8.40523 51.7254L8.25961 51.3808L8.36327 51.2835L8.36203 50.8417H8.45582L8.38301 50.6595H8.25838L8.31021 50.5623L8.38301 50.5832L8.36203 50.3789L8.31021 50.3469L8.18557 50.5623L8.08068 50.2719H8.00788L7.77835 49.9925L7.86103 49.8091L7.5698 49.8854L7.27734 49.5519V49.3476L7.43283 49.11L7.57844 49.0879L7.6821 48.9796L7.63027 48.7753L7.7549 48.3655L8.056 48.1821V47.8485L8.88279 46.3926Z" fill="#D72B2B" stroke="white" stroke-width="1.22173"/>
<path d="M45.0694 40.5273L45.6765 40.5507L46.0405 40.7415L46.1072 40.9581L46.3922 41.0541L46.4872 41.1489V41.3372L46.8192 41.4332V41.6215V41.8565L46.9142 41.9981L47.5312 41.955V42.1433L47.6262 42.1913V42.3328L47.5312 42.3796V42.4744L47.7212 42.5224L47.6262 42.7107L47.8163 42.7119L47.9113 42.4301L48.0063 42.3833V42.7131L48.2914 42.6208L48.6714 42.8116V42.9064L48.5295 43.0467H48.4345L48.3876 42.8584L48.2926 42.8104V43.187L48.3876 43.235L48.2926 43.3285L47.7706 43.7026L47.1536 43.6522L46.9167 43.886V44.0743L47.2486 43.982L47.3436 44.1703L47.2955 44.5002L47.3905 44.6885L47.4855 44.6897L47.6287 44.5026L48.0088 44.5986V44.9285L48.1507 45.4466L48.4826 45.6374L48.5295 45.8257L48.8615 46.0632L48.9565 46.2047L49.0034 46.6281L49.0984 46.7229L49.4785 46.8189L49.6685 46.9616L49.6204 47.385L49.5254 47.4785V47.8552L49.7623 48.0484L49.5056 48.1715L48.9824 47.9635L48.2371 48.3401L48.0014 48.1481L47.161 47.9019L46.3281 48.1788L45.7086 48.233L45.1039 48.0865L44.6831 48.1025L44.3438 47.9339L44.1081 47.9179L43.127 48.2416L42.1312 48.8041L41.608 48.9037L41.0848 49.1191L40.5245 48.7499L40.237 48.7425L40.0457 48.8201L39.5373 48.7278L39.7138 48.3425L39.9273 48.2576V48.4188L39.8976 48.3031L39.736 48.3647L39.6471 48.6182L39.7952 48.6871L39.7656 48.5493L39.9199 48.5874L39.9125 48.4484L39.9717 48.5788L40.2148 48.6551L40.3258 48.5087L40.6282 48.6084L40.7972 48.5013L41.1514 48.4853L41.1958 48.3696L40.7676 48.1161H40.5467H40.3851L39.9495 47.6693L39.9273 47.5389L39.7582 47.4921L39.662 47.369L39.2634 47.3001L39.0425 46.985L39.1795 46.8558L40.2234 46.8152L40.5554 46.6293L41.0305 46.6318L41.3155 46.4927L41.6006 45.8355V45.6004L41.4587 45.1758L41.5068 44.4706L42.03 43.7679V43.3913L41.8227 43.043L41.8918 42.4928L42.0732 42.2393L42.2546 42.1125H42.5878L43.4676 41.6055H43.8613L44.3166 41.4467L44.5597 41.0344L45.0694 40.5273Z" fill="#D72B2B" stroke="white" stroke-width="1.22173"/>
<path d="M27.6429 0.700684L28.255 0.747452L28.8374 1.13636L29.4495 1.43174L29.5679 1.41574L29.7888 1.14375L30.5194 1.50189L31.013 1.46251L31.05 1.57943L31.1462 1.6102L31.3153 1.45513L31.6324 1.55605L32.0014 1.37759L32.0754 1.48589L32.2593 1.44774L32.3259 1.57943L32.2741 1.78989L32.3556 1.89819L32.6505 2.10003L32.9898 2.09265L33.8746 3.22739L33.7056 3.476L33.7784 3.59292L33.9265 3.58553L34.0449 3.39108L34.2436 3.45261L34.4275 3.34431H34.7224L35.0247 3.54615L35.0395 3.65569L35.1654 3.67045L35.1728 3.82676L35.659 3.98922L35.8811 4.22306L35.7849 4.30798L35.8811 4.43967L36.0502 4.26982L36.1538 4.29198L36.1686 4.37813L36.7437 4.66489L36.8177 4.79043L37.009 4.83596L37.2595 5.16334H37.5618L37.5915 5.3418L37.7679 5.44272L37.9308 5.41933L38.0789 5.24826L38.4244 5.50425L38.9341 5.66794L39.4647 5.41195L39.6202 5.45749L39.7448 5.39595L40.0101 5.67533L40.1656 5.61379L40.342 5.62117L40.6666 5.67533L40.7999 5.63717L40.7332 5.42672L40.9689 4.96888L41.6846 4.82119L42.6361 4.89135L42.8866 5.01565L43.1223 5.3098L43.3666 5.44272L43.5801 5.74548L43.912 5.75286L44.1477 5.99409L44.6487 6.77807L44.3637 7.43159L44.5525 7.85989V8.09742L44.5056 8.19219L43.8886 8.28326V8.42603H44.0305L44.0774 8.56879L43.8886 8.61556L43.7936 8.37803L43.6985 8.3768L43.6504 8.61433L43.4616 8.42356L43.3185 8.65987L43.1284 8.65864L42.9384 8.27834L42.8446 8.27711L42.6546 8.41864L42.2264 8.36818L42.1795 8.70048L42.0845 8.65248V8.55771L41.7525 8.55525L41.6094 8.69679L41.4675 8.55402L41.3724 8.60079L41.2293 8.50602L40.9924 8.74109L40.9455 8.88386L41.0393 8.97863L40.7554 9.07216V9.2137L40.8505 9.2617L40.8492 9.49923L40.6592 9.8303V9.97306L40.8023 10.2106V10.4469L40.3741 10.9663L40.2791 12.0567L40.1372 12.1035L39.9941 12.2918L39.3771 11.957L38.7132 11.7158L37.6692 11.5201L37.4792 11.2346V10.9983L37.7642 10.0038L37.6692 9.57677L36.9572 9.14478L36.6721 9.14355L36.4833 9.04755L35.7232 8.56879H35.6281V8.80632L35.8651 9.80322L35.7701 10.0875L35.58 10.3238L34.868 10.6044L34.7261 10.6032L34.6311 10.5072L34.5361 10.1749L34.441 10.0801L34.0141 10.0297L33.539 9.50538L32.9701 9.07586L32.8751 9.07463V9.21739L32.7801 9.26416L32.4012 9.07216L32.1162 9.07093L31.5942 8.83094L30.549 8.77679L30.3589 8.72879L30.122 8.49002L29.932 8.58356L29.505 8.15403L29.4581 7.91773L29.2681 7.9165L28.698 7.58051L28.1291 7.00822L27.8922 7.00699L27.654 7.14852L27.132 7.14483L26.5631 6.90483L26.3731 6.33377L26.0881 6.18977L25.1391 6.09009L24.7121 5.94486L24.4295 5.75532L24.047 5.5141L23.1462 5.27164L22.386 4.88765L22.3391 4.3129L22.196 4.03106L22.1972 3.79353L22.2922 3.60276L22.2466 3.46246L22.0874 3.38369L22.3256 3.24339L22.3034 2.96401L22.4514 2.74617L22.333 2.66863L22.3626 2.44218L22.813 2.6834L22.945 2.87047L23.2844 2.94678L23.388 2.80771L23.5065 2.66002L23.6682 2.65263L23.8668 2.78432L24.4937 2.82371L24.7084 2.62187L25.3205 2.49756L25.5932 2.35726L25.8659 2.09265L25.8215 1.61881L26.0054 1.43174L26.2781 1.31482L26.3521 1.09698L26.847 0.965292L27.3258 0.731452L27.6429 0.700684Z" fill="#D72B2B" stroke="white" stroke-width="1.22173"/>
<path d="M42.1279 17.8464L42.1292 17.6101L42.3192 17.2323L42.6512 15.86L42.9843 15.1523V14.82L42.6993 14.4865L42.6043 14.2502V13.8711L42.8424 13.4933L42.7955 12.8287L43.4125 11.4109H43.5076L43.7445 11.7444L43.9814 11.8884L44.5034 11.9856L44.5984 12.0816L44.6465 12.6502L44.7884 12.841L45.0735 12.937L45.3104 12.8434L45.6436 11.8502L45.7386 11.7555L46.0237 11.6619L46.2606 11.3321L46.5926 11.2866L46.8307 11.145L47.1145 11.1475L47.4477 11.2435L47.5896 11.3862L47.6365 11.529L47.4946 11.7185L47.5896 12.0508L47.9216 12.5259L48.2535 12.8127L48.3967 12.8607L48.4917 13.0514L48.4436 13.4293L48.2535 13.5708L48.0635 13.5696L47.5884 13.8034L47.4465 14.0877L47.5415 14.3252L47.9216 14.4692V14.6108L47.3515 14.7978L47.0664 15.0797L46.8295 15.0785L46.6395 15.172L45.8793 15.7369L45.7362 16.5886L45.4511 17.391L45.4992 17.7233L45.2611 18.2427V18.7153L45.071 18.9984L44.786 19.1867L44.6441 19.5165V19.8956L44.786 20.0851L44.881 20.4642L44.3109 20.4137L43.5038 20.5515L43.1719 20.1233L43.03 19.6027L42.7449 19.0796L42.3649 18.7461L42.223 18.415L42.1279 17.8464Z" fill="#D72B2B" stroke="white" stroke-width="1.22173"/>
<path d="M74.8701 16.5928L74.9886 16.6235L75.0848 16.7626L75.1218 16.6925L75.3427 16.6765L75.402 16.8475L75.2329 17.2426L74.8195 17.6451L74.4431 18.242L74.3173 18.498L74.3987 18.6223L74.5246 18.7072L74.996 18.7687L75.07 18.6986L75.3131 18.7293L75.6154 18.4278L75.8882 18.5829L76.1016 18.5521L76.5804 18.2346L76.7581 18.2272L76.7803 18.3355L77.0531 18.3047L77.0975 18.3749L77.0753 18.7859L76.7729 19.3509L76.035 19.8616L75.8585 20.0942L75.5488 20.2419L75.4896 20.5594L75.3489 20.7921L75.3711 21.1871L75.2897 21.2031L75.2749 21.4739L75.223 21.629L74.9281 21.7373L74.5073 21.6523L74.2568 21.6142L73.6966 21.6068L73.2844 21.3053L73.1585 21.437L72.8858 21.2437L72.7451 21.352L72.2664 21.0887L72.1257 21.1354L72.059 21.2597L72.0294 21.368L71.2841 21.2597L70.3993 21.3065L70.2808 21.4222L70.2734 21.6154L70.0822 21.5379L70.0525 21.3754L69.765 21.3447L69.6095 21.4456L69.3442 21.1674L69.1159 21.0825L68.8432 21.0985L68.5557 20.9594L68.2978 20.936L68.1435 21.0062L68.0041 20.9287L67.9004 20.9828L67.7018 20.8044L67.4735 20.952L67.3994 20.8597L67.1341 20.7896L66.9428 20.8597L66.7294 20.7748L66.3604 20.845L65.7705 20.7293L65.6447 20.6444L65.3868 20.6985L65.0252 20.4819L64.6266 20.4659L64.4353 20.5976L64.5168 20.7674L64.4576 21.7348L64.3169 22.1065L64.17 22.9274L64.0886 22.9741L64.3169 23.8566L64.1774 24.0117L64.3909 24.3981L64.7747 24.4683L64.4353 25.8307L64.1503 26.4904L63.9134 26.2061L62.7744 25.7741L62.4893 25.347L61.9204 24.8239L61.6835 24.6812L61.5416 24.68L61.3047 24.5372L61.1146 24.2997H61.0196L61.1615 24.1581L61.7785 24.1618L61.5885 23.5932L61.3034 23.2609V22.9766L61.5885 22.9778L62.0155 22.696L62.1105 22.6025L62.0155 22.4129L62.2524 22.3674L62.3474 22.1791L62.4424 22.2739L62.6325 22.2751L62.6806 22.0868L62.8706 22.088L63.0138 21.5206L63.2519 21.2388L63.442 21.24L63.4901 21.0505L63.2532 20.9545L62.6831 21.0456L62.4461 20.7601L62.0192 20.8524L61.4972 20.8019L61.1652 20.6111L60.6901 20.6087L60.5001 20.7022L60.2151 21.2216L60.1682 20.9853L59.7881 20.7465L59.8362 20.3687L59.9781 20.3219L60.1682 20.4647L60.2632 20.3711V20.1816L60.3582 20.1348L60.3113 19.9921H60.2163V19.8025L60.0744 19.565L60.0275 19.2807L60.2175 19.2339L60.5026 19.4727H60.5976L60.6457 19.3312L60.4088 19.0456L60.5038 18.9989L60.8358 19.1896L61.0258 19.1909L60.5988 18.8093L60.5495 18.429L61.3874 18.8943L62.2351 19.0567L63.268 18.8167L63.711 18.546L65.4361 18.4303L65.7977 18.2284L65.8125 17.9417L66.1148 17.9798V17.794L66.3209 17.8481L66.4246 17.6623L66.5726 17.6155L66.7861 17.7632L67.0588 17.6241L67.1255 17.7017L67.4204 17.6167L67.782 17.6327L68.1435 17.7484L68.8074 17.6094L69.0283 17.6327L69.1394 17.8038L69.2578 17.7731L69.3319 17.6414L69.4281 17.6574L69.5466 17.8506L69.7749 17.9983L70.018 17.89L70.0032 17.7891L70.1513 17.7509L70.2549 17.8986L70.3882 17.906L70.7053 18.146L70.7868 18.162L70.8386 18.0463L71.0163 18.0623L71.0089 18.1632L71.2372 18.2875L71.4507 18.349L71.6938 18.2949L71.848 18.6198L71.9961 18.7207L72.0998 18.6826L72.1516 18.8303L72.3441 18.8463L72.4477 18.7995L72.507 18.4352L72.4477 18.3269L72.5662 18.1718L72.8463 18.0167L72.9796 17.8309L73.2375 17.7694L73.4362 17.5294L74.026 17.4284L73.9816 17.266L74.1803 17.0961L74.3345 17.0728L74.4308 17.2204L74.7479 16.6162L74.8701 16.5928Z" fill="#D72B2B" stroke="white" stroke-width="1.22173"/>
<path d="M47.8669 32.2461L48.5776 32.9575L48.6727 33.2418L48.8146 33.3833L49.4328 33.4818L49.9536 33.9568L50.0967 34.1931L49.9536 34.2867L49.8585 34.475V34.758L50.2855 35.3734V35.7032L50.4287 35.9395L50.3805 36.3161L50.7125 36.6952L50.8544 37.0263L50.8075 37.2146H50.7125L50.5706 37.0251L50.3805 37.0706L50.2843 37.825L50.5224 38.0146L50.5693 38.3924L50.8544 38.9118L51.0444 38.9598V39.1948L51.1863 39.3376L51.2813 39.7622L51.2332 39.9505L51.3282 40.1388L51.6133 40.188L51.9934 40.1425V39.9542L52.1353 39.9087L52.2772 40.1917L52.6104 40.4293L52.6573 40.7591L52.8473 41.0434L52.7523 41.1369L52.3722 41.1345V41.228L52.4203 41.3696L52.7992 41.372L52.7523 41.8902L52.8942 41.8434V41.6551L53.0842 41.5148L53.3212 41.516L53.5112 41.8003L53.7481 41.8483L54.1282 41.4274L54.1763 41.5689L54.0813 41.9443L54.2232 41.8988L54.2701 42.1806L54.4601 42.3234L54.3306 42.7431L54.1183 42.9437L54.0887 42.8206L53.9999 42.8735L54.0369 43.0507L53.8826 43.1357L53.4989 43.9061L53.4248 43.868L53.2706 44.0304L53.3434 44.0452L53.241 44.1843L53.0855 44.2606L52.2525 45.8864L52.0094 46.0944L51.8243 46.0328L51.6182 46.263L51.5664 46.5633L51.2863 46.9485L50.9543 47.2033L50.5335 48.0266L50.3275 48.1423L50.0473 47.9269L49.7586 48.0414L49.5217 47.8482V47.4728L49.6167 47.3792L49.6648 46.9559L49.4748 46.8131L49.0947 46.7171L48.9997 46.6223L48.9528 46.199L48.8578 46.0574L48.5258 45.8199L48.4777 45.6316L48.1457 45.4421L48.0038 44.9227V44.5941L47.6238 44.4981L47.4818 44.6852L47.3868 44.6839L47.2918 44.4956L47.3399 44.167L47.2449 43.9775L46.9117 44.0698V43.8815L47.1499 43.6477L47.7669 43.6981L48.2889 43.324L48.3839 43.2304L48.2889 43.1837L48.2901 42.8071L48.3839 42.8538L48.432 43.0434H48.527L48.669 42.9031V42.8083L48.2901 42.6188L48.0051 42.7111V42.3812L47.91 42.428L47.815 42.7098L47.625 42.7086L47.72 42.5215L47.53 42.4723V42.3788L47.625 42.332V42.1905L47.53 42.1437V41.9554L46.913 41.9985L46.8179 41.8569V41.6219V41.4336L46.486 41.3363V41.148L46.391 41.0533L46.1072 40.9585L46.0393 40.7419L45.6753 40.5511L45.0694 40.5277V40.2976L44.9176 40.0441L44.4326 39.505V39.2515L44.7658 38.4269L44.8263 37.9826V37.2847L44.4931 36.7457L44.5227 36.3334L44.8263 35.9198L44.8867 35.6983L44.9176 35.0633L45.2421 34.5131L45.6814 34.8282L45.8246 34.8294L46.1096 34.5956L46.2034 34.3593L46.5835 34.0319L46.6316 33.8904L46.5835 33.5605L46.4416 33.371L46.4897 33.1347L46.7266 32.8528L47.0586 32.619L47.6287 32.4332L47.8669 32.2461Z" fill="#D72B2B" stroke="white" stroke-width="1.22173"/>
<path d="M40.3662 32.6289L40.6982 32.6781L40.9351 32.8209L41.3152 33.3415L41.9322 33.5815L42.406 34.0553L42.5492 34.0566L42.6911 33.9163L43.2131 33.9655L43.9251 33.7341L44.3521 33.9249L44.6371 34.2572L44.8753 34.3999L45.2418 34.5132L44.9172 35.0633L44.8864 35.6984L44.8259 35.9199L44.5223 36.3334L44.4927 36.7457L44.8259 37.2848V37.9826L44.7654 38.4269L44.4323 39.2515V39.505L44.9172 40.0441L45.069 40.2976V40.5278L44.5532 41.0262L44.3101 41.4385L43.856 41.5973H43.4611L42.5825 42.1044H42.2481L42.0667 42.2311L41.884 42.4847L41.8149 43.0348L41.3584 42.721L41.4065 42.3911L41.1696 42.0133V41.7314L40.9314 41.5887L40.9326 41.3056L41.0745 41.2121V41.1185L40.9326 40.9758L40.2675 40.8785L39.8887 40.3579L39.7455 40.4047L39.6036 40.2619L38.9866 40.1167L38.8447 39.7869L38.6546 39.7856L38.3696 39.9259L38.2264 39.878L38.1796 39.6884L37.8945 39.3573V39.0743L37.7995 38.9327L36.9456 38.4097L36.7086 38.1721L36.6136 37.9838L36.9468 37.4669L36.8987 36.6657L36.6148 36.1919L36.2348 35.8596L35.9497 35.7168L36.5667 35.6738L37.3269 35.4891L37.7538 35.5384L37.9439 35.6811L38.4177 35.6836L38.6559 35.5913V35.0252L38.8928 34.7901L39.1779 34.651L39.6999 34.6535L39.748 34.5119L39.653 34.2289L39.843 33.9003L39.9849 33.7587L40.365 33.6196L40.2231 32.9587V32.8172L40.3662 32.6289Z" fill="#D72B2B" stroke="white" stroke-width="1.22173"/>
<path d="M19.2938 21.4082L19.3889 21.4562L19.5308 21.8353L19.6727 21.9313L20.0059 21.791L20.4328 21.7934L21.0967 22.0334L21.4768 21.8931L21.8569 21.9903L22.3307 22.3719L23.0428 22.4703L23.8498 22.8051L24.1348 23.2322L24.6087 23.4722L24.7037 23.898V24.5121L25.0838 24.8924L25.4157 25.0832L25.7008 25.0844L26.6016 25.4684L26.7917 25.7995V26.0358L26.8867 26.1318L27.1236 26.133L27.3136 26.2278L27.4087 26.0875L27.8838 25.9004L27.9788 25.6653L28.1688 25.5718L28.5476 25.7158H28.6427L28.7858 25.5755H28.9758L29.4978 25.7675L29.6879 25.9102L30.2099 26.0087L30.4937 26.1995L30.7787 26.6733L30.8738 27.0511L30.8256 27.2407L30.9206 27.3354V27.5237L30.7787 27.712L29.9717 27.8499L30.2086 28.4173L30.0186 28.7003L29.3535 28.8382L29.1647 29.1668H29.0215L28.6414 29.3526V29.4954L28.7365 29.5901L28.6896 29.8732L28.4045 30.4381L28.2145 30.4837L28.1195 30.6252L28.3083 31.3341L28.6402 31.9962V32.3273L28.3083 32.891L28.2132 33.2208L27.9282 33.5027L27.8332 33.7845H27.6431L27.4062 33.3107L27.3112 32.9328L27.1211 32.7901L26.7892 32.7876L26.5041 32.9759L26.3622 33.211L26.4091 33.9654L26.5041 34.0602V34.2485L26.646 34.2977L26.6942 34.5328L26.5992 34.6276L26.4091 34.6263L26.266 34.7666V35.0029L26.551 35.2872L26.5979 35.6171L26.361 35.6626L26.0907 35.9297L25.6169 35.942L25.3022 36.7198H25.0233L24.3792 37.3869L23.7017 37.409L23.6548 37.11L23.5598 37.0152L22.9428 36.8232L22.3258 36.961L21.2337 37.4263L20.3316 37.4213L19.9516 37.2773L19.6196 37.2761L19.4296 37.4164L19.2877 37.6503L19.0495 37.649L18.5275 38.0232L17.5786 37.8299L17.5304 37.5469L17.1985 37.4509L17.0085 37.6379L16.8197 37.6367L16.6765 37.3536L15.9645 36.9721L15.6325 36.9229L15.3475 37.0632L15.0155 37.0607L14.4936 36.9167L14.1135 36.726L13.9716 36.5364L13.7815 36.4417L13.9716 36.2066L14.1616 35.5002V35.3118L13.9716 34.8392L13.7346 34.6965L13.2596 34.7408L12.9745 34.598L12.7857 34.1722L12.6426 34.0774L12.5488 33.8879L12.5957 33.6996L12.7376 33.606L12.8807 33.323L12.8338 33.0879L12.5006 32.8971L12.4538 32.7544H12.2637L11.8836 32.5636L11.6948 32.3261V32.1378L11.3148 31.899L11.4579 31.8055L11.5517 31.4756L11.7417 31.2406L11.5998 30.7212L11.6479 29.7292L11.5529 29.6825L11.2679 29.9643L11.1729 29.9631L11.221 29.3969L11.6479 28.6905L11.6961 28.2191L11.506 28.1711L11.411 28.0751V27.9336L12.4081 26.7115L12.6931 26.4764L12.9301 26.4308L13.8321 26.6721L14.1172 26.6265L14.2122 26.533L14.2603 25.9189L14.6404 24.9749L14.9724 24.458L14.9255 23.8906L15.4006 23.1829L15.6856 23.0906L16.5877 23.2371L17.0615 23.7134L17.3935 23.7146L17.4416 23.9041L17.6304 23.9054L18.0105 23.5768L18.5806 23.5792L18.9125 23.3922L19.0557 23.2038L18.9607 22.8728L19.1038 21.5965L19.2457 21.4082H19.2938Z" fill="#D72B2B" stroke="white" stroke-width="1.22173"/>
<path d="M68.8939 32.2229L68.7989 32.3645L68.7039 33.1189L68.7989 33.3552L69.084 33.4032L69.2259 33.546V33.829L69.5109 34.3496L69.5097 35.1041L69.6997 35.3872L69.3678 35.8105L69.4147 35.9988L69.6997 36.1416L69.8416 36.5207L70.1267 36.8517L70.1736 37.2296L70.3636 37.6542L70.7906 37.9397L70.8856 38.4591L71.1225 38.8837L71.1707 39.1667L71.6914 40.0184L71.8815 39.595L72.2615 39.2209L72.7366 38.9403L72.7848 38.6572L73.0686 38.6597L72.9748 38.5181V37.9988L73.1167 37.8117V37.4339L73.2117 37.2468L73.8287 37.2025L74.1138 37.0634L74.3519 36.7336L74.7308 36.8776L74.8739 37.2086L75.1577 37.2099L75.4428 37.0708L75.8698 37.2136L76.6299 37.7366L76.8668 38.304L77.5789 38.6843L77.8639 38.6388L78.1477 38.4529L78.9079 38.4566L79.0029 38.6461L78.7647 38.7385L78.6228 39.8683L78.4797 40.2916L78.0527 40.7138L77.8627 41.0892V41.3242L78.0527 41.7021L78.1946 41.7968L78.6216 42.4122V42.5525L78.7635 42.7888L78.6685 43.1186L78.8585 43.606L77.9231 43.275L77.4518 43.2676L76.9569 43.1359L76.2054 42.843L75.8216 42.55L75.9549 42.4885L75.8439 42.0959L75.5563 41.9421L75.0911 42.0504L74.8554 42.219L73.978 42.235L73.2253 42.4737L73.1303 42.4664L73.1809 42.427L73.1364 42.3347L72.7983 42.2965L72.8353 42.1267L72.7095 42.0959L72.554 42.2042L72.5478 42.3654L72.6725 42.4196L72.6132 42.4811L72.5392 42.443V42.5894L72.2961 42.7125L71.5816 42.7593L70.608 42.6436L69.9515 42.6891L69.0075 42.8516L67.5847 43.2909L67.0417 43.2823L67.0392 42.0651L67.0873 41.9704L67.2774 41.9716L67.3243 41.5015L66.0903 41.3993L65.2832 40.9242L65.0463 40.3101L64.7144 40.1206L64.8094 39.9323L65.0944 39.7932L65.3314 39.1815L65.7596 38.4775V38.336L65.5214 38.0517L65.7114 37.5348L65.7127 37.2985L65.6164 37.2505L65.3795 37.4388L65.2845 37.1545L65.8089 36.512L66.1396 36.1219L66.4716 35.5115L66.9479 33.957L67.5649 33.1595L67.85 32.5946L67.9919 32.5478L68.3719 31.9362L68.467 31.8906H68.6101L68.847 32.0334L68.8939 32.2229Z" fill="#D72B2B" stroke="white" stroke-width="1.22173"/>
<path d="M47.0622 22.6518L47.0635 22.5103L46.9685 22.557V22.4623L47.1104 22.3687L47.3004 22.3219L47.4904 22.4179L47.6805 22.3244L47.7755 22.4192L47.8705 22.3256L47.9655 22.5619L48.2494 22.4696L48.3925 22.7059L48.8664 22.8512L48.9145 22.6149L49.0095 22.5213L49.1514 22.7109L49.4834 22.3343L49.6734 22.2407L49.8634 22.2887L49.7684 22.6198L49.9585 22.621L50.1004 22.5275L50.1954 22.6223L50.2904 22.5275V22.8586L50.5286 22.4352L50.6705 22.4832L50.8124 22.3416H50.8605L50.8124 22.7195L50.9555 22.7687L51.0024 22.5792L51.1456 22.6272L51.2406 22.4389L51.5725 22.4881V22.5829L51.7144 22.6776L52.0476 22.5853L52.1895 22.4438L52.3314 22.7281L52.6646 22.7306L52.7115 22.8721L52.8065 22.8733L53.1385 23.1589L54.2306 23.4481L54.5625 23.6868L54.7044 23.6881L55.0376 23.3582L55.2746 23.3595L55.8447 23.6462L56.1766 23.9318L56.6505 23.9822L56.9837 24.1262L57.0305 24.221L56.7455 24.8807L56.6505 25.6363L56.1754 26.5791L56.2704 27.0049L56.4604 27.1477L56.4123 27.8553L55.9841 28.8916L55.7472 29.1267L55.5571 29.5981L55.2721 29.8799L54.797 29.8295L54.5132 29.6867L54.0862 29.3064L53.753 29.1636L53.6111 29.2572L53.468 29.6805L53.3261 29.8221L53.0891 29.7261L52.8041 29.7716L52.614 29.4873L52.424 29.4861L51.902 29.8135L51.38 29.811L51.19 29.9981L51.095 30.3759L51 30.4694L50.478 30.3722L49.766 30.4621L49.1958 30.3648L48.7207 30.5987L48.5912 30.7697L48.4702 30.2725L48.0976 29.7175L47.6941 29.4098L47.3226 28.9704L46.7846 28.6799L46.4391 28.3661L46.4909 28.3193L45.732 27.7483V27.3237L45.637 27.1809L45.305 27.0369L44.783 26.9397L44.688 26.8449L44.6411 26.4671L44.7361 25.7114L44.2142 25.1416L44.1191 24.7157L44.3092 24.2431L44.4992 24.0081L44.8793 23.821L45.0693 23.8222L45.4963 23.2573L45.7813 23.2598L45.8282 23.3545L46.3983 23.3102L46.6834 23.1699L46.8253 22.7453H46.9203L47.0622 22.8881L47.1573 22.8413L47.2054 22.6998L47.0622 22.6518Z" fill="#D72B2B" stroke="white" stroke-width="1.22173"/>
<path d="M31.5942 8.83148L32.1162 9.07148L32.4013 9.07271L32.7801 9.2647L32.8751 9.21793V9.07517L32.9702 9.0764L33.539 9.50593L34.0141 10.0302L34.4411 10.0807L34.5361 10.1754L34.6311 10.5077L34.7261 10.6037L34.8681 10.605L35.5801 10.3244L35.7701 10.0881L35.8651 9.80377L35.6282 8.80687V8.56934H35.7232L36.4834 9.04809L36.6722 9.14409L36.9572 9.14532L37.6693 9.57731L37.7643 10.0044L37.4792 10.9988V11.2351L37.6693 11.5206L38.7132 11.7163L39.3771 11.9576L39.9941 12.2923V12.8609L39.519 13.2375L39.1402 13.3298L38.997 13.5194L39.0439 14.2295L38.712 14.7969V14.9864L38.7589 15.4602L38.9008 15.8873L39.0439 16.0301V16.1716L38.9489 16.2184L38.7589 16.0276L38.5219 16.0264L38.3319 16.2147L38.2357 16.451L37.7618 16.4485L37.2398 16.7771L36.3847 17.0097L36.2896 17.1033V17.3396L36.1946 17.4811L35.5307 17.4306L35.2926 17.619L35.1025 17.6177L35.0075 17.806L34.6287 17.8036L34.7224 18.1826L35.0075 18.3266V18.4694L34.6274 18.4669L34.7224 18.6097L35.7677 19.0885L36.3847 19.2817L36.5735 19.4244L36.4315 19.6595L36.4784 19.897L36.5735 19.945L36.4315 20.1334L36.5266 20.4177L36.3365 20.7475L36.5253 20.8903L36.4784 21.2213L36.6685 21.2693V21.3641L36.4784 21.6004L36.2403 21.6927L36.0502 21.5499L35.7183 21.5007L35.5764 21.1216L35.4345 21.0736L35.2444 21.2619L35.0544 21.6865L34.9581 22.3007L34.6743 22.3942L34.5793 22.5345L34.2942 22.5813L34.1523 22.6748V22.7696L34.0573 22.7684L33.9142 22.9099L33.3922 23.049L32.9652 23.0465L32.7752 23.6126L32.632 23.753L32.2051 23.8453L31.825 24.1271L31.398 24.0779L31.2549 24.1714L31.113 24.5012L30.8761 24.6883L30.2109 24.6379L30.164 24.9209L30.3059 25.1585L30.401 25.5843V25.7738L30.2109 26.0089L29.6889 25.9104L29.4989 25.7677L28.9769 25.5757H28.7869L28.6437 25.716H28.5487L28.1699 25.572L27.9798 25.6655L27.8848 25.9006L27.4097 26.0877L27.3147 26.228L27.1247 26.1332L26.8877 26.132L26.7927 26.036V25.7997L26.6027 25.4686L25.7019 25.0846L25.4168 25.0834L25.0849 24.8926L24.7048 24.5123V23.8982L24.6098 23.4723L24.1359 23.2323L23.8509 22.8053L23.0438 22.4705L22.3318 22.3721L21.8579 21.9905L21.8098 21.7062L21.9998 21.1869L22.048 20.5247L21.811 20.0041L21.4791 19.9069L21.2891 19.4798L21.3841 19.2915L21.621 19.3395L21.6691 19.246L21.5741 18.6294L21.7173 18.4411V18.062L21.4322 17.7297V17.5882L21.6691 17.5414L21.8123 17.1636L21.9073 17.3063L22.1442 17.3076L22.1924 17.118L22.0973 16.6922L22.2392 16.5974L22.3343 16.4091L22.7612 16.1753L23.5214 15.9895L23.7114 16.3698L24.0434 16.371L24.1384 16.1827L24.0915 16.0399L24.4703 15.9944V15.8528L24.8504 15.9021L24.9454 15.8085L25.0404 15.3827L25.4205 15.1956L25.8944 15.2449L26.1325 14.9618L25.8006 14.9126L25.7056 14.8178L25.8006 14.4867L25.6587 14.2492L25.5155 14.248V14.1532L25.8006 14.0609L25.9906 13.6831L26.3707 13.9218H26.5126L26.9877 14.2566L27.4616 14.4486L28.3636 14.4067L28.6005 14.2652L28.7906 13.8874L29.0756 14.2677L29.5507 14.3181L29.7408 14.4609L30.1196 14.2738L30.4528 14.2763L30.7366 14.3723L31.1167 14.3267L31.4017 13.9501L30.7847 13.6621L30.5009 13.2338V12.8548L30.7378 12.4302L30.881 11.7668L30.5959 11.6228L30.359 11.6216L30.264 11.384L30.1208 11.4776L29.7889 11.192L29.8839 10.861L29.647 10.6222V10.2899L29.6951 10.2431L29.8839 10.3391L30.6909 10.9594L30.8329 10.9607L30.976 10.6296L31.166 10.4881L31.2129 10.2038L31.4511 9.87392V9.49362L31.5942 8.83148Z" fill="#D72B2B" stroke="white" stroke-width="1.22173"/>
<path d="M17.0194 11.5458L17.165 11.4966L17.1157 11.12L17.3526 11.0732L17.3045 11.3108L17.9215 11.7883V12.0246L18.0165 12.0258L18.1596 11.7895L18.3484 11.7908L18.5385 11.9335L18.8235 11.9348L19.4887 11.6074L19.6787 11.3711L19.9625 11.4203L20.155 11.136L20.2957 11.0905L20.8658 11.6652H21.4347L21.8135 12L22.0986 11.9532L22.3368 11.4806L23.0957 11.7698V12.3384L23.2857 12.5292L23.3326 13.0978L23.4276 13.1938L23.6645 13.195L23.9496 13.339L24.2815 13.3403L24.8985 13.723L25.2786 13.7255L25.6106 13.6319L25.9906 13.6824L25.8006 14.0602L25.5156 14.1525V14.2473L25.6587 14.2485L25.8006 14.4861L25.7056 14.8171L25.8006 14.9119L26.1326 14.9611L25.8944 15.2442L25.4205 15.195L25.0405 15.3821L24.9454 15.8079L24.8504 15.9014L24.4703 15.8522V15.9937L24.0915 16.0393L24.1384 16.182L24.0434 16.3703L23.7114 16.3691L23.5214 15.9888L22.7612 16.1747L22.3343 16.4085L22.2393 16.5968L22.0974 16.6916L22.1924 17.1174L22.1442 17.3069L21.9073 17.3057L21.8123 17.1629L21.6692 17.5408L21.4322 17.5875V17.7291L21.7173 18.0614V18.4404L21.5741 18.6287L21.6692 19.2453L21.621 19.3389L21.3841 19.2909L21.2891 19.4792L21.4791 19.9062L21.8111 20.0035L22.048 20.5241L21.9999 21.1862L21.8098 21.7056L21.858 21.9899L21.4779 21.8927L21.0978 22.033L20.4339 21.793L20.0069 21.7905L19.6738 21.9308L19.5319 21.8348L19.3899 21.4557L19.2949 21.4077L18.9617 21.169L18.3447 20.977L17.7759 20.5475L17.4908 20.5462L16.495 19.7832L16.4468 19.2158L16.1149 18.7407L15.4979 18.4527L15.261 18.4995L15.024 18.4023L14.929 18.166L14.407 17.7845L14.312 17.3106L14.9759 17.4558L15.6879 17.318L15.641 16.5599L15.7361 15.9457L15.6423 15.2811L15.6892 15.1864L16.0211 15.0473L16.1643 14.811V14.3839L16.0223 13.9101V13.0572L16.3074 12.4898L17.0194 11.7354V11.5458Z" fill="#D72B2B" stroke="white" stroke-width="1.22173"/>
<path d="M50.0961 34.1926L50.333 34.0522L50.6181 34.1015L50.6649 34.2898L51.0931 34.8584L51.472 35.6153L51.6139 35.7101L52.1359 35.8073L52.4691 35.715L52.8479 35.7174L53.4649 36.286L53.6549 36.2405L53.94 36.0054L54.4151 36.0091L54.557 36.1039L54.7952 36.1051L55.079 35.7297L55.4122 35.6842L55.601 35.4491L55.6022 35.1673L55.5072 35.0713L55.5541 34.931L55.886 35.027L56.0761 35.1698L56.4092 35.171L56.6462 35.3605L56.8362 35.3618L57.3582 35.0356L57.6901 35.0836L58.0233 34.9913V35.1328L58.2121 35.3224L58.2603 35.6534L58.6391 36.126L58.7341 36.4103L58.8291 36.4583L58.9723 36.27L59.1611 36.2713L59.2561 36.366V36.4608L59.1611 36.4596L59.2092 37.1672L59.303 37.3088L59.7781 37.3112L59.8731 37.6891L60.015 37.8318L59.9681 38.2552L60.11 38.6331L60.4901 38.3992L60.5851 38.2121L60.9652 38.0251L61.2021 37.5082V37.2719L61.7722 36.8509L62.0573 36.9469L62.62 36.7685L63.1333 36.8091L63.3875 36.643L64.0231 36.51L64.2143 36.11H64.6907L65.8087 36.5113L65.2842 37.1537L65.3792 37.438L65.6162 37.2497L65.7124 37.2977L65.7112 37.534L65.5211 38.0509L65.7593 38.3352V38.4768L65.3311 39.1807L65.0942 39.7924L64.8091 39.9315L64.7141 40.1198L65.0461 40.3093L65.283 40.9235L66.09 41.3985L67.324 41.5007L67.2771 41.9708L67.0871 41.9696L67.039 42.0644L67.0414 43.2816L66.5219 43.1351L66.1233 42.8114L65.9543 42.5345L65.3274 42.1025L64.5969 42.0717L64.2797 42.3265L64.45 43.22L64.3316 43.3899L64.1835 43.3972L63.3135 43.1203L63.0186 42.6428L62.9668 42.1185L62.5176 41.8945L62.1042 41.8711L61.5217 41.6791L60.2458 41.5794L59.3906 41.625L59.0216 41.4945L57.7309 41.5474L57.6938 41.257L57.9221 40.8312V40.6108L57.531 40.3549L56.5869 40.5419L56.181 40.7118L55.8873 40.3216L55.6108 40.185L55.5294 39.8281L55.3838 39.6066L55.0913 39.4872L54.8791 39.641L54.7322 39.9807V40.2872L54.3916 40.4742L54.5533 40.7635L55.1715 41.2053L55.3344 41.4268L55.3505 42.1074L55.058 42.4127L55.037 42.6883L54.7001 42.8274L54.3299 42.7425L54.4595 42.3228L54.2695 42.18L54.2226 41.8982L54.0807 41.9437L54.1757 41.5684L54.1276 41.4268L53.7475 41.8477L53.5106 41.7997L53.3205 41.5154L53.0836 41.5142L52.8936 41.6545V41.8428L52.7517 41.8896L52.7985 41.3714L52.4197 41.369L52.3716 41.2275V41.1339L52.7517 41.1364L52.8467 41.0428L52.6566 40.7585L52.6097 40.4287L52.2766 40.1912L52.1346 39.9081L51.9927 39.9536V40.1419L51.6127 40.1875L51.3276 40.1382L51.2326 39.9499L51.2807 39.7616L51.1857 39.337L51.0438 39.1943V38.9592L50.8537 38.9112L50.5687 38.3918L50.5218 38.014L50.2836 37.8245L50.3799 37.07L50.5699 37.0245L50.7118 37.214H50.8069L50.8537 37.0257L50.7118 36.6946L50.3799 36.3156L50.428 35.939L50.2849 35.7027V35.3728L49.8579 34.7575V34.4744L49.9529 34.2861L50.0961 34.1926Z" fill="#D72B2B" stroke="white" stroke-width="1.22173"/>
<path d="M24.4297 5.75586L24.7122 5.94539L25.1392 6.09062L26.0882 6.19031L26.3732 6.33431L26.5633 6.90537L27.1321 7.14536L27.6541 7.14905L27.8923 7.00752L28.1292 7.00875L28.6981 7.58104L29.2682 7.91704L29.4582 7.91827L29.5051 8.15457L29.9321 8.5841L30.1221 8.49056L30.3591 8.72932L30.5491 8.77732L31.5943 8.83147L31.4512 9.49361V9.87391L31.213 10.2037L31.1661 10.488L30.9761 10.6296L30.8329 10.9607L30.691 10.9594L29.884 10.3391L29.6952 10.2431L29.647 10.2899V10.6222L29.884 10.861L29.7889 11.192L30.1209 11.4776L30.264 11.384L30.3591 11.6216L30.596 11.6228L30.881 11.7668L30.7379 12.4302L30.501 12.8548V13.2338L30.7848 13.6621L31.4018 13.9501L31.1167 14.3267L30.7367 14.3723L30.4528 14.2763L30.1197 14.2738L29.7408 14.4609L29.5508 14.3181L29.0757 14.2676L28.7906 13.8873L28.6006 14.2652L28.3637 14.4067L27.4616 14.4486L26.9878 14.2566L26.5127 13.9218H26.3708L25.9907 13.683L25.6106 13.6326L25.2787 13.7261L24.8986 13.7237L24.2816 13.3409L23.9496 13.3397L23.6646 13.1957L23.4276 13.1944L23.3326 13.0984L23.2857 12.5298L23.0957 12.3391V11.7705L23.287 11.3914L23.4758 11.2511V11.0136L23.5708 10.8253L23.5239 10.2062L23.192 9.44807L23.287 9.16377L23.7152 9.26346L23.8558 9.11947L23.9509 9.26346H24.0471V8.50164L23.8102 7.9318V7.74227L23.9064 7.60074V7.17244L24.1421 6.93737L24.4297 5.75586Z" fill="#D72B2B" stroke="white" stroke-width="1.22173"/>
</svg>
