<svg width="101" height="71" viewBox="0 0 101 71" fill="none" xmlns="http://www.w3.org/2000/svg">
<path d="M70.3543 25.2255L70.2123 25.1681L69.8022 25.0557L69.7227 24.9832H69.6786L69.6419 25.1818L69.6076 25.268L69.5281 25.303L69.4424 25.3192L69.3518 25.3579L69.2722 25.4091L69.2184 25.4591L69.1584 25.4978L68.9883 25.549L68.9283 25.574L68.9246 25.5915L68.932 25.6477L68.9283 25.6652L68.9099 25.6702L68.8585 25.6615L68.8402 25.6652L68.752 25.7551L68.5721 26.0299L68.4742 26.0961L68.3542 26.2573L68.3126 26.2822L68.2171 26.3185L68.1743 26.3434L67.9993 26.5008L67.8291 26.7069L67.6786 26.948L67.5097 27.3364L67.4362 27.635L67.424 27.7736L67.4485 28.0684L67.4374 28.207L67.375 28.3419L67.293 28.4369L67.1755 28.5418L67.0421 28.628L66.9099 28.663L66.8046 28.8041L66.7569 28.8441L66.6859 28.8678L66.4888 28.889L66.3872 28.7641L66.2416 28.6217L66.0629 28.558L65.8707 28.663L65.8181 28.6217L65.7679 28.6455L65.7483 28.7104L65.7862 28.7954L65.7336 28.9165L65.654 29.0152L65.4778 29.1601L65.3762 29.1988L65.1546 29.2175L65.053 29.2738L64.927 29.31L64.8205 29.2225L64.747 29.0801L64.7189 28.9552L64.6601 28.8478L64.5243 28.7629L64.1387 28.6092L64.0187 28.5855L63.8939 28.5893L63.5659 28.6467L63.523 28.663L63.4912 28.6904L63.4116 28.7954L63.3443 28.8303L63.1472 28.989L63.0554 29.0252L62.9783 29.0689L62.9134 29.1676L62.8608 29.275L62.8131 29.3412L62.7029 29.3762L62.583 29.3562L62.452 29.3175L62.0064 29.2825L61.8718 29.2438L61.7494 29.1601L61.6649 29.0452L61.6123 28.904L61.5854 28.7616L61.5768 28.638L61.556 28.5505L61.37 28.1621L61.2047 27.8935L61.1827 27.7449L61.1533 27.6837L61.0358 27.5775L61.0517 27.5463L61.1313 27.4788L61.1851 27.4526L61.31 27.4276L61.3565 27.3889L61.3724 27.284L61.3663 27.1141L61.3381 26.9555L61.2292 26.8206L61.3161 26.6757L61.4605 26.5233L61.5768 26.4384L61.8694 26.3672L62.0052 26.301L62.0628 26.1848L62.0823 26.1311L62.1178 26.0886L62.1374 26.0337L62.1068 25.9362L62.0566 25.8775L61.9856 25.8288L61.8412 25.7551L61.556 25.6727L61.2745 25.7027L61.0542 25.8488L60.9464 26.1536L60.9293 26.1673L60.9146 26.1886L60.9073 26.2348L60.922 26.271L60.9844 26.3285L60.9991 26.3659L60.9844 26.4396L60.922 26.5595L60.8987 26.6757L60.8657 26.7481L60.8669 26.7969L60.9428 26.8406L60.955 26.8456L60.9942 26.9717L61.0052 27.0392L60.9991 27.1129L60.922 27.2615L60.802 27.3564L60.6759 27.4251L60.5805 27.5013L60.5364 27.5475L60.4568 27.6187L60.4201 27.6587L60.3858 27.7287L60.3332 27.8698L60.2891 27.9348L60.3528 28.0147L60.4544 28.1871L60.5095 28.252L60.5817 28.287L60.6551 28.3007L60.7127 28.3295L60.7347 28.4094L60.7004 28.5243L60.5327 28.8066L60.4642 28.889L60.2561 29.0339L60.0064 29.1176L59.7518 29.1101L59.5351 28.9802H59.4899V29.0764L59.4507 29.1651L59.3932 29.2263L59.3381 29.2513L59.2267 29.2688L59.1569 29.3112L59.0957 29.3574L59.0088 29.3912L58.9501 29.3812L58.8509 29.345L58.7799 29.28L58.8436 29.0814L58.835 28.954L58.7971 28.8566L58.7395 28.8441L58.7346 28.8216V28.8029L58.7273 28.7929L58.6955 28.7954L58.7297 28.8666L58.7371 28.9403L58.7126 29.0102L58.6514 29.0702L58.5841 29.0327H58.5217L58.4678 29.0614L58.4311 29.1151L58.4029 29.0926L58.3797 29.0801L58.3576 29.0614L58.3393 29.0252L57.906 29.2238L57.7872 29.2513L57.7114 29.2887L57.6526 29.4674L57.5889 29.5236L57.5461 29.5086L57.3674 29.3912L57.3307 29.4811L57.2597 29.4724L57.1887 29.4099L57.1459 29.3412L57.0504 29.4062L56.9696 29.4848L56.8876 29.5136L56.7897 29.4324L56.6281 29.4998L55.8141 29.5923L55.7835 29.5598L55.726 29.4823L55.7346 29.4861L55.6562 29.3662L55.6146 29.3275L55.5779 29.305L55.5363 29.2975L55.4824 29.2962L55.3955 29.2388L54.912 29.0127L54.7994 29.0027L54.7211 28.9253L54.2217 28.7042L53.8851 28.9053L53.7969 28.9303L53.6978 28.9315L53.6562 28.9415L53.5558 29.0252L53.4297 29.0814L53.3893 29.1214L53.3783 29.2063L53.2828 29.1588L53.0209 29.1151L52.9107 29.0689L52.8324 29.004L52.77 28.9365L52.7088 28.889L52.6255 28.8703L52.3991 28.889L52.1996 28.8153L52.1127 28.8079L52.0282 28.8666L51.8715 29.0327L51.6867 29.1613L51.4958 29.1988L51.322 29.0926L51.295 29.0402L51.262 28.919L51.2302 28.8666L51.1726 28.8266L51.06 28.8029L51.0086 28.7741L50.8568 28.648L50.7809 28.608L50.6781 28.568L50.6671 28.593L50.6683 28.603L50.6622 28.6068L50.6304 28.613L50.399 28.7254L50.224 28.9203L50.1102 29.1551L49.9976 29.9045L50.0245 30.1531L50.1395 30.4329L50.366 30.6815L50.3954 30.7576L50.4664 30.7839L50.5484 30.7901L50.6096 30.8164L50.7246 30.8813L51.0282 30.9038L51.1641 30.93L51.2681 31L51.4639 31.1686L51.5851 31.2023L51.6696 31.1748L51.7614 31.1111L51.9144 30.975L52.0086 31.0362L52.1604 31.1923L52.2669 31.2473L52.4468 31.2273L52.5411 31.2385L52.5802 31.3172L52.6292 31.3422L52.7345 31.3335L52.841 31.3397L52.8899 31.4097L52.9046 31.4871L52.9291 31.5658L52.9352 31.6507L52.8899 31.7494L52.9364 31.7944L53.0233 31.7107L53.0992 31.687L53.311 31.7044L53.3759 31.7182L53.3918 31.7532L53.393 31.7981L53.4187 31.8393L53.475 31.8643L53.5178 31.8606L53.557 31.8693L53.5999 31.9305L53.5399 31.9617L53.4909 32.003L53.4518 32.0554L53.4187 32.1154L53.4615 32.1616L53.5117 32.2028L53.6782 32.1541L53.9499 32.2278L54.442 32.4326L54.5326 32.4114L54.5999 32.4351L54.6562 32.4227L54.7064 32.2928L54.7541 32.4114L54.7162 32.5038L54.6415 32.595L54.5779 32.7049L54.7284 32.7437L54.8373 32.8536L54.8814 32.9797L54.8398 33.0709L54.8851 33.1746L54.8398 33.1871L54.7627 33.1758L54.7064 33.2071L54.7052 33.3232L54.7859 33.3245L54.8851 33.2783L54.9316 33.2483L55.1911 33.2395L55.2804 33.2071L55.3441 33.1334L55.4016 33.016L55.4322 32.8911L55.4175 32.7949H55.4579L55.5093 32.8536L55.5864 32.8786L55.7909 32.8861L55.8912 32.8711L56.0467 32.8099L56.1018 32.7949L56.1679 32.7661L56.3307 32.6387L56.4359 32.6138L56.5461 32.6337L56.622 32.6712L56.7456 32.7537L57.3637 32.931L57.5192 33.0459L57.8913 33.5506L57.9855 33.7504L58.0798 33.8991L58.1177 33.974L58.185 34.0477L58.4323 34.235L58.4715 34.295L58.5718 34.2563L58.6722 34.2625L58.8289 34.295L58.9048 34.27L59.0247 34.1788L59.0688 34.1589L59.6845 34.1738L59.8522 34.2038L59.8926 34.1926L60.0676 34.2038L60.13 34.1988L60.19 34.1876L60.2561 34.2063L60.3332 34.295L60.436 34.2026L60.5548 34.1301L60.6674 34.0839L60.7567 34.0677L60.84 34.1014L60.8999 34.1826L60.9281 34.2838L60.9073 34.3812L61.004 34.345L61.0688 34.2913L61.0762 34.2276L60.9991 34.1589L61.0737 34.1226L61.0872 34.1139L61.1349 33.994L61.1778 33.9603L61.2733 34.0202L61.31 34.034L61.3418 34.0527L61.3565 34.0914L61.354 34.1626L61.3602 34.1963L61.3761 34.2276L61.4973 34.2588L61.638 34.1714L61.7763 34.0489L61.8853 33.9727L61.9795 33.9615L62.0285 33.9815L62.0676 34.0115L62.2072 34.0414L62.2476 34.0777L62.3076 34.1813L62.4238 34.2201L62.594 34.2076L62.8535 34.1501L62.9061 34.1201L62.9232 34.1139L62.9612 34.1276L62.9783 34.1589L62.9918 34.1888L63.0114 34.2038L63.0726 34.1788L63.135 34.1301L63.2023 34.1014L63.277 34.1364L63.3847 34.1664L63.5536 34.1476L63.8364 34.0677L63.9074 34.0102L64.0665 33.8366L64.1216 33.8004L64.2599 33.7617L64.3994 33.6667L64.6308 33.4332L64.6405 33.4656L64.6467 33.4694H64.6565L64.6748 33.4831L64.7446 33.3957L64.8694 33.2958L65.0041 33.2258L65.0983 33.2283L65.1424 33.2858L65.1681 33.3295L65.2024 33.3332L65.2721 33.2733L65.3284 33.2458L65.5622 33.2071L65.7862 33.1171L65.8156 33.1109L65.807 32.9135L65.7826 32.8673L65.7263 32.7836L65.162 32.2116L64.8327 31.8056L64.7483 31.6507L64.6993 31.5271L64.6858 31.2073L64.6981 31.0287L64.714 30.9725L64.7323 30.9475L65.0702 30.7714L65.2746 30.6889L65.3835 30.6615L66.0812 30.6265L66.2012 30.594L66.3064 30.5341L66.4423 30.4154L66.4937 30.3954L66.5586 30.3917L66.6406 30.3979L67.1204 30.2818L67.1767 30.2368L67.1939 30.1893L67.1865 30.1181L67.1633 30.0482L67.1473 29.9595L67.14 29.8533L67.1633 29.7222L67.1902 29.6622L67.233 29.6185L67.2759 29.6098L67.3052 29.6085L67.3481 29.621L67.566 29.7322L67.6541 29.7659L67.7373 29.7671L67.8132 29.7397L67.8916 29.6785L68.2306 29.3287L68.3285 29.2513L68.659 29.0477L68.7888 28.9115L68.8549 28.8041L68.8891 28.7017L68.8842 28.6317L68.8585 28.578L68.823 28.5505L68.7753 28.5356L68.7067 28.5331L68.5574 28.548L68.4791 28.5468L68.4179 28.5331L68.3763 28.4956L68.3701 28.4231L68.9001 27.1903L69.533 26.1498L69.6003 26.0736L70.2074 25.7589L70.2613 25.7389L71.6517 25.6839L71.724 25.6127L71.7533 25.5728L71.4889 25.283L71.4816 25.2842L71.38 25.3642L71.2539 25.3942L71.0079 25.2093L70.7472 25.0694L70.6015 25.1955L70.4779 25.2418L70.3543 25.2255ZM68.5611 25.3017L68.6309 25.2742L68.7373 25.1793V25.0819L68.6247 24.9695L68.5121 24.9033L68.4289 24.8745L68.3297 24.8808L68.2233 24.9332L68.1755 24.9682L68.08 25.0532L68.0666 25.1293L68.1449 25.2118L68.2318 25.2692L68.2845 25.313L68.3995 25.3317L68.5611 25.3017ZM55.5118 24.9208L55.5301 24.8221L55.4579 24.7109L55.2021 24.8096L55.1519 24.8471L55.1434 24.9407L55.2009 25.0182L55.289 25.0769L55.3722 25.1181L55.5118 24.9208ZM57.9133 23.3694L57.8117 23.3007L57.7211 23.2607L57.5535 23.3182L57.3747 23.4406L57.3025 23.5855L57.4555 23.7129L57.5853 23.6629L57.6367 23.6317L57.6771 23.5768L57.5792 23.5493L57.5473 23.4793L57.5804 23.4119L57.6771 23.3931L57.7566 23.4294L57.797 23.4956L57.8264 23.573L57.8754 23.643L57.8925 23.6842L57.906 23.7341L57.9292 23.7666L57.9855 23.7541L58.0088 23.7204L58.0223 23.6642L58.0296 23.553L57.9953 23.4556L57.9133 23.3694Z" fill="#143B73" stroke="white" stroke-width="1.22179"/>
<path d="M47.7504 45.5716L41.3794 45.5454L43.3758 47.4565L43.9817 47.8112L44.4468 48.0286L44.7344 48.2359L45.0319 48.5444L45.2779 48.9141L45.4334 49.2889L45.3195 49.6611L44.7308 50.5692L44.6953 50.769L44.6867 50.8914L44.7026 51.2049L44.7406 51.3198L44.7969 51.4048L44.9927 51.6296L45.1041 51.8095L45.2069 51.9256L45.2987 52.0068L45.4126 52.0868L45.5141 52.1904L45.7553 52.5002L45.8299 52.5739L45.8875 52.6214L45.9254 52.6813L46.1494 53.2047L46.2094 53.2896L46.2743 53.3358L46.3453 53.3408L46.4101 53.3259L46.4591 53.3009L46.5289 53.2409L46.568 53.2347L46.6084 53.2522L46.688 53.3221L47.0307 53.9379L47.1054 54.0403L47.1654 54.0978L47.2131 54.1315L47.2682 54.1527L47.3918 54.1727L47.4603 54.1977L47.5583 54.2814L48.0846 55.0433L48.1372 55.1607L48.1593 55.2806L48.1421 55.3806L48.0785 55.5742L48.0626 55.6941L48.0772 55.8252L48.1654 56.0238L48.2584 56.1188L48.3527 56.1762L48.6379 56.2437L48.7248 56.2836L48.9267 56.446L49.0761 56.5947L49.4665 56.8882L49.8215 57.213L49.9255 57.2829L50.01 57.3116L50.0846 57.3091L50.1556 57.2866L50.2401 57.2492L50.327 57.2392L50.42 57.2642L50.8509 57.6027L51.13 57.7525L51.4041 57.9574L51.5057 58.0111L51.682 58.0761L51.775 58.121L51.9745 58.2684L52.0088 58.2859L52.0394 58.2984L52.0737 58.3034L52.1055 58.2959L52.1508 58.2734L52.2108 58.2247L52.2536 58.1972L52.294 58.186L52.3393 58.1972L52.3626 58.2234L52.3687 58.2572L52.3626 58.3084L52.3638 58.3633L52.3883 58.4333L52.4433 58.4645L52.5229 58.4708L52.72 58.4683L52.8154 58.4845L52.8999 58.5207L53.0529 58.6157L53.13 58.6406L53.2022 58.6369L53.3614 58.5644L53.5743 58.4945L53.66 58.477L54.0223 58.4833L54.1031 58.4758L54.1668 58.452L54.2047 58.4245L54.2353 58.3646L54.25 58.2971V58.1672L54.2365 58.0935L54.2084 58.0111L54.0505 57.7238L54.0248 57.6626L54.0113 57.6089L54.0162 57.5539L54.0236 57.5115L54.0799 57.469L54.075 57.2367L54.0823 57.1855L54.1141 57.0743L54.1411 57.0193L54.1704 56.9756L54.2108 56.9307L54.3185 56.847L54.3859 56.8207L54.474 56.8045L54.627 56.807L54.7335 56.8307L54.9636 56.9169L55.0224 56.9257L56.9526 56.3686L57.2648 56.2374L57.3443 56.1875H57.3186L57.2158 56.1637L57.2782 56.0751L57.0542 55.9839L57.0469 55.9726L56.9649 55.8927L56.9367 55.8864L56.8633 55.8977L56.8327 55.8927L56.8009 55.8665L56.7335 55.7878L56.6968 55.7553L56.523 55.6641L56.064 55.5817L55.8278 55.4693L55.7249 55.2282L55.6968 55.0858L55.5732 54.8272L55.545 54.6761L55.594 54.5137L55.8082 54.3276L55.8571 54.2164L55.8718 54.0803L55.9318 53.858L55.9453 53.7143L55.9649 53.6331L56.0738 53.4333L56.1228 53.3683L56.2305 53.4045L56.348 53.3683L56.4545 53.2884L56.523 53.186L56.5426 53.0498L56.4618 53.0186L56.3455 52.9998L56.2549 52.9087L56.3186 52.9112L56.3725 52.9037L56.4753 52.8674L56.4324 52.8637L56.4031 52.8525L56.3786 52.8362L56.3431 52.8175L56.4239 52.6926L56.4606 52.6164L56.4753 52.524L56.4594 52.4428L56.419 52.3666L56.3627 52.3291L56.299 52.3691H56.2549L56.2403 52.2979L56.2011 52.2716L56.1448 52.2829L56.0787 52.3191L55.9379 52.1967L55.3553 52.2392L55.2794 52.0456L55.1888 52.0918L55.1215 52.153L55.0187 52.2741L54.9795 52.2929L54.9354 52.3016L54.9012 52.3253L54.8865 52.389L54.8755 52.4128L54.8461 52.4353L54.8094 52.4503L54.3957 52.5477L54.2206 52.5589L54.0884 52.4565L53.9881 52.5002L53.8546 52.5115L53.7359 52.5002L53.6857 52.479L53.6612 52.5564L53.6025 52.6276L53.5303 52.6851L53.3956 52.765L53.3234 52.7938L53.2402 52.8112L53.1325 52.8175L52.8583 52.8837L52.7995 52.9087L52.7016 52.8724L52.4739 52.8799L51.9133 52.775L51.6832 52.6439L51.5131 52.4328L51.4005 52.178L51.3393 51.9094L51.3209 51.8632L51.2634 51.7845L51.2511 51.7458L51.2597 51.7133L51.2952 51.6496L51.3025 51.6071L51.2891 51.5659L51.2536 51.5297L51.201 51.5047L51.1422 51.4947L51.1067 51.4335L51.0296 50.9888L51.0443 50.5279L51.0076 50.4168L50.9158 50.3131L50.8484 50.2144L50.7762 50.0433L50.7211 49.9871L50.4886 49.9134L50.4531 49.8684L50.4359 49.8097L50.3968 49.7585L50.3466 49.7223L50.2976 49.7098L50.2132 49.6736L50.1067 49.6061L49.9794 49.5687L49.83 49.6186L49.7676 49.5312L49.5363 49.4175L49.4335 49.3401L49.3808 49.2427L49.349 49.1102L49.338 48.9691L49.3453 48.8429L49.4114 48.6056L49.4237 48.4882L49.3894 48.3383L49.2082 47.9286L49.2646 47.775L49.2597 47.5851L49.2205 47.3953L49.1679 47.2416L49.0491 46.9993L49.0148 46.8057L48.9206 46.6533L48.786 46.0475L48.7909 45.9389L48.8435 45.8489L48.77 45.8514L48.6685 45.8914L48.6342 45.9139L48.4702 45.9164L48.3967 45.9251L48.3257 45.9626L48.2621 45.8839L48.1482 45.8964L48.0136 45.9289L47.8875 45.9139L47.8275 45.8202L47.7517 45.5716H47.7504Z" fill="#143B73" stroke="white" stroke-width="1.22179"/>
<path d="M84.5605 19.6013L84.476 19.3153L84.5225 19.2728L84.4956 19.1504L84.3867 19.1529L84.2692 19.2216L84.2128 19.294L84.1957 19.3253L84.1113 19.4314L84.0672 19.5301L84.0513 19.5563L84.0378 19.5863L84.0366 19.6313L84.0525 19.6662L84.077 19.6675L84.1027 19.6613L84.1223 19.6725L84.2949 19.8636L84.4711 19.8124L84.5605 19.6013ZM85.055 19.1029L84.9962 19.0167L84.875 18.9992L84.8053 19.0467L84.6633 19.1129L84.6143 19.1791L84.7282 19.1579L84.8053 19.2041L84.8763 19.2603L84.9632 19.2728L85.0452 19.2066L85.055 19.1029ZM81.8994 15.5818L81.8493 15.4819L81.7342 15.3295L81.6595 15.3557L81.4637 15.5069L81.5457 15.5531L81.7379 15.6218L81.8223 15.6917L81.8395 15.6805L81.8431 15.6655L81.8554 15.6642L81.9068 15.6917L81.8994 15.5818ZM82.4735 15.0085L82.4405 14.8961L82.345 14.8299H82.1749L82.0402 14.921L81.9863 14.9835L81.9545 15.0584L82.0941 15.0497L82.2385 15.0185L82.3646 15.0297L82.4441 15.1446L82.4735 15.0085ZM77.9838 13.8156L77.9667 13.6845L78.0548 13.4684L78.0891 13.366L78.1025 13.3085L78.0988 13.2423L78.0731 13.2048L77.996 13.1911L77.9654 13.1524L77.9544 13.0662L77.9654 12.7014L77.7182 12.6315L77.4746 12.659L77.3289 12.7714L77.1955 12.8913L77.1674 13.0399L77.2225 13.1736L77.2775 13.2585L77.6129 13.6295L77.6558 13.6807L77.8565 13.8468L77.9214 13.8781L77.9838 13.8156ZM67.1855 12.0819L67.0667 11.9757L66.9223 11.8871L66.5331 11.7534L66.2601 11.9857L66.1071 12.0869L66.0067 12.0657L65.8598 12.1856L65.806 12.2593L65.8501 12.2905L65.9308 12.2693L65.9822 12.2293L66.041 12.2081L66.1402 12.2468L66.2271 12.1306L66.369 12.1269L66.6897 12.2006H66.9737L67.1377 12.1693L67.2038 12.1906L67.2442 12.2905L67.3532 12.2305L67.4633 12.2006L67.4254 12.1306L67.3776 12.1206L67.3164 12.1281L67.2442 12.1144L67.1855 12.0819ZM74.0914 12.3629L74.1648 12.2143L74.2689 12.1081L74.2628 11.9258L74.2224 11.8433L74.0498 11.7984L73.9127 11.7122L73.7952 11.581L73.712 11.4336L73.6495 11.3562L73.5785 11.3887L73.5296 11.4799L73.5357 11.5698H73.4916L73.5492 11.6522L73.6202 11.6885L73.6936 11.7109L73.7181 11.7971L73.7107 12.0294L73.7927 12.1781L73.9237 12.3679L74.0914 12.3629ZM73.723 11.0901L73.712 11.0727L73.8197 11.0239L73.8331 10.8965L73.8148 10.7679L73.8221 10.7079L73.7915 10.6904L73.6679 10.5768L73.6189 10.5506L73.3447 10.4519L73.1966 10.4481L73.1685 10.7654L73.1954 10.999L73.2162 11.1613L73.215 11.3649L73.2909 11.4149L73.5357 11.3262L73.6752 11.2788L73.7976 11.2076L73.8442 11.1176L73.8172 11.1276L73.756 11.1663L73.723 11.0901ZM73.8674 10.1671L73.9311 10.1459L73.9629 10.0996L73.98 10.0534L74.0008 10.0322L73.9972 9.98472L73.9445 9.87855L73.8588 9.76988L73.756 9.71617L73.6018 9.77238L73.5026 9.92852V10.0921L73.6459 10.1671H73.8674ZM67.5759 10.4831L67.5392 10.4681L67.4964 10.4369L67.4388 10.4069L67.1647 10.3632L67.1157 10.347L67.0471 10.2857L66.8856 10.0772L66.7338 10.0035L66.6591 9.951L66.6249 9.87106L66.5881 9.86232L66.3813 9.73741L66.3213 9.66996L66.276 9.59751L66.2209 9.53256L66.0826 9.46012L66.0679 9.50133L66.079 9.56004L66.0912 9.58003L65.959 9.85107L66.1695 9.94975L66.2552 9.97348L66.3813 9.98223L66.4535 9.99721L66.5257 10.0397L66.5416 10.1096L66.4413 10.2083L66.6041 10.2483L66.5992 10.3957L66.4939 10.4956L66.3568 10.3919L66.1047 10.5506L65.9688 10.6043L65.8501 10.5518L65.7423 10.4856L65.6603 10.5306L65.6126 10.6267L65.6065 10.7079L65.7411 10.8666L65.9712 10.9353L66.2405 10.9365L66.746 10.8416L66.8795 10.8516L67.0606 10.9428L67.2197 10.964L67.2883 10.9827L67.3434 11.0127L67.3838 11.0427L67.4633 11.1176L67.5355 11.2051L67.5869 11.2388L67.8097 11.2675L67.8795 11.2888L67.9321 11.3212L67.959 11.3437L68.046 11.3924L68.0582 11.4112L68.0741 11.4636L68.0851 11.4836L68.172 11.5573L68.2663 11.6185L68.2822 11.6447L68.2748 11.6747L68.2797 11.6984L68.3311 11.7084H68.4621L68.62 11.8646L68.6567 11.967L68.7449 12.0107L68.8612 12.0319L68.9774 12.0657L69.0448 12.1194L69.188 12.263L69.483 12.3792L69.5282 12.4054L69.6506 12.5053L70.0766 12.7464L70.1733 12.8363L70.2015 12.8876L70.2272 13.0187L70.2565 13.0637L70.2871 13.0974L70.3006 13.1286L70.3581 13.1711L70.7474 13.3322L71.1513 13.4259L71.2541 13.4921L72.5247 14.7799L73.4072 15.3295L73.6569 15.4269L74.6128 15.6155L74.745 15.6143L74.865 15.633L75.0363 15.7654L75.1575 15.8254L75.2175 15.8678L75.2395 15.9066L75.2873 16.019L75.3093 16.0514L75.4109 16.0889L75.5284 16.1151L75.6251 16.1589L75.6961 16.3387L75.7671 16.4312L75.9274 16.5935L76.0241 16.6585L76.0841 16.7097L76.0902 16.7634L76.0645 16.9158L76.0866 16.982L76.6325 17.6752L76.7463 17.7589L76.8148 17.9013L76.854 17.9525L76.9116 17.9738L77.0291 17.98L77.0792 18.0012L77.1147 18.0425L77.1417 18.1037L77.16 18.1749L77.1674 18.2511L77.1894 18.2873L77.2861 18.356L77.3081 18.3847L77.3314 18.5021L77.3877 18.5846L77.5236 18.7232L77.6313 18.9118L77.6766 19.0242L77.7182 19.2128L78.0389 19.8636L78.2066 20.0872L78.2506 20.2033L78.247 20.322L78.187 20.4482L78.2396 20.5169L78.269 20.5981L78.2727 20.6842L78.2347 20.7642L78.3106 20.9228L78.2298 21.631L78.2188 21.6797L78.0988 21.9933L78.105 22.0819L78.1698 22.2955L78.2188 22.6278L78.2347 22.674L78.2886 22.7165L78.4269 22.7864L78.455 22.8301L78.4648 23.1949L78.4954 23.3023L78.6435 23.4472L78.8737 23.6096L79.0487 23.7769L79.0291 23.9393L79.2519 24.058L79.4086 24.2241L79.5089 24.4177L79.5628 24.6176L79.6374 24.4976L79.6742 24.3503L79.7341 24.2578L79.8761 24.3003L79.919 24.1979L79.9765 24.1367L80.0389 24.0904L80.0965 24.0292L80.1515 23.9243L80.2262 23.7095L80.2739 23.622L80.3205 23.5746L80.4123 23.5009L80.4502 23.4372L80.4588 23.3785L80.4502 23.2124L80.5053 23.1437L80.6632 23.0412L80.7109 22.9863L80.7366 22.8813L80.7452 22.7752L80.7366 22.6728L80.7109 22.5791L80.6497 22.4929L80.5738 22.4254L80.5102 22.3455L80.4894 22.2181L80.5738 21.997L80.9496 21.676L81.1112 21.4911L81.0438 21.32L81.0512 21.1526L81.1112 20.7867L81.0549 20.6455L80.9214 20.4894L80.766 20.3632L80.646 20.3133L80.6558 20.2596L80.5959 20.1471L80.4894 19.996L80.318 19.6313L80.2348 19.5413L80.0279 19.3702L79.9594 19.2728L79.9435 19.1741L79.952 19.0817L79.9422 18.9955L79.8761 18.9081L79.788 18.9868L79.7843 18.9992L79.6644 19.003L79.5163 18.9918L79.3914 18.9443L79.3376 18.8406L79.3217 18.7757L79.2384 18.657L79.2066 18.592L79.1907 18.5271L79.1797 18.3922L79.165 18.326L79.083 18.1536L79.0107 18.1724L78.9189 18.2685L78.7868 18.326L78.6423 18.3173L78.5175 18.291L78.3987 18.2473L78.2751 18.1824L78.1441 18.0812L78.0413 17.9788L77.9263 17.8976L77.7647 17.8663L77.6129 17.8601L77.5431 17.8464L77.4771 17.8214L77.4783 17.8014L77.4232 17.7364L77.3632 17.679L77.3314 17.6003L77.3485 17.5328L77.3755 17.4679L77.3877 17.3879L77.3608 17.313L77.2396 17.1819L77.2114 17.1169L77.1845 16.997L77.1184 16.8633L77.0315 16.7384L76.9458 16.6423L76.8748 16.7434L76.7647 16.8109L76.6349 16.8159L76.5052 16.7334L76.4574 16.656L76.3999 16.5011L76.3265 16.4062L76.2897 16.3337L76.264 16.2975L76.2298 16.2738L76.1747 16.26L76.1478 16.2326L76.1086 15.984L76.0792 15.9478L75.9556 15.8791L75.8552 15.7704L75.3974 15.5556L75.1649 15.4132L74.9666 15.2458L74.7952 15.0509L74.477 14.5763L74.2383 14.3365L74.1967 14.284L74.182 14.274L74.1293 14.2528L74.1134 14.244L74.1085 14.2128L74.1208 14.1341L74.1134 14.1079L74.0987 14.0704L74.1049 14.0417L74.0987 14.0242L74.0449 14.018L73.9727 14.0192L73.9384 14.0117L73.8515 13.9468L73.7891 13.928H73.5871L73.5638 13.9255L73.4427 13.8381L73.3386 13.7369L73.2701 13.6982L73.1734 13.7432L73.0938 13.7269L72.9629 13.652L72.887 13.6395L72.6483 13.652L72.5553 13.632L72.4573 13.5695L72.3778 13.4571L72.3398 13.2923L72.1685 13.326L72.0277 13.2335L71.9212 13.0899L71.8539 12.9725L71.7339 12.8363L71.2321 12.5166L71.1586 12.5241L70.7878 12.2468L70.7278 12.2368L70.5834 12.2343L70.5442 12.2243L70.3459 11.9757L70.2345 11.8733L70.1219 11.7921L69.9983 11.7372L69.8551 11.7084L69.8061 11.7209L69.7449 11.7472L69.6788 11.7609L69.6164 11.7309L69.5797 11.6772L69.5515 11.6247L69.5111 11.5848L69.4389 11.5698L68.9542 11.5848L68.6922 11.5298L68.5796 11.3674L68.5294 11.1201L68.396 10.974L67.9982 10.8029L67.9199 10.7679L67.8428 10.7467L67.7656 10.7392L67.6934 10.7079L67.6567 10.6567L67.6004 10.5118L67.5759 10.4831ZM62.3175 8.32221L62.1731 8.26476L62.0788 8.27975L61.9479 8.34095L61.8634 8.35469L61.8573 8.37468L61.5978 8.46836L61.5293 8.51332L61.4546 8.52207H61.3677L61.2649 8.53955L60.7948 8.87056L60.7349 8.89554L60.6871 8.88305L60.6455 8.84557L60.6063 8.82184L60.5623 8.84682L60.5562 8.94425L60.6981 9.08415L60.8928 9.17658L61.0384 9.12537L61.1339 9.19906L61.4069 9.53131L61.5121 9.85732L61.5709 9.90353L61.7092 9.98223L61.9197 10.2133L61.9748 10.257L62.036 10.277L62.0837 10.2745L62.1364 10.2633L62.6211 10.2395L62.7251 10.2083L62.757 10.2383L62.8218 10.2758L62.8573 10.302L62.9222 10.2395L63.0262 10.1758L63.1229 10.1583L63.1658 10.2333L63.1854 10.292L63.2319 10.2945L63.298 10.272L63.3665 10.257L63.6076 10.1671L63.7472 10.1371L63.7912 10.1059L63.8365 10.0322L63.7925 9.96474L63.7643 9.89104L63.7496 9.80236L63.7447 9.69244L63.7766 9.58752L63.8365 9.49259L63.872 9.40141L63.8365 9.30648L63.8108 9.32147L63.7447 9.35145L63.7949 9.14785L63.7203 8.98922L63.5673 8.87555L63.3873 8.8056L63.2135 8.76438L63.1841 8.74315L63.1242 8.67945L63.1021 8.66696L63.0385 8.65197L62.8696 8.57328L62.8133 8.53955L62.67 8.5408L62.3175 8.32221ZM60.7079 3.52579L60.67 3.43211L60.5966 3.34968L60.5464 3.37091L60.5207 3.48208L60.4631 3.53579L60.315 3.48832L60.2612 3.50456V3.57326L60.2942 3.6582L60.3591 3.71066L60.4142 3.69817L60.4252 3.66944L60.4411 3.6482L60.495 3.63197L60.5451 3.64695L60.5684 3.66944L60.6651 3.70566L60.8328 3.7169L60.9429 3.68568L60.9809 3.64321L60.9503 3.62447L60.856 3.62947L60.7593 3.60074L60.7079 3.52579ZM58.1179 1.47607L58.064 1.55601L57.8535 1.99818L57.8621 2.25549L57.9 2.3729L57.9857 2.47533L58.02 2.48657L58.1032 2.48032L58.1399 2.49781L58.1632 2.52779L58.1913 2.58774L58.326 2.72639L58.3872 2.7751L58.4508 2.79509L58.6761 2.99119L58.7813 3.02617L58.7887 2.83631L58.8499 2.85879L58.9025 2.89127L59.009 2.97496L59.0494 3.02367L59.0616 3.05864L59.08 3.08737L59.1412 3.10985L59.2342 3.10736L59.3848 3.02742L59.49 3.01992L59.4337 2.88752L59.2942 2.69142L59.2256 2.56526L59.1424 2.36166L59.1155 2.31545L59.0616 2.24425L59.0567 2.17305L59.0653 2.09936L59.0494 2.02067L58.96 1.92949L58.5634 1.7059L58.4215 1.54727L58.3639 1.52479L58.2146 1.52854L58.1583 1.5148L58.1179 1.47607Z" fill="#143B73" stroke="white" stroke-width="1.22179"/>
<path d="M42.8964 54.9458L42.8401 54.9371L42.79 54.9046L42.6884 54.8109L42.6259 54.7747L42.55 54.7622L42.4729 54.7872L42.2391 54.9221L41.9674 55.0058L41.9099 55.0295L41.8719 55.0545L41.8462 55.0857L41.8315 55.1182L41.8328 55.1632L41.8536 55.2181L41.9038 55.2856L42.0788 55.4355L42.1057 55.4292L42.129 55.388L42.1375 55.323L42.1216 55.2481L42.0812 55.2019L41.9784 55.1669L41.9454 55.1119L42.0531 55.0857L42.1424 55.077L42.2232 55.0982L42.2991 55.1569L42.3383 55.2456L42.3713 55.4704L42.4093 55.5479L42.5488 55.6465L42.7459 55.7465L42.9479 55.8102L43.0984 55.8002L43.025 55.6678L43.047 55.6116L43.1266 55.6166L43.2294 55.664L43.2869 55.7003V55.6878L43.282 55.4405L43.2318 55.2094L43.1706 55.0445L43.1009 54.9521L43.0348 54.9333L42.8964 54.9458Z" fill="#143B73" stroke="white" stroke-width="1.22179"/>
<path d="M40.1268 31.1462L40.0974 31.0313L40.0693 31.0475L38.0729 32.2417L34.1132 32.2254L34.2013 32.3066L34.2747 32.5439L34.3616 32.6414L34.4632 32.7325L34.5477 32.845L34.5881 32.82L34.6921 32.7763L34.7325 32.7538L34.757 32.8587L34.7619 32.9574L34.8574 33.0173L35.7007 33.5707L35.7632 33.6481L35.7999 33.753V33.9029L35.2209 36.7308L35.1744 36.8432L35.1083 36.9394L34.9602 37.0843L34.9161 37.1492L34.91 37.2279L34.9345 37.3091L34.9773 37.4016L35.0006 37.5077L35.0141 37.6414L35.0924 37.8737L35.0961 37.9986L35.0667 38.1173L35.0128 38.2147L34.9565 38.2796L34.6909 38.5207L34.615 38.6131L34.5612 38.7056L34.5293 38.7893L34.358 39.3876L34.3237 39.4625L34.2833 39.5225L34.2527 39.5824L33.9736 40.4643L35.1817 41.8245L35.3152 42.0943L35.4914 42.3616L35.5857 42.4578L35.7509 42.5302L37.6249 43.0586L39.0117 44.0204L39.5454 44.3913L39.5968 44.4713L39.6531 44.6037L39.6347 44.8185L39.636 44.9359L39.6519 45.0571L39.7131 45.2182L39.7657 45.2694L39.8257 45.2769L39.8942 45.2682L39.9616 45.2869L40.0913 45.3881L40.1635 45.4281L40.2541 45.448L40.4365 45.4193L40.543 45.4168L40.647 45.4318L40.8783 45.5442L40.9457 45.5692L41.0191 45.5892L41.155 45.6054L41.2088 45.6042L41.2676 45.5954L41.3104 45.5817L41.3802 45.5455L47.7512 45.5717L47.7365 45.523L47.6864 45.4593L47.5456 45.4293L47.4036 45.3544L47.1001 45.1258L47.0242 45.0971L46.9495 45.0908L46.8883 45.117L46.8136 45.1683L46.7659 45.1545L46.7279 45.117L46.6888 45.0958L46.548 45.1033L46.3522 45.1495L46.2469 45.1395L46.1319 45.0921L46.0486 45.0159L45.996 44.9047L45.9446 44.4763L45.8515 44.2839L45.712 44.1378L45.537 43.9991L45.5382 44.0878L45.5639 44.154L45.6092 44.199L45.6692 44.2277V44.2764L45.357 44.3226L45.4085 44.1902L45.3558 44.0853L45.2701 43.9779L45.2248 43.8405L45.2212 43.6694L45.1906 43.5719L45.1 43.5207L44.7487 43.4645L44.6863 43.4021L44.6912 43.1523L44.6581 43.0736L44.5835 42.9899L44.4256 42.86L44.3595 42.8425L44.2811 42.8412L44.2444 42.825L44.297 42.7638L44.2199 42.7026L44.1685 42.6451L44.1085 42.6027L44.0118 42.5864L43.9604 42.5852L43.8907 42.5727L43.8331 42.539L43.8087 42.4703L43.7242 42.3179L43.532 42.2255L43.1416 42.128L43.1709 42.0931L43.166 42.0581L43.1367 42.0244L43.0987 41.9919H43.0571L42.9494 42.1105L42.9212 42.128L42.8294 42.113L42.8135 42.0831L42.8184 42.0406L42.7878 41.9919L42.7193 41.9606L42.6801 41.9706L42.652 41.9669L42.6116 41.8969L42.6214 41.877L42.6581 41.8645L42.6923 41.8432L42.7009 41.8058L42.6813 41.7745L42.6507 41.7471L42.6116 41.7196L42.5846 41.6584L42.4794 41.4873L42.4622 41.4223L42.4316 41.22L42.3827 41.1025L42.3472 41.0376L42.3631 40.9826L42.3986 40.9564L42.4194 40.9239L42.3876 40.8515L42.3435 40.7615L42.3692 40.4468L42.3472 40.3069L42.2884 40.2095L42.2138 40.127L41.8796 39.8622L41.8539 39.8522L41.8453 39.7723L41.8918 39.6149L41.9016 39.5312L41.8808 39.4463L41.8233 39.3376L41.8098 39.2552L41.8245 39.2027L41.8588 39.144L41.8918 39.0753L41.9016 38.9866L41.8184 39.0278L41.7315 39.1115L41.6813 39.1228L41.6091 39.1053L41.5675 39.0728L41.5001 38.9866L41.3618 38.858L41.1501 38.5894L41.1072 38.4333L41.0656 38.1185L41.0583 37.7988L41.084 37.6464L41.1819 37.3691L41.1917 37.2092L41.2859 37.1655L41.3961 37.1542L41.6128 37.1642L41.7205 37.1355L41.8808 37.0106L41.9677 36.9819L42.2872 36.9706L42.3876 36.9819L42.4647 37.0081L42.5271 37.0456L42.5761 37.0968L42.6116 37.1642L42.6923 37.153L43.6997 37.2092L43.838 37.1905L44.1049 37.1193L44.253 37.118L44.6851 37.2617L44.8026 37.2317L44.8748 37.2005L44.9445 37.2204L45.0155 37.2517L45.0878 37.2542L45.1379 37.2242L45.2506 37.1168L45.313 37.0768L46.4476 37.0156L46.9544 36.837L46.9972 36.2974L46.9507 36.3386L46.9079 36.3336L46.8773 36.2886L46.8663 36.2062L46.8858 36.1875L46.9777 36.1263L46.9972 36.095L46.9752 35.9576L46.9373 35.8452L46.9275 35.7465L46.9972 35.6591L46.9617 35.5729L46.9825 35.518L47.0205 35.4692L47.0413 35.4118L47.0291 35.3244L46.9679 35.1682L46.9311 34.9834L46.8797 34.9084L46.8198 34.8422L46.7769 34.756L46.7732 34.6823L46.7916 34.6274L46.8014 34.5674L46.7769 34.475L46.6104 34.3051L46.1282 34.0565L45.9788 33.838L45.9079 33.7355L45.8577 33.5557L45.7952 33.4058L45.69 33.3433L45.6251 33.2721L45.4525 32.9574L44.9996 32.5189L44.8234 32.4328L44.7793 32.3878L44.7646 32.3553L44.7536 32.2866L44.7389 32.2516L44.7132 32.2342L44.6361 32.2167L44.6104 32.2029L44.5369 32.1192L44.4488 32.0468L44.3362 31.9956L44.0388 31.9569L43.7193 31.8395L43.6863 31.8007L43.6544 31.7907L43.6091 31.817L43.5859 31.8494L43.5785 31.8707L43.5638 31.8819L43.521 31.8857L43.3582 31.8095L43.3019 31.7945L43.2101 31.8232L43.1452 31.8894L43.0853 31.9656L43.0094 32.0256L42.9482 32.0431H42.8882L42.2921 31.9694L42.2138 32.0006L42.1856 32.0443L42.122 31.9794L42.0375 31.8395L41.9653 31.7595L41.9249 31.7458L41.8539 31.7495L41.7633 31.817L41.7058 31.8432L41.6568 31.7945L41.6005 31.7708L41.5344 31.7558L41.483 31.7495L41.1476 31.5234L41.0913 31.421L41.0509 31.3011L40.9983 31.2024L40.904 31.16L40.8012 31.1437L40.7021 31.11L40.5895 31.09L40.4401 31.1112L40.3386 31.15L40.2223 31.1787L40.1268 31.1462ZM46.7904 28.8554L46.7671 28.8429L46.7488 28.8292L46.7328 28.7955L46.6508 28.8742L46.488 28.9029L46.4195 28.9803L46.3938 29.0753L46.4195 29.3913L46.3803 29.5637V29.6174L46.4048 29.6748L46.5076 29.7985L46.6386 30.0183L46.7157 30.1107L46.9593 30.3243L46.9972 30.383L47.0242 30.5217L47.0413 30.5679L47.1294 30.6828L47.2237 30.729L47.4391 30.749L47.6203 30.794L47.6974 30.8327L47.7525 30.8852L47.7892 30.9888L47.8088 31.2112L47.8406 31.2961L47.8883 31.2387L47.9385 31.2024L47.9924 31.1887L48.0572 31.2024L48.0548 31.1575L48.0609 31.0663L48.0572 31.0201L48.0829 31.0388L48.1503 31.07L48.1931 30.8964L48.3351 30.5704L48.3987 29.9808L48.3608 29.8072L48.2164 29.6386L47.903 29.4138L47.7378 29.3201L47.5725 29.2514L47.313 29.2077L47.2188 29.1602L47.1294 29.084L46.9862 28.9129L46.9103 28.8442L46.8846 28.8517L46.8626 28.8554L46.8418 28.8642L46.8222 28.8892L46.7904 28.8554ZM48.8553 28.5894L48.8455 28.402L48.7194 28.2172L48.5468 28.116L48.4049 28.2496L48.3914 28.462L48.4881 28.6468L48.679 28.7043L48.8553 28.5894ZM45.6214 27.75L45.5615 27.6813L45.5272 27.6026L45.4733 27.5389L45.357 27.5239L45.2591 27.5364L45.1465 27.5901L45.0669 27.6613V27.7288L45.0841 27.7575V27.7837L45.0816 27.8112L45.0878 27.8399L45.1037 27.8449L45.1624 27.8374L45.1796 27.8399L45.313 28.0261L45.4978 27.9224L45.5627 27.8637L45.6214 27.75Z" fill="#143B73" stroke="white" stroke-width="1.22179"/>
<path d="M83.8733 69.896L83.9418 69.8561L84.0141 69.8273L84.0349 69.8148L84.0863 69.7561L84.1218 69.7362H84.156L84.1781 69.7761L84.2123 69.7824H84.4988L84.549 69.7999L84.593 69.8248L84.6285 69.8186L84.6554 69.7362L84.7338 69.7724L84.8158 69.7736L84.8954 69.7424L84.9639 69.6862L85.0153 69.7224L85.0557 69.7337L85.0936 69.7224L85.1475 69.6862L85.1818 69.7199L85.2209 69.7324L85.2552 69.7124L85.2736 69.6437L85.2589 69.6075L85.2209 69.59L85.1793 69.5763L85.1475 69.5563L85.0985 69.4401L85.0582 69.3864L84.9174 69.3439L84.8537 69.2952L84.8048 69.229L84.7876 69.1566L84.7215 69.1216L83.9761 68.9118L83.839 68.9043L83.7656 68.8743L83.4632 68.6744L83.0642 68.5146L82.8818 68.3609L82.8157 68.3347L82.664 68.3035L82.5966 68.271L82.4436 68.1648L82.3726 68.1423L82.3004 68.1261L82.2429 68.1024L82.1952 67.9912L82.1389 67.99L82.0189 68.0274L81.8916 67.9925L81.5538 67.7476L81.4913 67.8913L81.4718 67.9662L81.4632 68.0474L81.4828 68.0886L81.5244 68.1436L81.5758 68.1911L81.6211 68.2111L81.7068 68.2298L81.7202 68.2772L81.686 68.4196L81.7019 68.4833L81.7423 68.4796L81.7949 68.4559L81.8439 68.4659L81.9051 68.5383L81.981 68.6645L82.0422 68.7169L82.1058 68.7319H82.249L82.3078 68.7669L82.309 68.8731L82.0556 68.9955L82.0862 69.1341L82.249 68.9992L82.3457 68.938L82.4436 68.9043L82.4755 68.953L82.5085 68.9855L82.5526 68.9992L82.5868 68.9792L82.604 68.9393L82.6346 68.9168L82.7043 68.9455L82.7496 69.0117L82.7178 69.0717L82.6578 69.1279L82.6162 69.1803L82.6089 69.2765L82.6346 69.3752L82.6958 69.4239L82.7974 69.3639L83.0397 69.5063L83.1083 69.4863L83.1634 69.4351L83.216 69.3727L83.2821 69.3177L83.2747 69.3864L83.2845 69.4289L83.3151 69.4501L83.3751 69.4564L83.3445 69.5288L83.3262 69.5563L83.3935 69.59L83.4461 69.5863L83.5012 69.5675L83.5685 69.5563L83.5905 69.5763L83.6138 69.6212L83.6481 69.6662L83.7056 69.6862L83.7693 69.6737L83.8243 69.6512L83.8708 69.6475L83.9088 69.6862L83.9174 69.7462L83.8843 69.7786L83.8292 69.7886L83.7729 69.7824L83.8145 69.8923L83.8733 69.896ZM88.1464 67.7351L88.0876 67.7052L88.0264 67.7177L87.975 67.7376L87.9187 67.7427L87.8452 67.7052L87.576 67.7476L87.3973 67.7464L87.2712 67.7052L87.2785 67.7701L87.3055 67.8226L87.3458 67.8613L87.4034 67.8888L87.3838 67.9325L87.4046 67.9687L87.4487 68L87.4964 68.0274H87.5368V67.9775H87.5845L87.6176 68.0424L87.6164 68.0924L87.576 68.1086L87.4964 68.0687L87.4487 68.1186L87.3116 68.0587L87.0264 68.0399L86.9187 67.9775L86.8893 67.94L86.8673 67.93L86.8256 67.935L86.8856 68.0424L86.9187 68.0687L86.8599 68.0911L86.811 68.1211L86.7693 68.1611L86.7375 68.2111L86.8012 68.221L86.8758 68.246L86.937 68.2822L86.9627 68.326L86.9872 68.4209L87.0435 68.4521L87.139 68.4446L87.3116 68.5008L87.4487 68.5033L87.5441 68.4284L87.5845 68.2523H87.6249L87.6519 68.4146L87.7461 68.4246L87.9738 68.3035L88.1084 68.2797L88.2516 68.291L88.3704 68.3435L88.423 68.4446L88.4964 68.4047L88.554 68.3547L88.5992 68.291L88.6433 68.2111L88.5919 68.1748L88.5491 68.1036L88.5209 68.0212L88.5111 67.9575L88.4842 67.8975L88.4193 67.8551L88.2871 67.7964L88.2076 67.8288L88.1745 67.7926L88.1464 67.7351ZM81.8659 67.2468L81.7472 67.2193L81.4632 67.0119L81.1449 66.9432L81.0629 66.8745L80.9809 66.8308L80.9001 66.8621L80.8781 66.9457L80.976 67.0619L81.2 67.2006L81.2331 67.238L81.2576 67.2755L81.2845 67.288L81.3322 67.2468L81.5122 67.3842V67.4304L81.484 67.4404L81.4204 67.4803L81.5024 67.4928L81.588 67.4716L81.6505 67.4366L81.6652 67.4067L81.7362 67.4366L81.7974 67.3867L81.8426 67.3067L81.8659 67.2468ZM77.3431 63.0549L77.3297 63.0724L77.3199 63.0924L77.3003 63.1061L77.255 63.1011V63.1461L77.5231 63.3334L77.9209 63.4259L78.3064 63.5932L78.4864 63.6457L78.632 63.6544L78.6969 63.6345L78.823 63.5783L78.8964 63.5633L79.1841 63.537L79.2538 63.5171L79.3395 63.4758L79.3909 63.4284L79.3958 63.3672L79.3371 63.2872L79.2587 63.2373L79.036 63.1498L78.9845 63.1461L78.8205 63.0774L78.6075 63.1548L78.3836 63.2747L78.1865 63.3334L78.1118 63.2997L77.9172 63.1736L77.8548 63.1711L77.7642 63.1823L77.3431 63.0549ZM67.5412 62.9487L67.48 62.89L67.4237 62.8713H67.0662L66.9573 62.8888L66.8679 62.9275L66.8006 62.9837L66.7566 63.0549L66.7272 63.1823L66.7419 63.2785L66.8055 63.4671L66.8655 63.4121L66.8679 63.3359L66.8594 63.2448L66.8851 63.1461L67.0014 63.1673L67.2829 63.1661L67.3392 63.2173L67.3918 63.3484L67.5008 63.4059L67.5938 63.3959L67.5962 63.3334L67.6317 63.301L67.6966 63.2285L67.7321 63.196L67.584 63.1761L67.5975 63.1124L67.7762 62.9662L67.7468 62.97L67.7382 62.96L67.7395 62.94L67.7321 62.9175L67.6868 62.8875L67.6672 62.91L67.6452 62.9512L67.5962 62.9662L67.5412 62.9487ZM66.1091 62.5428L66.0576 62.5003L65.9977 62.4891L65.9389 62.5253L65.9242 62.589L65.9585 62.6489L66.393 63.0437L66.4261 63.0861L66.3894 63.1024L66.2682 63.1011L66.1433 63.0811L66.0258 63.0412L65.9206 62.9837L65.83 62.9175L65.7859 62.9662L65.8422 63.0024L65.8899 63.0611L65.9585 63.196L66.0846 63.1523L66.2461 63.1711L66.4077 63.226L66.5326 63.2872L66.595 63.2448L66.6244 63.1898L66.6195 63.1248L66.5766 63.0549L66.5987 62.9887L66.6011 62.8925L66.6244 62.8251L66.5766 62.7789L66.6586 62.6777L66.6415 62.599L66.5693 62.5403L66.4885 62.5003L66.4053 62.5628L66.3184 62.5815L66.229 62.5827L66.1397 62.5965L66.1091 62.5428ZM74.4557 61.5897L74.4704 61.5285L74.3994 61.5248L74.37 61.5997L74.4557 61.5897ZM72.966 61.1451L72.9085 61.1688L72.9158 61.2163L72.966 61.1451ZM72.884 60.6117L72.8693 60.5817L72.8069 60.6442L72.8314 60.6804L72.884 60.6117ZM67.6048 58.4708L67.453 58.3871L67.2927 58.3247L67.1788 58.2547L66.7566 57.7701L66.6097 57.6901L66.4334 57.6202L66.2853 57.529L66.2241 57.3791L66.1837 57.2355L66.0833 57.1131L65.9548 57.0132L65.7675 56.9145L65.7259 57.0007L65.7039 57.1331L65.6978 57.2442L65.71 57.3654L65.7455 57.4541L65.8006 57.524L65.8704 57.5877L65.9095 57.604L66.0099 57.6177L66.0466 57.6277L66.0638 57.6602L66.0723 57.7089L66.0956 57.7514L66.2278 57.7851L66.2914 57.8275L66.3379 57.8925L66.3563 57.9774L66.3771 58.0237L66.5105 58.2085L66.5326 58.2547L66.5252 58.5882L66.5326 58.6432L66.5522 58.6669L66.584 58.6807L66.6121 58.7044L66.6244 58.7569L66.6941 58.8868L66.8349 58.883L66.9475 58.7768L66.934 58.602H66.9732L67.0711 58.7294L67.1348 58.7993L67.1788 58.8305L67.2449 58.8643L67.2009 58.943L67.1164 59.0341L67.0662 59.1003L66.9855 59.1341L66.9732 59.3077L66.9952 59.505L67.0222 59.6075L67.1005 59.6424L67.2009 59.6537H67.3392L67.644 59.6999L68.3062 59.886L68.4298 59.9535L68.6636 60.1558L68.7958 60.2482L68.7603 60.1246L68.8239 59.9072L68.7958 59.836L68.8398 59.7961L69.0345 59.4051L69.0883 59.1191L69.2095 58.8293L69.2377 58.6882L69.1299 58.4221L68.8864 58.3846L68.6183 58.4758L68.4384 58.602L68.2792 58.7606L68.1911 58.8705L68.196 58.9217L68.245 58.9455L68.2646 59.0079L68.2548 59.0829L68.218 59.1503L68.1666 59.1853L68.1189 59.1878L67.9977 59.1503L67.8741 59.0916L67.6452 58.9105L67.5754 58.8718L67.5228 58.8018L67.4971 58.6619L67.5412 58.5595L67.6929 58.602L67.6048 58.4708ZM57.9852 56.2075L57.8616 56.1813L57.3463 56.1875H57.345L57.2655 56.2375L56.9534 56.3686L55.0231 56.9257L54.9643 56.917L54.7342 56.8308L54.6277 56.8071L54.4747 56.8046L54.3866 56.8208L54.3193 56.847L54.2116 56.9307L54.1712 56.9757L54.1418 57.0194L54.1149 57.0744L54.083 57.1855L54.0757 57.2367L54.0806 57.4691L54.1932 57.4253L54.3156 57.3916L54.4294 57.3766L54.6045 57.3729L54.8077 57.3891L55.2336 57.4641L55.7281 57.6352L56.0904 57.8213L56.1908 57.91L56.2961 58.0249L56.4246 58.3209L56.4527 58.3746L56.4907 58.3921L56.8408 58.4458L56.9546 58.4933L57.0574 58.5707L57.3512 58.8518L57.3916 58.8793L57.722 59.0254L57.8983 59.1416L58.0758 59.2877L58.443 59.4613L58.5887 59.5113L58.6878 59.6899L58.7306 59.8211L58.749 61.1601L58.9865 61.1501L59.2019 61.1725L59.3378 61.2388L59.4748 61.3387L59.831 61.4523L60.0012 61.5598L60.0648 61.6297L60.1003 61.6934L60.1566 61.8583L60.1774 61.8833L60.2068 61.8983L60.2325 61.9207L60.2448 61.9732L60.246 62.0369L60.257 62.0894L60.2839 62.1356L60.3329 62.1793L60.3867 62.1143L60.4149 62.0057L60.4308 61.9045L60.4418 61.8583L60.4675 61.8445L60.5091 61.7783L60.5361 61.7634L60.5838 61.7709L60.6597 61.8058L60.798 61.8321L60.9314 61.9207L60.9988 61.9507L61.0942 61.9582L61.1848 61.9532L61.2717 61.9595L61.3562 61.9969L61.2117 62.0257L61.175 62.0419L61.1603 62.0781L61.1456 62.1918L61.131 62.2293L61.0746 62.2555L60.776 62.3504L60.4871 62.2717L60.3145 62.3105L60.2448 62.3042L60.2007 62.2293L60.1419 62.2467L60.093 62.2742L60.0538 62.3129L60.0281 62.3629L60.1199 62.3354L60.1566 62.3179L60.1432 62.4391L60.0636 62.4841L59.962 62.5178L59.8873 62.5965L59.962 62.6052L60.0293 62.624L60.0942 62.6514L60.1566 62.6877L60.1542 62.6539L60.1627 62.6452H60.1799L60.2007 62.639L60.1566 62.5503L60.3439 62.619L60.4259 62.6714L60.4639 62.7339H60.5091L60.53 62.7002L60.5985 62.639L60.5765 62.7501L60.5618 62.7789L60.6658 62.8513L60.7234 62.8725L60.7784 62.8713L60.8409 62.7464L60.8849 62.6852L60.907 62.7102L60.9473 62.7813L61.0122 62.8538L61.0269 62.9287L60.907 63.0087L60.9718 63.0536L61.0343 63.0586L61.0869 63.0511L61.131 63.0549L61.1787 63.0886L61.2644 63.196L61.3256 63.206L61.3513 63.1848L61.377 63.1673L61.4394 63.196L61.4712 63.231L61.5765 63.3759L61.6744 63.3085L61.8384 63.2448L61.9939 63.2185L62.0624 63.2635L62.0428 63.3172L62.0049 63.3622L61.9792 63.4021L61.9963 63.4459L62.1493 63.5533L62.1946 63.6082L62.3207 63.4946L62.3868 63.4521L62.4553 63.4259L62.4517 63.4446L62.4908 63.4758L62.5471 63.5033L62.5912 63.5171L62.5937 63.5033L62.8935 63.3447L63.027 63.316L63.1335 63.3647L63.213 63.5171L63.2926 63.4896L63.4027 63.4721L63.5166 63.4783L63.6071 63.5171L63.6059 63.4271L63.6402 63.3697L63.6806 63.3347L63.7002 63.311L63.732 63.3197L63.8018 63.2547L63.8642 63.1748L63.8764 63.1461L63.9768 63.0736L64.0282 63.0586L64.1212 63.0549L64.2938 63.0137L64.3183 63.0324L64.3881 63.0686L65.1727 62.7726L65.2718 62.7102L65.3085 62.6377L65.2841 62.5678L65.2082 62.4591L65.1641 62.2293L65.0136 62.1031L64.229 61.8583L64.1249 61.7771L64.06 61.7384L63.8446 61.7047L63.7748 61.6834L63.7222 61.6509L63.6023 61.6022L63.3073 61.5872L63.213 61.5348L63.2081 61.5797L63.1971 61.5872L63.1653 61.5847L63.071 61.3537L63.1983 61.0964L63.4138 60.9177L63.5876 60.9165L63.6781 60.9752L63.8054 61.0089L64.076 61.0264L64.2106 61.0601L64.5031 61.18L64.6304 61.1688L64.6623 61.1988L64.6978 61.2125L64.8067 61.2138L65.0503 61.1738L65.2816 61.0864L66.0797 60.6454L66.3416 60.5792L66.4616 60.4918L66.4787 60.4106L66.3122 60.3856L66.1862 60.4281L65.9915 60.5842L65.8936 60.618L65.4738 60.6392L65.0552 60.7454L64.8838 60.7679L64.8067 60.7316L64.7749 60.6454L64.628 60.5455L64.5864 60.4768L64.5998 60.4356L64.6843 60.3407L64.7186 60.2907L64.4444 60.257L64.3881 60.2695L64.2877 60.3457L64.2179 60.3557L64.0564 60.2907L63.7883 60.2258L63.7565 60.2557L63.6843 60.2657L63.6084 60.262L63.5668 60.2482L63.4419 60.287L63.2987 60.2557L63.0331 60.1571L62.7748 60.1058L62.6891 60.0571L62.5692 59.9535L62.4688 59.8136L62.4211 59.7848L62.2167 59.7199L62.1469 59.6037L62.1004 59.5425L62.0404 59.5163L61.9743 59.53L61.8556 59.59L61.7968 59.6075L61.7075 59.615L61.661 59.6062L61.4345 59.4651L61.3084 59.4251L61.1713 59.4051L60.798 59.4251L60.6817 59.4101L60.5544 59.3739L60.4369 59.3227L60.3549 59.264L60.1542 59.0604L60.0514 59.0179L59.8873 59.0054L59.902 58.7394L59.6988 58.4871L59.2251 58.0948L59.0526 57.8863L59.0244 57.7713L59.0893 57.6277L59.1897 57.5715L59.4944 57.4803L59.5789 57.4004L59.7062 57.4528L59.858 57.4391L60.1077 57.3591L60.5618 57.268L60.6891 57.2193L61.0379 57.0344L61.1371 57.0107L61.1824 57.0157L61.1897 56.9969L61.175 56.897L61.1444 56.7921L61.1004 56.7646L61.0502 56.7558L60.9988 56.7146L60.907 56.5098L60.8347 56.4548L60.6658 56.4361L60.2546 56.4948L60.1077 56.486L59.7943 56.3624L59.4895 56.3237L59.2362 56.2325L59.0893 56.2125L59.0281 56.225L58.8726 56.2862L58.8065 56.2987L58.7147 56.2612L58.6486 56.2512L58.585 56.2787L58.4724 56.3561L58.3708 56.3661L57.9852 56.2075ZM67.4959 56.6334L67.5142 56.5622L67.4885 56.516L67.453 56.4873L67.4212 56.4836L67.409 56.4598L67.4016 56.4074L67.4188 56.4024L67.4506 56.3874L67.4751 56.2775L67.4738 56.2412L67.4543 56.2325L67.4371 56.1688L67.3698 56.1263L67.2707 56.0951L67.1507 56.1101L67.0344 56.1763L67.005 56.2762L67.0932 56.3624L67.2731 56.4611L67.3147 56.511L67.3331 56.5385L67.3637 56.5785L67.3735 56.6572L67.409 56.6884L67.4959 56.6334ZM65.0699 55.0971L64.896 54.9747L64.7761 54.816L64.6904 54.7361L64.4738 54.6737L64.0968 54.4726L63.9315 54.4825L63.7577 54.545L63.6218 54.6574L63.5668 54.8148L63.5888 55.0146L63.7883 55.4768L64.098 55.6629L64.1445 55.7304L64.1494 55.8715L64.1396 55.9652L64.076 56.0401L63.9205 56.1213L63.7026 56.2862L63.6071 56.3899L63.6316 56.4361L63.8446 56.4348L64.0968 56.3949L64.3795 56.3824L64.628 56.4586L64.8532 56.561L65.076 56.6234L65.2216 56.6247L65.628 56.5772L65.9034 56.6797L66.0307 56.6921L66.0062 56.5772L66.2094 56.5697L66.3122 56.5885L66.3563 56.6447L66.3392 56.7196L66.2706 56.8795L66.2682 56.9894L66.486 56.7658L66.5974 56.6884L66.6648 56.7608L66.7419 56.7196L66.8067 56.6572L66.8471 56.5772L66.8459 56.486L66.8043 56.4286L66.7431 56.3986L66.6892 56.3586L66.644 56.1875L66.5901 56.1725L66.5166 56.17L66.4408 56.1213L66.4114 56.0551L66.4493 56.0289L66.5032 56.0102L66.5326 55.9614L66.5717 55.7016L66.5546 55.6642L66.475 55.6454L66.3783 55.5992L66.2878 55.5393L66.2241 55.4768L66.2155 55.4393L66.229 55.3382L66.2241 55.2982L66.1911 55.2545L65.9903 55.0609L65.7382 54.8835L65.6439 55.0121L65.5252 55.0509L65.3967 55.0696L65.2718 55.1346L65.1849 55.147L65.0699 55.0971ZM63.1922 54.6487L63.1371 54.5562L63.109 54.3964L62.989 54.1028L62.8678 53.9492L62.7148 53.8318L62.3709 53.6432L62.2154 53.5907L62.0563 53.6307L61.8984 53.7331L61.7491 53.8705L61.623 54.0379L61.5581 54.2165L61.5324 54.4101L61.5288 54.6287L61.5667 54.6836L61.8189 54.906L61.8605 54.9734L61.8972 55.0559L61.9376 55.1271L61.9963 55.157L62.246 55.2345L62.3489 55.2482L62.4211 55.2819L62.4541 55.3631L62.4615 55.4681L62.4553 55.5692L62.4823 55.5555L62.4896 55.5492L62.4933 55.5443L62.5068 55.5268L62.6671 55.6167L62.847 55.6879L63.011 55.6891L63.1249 55.5692L63.1604 55.493L63.1689 55.4481L63.1653 55.3856L63.0527 55.3831L62.9951 55.3656L63.011 55.3194L63.0747 55.2345L63.1812 54.9897L63.213 54.8835L63.235 54.851L63.2681 54.8273L63.2889 54.8011L63.2767 54.7673L63.2216 54.6986L63.213 54.7011L63.1922 54.6487ZM76.8082 51.8782L76.6834 51.8483L76.3749 52.0219L76.2709 52.1568L76.4214 52.4403L76.4839 52.7751L76.5206 52.6814L76.5255 52.6014L76.5206 52.3391L76.5047 52.2167L76.5132 52.0981L76.6785 51.9832L76.8168 52.0556L76.9576 52.2167L76.9906 52.3192V52.3691L76.7617 52.4616L76.8082 52.5165L77.0322 52.4753L77.2232 52.5552L77.3272 52.6227L77.4056 52.6989L77.4643 52.7376L77.6259 52.6739L77.725 52.7801L77.8707 52.8862L78.0567 53.0424L78.1889 53.1098L78.2636 53.1473L78.3138 53.181L78.3774 53.2472L78.3419 53.2635L78.3003 53.2697L78.2538 53.3009L78.2195 53.3621L78.2563 53.4608L78.1069 53.4521L77.9649 53.3384L77.9233 53.4358L77.998 53.5795L78.1069 53.6419L78.2893 53.7106L78.4178 53.7656L78.517 53.9554L78.6198 53.833L78.6284 53.7106L78.4754 53.6794L78.4582 53.5795L78.5329 53.5108L78.5708 53.4271L78.6161 53.4858L78.6663 53.5745L78.7618 53.6594L78.8524 53.7019L78.9515 53.8205L79.0054 53.918L79.1094 53.9092L79.1547 53.9517L79.2832 53.913L79.5403 53.888L79.719 53.7443L79.8512 53.7394L79.9381 53.833L79.9723 53.9342L80.0139 53.9305L80.0678 53.858L80.0299 53.7481L79.905 53.6419L79.7851 53.5495L79.7679 53.4983L79.8303 53.4183L79.872 53.3834L79.9503 53.4308L80.0005 53.4858L80.0666 53.5233L80.1327 53.502L80.1621 53.4471L80.1865 53.4096L80.1535 53.3671L80.1988 53.2909L80.3016 53.2122L80.1951 53.1598L80.0494 53.0711L79.8915 53.0161L79.9087 52.8475L79.8463 52.7751L79.6933 52.6826L79.5684 52.7463L79.3579 52.6826L79.2416 52.6102L79.1253 52.4041L79.047 52.3741L78.9882 52.2854L78.894 52.2392L78.7691 52.2217H78.632L78.517 52.218L78.3138 52.2555L78.0775 52.218L77.916 52.1705L77.6344 52.1418L77.1069 52.1918L76.8082 51.8782ZM68.1336 48.3696L68.1287 48.3384L67.8276 48.3609L67.688 48.4083L67.5754 48.4995L67.4714 48.6232L67.4371 48.6894L67.4237 48.7718L67.4028 48.8368L67.2878 48.9991L67.3319 49.1278L67.4432 49.1803L67.8166 49.2127L67.8729 49.2365L67.9537 49.2952L68.0663 49.4051L68.0846 49.4313L68.0638 49.5562L67.9194 49.9022L67.6048 50.3381L67.5754 50.3931L67.5877 50.4318L67.9537 50.6704L68.1446 51.0039L68.218 51.0851L68.2278 50.9877L68.1887 50.849L68.114 50.7241L68.021 50.6704L67.9622 50.5942L67.9769 50.4168L68.1887 49.4825L68.1923 49.1952L67.9977 48.9767L68.0504 48.843L68.0761 48.7069L68.0846 48.3846L68.1054 48.3771H68.1226L68.1336 48.3696Z" fill="#143B73" stroke="white" stroke-width="1.22179"/>
<path d="M47.1293 7.67925L47.0167 7.62804L46.9176 7.5381L46.7768 7.35949H46.6887L46.6936 7.4057L46.6642 7.45816L46.6152 7.50813L46.5565 7.54435L46.6042 7.71297L46.5222 7.84787L46.3668 7.91032L46.1991 7.86036L46.1819 7.88285L46.1697 7.90033L46.155 7.9453L46.286 8.04398L46.3472 8.07395L46.4439 8.08395H46.7107L46.8637 8.04148L46.9812 7.93281L47.1293 7.67925ZM40.7363 5.47464L40.5906 5.44092L40.4352 5.45091L40.265 5.50712L40.0141 5.662L39.9309 5.68324L39.8366 5.67075L39.6787 5.61079L39.5991 5.5933L39.5306 5.5983L39.4253 5.63327L39.3543 5.64327L39.3188 5.62703L39.2589 5.56333L39.2209 5.54834L39.183 5.55583L39.1646 5.57082L39.1536 5.58581L39.1352 5.5933L39.0924 5.63327L39.0434 5.81814L39.0202 5.8681L38.9467 5.88184L38.9014 5.84811L38.8708 5.80315L38.8476 5.77817L38.7484 5.74069L38.7215 5.75943L38.7117 5.84562L38.7178 5.92431L38.7387 5.99425L38.7729 6.05796L38.9247 6.25531L38.9663 6.34025L38.9798 6.40895L38.9578 6.49638L38.9259 6.52386L38.877 6.52886L38.6701 6.58381L38.604 6.58756L38.4926 6.54384L38.4351 6.58132L38.3347 6.70622L38.3311 6.77867L38.4069 7.04347L38.4461 7.13465L38.5465 7.24457L38.6628 7.29703L38.7595 7.27205L38.8341 7.04097L38.9186 6.99101L39.0349 6.96228L39.1573 6.90857L39.2209 7.01974L39.3348 7.04097L39.5771 6.99851L39.6726 6.95729L39.6824 6.86361L39.6285 6.77118L39.5318 6.72871L39.4731 6.70997L39.4388 6.665L39.4363 6.60755L39.4706 6.54884L39.5086 6.54509L39.6665 6.59256H39.7876L39.817 6.6038L39.8623 6.63378L39.8868 6.665L39.9431 6.75494L39.9749 6.77367L40.0373 6.79366L40.0826 6.84112L40.1181 6.88734L40.1561 6.90857L40.1879 6.90108L40.2479 6.8711L40.287 6.86361L40.3201 6.87735L40.3703 6.9373L40.4009 6.95354L41.1414 7.07595L41.3617 7.0672L41.5625 7.02349L41.7693 6.95354L41.7338 6.99476L41.7253 7.01349V7.04472L41.8856 7.02848L42.1353 6.89608L42.2773 6.86361L42.3348 6.88234L42.5711 6.99851L42.6482 7.01724L42.7069 7.02349L42.7632 7.01974L42.8318 6.99851L42.9309 6.91857L43.1353 6.65126L43.21 6.59256L43.2076 6.50138L43.2565 6.32651L43.3189 6.21409L43.3667 6.31901H43.4107L43.4438 6.20285L43.4805 6.12666L43.5478 6.09043L43.6788 6.09293L43.6188 6.19785L43.587 6.23283L43.8024 6.22034L44.0338 6.23158L44.2198 6.19161L44.2969 6.02548L44.3067 5.82188L44.2908 5.72571L44.2308 5.68324L44.1611 5.65951L44.057 5.54459L43.9922 5.50712L43.8955 5.5371L43.9346 5.58581L44.0228 5.64577L44.0729 5.70822L44.0852 5.75319L44.1452 5.85561L44.1647 5.91307V6.09293H44.1207L44.0301 6.01799L43.8636 5.98176L43.6911 5.97927L43.587 6.00425L43.3226 5.91681L43.2822 5.89058L43.2333 5.89183L42.9689 5.77817L42.7877 5.7944L42.6947 5.78191L42.6555 5.70822L42.6188 5.65576L42.5392 5.66075L42.4609 5.71821L42.4315 5.82313H42.3875L42.3483 5.75069L42.2798 5.65951L42.2051 5.58206L42.1439 5.54834L41.0459 5.49213L40.8819 5.54834L40.7363 5.47464Z" fill="#143B73" stroke="white" stroke-width="1.22179"/>
<path d="M75.268 20.2632L75.1713 20.1546L75.055 20.0609L74.9546 19.9472L74.8065 19.9859L74.7551 20.1134L74.7245 20.2582L74.6425 20.3582L74.5752 20.3557L74.4099 20.3169L74.3769 20.3357L74.3536 20.3594L74.2949 20.3794L74.2288 20.3931L74.1737 20.3994L74.055 20.3557L73.9252 20.287L73.8138 20.272L73.7551 20.3994L73.8053 20.4906L73.913 20.5905L73.9925 20.7042L73.9546 20.8341L73.7489 21.1126L73.6669 21.1751L73.5298 21.195L73.2618 21.1101L73.1173 21.0851L72.9962 21.0227L72.9399 20.8765L72.9105 20.7104L72.8725 20.583L72.8077 20.5293L72.5763 20.4194L72.4943 20.3994L72.2238 20.3682L72.0953 20.3782L71.9851 20.4481L71.9864 20.3357L71.93 20.3194L71.8468 20.3457L71.7648 20.3582L71.6987 20.3369L71.5836 20.2845L71.4967 20.267L71.2409 20.2782L70.8847 20.2108L70.7868 20.1733L70.6583 20.312L70.5873 20.4131L70.5738 20.5205L70.613 20.6729L70.6889 20.8578L70.6975 20.924L70.6852 20.9552L70.6632 21.0014L70.6461 21.0589L70.6534 21.1251L70.6975 21.1913L70.8113 21.2975L70.8333 21.3762L70.8382 21.5086L70.8505 21.566L70.8737 21.626L70.9484 21.7259L71.1467 21.8858L71.2311 21.9932L71.296 22.1418L71.3205 22.2717L71.3193 22.559L71.3462 22.7177L71.4098 22.8388L71.5445 23.0274L71.6057 23.2797L71.5726 23.8143L71.5849 24.0741L71.613 24.1491L71.6987 24.2965L71.7171 24.3702L71.7305 24.3889L71.7611 24.4014L71.7905 24.4226L71.8052 24.4614L71.7991 24.5001L71.7844 24.5201L71.7709 24.5338L71.7648 24.5538L71.755 24.7087L71.7269 24.8423L71.6828 24.961L71.5628 25.1796L71.4808 25.2845L71.4882 25.2832L71.7526 25.573L71.7232 25.613L71.651 25.6842L70.2605 25.7392L70.2066 25.7591L69.5995 26.0739L69.5322 26.1501L68.8994 27.1906L68.3694 28.4234L68.3755 28.4958L68.4171 28.5333L68.4783 28.5471L68.5566 28.5483L68.706 28.5333L68.7745 28.5358L68.8223 28.5508L68.8577 28.5783L68.8835 28.632L68.8883 28.7019L68.8541 28.8044L68.788 28.9118L68.6582 29.0479L68.3278 29.2515L68.2298 29.329L67.8908 29.6787L67.8124 29.7399L67.7365 29.7674L67.6533 29.7661L67.5652 29.7324L67.3473 29.6213L67.3045 29.6088L67.2751 29.61L67.2322 29.6188L67.1894 29.6625L67.1625 29.7224L67.1392 29.8536L67.1466 29.9598L67.1625 30.0484L67.1857 30.1184L67.1931 30.1896L67.1759 30.237L67.1196 30.282L66.6398 30.3982L66.5578 30.3919L66.4929 30.3957L66.4415 30.4157L66.3057 30.5343L66.2004 30.5943L66.0804 30.6268L65.3828 30.6617L65.2738 30.6892L65.0694 30.7716L64.7316 30.9478L64.7132 30.9727L64.6973 31.029L64.6851 31.2076L64.6985 31.5273L64.7475 31.651L64.8319 31.8059L65.1612 32.2118L65.7255 32.7839L65.7818 32.8676L65.8063 32.9138L65.8148 33.1111L65.9017 33.0937L65.9752 33.0487L66.0327 32.8851L66.0792 32.8064L66.1061 32.7227L66.0449 32.5703L66.0694 32.4941L66.111 32.4154L66.1392 32.343H66.1784L66.3926 32.5391L66.5199 32.6078L66.5762 32.5441L66.6508 32.4954L67.1147 32.3879L67.4868 32.4641L67.6876 32.4454L67.7757 32.2718L67.8553 32.1556L68.0389 32.0644L68.4024 31.9308L68.4293 32.0095L68.4746 32.0132L68.6411 31.8708L68.6619 31.8234L68.6729 31.7734L68.7072 31.7047L68.8161 31.591L69.0597 31.4124L69.1478 31.2963L69.2078 31.3087L69.3021 31.2863L69.5053 31.2026L69.5909 31.1501L69.7917 30.9528L69.8529 30.8691L69.9006 30.7592L69.9324 30.6317L69.9435 30.4993L69.9851 30.4107L70.0818 30.3095L70.2005 30.2196L70.2997 30.1609L70.4551 30.1983L70.6252 30.1384L70.7366 30.0272L70.7219 29.9098L70.5432 29.7312L70.4869 29.7124L70.3327 29.7062L70.2997 29.6837L70.2691 29.6L70.2091 29.5076L70.1723 29.3952L70.2115 29.2515L70.2935 29.1616L70.3902 29.1329L70.613 29.1603L71.0488 29.1691L71.165 29.229L71.1944 29.294L71.1969 29.3602L71.2152 29.4114L71.2972 29.4326L71.367 29.4014L71.52 29.1828L71.6326 29.1304L71.7905 29.1141L71.9509 29.1266L72.0733 29.1603L72.1883 29.2578L72.3744 29.4976L72.5164 29.5688L72.6865 29.5513L72.8162 29.4539L72.9227 29.3465L73.0268 29.2965L73.1088 29.2865L73.3132 29.2066L73.5225 29.1766L73.5751 29.1603L73.8432 28.8668L73.8922 28.8268L74.1957 28.6632L74.2655 28.6532L74.3389 28.6545L74.3977 28.6407L74.4209 28.5908L74.4344 28.5458L74.4626 28.4933L74.4993 28.4509L74.5335 28.4321L74.7306 28.0712L74.7123 27.9125L74.585 27.664L74.5544 27.5478L74.2863 27.2081L74.1639 27.1693L74.0953 27.1381L74.0635 27.0919L74.0476 27.0244L74.006 26.9795L73.6804 26.7084L73.6131 26.606L73.5751 26.4386L73.558 25.6555L73.5923 25.5168L73.711 25.4356L73.8505 25.5106L73.9374 25.5406L74.0097 25.4806L74.0856 25.4906L74.2214 25.5293L74.3157 25.5393L74.6425 25.6167H74.7783L74.9791 25.548L75.2606 25.5106L75.3512 25.4581L75.4846 25.3032L75.5984 25.232L75.645 25.1946L75.749 24.9735L75.7747 24.941L75.842 24.901L76.257 24.239L76.3035 23.9555L76.4198 23.5283L76.4087 23.2473L76.3378 22.99L76.1468 22.579L76.0917 22.3554L76.1199 22.1268L76.4381 21.3886L76.4614 21.2887L76.4247 21.1826L76.3329 21.1813L76.0636 21.2662H75.9473L75.5483 21.22L75.4601 21.195L75.4038 21.1413L75.3585 21.0789L75.3083 21.0352L75.2239 21.0177L75.1651 21.0389L75.1223 21.0701L75.088 21.0851L74.9595 21.0452L74.9081 20.9677L74.9069 20.7191L74.875 20.5568L74.8714 20.4618L74.9069 20.3994L74.9766 20.3944L75.0097 20.4543L75.0244 20.5318L75.044 20.583L75.088 20.6042L75.2006 20.6292L75.241 20.633L75.3328 20.6117L75.3475 20.5593L75.268 20.2632ZM76.9436 20.3994L76.9987 20.2682L77.0306 20.1421L77.011 20.0197L76.9045 19.906L76.8837 19.876L76.8163 19.8123L76.7649 19.906L76.7135 19.9685L76.5471 20.0821L76.6229 20.1221L76.6633 20.1771L76.6793 20.247L76.6829 20.3357L76.716 20.3469L76.8629 20.3831L76.9045 20.3994H76.9436ZM74.3132 19.8198L74.3316 19.7948L74.3365 19.7374L74.3267 19.6924L74.3034 19.6799L74.2789 19.6612L74.2569 19.6375V19.6075L74.2006 19.605L74.1162 19.6662L74.1039 19.6912L74.1125 19.7087V19.8036L74.1553 19.8573L74.2569 19.8773L74.29 19.881L74.3132 19.8198Z" fill="#143B73" stroke="white" stroke-width="1.22179"/>
<path d="M39.8252 45.2771L39.7652 45.2696L39.7126 45.2184L39.6514 45.0572L39.6355 44.9361L39.6342 44.8187L39.6526 44.6038L39.5963 44.4714L39.5449 44.3915L39.0112 44.0205L38.4359 44.4102L38.1458 44.7312L38.0332 44.8274L37.7603 44.991L37.6048 45.1284L37.5118 45.4844L37.4873 49.4402V49.4415L37.7811 49.6163L37.8239 49.6863L37.857 49.7762L37.9377 49.8936L38.2462 50.2484L38.2805 50.3121L38.3098 50.3933L38.3147 50.457L38.3074 50.5269V50.5944L38.3343 50.6481L38.3833 50.6468L38.4665 50.6356L38.5436 50.6518L38.5779 50.7367L38.5865 50.7867L38.6061 50.8317L38.6342 50.8679L38.666 50.8941L38.6256 51.0015L38.6905 51.0265L38.797 50.9866L38.8876 50.8941L38.9059 51.014L38.8753 51.1077L38.808 51.1889L38.7113 51.2676L38.5999 51.2214L38.5644 51.3088L38.5522 51.4312L38.5118 51.4949L38.5498 51.5324L38.5877 51.6223L38.6061 51.7298L38.5779 51.8184L38.6746 51.9508L38.7554 52.107L38.8582 52.2556L39.0198 52.3693L39.141 52.4117L39.5902 52.5142L39.682 52.5729L39.7297 52.5941L39.8044 52.5991L39.9219 52.5791L39.999 52.5941L40.2181 52.7053L40.4115 52.8389L40.6098 52.9276L40.8411 52.9089L40.917 52.8514L41.119 52.6403L41.1263 52.5941L41.1055 52.5616L41.1116 52.4942L41.152 52.4292L41.2353 52.4105L41.2732 52.4392L41.3026 52.5004L41.3234 52.5729L41.3271 52.6391L41.283 52.724L41.0994 52.8664L41.0578 52.9339L41.0308 52.9414L40.8815 53.045L40.7591 53.0738L40.7089 53.095L40.7371 53.1512L40.7701 53.2024L40.8056 53.2461L40.8411 53.2774L40.753 53.4272L40.7616 53.6246L40.8215 53.787L40.8815 53.8294L40.9097 53.9006L40.8889 53.9556L40.8313 53.9918L40.753 54.0081L40.8215 54.1005L41.0859 54.0405L41.2132 54.0805L41.3209 54.2279L41.3785 54.3753L41.4593 54.7013L41.5217 54.8249L41.6894 55.0835L41.7738 55.2921L41.8852 55.3795L42.0039 55.4332L42.0774 55.4357H42.0786L41.9036 55.2858L41.8534 55.2184L41.8326 55.1634L41.8314 55.1185L41.846 55.086L41.8718 55.0548L41.9097 55.0298L41.9672 55.0061L42.239 54.9224L42.4727 54.7875L42.5499 54.7625L42.6258 54.775L42.6882 54.8112L42.7898 54.9049L42.84 54.9374L42.8963 54.9461L43.0346 54.9336L43.1007 54.9524L43.1704 55.0448L43.2316 55.2097L43.2818 55.4407L43.2867 55.688V55.7005L43.3455 55.738L43.4373 55.818L43.4936 55.9254L43.4985 56.0753L43.5425 56.029L43.6625 56.0952L43.7347 56.1964L43.7886 56.3063L43.8522 56.395L44.026 56.5749L44.6062 57.3493L44.6662 57.4705L44.6907 57.6079L44.6992 57.8939L44.7262 58.0001L44.7788 58.095L44.862 58.1724L44.9649 58.2474L45.0518 58.3323L45.0873 58.4372L45.135 58.5384L45.3663 58.7708L45.4496 58.8307L45.5132 58.8382L45.6001 58.837L45.6772 58.8494L45.7091 58.8969L45.7409 58.9294L45.8107 58.9656L45.8939 58.9943L45.9539 59.0056L46.0665 59.5627H46.1105L46.3566 59.3054L46.5108 59.2704L46.7764 59.3291L46.8572 59.4165L46.8939 59.4315L46.9172 59.2929L46.9441 59.2404L46.9869 59.2054L47.0408 59.1954L47.1191 59.2541L47.1314 59.3678L47.0763 59.4752L46.9539 59.5164V59.5627L47.113 59.5527L47.2342 59.5139L47.337 59.5002L47.4386 59.5627L47.5047 59.6763L47.5598 59.8162L47.632 59.9436L47.752 60.0198L47.8487 59.9699L47.9196 59.8999L48.0163 59.7413L48.2599 59.8125L48.5684 59.7638L48.8218 59.6151L48.9001 59.379L48.9539 59.4265L48.9968 59.5252L49.036 59.5627L49.0788 59.5702L49.1988 59.5602L49.2563 59.5627L49.3934 59.6126L49.4864 59.6926L49.5647 59.775L49.6578 59.8362L49.7092 59.7363L49.8304 59.7575L49.954 59.8587L50.0115 59.9961L50.0764 60.081L50.4962 60.2484L50.6235 60.2034L51.1315 60.1972L51.2257 60.1797L51.3053 60.1447L51.3396 60.0885L51.3751 60.0598L51.4571 60.071L51.6076 60.1147H51.9136L51.9846 60.1535L52.0262 60.1647L52.0458 60.1372L52.1119 60.061L52.2233 60.0073L52.2723 59.8787L52.3139 59.6076H52.3543L52.4167 59.8262L52.4461 59.8862L52.4889 59.9174L52.5648 59.9499L52.6358 59.9561L52.6676 59.9087L52.7129 59.8162L52.7998 59.8662L52.8586 59.9661L52.8219 60.0198L52.735 60.0223L52.6664 60.0386L52.6138 60.0798L52.5795 60.1572L52.6015 60.1597L52.6676 60.1572L52.6542 60.1809L52.6383 60.2272L52.6236 60.2484L52.6823 60.3009L52.6676 60.447L52.7325 60.477L52.8194 60.487L52.9381 60.5244L53.0202 60.5282L53.3543 60.477L53.4522 60.4832L53.5306 60.5032L53.97 60.7243L54.0924 60.7693L54.2209 60.7555L54.276 60.7168L54.3433 60.6531L54.4204 60.5944L54.5073 60.5682L54.571 60.5619L54.6481 60.5394L54.7987 60.477L54.8366 60.4995L54.8941 60.497L55.019 60.477L55.0753 60.4857L55.1928 60.5194L55.3654 60.5419L55.4596 60.5794L55.926 60.8255L56.0092 60.8479L56.1279 60.8579L56.2699 60.8867L56.3985 60.9304L56.4756 60.9853L56.5417 60.9266L56.6616 60.7942L56.7449 60.7555L57.0325 60.8704L57.0668 60.9404L57.0704 61.0066L57.09 61.0565L57.254 61.0903L57.3042 61.1227L57.303 61.1677L57.2308 61.2139L57.341 61.2664L57.4107 61.2364L57.4683 61.1827L57.5392 61.169L57.5809 61.2077L57.6004 61.3263L57.6519 61.3513H57.8526V61.3051L57.7645 61.2639L57.8085 61.2139L57.9162 61.2551L57.997 61.2139L58.0644 61.1677L58.2271 61.2264L58.3459 61.2164L58.5625 61.169L58.7486 61.1602L58.7302 59.8212L58.6874 59.6901L58.5882 59.5114L58.4426 59.4615L58.0754 59.2879L57.8979 59.1417L57.7216 59.0256L57.3911 58.8794L57.3507 58.8519L57.057 58.5709L56.9542 58.4935L56.8403 58.446L56.4903 58.3923L56.4523 58.3748L56.4242 58.3211L56.2956 58.0251L56.1904 57.9101L56.09 57.8215L55.7277 57.6353L55.2332 57.4642L54.8072 57.3893L54.604 57.373L54.429 57.3768L54.3152 57.3918L54.1928 57.4255L54.0802 57.4692L54.0239 57.5117L54.0165 57.5542L54.0116 57.6091L54.0251 57.6628L54.0508 57.724L54.2087 58.0113L54.2368 58.0938L54.2503 58.1674V58.2974L54.2356 58.3648L54.205 58.4248L54.1671 58.4522L54.1034 58.476L54.0226 58.4835L53.6603 58.4772L53.5746 58.4947L53.3617 58.5647L53.2025 58.6371L53.1303 58.6408L53.0532 58.6159L52.9002 58.5209L52.8157 58.4847L52.7203 58.4685L52.5232 58.471L52.4436 58.4647L52.3886 58.4335L52.3641 58.3636L52.3629 58.3086L52.369 58.2574L52.3629 58.2237L52.3396 58.1974L52.2943 58.1862L52.2539 58.1974L52.2111 58.2249L52.1511 58.2736L52.1058 58.2961L52.074 58.3036L52.0397 58.2986L52.0091 58.2861L51.9748 58.2686L51.7753 58.1212L51.6823 58.0763L51.506 58.0113L51.4044 57.9576L51.1303 57.7528L50.8512 57.6029L50.4203 57.2644L50.3273 57.2394L50.2404 57.2494L50.1559 57.2869L50.0849 57.3093L50.0103 57.3118L49.9258 57.2831L49.8218 57.2132L49.4668 56.8884L49.0764 56.5949L48.927 56.4462L48.7251 56.2839L48.6382 56.2439L48.353 56.1764L48.2587 56.119L48.1657 56.024L48.0775 55.8254L48.0629 55.6943L48.0788 55.5744L48.1424 55.3808L48.1596 55.2809L48.1375 55.1609L48.0849 55.0435L47.5586 54.2816L47.4606 54.1979L47.3921 54.1729L47.2685 54.1529L47.2134 54.1317L47.1657 54.098L47.1057 54.0405L47.031 53.9381L46.6883 53.3223L46.6087 53.2524L46.5683 53.2349L46.5292 53.2411L46.4594 53.3011L46.4104 53.3261L46.3456 53.3411L46.2746 53.3361L46.2097 53.2898L46.1497 53.2049L45.9257 52.6815L45.8878 52.6216L45.8302 52.5741L45.7556 52.5004L45.5144 52.1907L45.4129 52.087L45.299 52.007L45.2072 51.9259L45.1044 51.8097L44.993 51.6298L44.7972 51.405L44.7409 51.3201L44.7029 51.2051L44.687 50.8916L44.6956 50.7692L44.7311 50.5694L45.3198 49.6613L45.4337 49.2891L45.2782 48.9144L45.0322 48.5446L44.7347 48.2361L44.4471 48.0288L43.982 47.8114L43.3761 47.4567L41.3797 45.5456L41.3099 45.5818L41.2671 45.5956L41.2083 45.6043L41.1545 45.6056L41.0186 45.5893L40.9452 45.5694L40.8778 45.5444L40.6465 45.432L40.5425 45.417L40.436 45.4195L40.2536 45.4482L40.163 45.4282L40.0908 45.3882L39.9611 45.2871L39.8937 45.2683L39.8252 45.2771Z" fill="#143B73" stroke="white" stroke-width="1.22179"/>
<path d="M20.831 49.0841L20.8922 48.9417L20.8873 48.8755L20.8469 48.8468L20.8078 48.8543L20.7649 48.883L20.6939 48.9055L20.6168 48.9667L20.6315 49.0616L20.7184 49.1328L20.831 49.0841ZM19.7245 50.3869L19.7906 50.2557L19.7918 50.1021L19.738 49.9547L19.6388 49.8435L19.5054 49.7998L19.3732 49.7548L18.7526 49.2277L18.6865 49.1078L18.6413 49.0466L18.5788 49.0216L18.4381 49.0017L17.8958 48.8018L17.3242 48.6706L17.2275 48.5907L16.9876 48.3122L16.9129 48.3059L16.826 48.3272L16.7281 48.3384L16.7905 48.4108L16.9264 48.502L17.0023 48.5657L17.1528 48.7806L17.2214 48.843L17.394 48.9205L17.7575 49.0229L18.1627 49.3676L18.2018 49.4563L18.2373 49.5163L18.3193 49.5425L18.4148 49.56L18.4883 49.595L18.6351 49.7099L19.3904 50.0746L19.4883 50.1408L19.5287 50.2357L19.5605 50.3581L19.6376 50.4156L19.7245 50.3869ZM17.9338 47.9949L17.8958 47.9562L17.8432 47.9262L17.7563 47.9287L17.6192 48.0261L17.7073 48.1723L17.8873 48.3097L18.0243 48.3846L18.3108 48.4308L18.4503 48.472L18.558 48.5995L18.8677 48.7518L18.9987 48.7818L19.3328 48.7893L19.4577 48.7681L19.5189 48.7119L19.525 48.6257L19.4809 48.5245L19.3769 48.3496L19.3573 48.2535L19.3524 48.0861L19.2814 48.0361L18.7037 47.9674L18.2667 47.9749L18.0623 48.0199H17.9852L17.9338 47.9949ZM19.962 48.3546L19.9791 48.2959L19.9436 48.2085L19.9314 48.1485L19.8947 48.0286L19.8188 47.9087L19.6964 47.815L19.4479 47.7613L19.1321 47.7851L19.0684 47.8775L19.3855 48.0224L19.6168 48.2934L19.7625 48.3834L19.8885 48.3984L19.962 48.3546ZM20.022 46.5685L20.033 46.4548L19.9669 46.3511L19.8579 46.2737L19.8004 46.24L19.7135 46.2037L19.5372 46.1775L19.4467 46.2824L19.5397 46.4698L19.6694 46.6422L19.8824 46.6609L20.022 46.5685ZM20.0819 46.15L20.0097 45.9864L19.9399 45.9027L19.8126 45.809L19.5323 45.6791L19.3071 45.6666L19.219 45.7441L19.2826 45.8852L19.3328 46.0014L19.4968 46.0888L19.7637 46.1088L19.9424 46.1663L20.0354 46.2125L20.0819 46.15ZM13.3057 32.1967L13.2347 31.8482L13.0866 31.6821L12.5823 31.3024L10.4036 29.1402L10.2579 28.8842L10.2604 28.7418L10.4574 28.3171L2.68122 25.6029L2.4915 25.5454V25.6191V25.6366V26.9294V27.7613V28.0323V29.7373V30.9664V32.2641V33.7718V34.4737L2.46579 34.4837L2.40704 34.5599L2.37399 34.6923L2.34339 34.7061L2.33604 34.7298L2.35073 34.7698L2.41316 34.8247L2.42785 34.8647L2.40337 34.9334L2.3544 34.9796L2.31891 35.0308L2.33604 35.1158L2.26383 35.1095L2.19528 35.1133L2.13286 35.1295L2.07533 35.1607L2.14387 35.1682L2.18916 35.2032L2.20875 35.2619L2.20752 35.3418L2.30912 35.3393L2.33849 35.4393L2.31891 35.5604L2.27607 35.6179L2.17692 35.6329L2.13041 35.6778L2.11572 35.754L2.1096 35.9214L2.09246 35.9564L2.05819 35.9764L2.00556 35.9801L1.94925 36.0026L1.97251 36.0538L2.01657 36.1138L2.02637 36.1625L1.93334 36.2312L1.82563 36.2549L1.73138 36.2886L1.67385 36.3886L1.7681 36.436L1.77422 36.5597L1.71791 36.7783L1.68242 36.857L1.6665 36.9157L1.67385 36.9831L1.72158 37.0531L1.85745 37.1767L1.89417 37.2554L1.88316 37.2991L1.82195 37.3866L1.80604 37.4178L1.82807 37.4915L1.88071 37.5489L2.00556 37.6426L2.03861 37.7488L2.0484 37.8887L2.09858 37.9774L2.25159 37.9349L2.27484 38.146L2.39725 38.2122L2.49394 38.2035L2.49272 38.9217V39.9347L2.4915 40.7703V41.0426V42.7988V44.0316V45.2919V45.558L2.49272 46.6784L2.49517 48.4446L2.49639 49.6199V50.8678L2.49394 52.1555L2.49272 52.925L2.69223 53.0449L3.38503 53.6757L3.62739 53.7668L3.93584 53.7381L4.14025 53.6369L4.64578 53.2322L4.87712 53.161L5.12682 53.1623L5.36795 53.2198L5.57236 53.3234L5.84042 53.5158L5.93834 53.6519L6.06809 53.6732L6.20396 53.6757L6.28229 53.6882L6.38634 53.6382L6.47324 53.6782L6.5577 53.7444L6.65807 53.7793L6.7462 53.7656L6.84779 53.7306L6.93959 53.6869L6.99345 53.6432L7.15502 53.6532L7.70338 53.5508L7.84904 53.5745L8.11955 53.6669L8.25542 53.6882L8.41454 53.6782L8.54674 53.6494L8.93842 53.5033L9.06817 53.4758L9.98251 53.4071L10.2004 53.4146L10.2763 53.3934L10.3987 53.2997L10.4685 53.2772L10.5505 53.2935L10.8895 53.4146L11.1698 53.577L11.2677 53.602L11.4195 53.6145L11.5187 53.6494L11.6876 53.7381L11.8797 53.7194L12.1135 53.8231L12.3339 53.9754L12.6435 54.2477L12.8394 54.3801L13.0658 54.4526L13.3253 54.4226L13.6827 54.2165L13.7256 54.1391L13.8321 54.0716L14.5249 53.7956L14.7538 53.6145L15.0561 53.4871L15.1883 53.4146L15.2421 53.3459L15.2984 53.2547L15.3584 53.176L15.4319 53.1411L15.4943 53.1236L15.6448 53.0286L15.804 52.895L15.9129 52.8388L16.487 52.6577L16.5824 52.6389L16.6253 52.6177L16.6559 52.5727L16.6755 52.5265L16.6926 52.5028L16.7244 52.499L16.793 52.5065L16.8933 52.4878L17.028 52.4778L17.0929 52.4566L17.0488 52.4104L17.2397 52.3741L17.607 52.3729L17.8003 52.3192L17.9081 52.2655L17.9803 52.2143L18.1357 52.0669L18.1933 51.9632L18.1969 51.8445L18.1578 51.6272V50.7616L18.1272 50.6717L18.0672 50.5667L17.8212 50.2632L17.6265 49.9372L17.263 49.4938L16.4221 48.7843L16.2312 48.6594L15.9827 48.5657L15.1724 48.3971L14.9227 48.2972L14.5065 48.0136L14.3694 47.9749L14.3021 47.9424L14.0805 47.7426L13.8149 47.6552L13.7072 47.6951L13.1931 47.6064L12.9618 47.6826L12.5322 47.9799L12.302 48.0611L12.0303 48.0336L11.8198 47.9137L11.6753 47.7314L11.4795 47.0931L11.4636 46.9457L11.395 46.802L11.2371 46.7696L11.0609 46.797L10.7867 46.8732L10.7059 46.8782L10.6019 46.837L10.5615 46.8645L10.5186 46.9032L10.4685 46.9232L10.3718 46.9494L10.2824 47.0106L10.1392 47.1505L10.04 47.1068L10.0143 47.0544L10.0511 46.9932L10.1392 46.9232L10.209 46.8957L10.2824 46.8845L10.3534 46.8632L10.4244 46.807L10.4721 46.7483L10.5101 46.7146L10.5603 46.6996L10.7879 46.6821L11.1539 46.6034L11.4342 46.6584L11.5725 46.8345L11.7231 47.4953L11.7818 47.6139L11.8785 47.7051L12.0193 47.7426L12.3033 47.7663L12.4293 47.7576L12.5713 47.7014L12.9373 47.4566L13.083 47.4241L13.2041 47.4128L13.5261 47.3391L13.635 47.2867L13.6986 47.3229L13.7256 47.3304L14.5469 47.4666L15.1809 47.7663L15.2997 47.7926L15.4453 47.7813L16.9619 47.3779L17.5127 47.3366L17.6914 47.2242L17.7563 47.1955L19.3989 47.1568L19.5311 47.1393L19.6388 47.0806L19.6768 46.9532L19.629 46.7858L19.2557 46.1088L19.1908 45.844L19.1149 45.7553L18.5886 45.5168L18.4711 45.4218L18.4222 45.2994L18.3977 45.1345L18.3279 45.0771L18.0647 45.0496L17.9986 45.0284L17.9436 44.9959L17.9068 44.9509L17.8921 44.8922L17.9252 44.8547L17.9974 44.8685L18.066 44.8997L18.0892 44.9172L18.2581 44.9184L18.3781 44.9384L18.4711 45.0046L18.5543 45.1395L18.6608 45.3868L18.7331 45.4718L18.8457 45.5043L19.2129 45.5317L19.629 45.4256L19.7796 45.4206L19.9044 45.4818L19.9669 45.523L20.1921 45.5954L20.2496 45.6379L20.3598 45.7403L20.4124 45.7778L20.5324 45.8128L21.1358 45.8203L21.2692 45.7965L21.3794 45.7303L21.4798 45.5954L21.2362 45.3431L21.1223 45.2769L21.0673 45.2619L20.9571 45.2507L20.902 45.2307L20.858 45.197L20.809 45.1233L20.7698 45.0958L21.1468 45.1133L21.2545 45.1395L21.3537 45.2307L21.4418 45.3594L21.5373 45.468L21.656 45.5043L21.667 45.488L15.5861 39.144L15.5641 37.8075H14.3682L13.8761 37.7563L13.504 37.6226L13.3841 37.3204L13.3412 36.9744L13.3057 32.1967Z" fill="#143B73" stroke="white" stroke-width="1.22179"/>
<path d="M28.7478 30.8415L28.6217 30.6954L28.2656 30.1483L28.1432 30.0209L27.9387 29.886L27.8053 29.7661L27.7111 29.6462L27.5874 29.3651L27.5642 29.3302L27.5201 29.2752L27.4491 29.2152L27.361 29.159L27.0024 29.0379L26.8714 28.9604L26.7208 28.828L26.607 28.6894L26.514 28.5457L26.4258 28.4346L26.3145 28.3621L25.9399 28.2385L25.7624 28.1285L25.6523 28.0211L25.4956 27.7851L25.4148 27.6889L25.2985 27.6077L24.356 27.2567L24.241 27.2305L24.1516 27.2392L24.0537 27.3067L23.9778 27.3779L23.8946 27.4266L23.8566 27.4378L23.6351 27.3616L23.5004 27.6464L23.4294 27.8388L23.334 27.9349L23.2128 27.9837L23.0769 28.0174L22.4037 28.3859L22.3462 28.4683V28.5645L22.7477 29.3814L22.7917 29.5263L22.7978 29.6424L22.7844 29.7936L22.7207 30.0846L22.6571 30.2357L22.5751 30.3594L22.3694 30.528L21.8921 30.814L20.9814 31.145L20.635 31.3187L20.5628 31.3724L20.5493 31.4211L20.5701 31.4711L20.7109 31.6747L20.7501 31.7521L20.7745 31.8283L21.3217 32.0569L21.3829 32.1718L21.4894 32.2892L21.575 32.3541L21.7697 32.3267L21.9557 32.3217L22.1222 32.3679L25.5274 34.6912L25.8579 34.9135L25.8958 34.906L25.9485 34.8673L26.0342 34.5475L26.0819 34.4551L26.1419 34.3639L26.2202 34.274L26.4785 34.0279L26.5421 33.9242L26.798 33.2322L26.8249 33.1298L26.8273 33.0624L26.798 32.9974L26.6352 32.8188L26.6009 32.7251L26.5948 32.6065L26.6388 32.4104L26.6951 32.2605L26.7086 32.2442L26.7845 32.1818L26.8616 32.1431L27.0758 32.0619L27.1811 31.9932L27.2313 31.9245L27.2508 31.8658L27.1823 30.9315L27.2007 30.8228L27.2557 30.8016L27.339 30.8165L27.6915 30.939L28.2986 30.9702L28.4602 30.9464L28.5703 30.9152L28.7478 30.8415Z" fill="#143B73" stroke="white" stroke-width="1.22179"/>
<path d="M13.2131 25.5458L12.5264 25.5196L12.1408 25.4434L11.1984 25.4097L11.213 26.0554L11.2596 26.3327L11.3526 26.5226L11.4162 26.7012L11.3795 26.9173L11.3354 27.0534L11.1775 27.362L11.1665 27.4044L11.1543 27.4881L11.06 27.7579L11.0539 27.7954L11.0001 27.954L10.8862 28.0415L10.628 28.1701L10.4578 28.3175L10.2607 28.7422L10.2583 28.8846L10.404 29.1406L12.5827 31.3028L13.087 31.6825L13.2351 31.8486L13.3061 32.1971L13.3416 36.9748L13.3845 37.3208L13.5044 37.6231L13.8765 37.7567L14.3686 37.8079H15.5644L19.9979 37.7992L26.6578 37.1534L26.5721 36.9885L26.4399 36.8649L26.3542 36.8012L26.0568 36.7612L25.8927 36.7187L25.8193 36.64L25.8107 36.4951L25.7728 36.3765L25.692 36.2691L25.5549 36.1616L25.435 36.1054L25.3089 36.0792L25.091 36.0705L24.9931 36.0455L24.9711 35.9843L24.9821 35.9106L24.9808 35.8444L24.9429 35.7719L24.9184 35.717L24.9172 35.6907L24.9564 35.4609L24.9857 35.3935L25.0384 35.3323L25.1485 35.2761L25.3444 35.2348L25.4337 35.2049L25.5035 35.1599L25.5439 35.0762L25.5586 35.0075L25.528 34.6915L22.1228 32.3682L21.9563 32.322L21.7702 32.327L21.5756 32.3545L21.4899 32.2895L21.3834 32.1721L21.3222 32.0572L20.7751 31.8286L20.3761 31.7524L20.0958 31.7337L19.7628 31.7937L19.2255 31.9485L18.9415 32.0022L18.7567 31.9673L18.4287 31.8149L17.8411 31.3877L17.1765 30.7744L16.7444 30.5521L14.8876 29.8676L14.2058 28.9708L14.0405 25.7532L13.6892 25.5271L13.5987 25.5133L13.4873 25.5096L13.2131 25.5458Z" fill="#143B73" stroke="white" stroke-width="1.22179"/>
<path d="M91.9313 28.8261L91.6963 28.6L91.4294 28.4489L91.2165 28.4788L91.2054 28.6162L91.487 28.8973L91.5604 29.0484L91.5861 29.1321L91.6351 29.2245L91.6706 29.3245L91.6534 29.4331L91.6069 29.4768L91.5531 29.4544L91.4368 29.3419L91.4233 29.3594L91.4172 29.3682L91.4123 29.3769L91.3927 29.3919V29.4331L91.4833 29.548L91.4735 29.6704L91.4233 29.8066L91.3462 30.3699L91.2324 30.6447L91.2165 30.7047L91.2262 30.7509L91.2495 30.8034L91.3034 30.8858L91.46 31.0432L91.531 31.1543L91.5604 31.2967L91.5494 31.3742L91.5212 31.4366L91.4808 31.5003L91.487 31.5678L91.5151 31.6989L91.5212 31.7726L91.5763 31.905L91.8187 32.0874L91.875 32.1811L91.9031 32.2648L91.9754 32.3522L92.0647 32.4271L92.2287 32.5371L92.4111 32.7544L92.7171 32.8955L92.7648 32.9567L92.782 32.9905L92.8934 33.1179L92.9888 33.3889L93.017 33.5313L93.0366 33.5738L93.0966 33.6362L93.1627 33.6775L93.3071 33.7324L93.4515 33.8586L93.6853 33.9897L94.3292 34.1858L94.5434 34.3544L94.6719 34.6617L94.6939 34.9403L94.6731 35.2663L94.6082 35.5735L94.4944 35.7996L94.4418 35.7684L94.3916 35.7547H94.2741L94.3659 35.9308L95.148 36.8076L95.2288 36.9525L95.2888 37.0275L95.4883 37.2023L95.6034 37.2748L95.7086 37.3047L95.7698 37.341L96.044 37.572L96.5397 37.8219L96.8274 37.9218L97.1028 37.9805H97.3941L97.4712 37.9942L97.5887 38.0579L97.6609 38.0704L97.7956 38.0454L97.8764 37.9767L98.0379 37.7582L98.1946 37.612L98.4333 37.4434L98.6732 37.3859L98.8323 37.572L99.0221 37.1436L99.0759 37.0774L99.1322 37.1511L99.1212 37.3185L99.0539 37.622L99.1689 37.5196L99.2803 37.3834L99.3672 37.2311L99.4101 37.0774L99.3868 36.91L99.2277 36.6515L99.1897 36.5041L99.1763 36.4366L99.1139 36.2868L99.0979 36.2068L99.1041 36.1369L99.1359 36.0095L99.142 35.9345L99.082 35.686L98.9511 35.4899L98.7944 35.3137L98.6524 35.1164L98.5141 34.8116L98.4137 34.6717L98.2803 34.6118L98.1567 34.5918L98.0587 34.5318L97.978 34.4456L97.9057 34.3407L97.8262 34.1833L97.7699 34.1034L97.705 34.0684L97.6414 34.0609L97.5753 34.0384L97.5251 34.0022L97.459 33.8511L97.3035 33.6899L97.3268 33.6163L97.2729 33.5675L97.2582 33.5363L97.2668 33.5126L97.2827 33.4838V33.4339L97.1836 33.5163L97.1689 33.615L97.1346 33.6899L96.9743 33.7099L96.8323 33.6512L96.765 33.5413L96.7172 33.4364L96.6413 33.3889L96.585 33.4601L96.525 33.5063L96.4406 33.5251L96.4051 33.5063L96.0783 33.1603L95.8592 32.7082L95.8335 32.6345L95.7662 32.291L95.7135 32.2011L95.6205 32.0911L95.5495 31.9675L95.5103 31.9313L95.4785 31.925L95.4038 31.9375L95.3745 31.9313L95.3231 31.8938L95.2974 31.8663L95.2778 31.8351L94.9583 31.4778L94.8457 31.4491L94.7368 31.3917L94.6339 31.3567L94.5348 31.3879L94.4736 31.2792L94.4136 31.0407L94.3622 30.9308L94.3977 30.6984L94.3867 30.6347L94.3634 30.6072L94.3145 30.5236L94.2888 30.4986L94.2386 30.4798L94.2067 30.4536L94.1039 30.3075L93.9668 30.0002L93.8016 29.8041L93.771 29.653L93.7355 29.5693L93.7135 29.5668L93.5837 29.5243L93.5556 29.5031L93.5654 29.4594L93.6045 29.3919L93.5996 29.3307L93.6033 29.2807L93.5751 29.252H93.4748L93.4246 29.2882L93.3964 29.3482L93.3646 29.3832L93.2949 29.3419V29.297L93.3401 29.2345L93.2728 29.2083L92.8395 29.207L92.7465 29.1958L92.673 29.1608L92.6057 29.2158L92.5445 29.2083L92.4931 29.2345L92.4564 29.297L92.3915 29.1771L92.2863 29.0684L92.1651 29.0047L92.0549 29.0259L91.9313 28.8261ZM91.1724 26.3442L91.1553 26.1568L91.0794 25.9307L90.9374 25.7534L90.7269 25.7109L90.5408 25.8471L90.3413 26.0619L90.1907 26.3067L90.1528 26.5328L90.3315 26.3854L90.4245 26.4141L90.4563 26.5515L90.46 26.9113L90.4404 27.0224L90.3964 27.0724L90.3241 27.1149V27.2098L90.3743 27.3659L90.4 27.5483L90.6595 28.204L90.7746 28.6637L90.8554 28.5962L90.8933 28.5026L90.9374 28.4214L91.0353 28.3877L90.9961 28.5276L91.143 28.4539L91.2005 28.2727L91.2165 27.8406L91.3842 27.226L91.3927 27.0224L91.356 26.9088L91.2985 26.8526L91.2336 26.8138L91.1724 26.7514L91.1308 26.649L91.132 26.5478L91.1724 26.3442ZM96.1811 24.187L96.2007 24.1558L96.1652 24.1621L96.1407 24.187L96.1603 24.2095L96.1811 24.187ZM87.9324 22.0786L87.87 22.1048L87.8504 22.1261L87.8431 22.1735L87.8614 22.1598L87.8712 22.1473L87.8786 22.1361L87.8871 22.1273L88.0034 22.2035L88.1527 22.3359L88.2543 22.4971L88.2213 22.6519L88.1368 22.7569L88.0928 22.7619L88.0205 22.7156L87.9789 22.6594L87.9251 22.5095L87.8871 22.4446V22.617L88.0169 22.7881L88.1919 22.8468L88.3302 22.6744L88.3327 22.4883L88.2543 22.3047L88.1148 22.1573L87.9324 22.0786ZM87.7121 21.9025L87.6949 21.6339L87.6668 21.5103L87.6252 21.4466L87.5591 21.5003L87.5836 21.619L87.6386 21.7651L87.668 21.9025H87.7121ZM91.46 15.3149L91.323 14.9939L90.9937 14.4406L90.8407 14.1283L90.7477 13.8935L90.5408 13.7923L90.2666 13.7573L90.6559 13.9872L90.8664 14.3544L91.1063 14.7054L91.2409 15.0576L91.4209 15.4398L91.46 15.3149Z" fill="#143B73" stroke="white" stroke-width="1.22179"/>
<path d="M27.3812 37.2614L27.2979 37.2589L27.2184 37.2177L27.1094 37.1377L27.0262 37.104L26.9515 37.0928L26.861 37.1065L26.6749 37.1515L26.6578 37.1527L19.9979 37.7985L15.5645 37.8072L15.5865 39.1437L21.6674 45.4878L21.758 45.3604L21.654 45.0806L21.3443 44.5947L21.179 44.3886L21.1081 44.2674L21.0787 44.1125L21.0726 43.9552L21.0505 43.814L21.0077 43.6804L20.4826 42.7685L20.3724 42.495L20.3822 42.4538L20.4042 42.4088L20.3932 42.3726L20.2427 42.3439L20.1007 42.2827L20.037 42.2677L19.9758 42.2252L19.769 42.0004L19.7029 41.8967L19.7506 41.8055L19.7763 41.8742L19.791 41.8967L19.851 41.9591L20.0725 42.1353L20.1705 42.174H20.2439L20.3969 42.194L20.4605 42.2177L20.523 42.2552L20.5462 42.2839L20.5927 42.4001L20.8265 42.8422L20.8584 42.9746L20.9244 43.0945L21.0762 43.2257L21.5475 43.508L22.7617 43.9352L22.8719 44.0239L22.9367 44.0576L23.0126 44.0413L23.0897 44.0101L23.1607 43.9989L23.2427 44.0239L23.3064 44.0638L23.4264 44.1862L23.5145 44.14L23.7593 44.0501L23.8229 43.9989L23.8144 43.9177L23.7532 43.8252L23.6699 43.7516L23.6026 43.7216L23.6834 43.5879L23.7238 43.438L23.6822 43.3281L23.5145 43.3181V43.2682L23.5977 43.2494L23.6761 43.217L23.7385 43.1632L23.7801 43.0858L23.8805 43.192L24.0249 43.498L24.1314 43.5492L24.195 43.4705L24.1522 43.3144L24.0788 43.1245L24.0482 42.9497L24.2636 43.2769L24.3346 43.458L24.3615 43.6579L24.4117 43.8365L24.5231 43.8914L24.6418 43.8352L24.7104 43.6804L24.7801 43.7278L24.8707 43.8153L24.9466 43.9077L24.9796 43.9789L25.0102 44.0076L25.1388 44.1862L25.1559 44.2274L25.3199 44.1987L25.2697 44.0401L25.14 43.8665L25.0678 43.794L25.0433 43.6891L24.9907 43.5979L24.9295 43.5217L24.8915 43.4543L24.8548 43.2794L24.8425 43.0633L24.8254 42.9621L24.741 42.7798L24.7104 42.6774L24.6981 42.425L24.67 42.3089H24.7104L24.763 42.3926L24.8364 42.6062L24.8915 42.7223L24.9209 42.7473L24.9649 42.7723L25.0053 42.7985L25.0237 42.8335L25.0274 42.876L25.0506 42.9921L25.0678 43.0408L25.1302 43.1133L25.2979 43.2519L25.3322 43.3381L25.3603 43.3593L25.4203 43.3406L25.4827 43.2919L25.5133 43.2269L25.3677 43.0983L25.3322 43.0408L25.3285 42.9571L25.3799 42.7436L25.3774 42.2714L25.4142 42.1902L25.5133 42.3089L25.5231 42.3788L25.5072 42.5425L25.5329 42.6049L25.5708 42.6511L25.5916 42.6998L25.6002 42.7598L25.6014 42.8335L25.6271 42.9272L25.6871 43.0496L25.7581 43.162L25.8181 43.2269L25.9429 43.2594L26.107 43.2557L26.2502 43.2082L26.3114 43.1083L26.2881 42.9896L26.2465 42.8697L26.2245 42.7473L26.2624 42.6236L26.4264 42.7635L26.4974 42.8435L26.5599 42.9921L26.7936 43.172L26.9332 43.3419L27.0225 43.4206L27.1266 43.4543L27.2404 43.4505L27.3714 43.4305L27.4497 43.3756L27.4118 43.2682L27.4705 43.1258L27.4975 42.8048L27.5476 42.6774L27.6248 42.7885L27.6456 42.9372L27.6382 43.5842L27.5868 43.7078L27.4815 43.8402L27.4877 43.8802L27.5391 43.9327L27.6064 43.9801L27.6602 43.9989L27.6774 44.0126L27.7117 44.0738L27.7239 44.0901H27.7618L27.839 44.0576L27.8806 44.0488L27.9834 44.0863L28.0617 44.1488L28.1315 44.1612L28.2135 44.0488L28.4081 44.2762L28.4779 44.3224H28.8794L28.9393 44.2899L28.9626 44.2549L28.9651 44.1125L28.9859 44.0538L29.0324 44.0713L29.0789 44.1325L29.1009 44.2062L29.1621 44.3286L29.3066 44.4173L29.4706 44.4623L29.5905 44.4535L29.5844 44.4173L29.6334 44.3186L29.6933 44.2499L29.7435 44.3349L29.8353 44.3998L29.8806 44.4773L30.0177 44.6047L30.0765 44.6396L30.1487 44.6484L30.2172 44.6321L30.2797 44.6084L30.3372 44.5947L30.582 44.6247L30.7656 44.7233L31.1401 45.0893L31.2393 45.143L31.3592 45.1717L31.5122 45.1817L31.9504 45.0968L32.0704 45.1393V45.0956L32.1744 45.138L32.2736 45.1268L32.3703 45.1005L32.4682 45.0956L32.5539 45.133L32.6751 45.2517L32.7571 45.2767L33.1512 45.2804L33.2675 45.2292L33.1732 45.0956L33.2932 45.0393L33.4021 45.0581L33.4964 45.0606L33.5747 44.9569H33.6188L33.5417 45.1155L33.5307 45.1618L33.5466 45.188L33.5808 45.2117L33.6102 45.2367L33.6188 45.2767L33.5919 45.3116L33.505 45.3241L33.4866 45.3441L33.5013 45.3966L33.5307 45.4328L33.5613 45.459L33.5747 45.4815L33.6629 45.5914L34.0717 45.7301L34.1965 45.8225L34.3654 45.7675L34.576 45.7788L34.9469 45.8712L35.2884 46.0536L35.4805 46.1273L35.6139 46.0998L35.6445 46.1623L35.6323 46.2122L35.5882 46.2522L35.5209 46.2822L35.6042 46.3559L35.6776 46.4645L35.6972 46.5732L35.6139 46.6456L35.7217 46.878L35.7914 46.9454L35.9444 46.9679L36.0007 47.0104L36.1892 47.199L36.4022 47.2802L36.4879 47.3726L36.5516 47.4925L36.5883 47.6062V47.8123L36.6005 47.8398L36.6556 47.9184L36.674 47.9747L36.6813 48.242L36.7596 48.4456L37.3153 49.2849L37.4708 49.4311L37.4879 49.4411V49.4398L37.5124 45.484L37.6054 45.128L37.7609 44.9906L38.0338 44.827L38.1465 44.7308L38.4365 44.4098L39.0118 44.0201L37.625 43.0583L35.751 42.53L35.5858 42.4575L35.4915 42.3613L35.3153 42.094L35.1819 41.8242L33.9738 40.464L30.4584 38.0608L30.1609 37.8759L29.6836 37.841L29.3959 37.736L29.1964 37.6324L28.9087 37.5412L28.7496 37.5237L28.6174 37.475L28.4485 37.455L28.3494 37.4338L28.2661 37.3676L28.1694 37.2639L28.0336 37.1452L27.9393 37.1277L27.8512 37.1652L27.7716 37.2202L27.6517 37.2589L27.5403 37.2389L27.3812 37.2614Z" fill="#143B73" stroke="white" stroke-width="1.22179"/>
<path d="M31.6851 32.0128L31.4648 31.9716L31.3277 31.9204L31.2188 31.8129L30.9483 31.3783L30.8602 31.3183L30.7622 31.3096L30.2224 31.402L30.0572 31.3908L29.5774 31.417L29.4941 31.778L29.4721 32.6736L29.5015 32.806L29.5468 32.8984L29.7757 33.087L29.8393 33.1245L29.9727 33.1732L30.029 33.2032L30.0878 33.2769L30.1233 33.3955L30.209 33.9551L30.2016 34.14L30.182 34.2449L30.1453 34.3448L30.0902 34.4297L30.0315 34.4835L29.892 34.5746L29.8099 34.6483L29.6263 34.8994L29.5602 34.9693L29.4844 35.0056L29.3913 35.0168L29.0841 35.0031L28.9837 34.9843L28.8919 34.9818L28.816 35.0031L28.5431 35.1492L28.4831 35.2042L28.4133 35.3103L28.4121 35.4165L28.4586 35.6701L28.5051 35.725L28.5578 35.7575L28.6422 35.7737L28.7377 35.805L28.8344 35.8474L28.9813 35.9361L29.8038 36.723L29.8454 36.748L30.4697 36.7942L30.5101 36.813L30.5505 36.8542L30.679 37.0266L30.7145 37.0977L30.7084 37.1689L30.4575 38.0608L33.9728 40.464L34.2519 39.5821L34.2825 39.5222L34.3229 39.4622L34.3572 39.3873L34.5285 38.789L34.5604 38.7053L34.6142 38.6129L34.6901 38.5204L34.9557 38.2794L35.012 38.2144L35.0659 38.117L35.0953 37.9983L35.0916 37.8734L35.0133 37.6411L34.9998 37.5074L34.9765 37.4013L34.9337 37.3088L34.9092 37.2277L34.9153 37.149L34.9594 37.084L35.1075 36.9391L35.1736 36.8429L35.2201 36.7305L35.7991 33.9026V33.7527L35.7624 33.6478L35.6999 33.5704L34.8566 33.017L34.7611 32.9571L34.7562 32.8584L34.7317 32.7535L34.6913 32.776L34.5873 32.8197L34.5469 32.8447L34.4625 32.7323L34.3609 32.6411L34.274 32.5436L34.2005 32.3063L34.1124 32.2251L33.9288 32.1152L33.7941 31.9928H33.6999L33.6779 31.9891L32.8345 31.9528L32.7757 31.9379L32.7219 31.8916L32.6289 31.7692L32.5615 31.7305L32.4294 31.7005L32.3033 31.6943L32.1478 31.718L32.0646 31.7655L32.0058 31.8279L31.963 31.9029L31.9055 31.9791L31.8186 32.009L31.6851 32.0128Z" fill="#143B73" stroke="white" stroke-width="1.22179"/>
<path d="M28.2985 30.9699L27.6914 30.9387L27.3388 30.8163L27.2556 30.8013L27.2005 30.8225L27.1822 30.9312L27.2507 31.8655L27.2311 31.9242L27.1809 31.9929L27.0757 32.0616L26.8615 32.1428L26.7844 32.1815L26.7085 32.2439L26.695 32.2602L26.6387 32.4101L26.5946 32.6062L26.6008 32.7248L26.635 32.8185L26.7978 32.9971L26.8272 33.0621L26.8248 33.1295L26.7978 33.232L26.542 33.9239L26.4784 34.0276L26.2201 34.2737L26.1418 34.3636L26.0818 34.4548L26.034 34.5472L25.9484 34.867L25.8957 34.9057L25.8578 34.9132L25.5273 34.6909L25.5579 35.0069L25.5432 35.0756L25.5028 35.1593L25.433 35.2042L25.3437 35.2342L25.1478 35.2754L25.0377 35.3316L24.9851 35.3928L24.9557 35.4603L24.9165 35.6901L24.9177 35.7164L24.9422 35.7713L24.9802 35.8438L24.9814 35.91L24.9704 35.9837L24.9924 36.0449L25.0903 36.0698L25.3082 36.0786L25.4343 36.1048L25.5542 36.161L25.6913 36.2684L25.7721 36.3759L25.81 36.4945L25.8186 36.6394L25.8921 36.7181L26.0561 36.7606L26.3535 36.8005L26.4392 36.8642L26.5714 36.9879L26.6571 37.1528L26.6742 37.1515L26.8603 37.1066L26.9508 37.0928L27.0255 37.1041L27.1087 37.1378L27.2177 37.2177L27.2972 37.259L27.3805 37.2614L27.5396 37.239L27.651 37.259L27.7709 37.2202L27.8505 37.1653L27.9386 37.1278L28.0329 37.1453L28.1687 37.2639L28.2654 37.3676L28.3487 37.4338L28.4478 37.4551L28.6167 37.475L28.7489 37.5238L28.908 37.5412L29.1957 37.6324L29.3952 37.7361L29.6828 37.841L30.1602 37.876L30.4577 38.0609L30.7086 37.169L30.7147 37.0978L30.6792 37.0266L30.5507 36.8543L30.5103 36.813L30.4699 36.7943L29.8456 36.7481L29.804 36.7231L28.9815 35.9362L28.8346 35.8475L28.7379 35.805L28.6424 35.7738L28.558 35.7576L28.5053 35.7251L28.4588 35.6701L28.4123 35.4166L28.4135 35.3104L28.4833 35.2042L28.5433 35.1493L28.8162 35.0031L28.8921 34.9819L28.9839 34.9844L29.0843 35.0031L29.3915 35.0169L29.4846 35.0056L29.5604 34.9694L29.6265 34.8995L29.8101 34.6484L29.8922 34.5747L30.0317 34.4835L30.0904 34.4298L30.1455 34.3449L30.1823 34.245L30.2018 34.14L30.2092 33.9552L30.1235 33.3956L30.088 33.2769L30.0292 33.2032L29.9729 33.1732L29.8395 33.1245L29.7759 33.0871L29.547 32.8985L29.5017 32.806L29.4723 32.6736L29.4944 31.778L29.5776 31.4171L29.2899 31.1085L29.1137 30.9499L28.7477 30.8412L28.5702 30.9149L28.4601 30.9462L28.2985 30.9699Z" fill="#143B73" stroke="white" stroke-width="1.22179"/>
<path d="M3.42693 9.80145L3.16744 9.71526L2.91896 9.68529L2.69252 9.80645L2.5591 9.75149L2.47587 9.75523L2.47709 9.95883L2.47342 11.1217L2.46852 12.4108L2.4624 14.0508L2.46852 16.2391L2.47097 17.6818L2.47464 19.0196L2.47831 20.1525L2.48443 22.9479L2.48811 24.1245L2.49178 25.5459L2.6815 25.6034L10.4577 28.3176L10.6279 28.1702L10.8861 28.0416L11 27.9541L11.0538 27.7955L11.0599 27.758L11.1542 27.4882L11.1664 27.4046L11.1774 27.3621L11.3353 27.0536L11.3794 26.9174L11.4161 26.7013L11.3525 26.5227L11.2595 26.3329L11.2129 26.0556L11.1983 25.4098L11.0379 23.4887L10.3757 23.0953L5.84071 23.0616L5.3768 23.0103L5.01939 22.8942L4.8774 22.6181L4.82844 22.3059L4.8113 21.2017L4.85537 20.9082L4.99735 20.7171L7.26792 19.147L7.32422 19.1307L7.42214 19.1095L7.44907 19.1195L7.56903 19.0895L7.58004 19.2269L7.67062 19.2769L7.78813 19.3131L7.8787 19.4055L7.78445 19.5129L7.75385 19.5816L7.79057 19.6316L7.96683 19.5404L8.01947 19.5642L8.12596 19.5679L12.0649 19.503L12.4211 19.4155L12.5508 19.1707L12.59 19.0658L12.5924 18.9634L12.7124 18.6399L12.9229 18.5112L13.1138 18.3638L13.2069 18.1127L13.2363 17.8579L13.224 17.7018L13.2069 17.6356L13.1542 17.5594L13.1285 17.5057L13.0784 17.3196L13.0306 17.2047L13.0159 17.1247L13.0049 16.8237L13.0282 16.5552L13.0025 16.0655L13.0135 15.9631L13.0355 15.8994L13.1444 15.6983L13.2411 15.4747L13.3134 15.366L13.3978 15.2998L13.5741 15.2561L13.6634 15.2199L13.8324 15.1275L13.9156 15.1037H13.9951L14.0796 15.1287L14.1751 15.1774L14.3685 15.3023L15.5533 15.7907L15.7333 15.8344L15.8336 15.8469L15.9291 15.8407L16.0087 15.772L16.0784 15.6246L16.1225 14.7528V14.7278L15.9083 14.7478L15.7614 14.744L15.2424 14.6079L15.0539 14.4954L14.967 14.483L14.8752 14.4805L14.7908 14.468L14.5766 14.3518L14.5019 14.3331L14.3587 14.3168L13.0869 13.9209L12.3525 13.6898L11.6585 13.3488L10.8494 13.1065L10.6683 13.0178L10.5716 12.9853L10.4247 12.9728L10.2827 12.9241L10.137 12.8304L9.99504 12.7617L9.78206 12.8367L9.72208 12.8179L9.55684 12.8042L9.51277 12.7917L9.49686 12.7243L9.51767 12.6468L9.54705 12.5731L9.56174 12.5169L9.52624 12.4532L9.17372 12.1322L9.1064 12.1035L8.73797 12.131L8.49561 12.1784L8.36586 12.1559L8.07699 11.9536L8.04884 11.8874L8.04762 11.8224L8.02559 11.7725L7.8224 11.735L6.36704 11.0343L5.11364 10.5022L4.9741 10.4834L4.82844 10.4247L4.64239 10.2236L4.55671 10.2574L4.52243 10.2124L4.45511 10.0737L4.42574 10.0325L4.35229 10.0075L4.18705 10.0001L4.11239 9.98256L4.06832 9.95508L4.0267 9.91761L3.97162 9.88139L3.89206 9.85141H3.69132L3.42693 9.80145ZM14.4676 3.96206L14.5692 3.89336L14.661 3.84589L14.7026 3.83215L14.6182 3.76221L14.4958 3.79094L14.3991 3.88961L14.3966 4.03076L14.4676 3.96206Z" fill="#143B73" stroke="white" stroke-width="1.22179"/>
<path d="M42.8764 28.4325L42.9021 28.3363L42.8948 28.2077L42.9131 28.079L43.0086 27.9766V27.9354L42.9131 27.8554L42.8434 27.7243L42.8017 27.5694L42.7871 27.4108L42.7834 27.3171L42.7626 27.2796L42.6108 27.2084L42.5214 27.1372L42.2987 26.8861L42.1604 26.8924L42.0477 26.9598L41.9498 27.046L41.8531 27.1135L41.6095 27.1822L41.5496 27.2384L41.4994 27.3895L41.4602 27.6231L41.4651 27.738L41.4994 27.8404L41.5692 27.9366L41.8091 28.1165L42.0735 28.43L42.2546 28.5587L42.4786 28.5686L42.6304 28.4625L42.7001 28.4325L42.7503 28.4387L42.7871 28.4637L42.8238 28.4737L42.8764 28.4325ZM36.6706 24.4367L36.6363 24.3593L36.5396 24.2144H36.4234L36.3413 24.2694L36.2948 24.3593L36.2789 24.4617L36.3413 24.5791L36.4686 24.6503L36.5653 24.6441L36.5396 24.5317L36.5727 24.5292L36.58 24.5229L36.5788 24.5079L36.5874 24.4817L36.629 24.5117L36.6731 24.5317L36.6706 24.4367ZM34.7391 23.9983L34.9129 23.9296L35.1516 23.7785L35.2238 23.7173L35.2556 23.6436L35.2703 23.4962L35.2924 23.4225L35.3242 23.3713L35.3266 23.1402L35.3119 22.9753L35.2777 22.8754L35.0378 22.6168L34.946 22.5394L34.8076 22.5044L34.6816 22.5706L34.3621 22.9116L34.2936 23.0278L34.1956 23.3026L34.1675 23.4337L34.1638 23.5486L34.1858 23.6536L34.236 23.7547L34.2703 23.8022L34.4808 23.9983L34.5739 24.0395L34.7391 23.9983ZM29.1257 19.3668L29.0119 19.3155L28.9495 19.2906L28.9017 19.3118L28.7904 19.4055L28.7757 19.3892L28.7279 19.373L28.6765 19.3892L28.6545 19.4704L28.6606 19.5916L28.6888 19.719L28.75 19.8164L28.8552 19.8564L28.9923 19.8526L29.0866 19.8289L29.149 19.774L29.1882 19.6728L29.2053 19.5479L29.1882 19.4442L29.1257 19.3668ZM29.0046 21.364L28.8307 21.2666L28.5933 20.9144L28.499 20.8594L28.477 20.8232V20.5834L28.4452 20.5409L28.3007 20.4485L28.1086 20.2561L27.9972 20.1961L27.7095 20.1424L27.6288 20.0725L27.592 19.985L27.5945 19.9064L27.6239 19.8701L27.7059 19.8339L27.723 19.7902L27.7169 19.7502L27.701 19.729L27.6863 19.7177L27.6789 19.6965L27.6471 19.6603L27.4917 19.5616L27.297 19.5067L27.1832 19.4255L27.0131 19.2731L26.7585 19.1769L25.9531 19.0482L25.8576 19.0095L25.7976 18.9771L25.7915 18.9908L25.6801 22.1809L24.9175 23.43L22.3398 25.3998L22.1084 25.4672L21.833 25.4947L21.8489 25.6221L21.8648 25.677L21.8771 25.707L21.9199 25.7707L22.0007 25.8519L22.3948 26.1792L22.6029 26.3116L22.7021 26.3441L22.7376 26.3515L22.8502 26.354L22.8795 26.359L22.9028 26.3728L23.0387 26.4839L23.0595 26.5064L23.0754 26.5414L23.084 26.6039L23.0827 26.6463L23.0889 26.69L23.1084 26.7338L23.1611 26.7937L23.1966 26.9111L23.2125 27.0348L23.2235 27.0685L23.2468 27.0985L23.2798 27.1235L23.3435 27.1435L23.4499 27.1972L23.6348 27.362L23.8563 27.4382L23.8943 27.427L23.9775 27.3783L24.0534 27.3071L24.1513 27.2396L24.2407 27.2309L24.3557 27.2571L25.2982 27.6081L25.4145 27.6893L25.4953 27.7855L25.652 28.0216L25.7621 28.129L25.9396 28.2389L26.3142 28.3625L26.4255 28.435L26.5137 28.5462L26.6067 28.6898L26.7205 28.8284L26.8711 28.9608L27.0021 29.0383L27.3607 29.1595L27.4488 29.2157L27.5198 29.2756L27.5639 29.3306L27.5871 29.3655L27.7108 29.6466L27.805 29.7665L27.9384 29.8864L28.1428 30.0213L28.2652 30.1487L28.6214 30.6958L28.7475 30.8419L29.1135 30.9506L29.2898 31.1092L29.5774 31.4178L30.0572 31.3915L30.2225 31.4028L30.7623 31.3103L30.8602 31.3191L30.9483 31.379L31.2188 31.8137L31.3278 31.9211L31.4648 31.9724L31.6852 32.0136L31.8186 32.0098L31.9055 31.9798L31.963 31.9037L32.0059 31.8287L32.0646 31.7663L32.1478 31.7188L32.3033 31.6951L32.4294 31.7013L32.5616 31.7313L32.6289 31.77L32.7219 31.8924L32.7758 31.9386L32.8345 31.9536L33.6779 31.9898L33.6999 31.9936H33.7942L33.9288 32.116L34.1124 32.2259L38.0721 32.2421L40.0685 31.048L40.0967 31.0318L40.0636 30.9094L40.0097 30.8732L39.8616 30.8407L39.6413 30.7045L39.2117 30.5871L38.3989 29.9339L38.3218 29.8989L38.1664 29.8652L38.126 29.8127L38.1003 29.7465L38.0684 29.6841L37.9473 29.5929L37.8273 29.5904L37.7012 29.6166L37.5593 29.6179H37.5984L37.5127 29.6254L37.443 29.6029L37.3867 29.5542L37.3426 29.5242L37.2226 29.4467L37.1737 29.4342L37.0966 29.433L37.0109 29.4442L36.8763 29.4842L36.8089 29.483L36.7526 29.4455L36.6902 29.3855L36.629 29.3456L36.5127 29.3793L36.4429 29.3568L36.3193 29.2968L36.1565 29.2869L36.0843 29.2631L36.0549 29.1832L36.0219 29.1282L35.9472 29.112L35.7893 29.1157L35.6767 29.0795L35.4576 28.9783L35.3878 28.9808L35.3609 28.9509L35.3364 28.9321L35.3046 28.9384L35.2556 28.9808L35.1124 28.8971L34.9937 28.8647L34.8835 28.8235L34.7697 28.7048L34.684 28.7672L34.5861 28.776L34.4919 28.796L34.4135 28.8897L34.3878 28.8697L34.3682 28.8597L34.3242 28.8447L34.318 28.8959L34.2899 28.9783L34.2801 29.0258H34.236L34.1418 28.816L33.9876 28.7747L33.5959 28.8447L33.4123 28.7822L33.2764 28.6286L33.2042 28.4213L33.2213 28.2077L33.3364 27.9953L33.3523 27.9129L33.3462 27.8392L33.3168 27.738L33.3094 27.6843L33.3425 27.5419L33.5738 27.2084L33.6155 27.086L33.6265 26.9636L33.6179 26.6825L33.624 26.6139L33.6522 26.4677L33.6669 26.2304L33.662 26.2117L33.6962 26.138L33.744 26.063L33.7501 26.0068L33.7366 25.9506L33.6767 25.8594L33.662 25.8219L33.6461 25.687L33.58 25.4147L33.5738 25.2586L33.6106 24.9588L33.6571 24.8177L33.7305 24.7565L33.7501 24.7015L33.6828 24.5791L33.5873 24.4542L33.5298 24.3918L33.3094 24.3268L33.2874 24.2981L33.1858 24.2281L33.0646 24.1782L32.9643 24.0882L32.258 23.2801L32.1209 22.9691L32.0205 22.8542L31.9838 22.8529L31.9385 22.8691L31.8847 22.8704L31.8223 22.8304L31.6864 22.6431L31.6313 22.5394L31.3987 22.2633L31.0022 21.9249L30.7365 21.5864L30.4856 21.4827L30.209 21.5152L29.9324 21.5826L29.6741 21.5864L29.0046 21.364Z" fill="#143B73" stroke="white" stroke-width="1.22179"/>
<path d="M26.0437 15.805L26.0363 15.7551L25.9812 15.7151L25.9176 15.6964L25.8711 15.7363L25.8662 15.7863L25.8894 15.8125L25.9151 15.8175L25.9653 15.8163L26.0033 15.8275L26.0437 15.805ZM16.4914 14.7396L16.3825 14.6934L16.3384 14.7433L16.2331 14.7171L16.1217 14.7271V14.7521L16.0777 15.6239L16.0079 15.7713L15.9283 15.84L15.8329 15.8463L15.7325 15.8338L15.5526 15.7901L14.3677 15.3017L14.1743 15.1768L14.0788 15.128L13.9944 15.1031H13.9148L13.8316 15.1268L13.6627 15.2192L13.5733 15.2555L13.3971 15.2992L13.3126 15.3654L13.2404 15.474L13.1437 15.6976L13.0348 15.8987L13.0127 15.9624L13.0017 16.0649L13.0274 16.5545L13.0042 16.823L13.0152 17.1241L13.0299 17.204L13.0776 17.3189L13.1278 17.505L13.1535 17.5587L13.2061 17.6349L13.2233 17.7011L13.2355 17.8573L13.2061 18.1121L13.1131 18.3631L12.9221 18.5105L12.7116 18.6392L12.5917 18.9627L12.5892 19.0651L12.55 19.17L12.4203 19.4148L12.0641 19.5023L8.1252 19.5672L8.01871 19.5635L7.96608 19.5398L7.78982 19.6309L7.7531 19.581L7.7837 19.5123L7.87795 19.4049L7.78737 19.3124L7.66986 19.2762L7.57929 19.2262L7.56827 19.0888L7.44832 19.1188L7.42139 19.1088L7.32347 19.1301L7.26716 19.1463L4.9966 20.7164L4.85461 20.9075L4.81055 21.201L4.82768 22.3052L4.87664 22.6175L5.01863 22.8935L5.37605 23.0097L5.83995 23.0609L10.375 23.0946L11.0372 23.4881L11.1975 25.4091L12.14 25.4429L12.5256 25.519L13.2122 25.5453L13.4864 25.5091L13.5978 25.5128L13.6884 25.5265L14.0397 25.7526L14.9295 26.0237L15.5807 26.1124L15.9847 26.0986L16.7484 25.9125L21.833 25.4941L22.1084 25.4666L22.3398 25.3991L24.9176 23.4294L25.6801 22.1803L25.7915 18.9902L25.7976 18.9764L25.7401 18.944L25.6422 18.8678L25.6006 18.7953V18.2307L25.5724 18.0996L25.5173 17.9872L25.4439 17.8872L25.3558 17.7973L25.2603 17.7736L24.9261 17.7586L24.8417 17.7748L24.6226 17.7074L24.3313 17.6687L24.0399 17.6712L23.8221 17.7299L23.8392 17.7973L23.8086 17.8872L23.7523 17.9772L23.6911 18.0459L23.6666 18.0846V18.1121L23.6507 18.1296L23.5797 18.1358L23.5283 18.1171L23.4965 18.0721L23.4475 17.9759L23.3533 17.931L23.1929 18.0196L23.0926 17.9759L23.0228 17.9235L22.9604 17.8922L22.9016 17.8523L22.8526 17.7748L22.9285 17.7823L23.0007 17.7711L23.062 17.7386L23.1158 17.6849L22.953 17.6824L22.8796 17.6949L22.811 17.6849L22.39 17.7136L22.1758 17.7011L22.0093 17.6362L21.6947 17.1678L21.5429 17.0941L21.4475 17.0703L21.1806 16.9479L21.0998 16.888L20.8599 16.502L20.7596 16.4533L20.6359 16.4258L20.4058 16.4058L20.3177 16.3734L20.2516 16.3159L20.1916 16.2322L20.2418 16.151L20.2271 16.1098L20.1843 16.0948L20.1476 16.0923L20.0533 16.161L19.9958 16.1885L19.9701 16.1623L19.7791 16.0998L19.7253 16.0723L19.6726 16.0374L19.571 15.9949L19.5282 15.9612L19.5013 15.9162L19.4364 15.7313L19.0643 15.3516L18.9517 15.2742L18.6604 15.173L17.2809 14.9245L17.2013 14.9195L17.1193 14.8982L16.9981 14.8045L16.9369 14.7846L16.4914 14.7396ZM19.3544 14.8957L19.4523 14.8233L19.4107 14.6984L19.2491 14.576L19.0802 14.4873L18.9517 14.4698L18.9064 14.511L18.8991 14.5847L18.8587 14.6309L18.8501 14.6909L18.9529 14.7796L19.0239 14.812L19.0643 14.8233L19.2467 14.897L19.3544 14.8957ZM22.9065 13.914L22.8196 13.8165L22.6556 13.6392L22.5111 13.6991L22.434 13.8165L22.5601 13.9739L22.7804 14.0326L22.9065 13.914Z" fill="#143B73" stroke="white" stroke-width="1.22179"/>
<path d="M23.6356 27.3615L23.4508 27.1966L23.3443 27.1429L23.2807 27.1229L23.2476 27.0979L23.2244 27.068L23.2134 27.0342L23.1974 26.9106L23.1619 26.7932L23.1093 26.7332L23.0897 26.6895L23.0836 26.6458L23.0848 26.6033L23.0763 26.5409L23.0604 26.5059L23.0395 26.4834L22.9037 26.3722L22.8804 26.3585L22.851 26.3535L22.7384 26.351L22.7029 26.3435L22.6038 26.311L22.3957 26.1786L22.0016 25.8514L21.9208 25.7702L21.8779 25.7065L21.8657 25.6765L21.8498 25.6215L21.8339 25.4941L16.7493 25.9126L15.9855 26.0987L15.5816 26.1124L14.9304 26.0237L14.0405 25.7527L14.2058 28.9703L14.8876 29.8671L16.7444 30.5516L17.1765 30.774L17.8411 31.3872L18.4286 31.8144L18.7567 31.9668L18.9415 32.0018L19.2255 31.9481L19.7628 31.7932L20.0958 31.7332L20.3761 31.752L20.7751 31.8282L20.7506 31.752L20.7115 31.6745L20.5707 31.4709L20.5499 31.421L20.5633 31.3723L20.6356 31.3185L20.982 31.1449L21.8926 30.8139L22.37 30.5279L22.5756 30.3593L22.6576 30.2356L22.7213 30.0845L22.7849 29.7934L22.7984 29.6423L22.7923 29.5261L22.7482 29.3812L22.3467 28.5643V28.4682L22.4043 28.3857L23.0775 28.0173L23.2134 27.9835L23.3345 27.9348L23.43 27.8386L23.501 27.6463L23.6356 27.3615Z" fill="#143B73" stroke="white" stroke-width="1.22179"/>
</svg>
