<svg width="99" height="102" viewBox="0 0 99 102" fill="none" xmlns="http://www.w3.org/2000/svg">
<path d="M6.97947 38.5539L6.65578 38.5476L6.73982 38.2641L6.70714 38.1341L6.66823 38.0574L6.47371 37.9478L6.45192 37.8773L6.49394 37.6972L6.37411 37.3918L6.20449 37.2916L5.33303 37.0958L4.1908 37.0661L4.23281 36.9784L4.6203 36.6244L4.7588 36.4318L4.80393 36.2439L4.76969 36.0512L4.66387 35.9087L4.53471 35.8398L4.27327 35.3778L4.15345 35.3089L4.01339 35.2791L3.83754 35.1022L3.69438 34.7294L3.38314 34.4898L3.23063 33.9229L3.09525 33.6661L2.80269 33.4969L2.79024 33.3137L2.91629 33.3294L2.98165 33.2479L2.99254 33.143L2.96142 33.0772L2.63151 32.9316L2.57548 32.8282L2.23779 32.5322L2.24402 32.4743L2.3405 32.4664L2.41831 32.2597L2.41675 32.0546L2.88516 31.9935L2.96297 31.9324L2.92874 31.721L2.74666 31.4751L5.54 32.6465L9.22192 33.5329L11.1111 34.0247L15.2257 36.2439L19.6623 38.1435L20.1245 38.3409L20.0778 38.416L19.8335 38.5194L19.5083 38.7684L19.0632 39.2054L18.8064 39.34L18.7037 39.3118L18.4656 39.34L18.4578 39.4277L18.159 39.6313L17.8354 39.7864L17.6113 40.073L17.5428 40.2578L17.4479 40.3016L17.2658 40.1842L17.1475 40.1638L16.7787 40.1716L16.6729 40.2124L16.5749 40.2828L16.5188 40.4175L16.1391 40.9625L15.5525 41.1583L15.4217 41.2663L15.1198 41.3462L14.9595 41.3509L14.972 41.0205L14.7604 41.0518L14.2079 40.9312L13.3925 40.8576L12.6004 40.9171L12.4977 40.8263L12.1444 40.7996L11.5904 41.0862L11.1656 41.1833L10.9041 41.0784L10.6863 40.8529L10.4311 41.0346L10.4373 38.2861L10.4451 38.1138L10.5182 38.0026L10.5291 37.6346L10.4886 37.4967L10.6396 37.3119L10.7143 37.1334L10.5338 37.1647L10.0716 37.5703L9.8226 37.7285L9.50203 38.1013L9.19858 38.2062L9.09743 38.3753L8.81576 38.5304L6.97947 38.5539Z" fill="#08868B" stroke="white" stroke-width="1.19048"/>
<path d="M89.6806 37.3836L89.6495 37.2693L89.4285 37.1472L89.3585 37.1613L89.1998 37.1158L89.1157 36.8966L89.3211 36.729L89.4207 36.5583L89.7584 36.4393L90.1288 35.924L90.1428 35.816L90.2704 35.722L90.426 35.9131L90.6859 35.9601L90.854 35.9413L91.2508 36.2576L91.5465 36.5896L91.8235 36.7541L92.1207 36.8292L92.5097 36.7274L92.9984 36.7729L93.1805 36.7556L93.4699 36.5896L93.6504 36.5975L93.9321 36.4236L94.2713 36.065L94.29 35.9945L94.5312 35.8003L94.8425 35.7627L95.191 35.8958L95.5894 35.6938L95.8182 35.6641L96.117 35.7909L96.5683 35.8332L96.6103 35.8661L96.1776 36.6429L95.4696 37.4463L94.9125 38.0069L94.4394 38.7242L93.9212 39.1753L93.7656 39.4932L93.5602 39.7735L93.4668 39.5683L92.9081 39.2191L92.8365 39.2144L92.5782 39.0907L92.3043 38.8636L92.102 38.4799L91.2586 37.9991L90.6859 37.8503L89.6806 37.3836Z" fill="#08868B" stroke="white" stroke-width="1.19048"/>
<path d="M28.0419 8.72266L28.154 8.84481L28.2707 8.89806L28.3656 8.89962L28.5415 8.83385L28.6395 8.85108L28.6488 9.00142L28.8371 9.18465L28.9881 9.2426L29.125 9.20971L29.3367 9.22694L29.6401 9.37572L29.7164 9.47908L29.5748 9.99902L29.4643 10.2339L29.8891 10.8197L30.1474 11.5651L30.177 11.9191L30.3124 12.0945L30.3202 12.1649L30.0681 12.3936L30.1241 12.6426L30.2268 12.89L30.107 13.3661L30.0183 13.5165L30.0634 14.2964L30.2003 14.6362L30.3902 14.7678L30.4805 14.9087L30.6563 15.5869L30.647 15.6777L30.4696 15.8844L30.1832 15.8327L30.1614 16.0113L30.9411 16.7035L31.022 16.7098L31.327 16.9149L31.5573 17.1733L31.7192 17.4928L31.8016 17.5038L32.0102 17.438L32.3774 17.6009L32.309 17.2704L32.4257 16.9118L32.4646 16.6408L32.407 16.3589L32.5346 15.8938L32.6933 15.6965L32.8925 15.5884L33.2178 15.4772L33.3034 15.3378L33.5523 15.3285L33.9927 15.4741L34.2837 15.7936L34.4269 16.1867L34.7101 16.2227L34.9047 16.1507L35.1241 15.9298L35.44 15.8437L35.5053 15.7826L35.5085 15.6996L35.3311 15.4788L35.2953 15.3645L35.3124 15.2611L35.4913 14.8477L35.5022 14.6707L35.7606 14.1962L36.1232 13.6856L36.1185 13.5791L38.9959 13.5901L39.0581 14.3512L38.9912 14.5783L39.0192 14.9338L39.0565 15.0403L39.3211 15.1734L39.3491 15.2376L39.2946 15.3457L39.2869 15.6761L39.5716 15.9878L39.6277 16.0175L39.7366 15.9893L40.0229 16.182L40.1085 16.4686L40.1147 16.6142L40.1614 16.6847L40.8835 17.2751L41.5962 17.6729L41.6943 17.8138L41.9044 17.9846L42.1969 18.0895L42.5657 18.2946L42.9174 18.3964L43.1291 18.4199L43.3345 18.5483L43.3469 18.6439L43.5446 18.8537L43.9647 19.0793L44.1359 19.4191L44.4269 19.5428L44.5592 19.4473L44.7739 19.3925L44.8035 19.4676L44.7833 19.5898L45.0649 19.8513L40.412 29.9119L40.2906 30.1171L40.065 30.2941L39.9747 30.446L39.97 30.623L40.0976 30.9879L40.1568 31.0771L40.3233 31.168L40.5692 31.4123L40.6687 31.6096L40.6921 31.9166L40.7808 32.0058L40.5972 32.1938L40.566 32.2893L40.5567 32.4083L40.6096 32.5399L40.5676 32.698L40.3809 32.9831L40.247 33.0833L40.1817 33.2164L40.1972 33.3495L40.2999 33.5641L40.3715 33.8679L40.1568 34.5288L39.9731 35.3463L39.7848 35.4606L32.3385 35.5107L32.3448 35.4011L32.2887 35.3416L32.0724 35.2978L31.7736 35.4669L31.6896 35.7394L31.5838 35.7692L31.0796 35.5374L30.9738 35.0863L30.8773 35.055L30.7248 35.0754L30.6532 35.0425L30.4587 34.5304L30.0634 34.3769L29.8564 34.178L29.7319 33.8789L29.6619 33.8021L29.3273 33.6252L27.6482 33.6346L27.4335 34.0355L27.1658 34.1138L27.1798 34.297L27.1393 34.3315L26.7534 34.4145L26.5682 34.6635L26.5604 34.7684L26.7005 34.878L26.7269 34.9485L26.6709 35.1083L26.5449 35.2884L26.2243 35.4779L26.2072 35.7613L26.2445 35.99L25.6423 35.9179L25.3108 35.9774L25.1241 36.145L24.8455 36.1294L24.7148 36.0432L24.6432 36.0401L24.3709 36.2374L24.2884 36.369L24.3289 36.643L23.9336 37.1379L23.8278 37.1504L23.722 37.0674L23.6224 36.7135L23.5632 36.6994L23.2769 36.8592L23.0746 37.0487L22.8614 37.1097L22.7416 37.0894L22.5735 37.1677L22.5097 37.2507L22.4895 37.3634L22.2996 37.4872L22.242 37.4903L21.8826 37.1254L21.7705 37.0674L21.3239 37.1191L20.7077 37.0784L20.7326 37.2804L20.7092 37.3681L20.468 37.6516L20.1692 37.7424L19.6619 38.1434L15.2252 36.2437L11.1107 34.0245L9.2215 33.5328L5.53958 32.6464L2.74624 31.4749L2.73535 31.3731L2.84428 30.9158L3.03414 30.6966L3.79978 30.1531L4.15147 30.1155L4.22461 30.0686L4.37712 29.8242L4.38957 29.6629L4.11879 28.9598L4.17793 28.7734L4.36156 28.4304L4.56075 28.2237L4.70392 28.0279L4.76928 27.8745L4.81596 27.602L4.77083 27.3952L4.8751 27.0757L4.92334 26.714L5.03694 26.5965L5.6065 26.3412L5.9473 26.1486L6.12626 25.9857L6.19474 25.7665L6.31612 25.7085L6.53554 25.6913L6.79231 25.5457L7.34319 25.1181L7.71979 25.0508L7.95477 25.0962L8.60681 24.9051L8.84024 24.7845L9.12346 24.7282L9.64167 24.7877L9.84397 24.5387L9.94201 24.3116L10.1116 24.2161L10.4447 24.2474L10.5443 24.3319L10.7497 24.2944L10.9208 24.1785L11.187 24.1973L11.2352 24.2803L11.2321 24.4651L11.4826 24.6671L11.923 24.6796L12.0133 24.617L12.0849 24.4948L12.0678 24.4337L12.2498 23.6632L13.2925 17.842L13.473 17.3847L13.3189 16.608L13.3376 16.5672L13.1353 16.4028L12.905 15.9721L12.8988 15.8954L12.9999 15.6777L12.919 15.3989L12.8614 15.3363L12.5969 15.2439L12.1253 14.8759L11.8234 14.5188L11.8546 12.7162L12.4599 12.6755L12.7322 12.4923L13.2769 12.3482L13.694 12.6238L13.8838 12.641L14.0814 12.5737L14.0052 12.309L14.0519 12.0396L13.8387 11.7108L13.75 11.6262L13.571 11.5322L13.336 11.6152L12.9019 11.5197L12.3463 11.5338L12.337 9.98336L12.4864 9.98963L12.6918 9.89879L13.0466 9.80483L13.4885 9.94108L16.4499 9.95048L16.3784 9.84711L16.2554 9.82519L16.1963 9.63726L16.3441 9.335L16.5667 9.39764L16.6616 9.63569L16.797 9.84242L16.8997 9.89723L17.0288 9.89879L17.2794 9.80326L17.5813 9.47595L17.6311 9.3444L17.8272 9.1502L18.224 8.93251L18.4247 9.00455L18.6068 9.40861L18.8589 9.72026L18.9741 9.92385L19.0768 10.2026L19.1126 10.4454L19.0363 11.0139L19.0674 11.2895L19.5654 11.172L20.8586 12.2777L20.9815 12.3215L21.3706 12.3544L21.7285 12.1978L21.9931 11.9316L22.3214 11.7499L22.6622 11.7327L22.7494 11.7781L22.8692 11.9472L22.8661 12.0992L22.6933 12.3654L22.7509 12.5189L22.8412 12.5612L23.0481 12.4484L23.1353 12.3059L23.1711 12.1039L23.3267 11.9222L23.3998 11.8862L23.5555 11.9144L23.641 11.8862L23.7049 11.7828L23.7764 11.421L23.8558 11.3631L24.0908 11.3067L24.5467 11.0295L24.6977 11.1157L24.8424 11.0702L25.0914 10.9074L25.2501 10.6552L25.5785 10.4657L25.8944 10.5519L26.2617 10.2935L26.3472 10.165L26.4157 9.74845L26.411 9.54642L26.5309 9.40234L26.6912 9.33657L26.9619 9.33343L27.1705 9.27236L27.491 9.02178L27.6404 8.96384L27.9952 8.91685L28.0419 8.72266Z" fill="#08868B" stroke="white" stroke-width="1.19048"/>
<path d="M55.9226 16.931L55.7763 16.9216L55.6565 16.9748L55.4542 16.9936L55.02 16.8871L54.7944 16.7258L54.7275 16.4909L54.4365 16.2732L54.4193 16.0696L54.452 15.9616L54.4038 15.7141L54.3524 15.6405L54.2046 15.6108L54.1408 15.4636L54.1532 15.083L53.6973 14.5693L53.5759 14.6257L53.4483 14.5959L53.2149 14.0509L53.2351 13.8035L53.1433 13.52L53.0468 13.4323L52.9425 13.1958L52.913 12.8654L52.9799 12.3736L52.9534 12.322L52.5535 12.2076L52.2391 11.8537L52.1209 11.4105L52.1504 11.2977L52.2562 11.2617L52.18 11.0769L52.0742 11.0816L51.6322 10.665L51.4859 10.687L51.4268 10.7527L51.2198 10.7747L51.0891 10.7324L50.9646 10.5789L50.7872 10.4473L50.602 10.4286L50.5258 10.2281L50.4215 10.1028L50.1212 9.93836L49.9204 9.86162L49.3929 9.80368L49.2248 9.84909L49.0427 9.84596L48.9945 9.76139L48.9571 9.53588L48.9961 8.82487L49.0925 8.62127L49.035 8.26107L48.9385 8.1718L48.9929 8.13892L49.147 8.1859L49.1454 8.31275L49.1003 8.34094L49.1532 8.49285L49.382 8.48346L49.5096 8.51948L49.5641 8.66043L49.6948 8.77162L50.0449 8.89378L50.5569 9.01123L50.9864 8.73247L51.0409 8.61344L51.3101 8.43021L51.4393 8.38479L51.5466 8.53201L51.9684 8.67922L52.1364 8.66043L52.4041 8.50225L52.4228 8.43647L52.4726 8.44117L52.6998 8.64477L52.6686 8.78102L53.0374 8.75439L53.1168 8.8327L53.2646 8.85932L53.3611 8.85775L53.5027 8.78258L53.7626 8.54767L54.0396 8.3754L54.312 8.01519L54.3695 7.85859L54.3384 7.77402L54.8255 6.75605L54.8426 6.47102L55.0153 6.26743L55.129 6.23767L55.6892 5.3309L55.725 5.1508L55.8557 4.96287L56.1342 4.72013L56.2323 4.46015L56.5606 4.28162L56.6338 4.13754L56.7956 4.04671L56.8828 4.27536L57.0197 4.48834L56.7598 3.73662L56.7489 3.53459L56.7769 3.48291L57.3014 3.86191L57.4788 4.0514L57.6204 4.24247L57.7013 4.42883L57.706 4.67628L57.7745 4.72483L57.8243 4.64965L57.8834 4.63399L57.9161 4.69664L57.9487 5.93229L58.0515 6.53837L58.4732 7.48585L58.8871 8.88594L59.4038 9.66899L59.5609 9.72381L60.0698 9.71128L60.5024 9.85849L60.7032 9.99161L60.823 10.4066L60.7981 10.9281L60.5974 11.0785L60.3281 11.1458L60.269 11.1975L60.5476 11.174L60.7094 11.1082L60.753 11.1443L60.7717 11.2367L60.7452 11.351L59.9624 11.9868L59.7804 12.3157L59.4458 12.5365L59.1439 13.1191L58.691 13.6672L58.5821 13.7393L58.4358 13.7252L58.2102 13.8066L57.8865 14.2733L57.678 14.2843L57.5613 14.4252L57.3325 14.6883L57.1816 15.036L57.0073 15.3289L56.8765 15.4307L56.4081 15.971L56.3521 16.3468L56.3786 16.6287L56.0751 16.9122L55.9226 16.931ZM59.5578 9.57189L59.4878 9.52021L59.3166 9.22892L59.3275 9.0911L59.3633 9.02689L59.6216 8.95642L59.6886 9.0175L59.8177 9.373L59.6637 9.54527L59.5578 9.57189ZM59.9453 12.3298L59.8831 12.2906L59.8706 12.1794L60.0434 12.0072L60.1803 11.9837L60.3748 12.0213L60.4464 12.004L60.5149 11.9038L60.5227 11.9962L60.3717 12.2217L60.2177 12.3L59.9453 12.3298ZM60.4806 11.8803L60.3593 11.8443V11.7566L60.4713 11.5937L60.6658 11.5781L60.6938 11.6329L60.6783 11.7127L60.4806 11.8803ZM59.3618 8.99557L59.2435 8.91727L59.2839 8.78728L59.4209 8.76066L59.5547 8.81077L59.5563 8.9251L59.3618 8.99557Z" fill="#08868B" stroke="white" stroke-width="1.19048"/>
<path d="M84.3262 58.5315L84.2701 58.4015L84.376 58.1901L84.3744 58.1071L84.2919 57.9442L83.6492 57.4666L83.6259 57.3867L83.6601 57.1502L83.5714 56.9576L83.4703 56.9952L83.4391 57.0656L83.3862 57.0938L83.352 57.0547L83.4345 56.3656L83.5621 55.8488L83.6897 55.711L84.0741 55.7486L84.2328 55.6374V55.5716L84.1457 55.4118L84.1705 54.9968L84.9424 54.3359L85.1712 53.8536L85.1058 53.6703L84.9844 53.5106L84.8459 53.5012L84.7323 53.4417L84.2919 53.0549L83.962 53.058L83.6212 52.964L83.268 52.7949L82.8431 52.7072L82.535 52.6853L82.3296 52.8403L82.1008 52.9186L81.6947 52.8481L81.606 52.881L81.5375 52.2609L80.5229 51.2899L80.4637 51.2617L79.7806 51.4543L79.5425 51.2601L79.4631 51.293L79.3184 51.2586L78.9231 51.0675L78.5854 50.8138L78.4329 50.842L77.756 50.2735L77.5848 50.1889L77.16 50.0715L76.8845 50.1106L76.592 50.2516L76.4659 50.427L76.3663 50.4551L75.5369 50.2249L75.4419 50.1482L75.4015 49.9133L75.4233 49.7739L75.624 49.3448L75.4902 49.2727L75.1354 49.1913L74.7961 49.185L74.6094 49.1067L74.3308 49.0942L73.7348 49.3416L73.0719 49.8162L72.9723 49.99L72.4479 50.2829L72.1335 50.3455L71.9857 50.5303L71.704 50.7731L71.4815 50.8545L71.3259 50.831L71.038 51.2351L70.8761 51.3557L70.5447 51.2961L70.4326 51.3165L70.3252 51.4731L70.1167 51.6172L70.0545 51.5796L70.277 51.0424L70.1976 50.665L70.4279 50.3565L70.4668 50.2359L70.4311 50.037L70.3268 49.7676L70.3424 49.6627L70.4528 49.4403L70.4451 49.3683L69.9455 48.958L69.6825 48.4161L69.586 47.8648L69.5938 47.6221L69.7806 47.0223L70.028 46.861L70.0638 46.8014L70.0731 46.6542L69.8195 46.5227L69.8024 46.471L69.8771 46.0763L70.0996 45.9103L70.0965 45.8524L69.6732 45.4671L69.667 45.3215L69.8786 44.9487L69.8724 44.7812L69.8459 44.7154L69.6187 44.6387L69.4724 44.5369L69.418 44.3395L69.4273 43.8822L69.4569 43.7491L69.7603 43.4876L69.9377 43.4218L70.0871 43.309L70.042 43.2104L69.9518 43.1289L69.8086 43.0835L69.6483 43.1117L69.5938 43.06L69.5798 42.9817L69.6452 42.8314L69.9626 42.703L70.0498 42.6325L70.0436 42.5135L69.751 42.36L69.1939 42.2551L68.9044 41.9481L68.8687 41.804L68.9465 41.6224L69.1036 41.508L69.3402 40.963L69.4802 40.8675L69.6374 40.8252L69.6919 40.7657L69.4911 40.4838L69.5207 40.4259L70.0202 40.0155L70.6147 39.6992L70.7018 39.6256L70.7361 39.4721L70.8434 39.3703L71.206 39.3672L71.4301 39.577L71.5328 39.7399L71.6153 40.086L71.8892 40.476L72.5397 40.7673L72.8198 40.6858L73.1481 40.714L73.1995 40.6811L73.3162 40.454L73.4936 40.3961L73.5979 40.2599L73.7799 40.1205L74.1239 40.003L74.3308 40.0296L74.5611 40.1126L74.7712 40.0469L75.2334 39.6679L75.6925 38.877L75.8045 38.7423L75.8419 38.5982L75.8886 38.1973L75.8699 38.0156L75.5213 37.3219L75.5291 37.1762L76.0333 36.9178L76.3367 36.9147L76.5702 36.9867L76.634 37.1324L76.6838 37.1605L77.0137 37.0932L77.23 37.0086L77.437 37.0681L77.7031 37.2232L77.6828 37.325L77.7124 37.3704L77.84 37.4143L78.3069 37.397L78.5356 37.2968L78.8002 37.2811L78.9278 37.0901L79.1628 36.8802L79.5876 36.827L79.7074 36.7706L79.8335 36.6171L80.1712 36.6187L80.2677 36.7173L80.3159 36.7252L80.6053 36.4417L80.5898 36.0658L80.8995 36.0063L81.0224 36.0345L81.1858 35.9312L81.4192 35.5694L81.4908 35.3893L81.6293 35.4519L81.8098 35.4097L82.1522 35.4551L82.591 35.6728L82.6595 35.7526L82.6502 36.1802L82.7622 36.484L83.1061 36.6265L83.1481 36.9397L83.005 37.2028L83.2898 37.2999L83.4391 37.2655L83.5668 37.1214L84.0134 36.9836L84.1332 36.4229L84.211 36.2867L84.3277 36.2616L84.4491 36.3446L84.5471 36.3524L84.9191 36.1927L85.0902 35.9985L85.1167 35.9061L85.0778 35.6931L85.1229 35.654L85.4715 35.5835L85.5913 35.2624L85.8481 35.1935L86.2418 34.9649L86.3336 34.9492L86.5655 35.0369L86.6947 35.2624L86.9063 35.3893L87.2736 35.5114L87.7389 35.5741L87.9847 35.7542L88.0688 36.0126L88.1295 36.0549L88.1964 36.0314L88.2415 35.7573L88.3084 35.6884L88.464 35.6869L88.5341 35.737L88.5372 35.8356L88.4407 35.9734L88.5107 36.1034L88.5885 36.1614L88.9153 36.2961L88.9184 36.4433L89.1083 36.9209L89.1923 37.1402L89.3511 37.1856L89.4211 37.1715L89.6436 37.2952L89.6747 37.408L89.5705 37.5897L89.6032 37.9248L89.8024 38.3163L90.112 38.6217L90.2287 38.8018L90.2163 39.2904L90.1136 39.5441L90.0996 39.682L90.2179 40.1126L90.1712 40.2035L90.0638 40.2896L89.667 40.4462L89.4911 40.3288L89.225 40.3272L89.1752 40.3742L89.0834 40.6216L89.0865 40.7422L89.2343 40.9928L89.4055 41.0961L89.4864 41.3295L89.709 41.566L89.7323 41.6271L89.7121 41.8494L89.6592 41.9105L89.6779 41.9763L89.7697 42.0577L90.07 42.2018L90.1447 42.313L90.2287 42.3663L90.47 42.4665L90.9197 42.3287L91.0193 42.3255L91.0753 42.3897L90.4404 43.7726L89.8444 44.5854L89.6841 44.9503L88.9013 45.8493L88.5201 46.0466L88.3847 46.045L88.4314 45.8211L88.4889 45.7976L88.5107 45.6253L88.4407 45.323L88.1497 45.2839L88.0828 45.0803L87.977 44.9628L87.9194 45.0568L87.8478 45.4217L87.77 45.558L87.6844 45.6175L87.5973 45.5721L87.521 45.2996L87.5381 45.2494L87.5864 45.2291L87.5817 45.168L87.4463 45.37L87.591 45.6347L87.6626 45.6707L87.7202 45.6472L87.8992 45.6879L87.8276 45.9714L87.6393 46.1515L87.6004 46.4365L87.4058 46.5885L87.3514 46.6934L87.3203 46.8249L87.3483 46.958L87.1382 46.897L87.1055 46.958L87.0495 47.3527L87.1055 47.2399L87.2222 47.2728L87.2596 47.3574L87.2238 47.4216L87.2331 47.5187L87.2798 47.5657L87.3311 47.7223L87.1693 48.1154L87.258 48.6541L87.1724 48.7309L87.0837 48.6964L87.0619 48.8734L87.1537 48.9454L87.342 48.6761L87.2689 48.33L87.3965 48.2344L87.4354 48.319L87.4261 48.5946L87.2767 49.0034L87.1615 49.8538L87.0822 50.1372L87.1133 50.5241L87.2347 50.9704L87.2642 51.6814L87.3996 52.6853L87.5537 53.2209L87.2098 54.2639L86.9997 55.3053L86.9265 55.4635L86.9016 55.9114L86.7367 56.494L86.7227 56.8589L86.7834 57.5511L86.9219 57.8189L86.5733 58.2856L86.2916 58.3906L86.1453 58.4908L85.7221 59.1L85.6334 59.4195L84.3744 58.6145L84.3262 58.5315ZM87.7933 46.3159L87.7575 46.128L87.8727 46.0638L88.0376 45.9009L88.0626 45.8007L88.005 45.6864L88.1232 45.7083L88.2508 45.8727L88.2431 45.9557L87.7933 46.3159ZM87.3996 47.3887L87.3016 47.384L87.3031 47.2791L87.3436 47.2227L87.2191 47.1883L87.1537 47.1256L87.174 46.958L87.465 46.9346L87.4899 46.9659L87.507 47.1428L87.3996 47.3887Z" fill="#08868B" stroke="white" stroke-width="1.19048"/>
<path d="M91.5299 25.8808L90.7689 26.1298L90.3627 26.4446L89.8492 27.4923L89.7185 27.6677L89.5831 27.757L89.4819 28.0185L89.5053 28.1344L89.2874 28.5166L89.0602 28.753L88.9715 28.9253L88.8112 28.966L88.6898 28.8861L88.6105 28.8971L88.4798 29.0349L88.2604 29.3873L88.2074 29.6958L88.307 29.7224L88.4097 29.6629L88.3973 29.7475L88.2666 29.9276L88.1063 30.3974L88.1872 30.6026L88.0845 30.8078L87.9149 30.9064L87.8884 30.9659L87.8698 31.1116L87.9071 31.1758L87.9974 31.2212L88.0518 31.334L88.0487 31.5939L88.2417 31.7333L88.349 31.7458L88.402 31.9322L88.1514 32.4788L87.9662 32.6542L87.9927 32.6933L87.7452 32.7701L87.5787 32.9001L87.3391 33.2587L87.0823 33.2665L86.9843 33.0097L86.8629 32.9204L86.6513 32.8452L86.4941 32.6777L86.4225 32.5226L86.1377 32.3926L85.6942 32.0951L85.2149 32.0293L85.0142 32.045L84.6811 32.1703L84.4275 32.2L84.289 32.1624L83.5218 32.1311L83.5311 31.9244L83.4253 31.8179L83.4129 31.666L83.5903 31.1789L83.8237 30.8265L83.8252 30.7185L83.7054 30.5368L83.307 30.4632L83.1032 30.3614L82.946 29.9433L82.7826 29.1289L82.6643 28.7264L82.7017 28.6559L82.5554 27.378L82.5383 27.3185L82.3951 27.2104L82.5196 27.1196L82.6114 26.8721L82.5181 26.4039L82.3624 26.0891L82.4371 25.8385L82.3142 25.2324L82.4293 25.0195L82.4325 24.9004L82.2208 24.6514L82.1524 24.3805L81.6622 23.3751L81.382 22.6359L81.3369 22.4338L81.3649 22.2052L81.6108 21.8967L81.7804 21.6069L81.7975 21.4816L81.8271 21.4597L81.8209 21.3626L81.7586 21.2593L81.8598 21.1324L82.9087 21.098L83.3584 21.0306L83.6805 20.9272L84.8321 21.051L85.162 21.2264L85.4639 21.4613L86.105 21.8027L86.3322 21.8841L87.0823 22.354L87.2706 22.3853L87.6161 22.7439L88.0814 23.0744L88.4813 23.1871L88.861 23.6429L89.0509 23.7384L89.5115 24.3351L90.1589 24.8174L90.3861 25.1306L90.5479 25.2857L90.7814 25.4141L90.9603 25.4188L91.3291 25.5629L91.4521 25.6678L91.5299 25.8808Z" fill="#08868B" stroke="white" stroke-width="1.19048"/>
<path d="M67.0852 53.6046L64.7992 53.6015L64.7183 53.091L64.8614 52.8044L64.9206 52.2202L66.7802 52.2218L67.065 52.5319L67.0743 52.878L66.9825 53.0643L66.9498 53.4465L67.0852 53.6046Z" fill="#08868B" stroke="white" stroke-width="1.19048"/>
<path d="M80.3 65.7412L80.2549 65.7192L80.3234 65.3528L80.4121 65.1492L80.3202 64.6606L80.3451 64.5948L80.6128 64.2722L81.4142 64.2769L81.4998 64.2268L81.6508 63.7193L81.8235 63.5204L81.9605 63.1618L81.9978 62.8924L82.0383 62.8235L82.2312 62.6888L82.4973 62.3615L82.5814 61.8964L82.5362 61.5158L82.3386 61.0758L82.1674 60.8769L82.0865 60.8628L82.0165 60.9082L81.8982 60.8643L81.822 60.7532L81.8889 60.667L82.1192 60.6529L82.2437 60.7077L82.3946 60.7124L82.5425 60.6748L82.5923 60.6091L82.5658 60.3397L82.3619 60.2849L82.3293 60.2207L82.3759 59.9795L82.3806 59.6788L82.2997 59.5754L82.0927 59.4705L82.046 59.3609L82.2281 59.0586L82.5658 58.8535L82.614 58.8503L82.7774 58.9662L82.9533 58.9835L82.9564 58.8566L82.6965 58.5011L82.9051 58.5215L83.2443 58.476L83.375 58.3805L83.5431 58.3304L83.789 58.3179L84.1842 58.4447L84.3258 58.5309L84.3725 58.6139L85.633 59.4188L85.4883 59.9435L85.4401 60.3914L85.4587 60.9536L85.5708 61.9168L85.5225 62.3036L85.2907 62.8016L84.8627 63.0193L84.7771 63.1133L84.5173 63.6348L84.3647 64.2299L84.2449 64.4601L84.1158 64.3536L83.9788 64.3333L83.9337 64.5337L84.1438 64.6151L83.8419 65.2792L83.305 65.8806L83.2676 65.8383L82.9782 65.9416L82.8537 66.1343L82.8444 66.3519L82.779 66.5477L82.5316 66.8641L82.4864 67.041L82.2343 66.875L81.769 66.933L81.0937 66.7748L80.7046 66.5978L80.6004 65.8602L80.3 65.7412Z" fill="#08868B" stroke="white" stroke-width="1.19048"/>
<path d="M67.0848 53.6041L66.9494 53.446L66.9821 53.0638L67.0739 52.8775L67.0646 52.5314L66.7798 52.2213L64.9202 52.2197L64.8611 52.8039L64.7179 53.0905L64.7988 53.601L67.0848 53.6041L67.0024 53.8422L67.0506 54.0881L66.9448 54.3371L66.7829 54.5328L66.7191 54.763L66.8514 54.9525L66.9837 55.0058L67.2047 55.1671L67.4614 55.8812V55.9752L67.1004 56.3996L66.5962 56.871L66.5293 57.2062L66.6989 57.38L66.839 57.3064L67.0848 57.3957L67.158 57.4912L67.186 57.6478L67.1595 57.759L67.0459 57.8999L66.9666 58.1959L67.1518 58.7378L66.6709 59.0604L66.4904 59.0917L66.3565 59.2327L66.2818 59.4081L65.5209 59.8372L65.4119 59.7166L64.735 59.4253L64.6494 59.5005L64.5592 59.5146L64.2868 59.5162L64.0565 59.4723L63.4558 59.4974L63.143 59.358L62.5003 59.7714L62.0475 60.2287H61.9961L61.7923 60.0063L61.5557 59.9594L61.0593 60.2162L60.482 60.1191L60.096 60.2694L59.749 60.354L59.5296 60.6829L59.3413 61.0682L59.3506 61.2248L59.2199 61.4284L59.0923 61.4722L58.9616 61.4472L58.8916 61.4691L58.7453 61.585L58.4901 61.9138L58.4014 62.2114L58.4885 62.3069L58.4869 62.3602L58.4309 62.3962L58.2971 62.3242L58.2597 62.2537L57.8458 61.9029L57.3556 61.8074L57.1035 61.5646L56.8078 61.4973L56.576 61.491L56.0546 61.2811L55.9488 61.148L55.4711 60.9037L55.3668 60.8082L55.1427 60.697L54.9653 60.6704L54.5452 60.4073L54.1125 60.4323L53.5212 60.3227L53.501 60.271L53.5414 60.1395L53.6301 59.9562L53.834 59.6806L53.8215 59.6148L53.4714 59.4739L53.294 59.5788L53.1913 59.549L53.1477 59.4848L53.1119 59.311L53.1524 58.9069L53.1228 58.6297L52.975 58.2852L52.947 57.748L52.7275 57.4051L52.7026 57.2939L52.7649 56.7598L53.1617 56.1569L53.2208 55.7011L53.3298 55.5805L53.6441 55.449L53.9429 55.1718L54.1374 54.8554L54.1888 54.5501L54.2666 54.3919L54.4658 54.229L54.5934 54.0051L54.6058 53.7639L54.8782 53.612L55.096 53.2016L55.5084 53.1813L55.9317 53.0466L55.9815 53.0028L56.2896 52.3466L56.4001 52.1962L56.4997 51.5541L56.5588 51.4382L56.8576 51.1344L57.1144 50.9762L57.2809 50.9355L57.4723 51.042L57.6606 50.9277L57.8769 50.7037L58.0076 50.2449L58.1897 49.7954L58.1882 49.6701L58.1135 49.4916L58.2037 49.0625L58.4527 48.5785L58.434 47.7673L58.6223 47.6451L58.7826 47.2333L59.0939 46.7368L59.1545 46.5692L59.1297 46.1433L59.1841 46.0023L59.3351 45.8676L59.3771 45.6906L59.3646 45.592L59.4175 45.5215L59.4487 45.2271L59.5514 45.0345L59.833 44.7071L59.9202 44.6602L59.9155 44.928L59.7257 45.2224L59.6447 45.5889L60.0182 45.6515L60.3606 45.8128L60.9722 45.8754L61.453 46.1433L62.0864 46.3672L62.1844 46.3312L62.4381 45.4009L62.6668 45.0266L62.8505 44.8747L63.0294 45.0799L63.1913 45.3743L63.364 45.9553L63.4589 46.4408L63.6363 46.4486L63.7531 46.3312L63.7997 46.1746L63.8869 46.09L64.3164 46.1433L65.0213 46.0602L65.0556 46.1761L64.9684 46.4204L65.4555 46.6507L65.9768 46.7572L66.0842 46.7446L66.1636 46.2278L66.2492 46.2325L66.4841 46.6428L66.5557 46.6804L66.8327 46.5395L67.2249 46.2137L67.9298 46.0571H68.171L68.5694 45.8848L68.8402 45.675L69.6743 45.4526L70.0976 45.8379L70.1007 45.8974L69.8782 46.0634L69.8035 46.458L69.819 46.5097L70.0727 46.6413L70.0634 46.7885L70.0276 46.848L69.7801 47.0093L69.5949 47.6091L69.5872 47.8519L69.6837 48.4031L69.9482 48.945L70.4477 49.3553L70.4555 49.4289L70.3435 49.6513L70.3279 49.7562L70.4322 50.0256L70.468 50.2261L70.4291 50.3467L70.1987 50.6552L70.0431 50.8133L69.5405 50.7601L69.4004 50.4845L69.0238 50.2527L68.8418 50.486L68.932 51.0765L68.8433 51.161L68.7811 51.1814L68.3484 51.0028L68.1664 51.0389L68.1088 51.0827L67.9968 51.5807L68.1088 51.5964L68.1851 51.7781L68.0963 51.9253L67.9827 52.0349L67.989 52.3325L68.0543 52.428L68.1368 52.4578L68.2442 53.1249L68.1617 53.2079L67.6388 53.3489L67.2825 53.5853L67.0848 53.6041Z" fill="#08868B"/>
<path d="M67.0848 53.6041L66.9494 53.446L66.9821 53.0638L67.0739 52.8775L67.0646 52.5314L66.7798 52.2213L64.9202 52.2197L64.8611 52.8039L64.7179 53.0905L64.7988 53.601L67.0848 53.6041ZM67.0848 53.6041L67.0024 53.8422L67.0506 54.0881L66.9448 54.3371L66.7829 54.5328L66.7191 54.763L66.8514 54.9525L66.9837 55.0058L67.2047 55.1671L67.4614 55.8812V55.9752L67.1004 56.3996L66.5962 56.871L66.5293 57.2062L66.6989 57.38L66.839 57.3064L67.0848 57.3957L67.158 57.4912L67.186 57.6478L67.1595 57.759L67.0459 57.8999L66.9666 58.1959L67.1518 58.7378L66.6709 59.0604L66.4904 59.0917L66.3565 59.2327L66.2818 59.4081L65.5209 59.8372L65.4119 59.7166L64.735 59.4253L64.6494 59.5005L64.5592 59.5146L64.2868 59.5162L64.0565 59.4723L63.4558 59.4974L63.143 59.358L62.5003 59.7714L62.0475 60.2287H61.9961L61.7923 60.0063L61.5557 59.9594L61.0593 60.2162L60.482 60.1191L60.096 60.2694L59.749 60.354L59.5296 60.6829L59.3413 61.0682L59.3506 61.2248L59.2199 61.4284L59.0923 61.4722L58.9616 61.4472L58.8916 61.4691L58.7453 61.585L58.4901 61.9138L58.4014 62.2114L58.4885 62.3069L58.4869 62.3602L58.4309 62.3962L58.2971 62.3242L58.2597 62.2537L57.8458 61.9029L57.3556 61.8074L57.1035 61.5646L56.8078 61.4973L56.576 61.491L56.0546 61.2811L55.9488 61.148L55.4711 60.9037L55.3668 60.8082L55.1427 60.697L54.9653 60.6704L54.5452 60.4073L54.1125 60.4323L53.5212 60.3227L53.501 60.271L53.5414 60.1395L53.6301 59.9562L53.834 59.6806L53.8215 59.6148L53.4714 59.4739L53.294 59.5788L53.1913 59.549L53.1477 59.4848L53.1119 59.311L53.1524 58.9069L53.1228 58.6297L52.975 58.2852L52.947 57.748L52.7275 57.4051L52.7026 57.2939L52.7649 56.7598L53.1617 56.1569L53.2208 55.7011L53.3298 55.5805L53.6441 55.449L53.9429 55.1718L54.1374 54.8554L54.1888 54.5501L54.2666 54.3919L54.4658 54.229L54.5934 54.0051L54.6058 53.7639L54.8782 53.612L55.096 53.2016L55.5084 53.1813L55.9317 53.0466L55.9815 53.0028L56.2896 52.3466L56.4001 52.1962L56.4997 51.5541L56.5588 51.4382L56.8576 51.1344L57.1144 50.9762L57.2809 50.9355L57.4723 51.042L57.6606 50.9277L57.8769 50.7037L58.0076 50.2449L58.1897 49.7954L58.1882 49.6701L58.1135 49.4916L58.2037 49.0625L58.4527 48.5785L58.434 47.7673L58.6223 47.6451L58.7826 47.2333L59.0939 46.7368L59.1545 46.5692L59.1297 46.1433L59.1841 46.0023L59.3351 45.8676L59.3771 45.6906L59.3646 45.592L59.4175 45.5215L59.4487 45.2271L59.5514 45.0345L59.833 44.7071L59.9202 44.6602L59.9155 44.928L59.7257 45.2224L59.6447 45.5889L60.0182 45.6515L60.3606 45.8128L60.9722 45.8754L61.453 46.1433L62.0864 46.3672L62.1844 46.3312L62.4381 45.4009L62.6668 45.0266L62.8505 44.8747L63.0294 45.0799L63.1913 45.3743L63.364 45.9553L63.4589 46.4408L63.6363 46.4486L63.7531 46.3312L63.7997 46.1746L63.8869 46.09L64.3164 46.1433L65.0213 46.0602L65.0556 46.1761L64.9684 46.4204L65.4555 46.6507L65.9768 46.7572L66.0842 46.7446L66.1636 46.2278L66.2492 46.2325L66.4841 46.6428L66.5557 46.6804L66.8327 46.5395L67.2249 46.2137L67.9298 46.0571H68.171L68.5694 45.8848L68.8402 45.675L69.6743 45.4526L70.0976 45.8379L70.1007 45.8974L69.8782 46.0634L69.8035 46.458L69.819 46.5097L70.0727 46.6413L70.0634 46.7885L70.0276 46.848L69.7801 47.0093L69.5949 47.6091L69.5872 47.8519L69.6837 48.4031L69.9482 48.945L70.4477 49.3553L70.4555 49.4289L70.3435 49.6513L70.3279 49.7562L70.4322 50.0256L70.468 50.2261L70.4291 50.3467L70.1987 50.6552L70.0431 50.8133L69.5405 50.7601L69.4004 50.4845L69.0238 50.2527L68.8418 50.486L68.932 51.0765L68.8433 51.161L68.7811 51.1814L68.3484 51.0028L68.1664 51.0389L68.1088 51.0827L67.9968 51.5807L68.1088 51.5964L68.1851 51.7781L68.0963 51.9253L67.9827 52.0349L67.989 52.3325L68.0543 52.428L68.1368 52.4578L68.2442 53.1249L68.1617 53.2079L67.6388 53.3489L67.2825 53.5853L67.0848 53.6041Z" stroke="white" stroke-width="1.19048"/>
<path d="M73.5996 21.5074L73.5933 21.5591L73.2759 21.8958L73.209 21.9224L73.2027 22.1479L73.5093 21.8817L73.6151 21.6922L73.945 21.4448L74.0835 21.2662L74.2438 20.2749L74.4228 20.1653L74.5955 20.1465L74.8554 20.0024L74.9566 19.982L75.0281 20.0008L75.0406 20.2561L75.0095 20.3266L74.7885 20.6194L74.289 20.8935L74.2843 21.0062L74.3979 21.025L74.4679 20.8982L74.6469 20.8496L74.6811 20.9796L74.5893 21.0595L74.6282 21.1065L75.2834 20.3281L75.4172 20.3798L75.8187 20.2342L76.4474 20.3015L76.3758 19.9241L76.4707 19.8881L76.8473 19.9006L77.1243 19.9601L77.5336 20.1245L77.6954 20.1418L78.03 20.3579L78.2479 20.3626L78.444 20.5662L78.7381 20.7729L79.1271 20.8637L79.3076 20.834L79.3948 20.953L79.4477 20.9608L79.6951 20.9467L80.0779 21.0501L80.1184 20.9091L80.0141 20.8355L80.274 20.776L80.3627 20.7933L80.3487 20.859L80.2771 21.083L80.3129 21.1957L80.411 21.2803L80.3518 21.5199L80.0733 21.8754L79.4306 22.4972L78.9139 22.5692L78.7894 22.5442L78.335 23.0766L78.3412 23.3585L78.2043 23.6451L77.9102 23.9348L77.7826 24.2449L77.683 24.2716L77.5632 24.436L77.6192 24.7367L77.8106 24.8667L77.8697 25.0671L77.8262 25.2958L77.6487 25.7453L77.8946 26.1853L77.9802 26.652L77.9631 27.0326L77.9304 27.1187L77.2924 27.8109L77.2659 28.1993L77.2846 28.5298L77.364 28.89L77.641 29.2095L77.8915 29.352L77.918 29.4303L77.9382 29.5618L77.8775 29.9064L77.8324 29.9753L77.8137 30.1648L77.7359 30.3934L77.5476 30.5986L77.1912 30.644L77.0901 30.6002L76.9609 30.6064L76.5828 30.7411L76.3462 30.7583L75.9572 30.4733L75.8 30.4404L75.5728 30.4702L75.4156 30.5641L75.2413 30.6049L75.2056 30.5579L75.0748 30.5955L74.997 30.6299L74.7013 30.929L74.7029 31.0011L74.6049 31.1373L74.2921 31.4505L73.9279 31.5931L73.4813 31.994L73.2743 32.077L73.1109 32.0832L72.8464 32.3229L72.6783 32.3792L72.2722 32.4294L71.8489 32.5484L71.5174 32.8538L71.3649 33.3189L71.3042 33.784L71.2062 34.1474L70.9805 34.5765L70.9338 34.6109L70.8809 34.7394L70.8607 34.9774L70.674 35.3658L70.4094 35.585L70.2958 35.8983L70.4063 36.2021L70.4794 36.7001L70.7487 37.1793L70.7424 37.2608L70.6242 37.48L70.6039 38.4761L70.425 38.8598L70.3845 39.0258L70.3767 39.3264L70.1775 39.2231L70.0826 39.0947L69.955 39.0242L69.8009 38.9788L69.5239 39.0101L69.4135 38.9819L69.2034 38.6687L69.0493 38.2208L68.7178 37.9671L68.6961 37.7087L68.9513 37.4252L68.9388 37.3422L68.335 37.0368L68.2385 36.8724L68.2292 36.6124L68.1125 36.3634L67.9662 36.2553L67.6425 36.2115L67.6114 36.1457L67.6519 36.0345L68.0611 35.6367L68.0036 35.4316L68.1172 35.0119L68.2245 34.7879L68.3132 34.7018L68.5218 34.6172L69.0493 34.5624L68.9886 34.351L69.0882 33.842L69.0758 33.5663L68.7957 33.3768L68.1312 33.5241L67.7966 33.7339L67.4433 33.261L67.3017 33.1278L66.8349 32.4779L66.6979 32.4889L66.5672 32.2634L66.6621 32.077L66.645 31.9392L66.6061 31.8859L66.3929 31.8483L66.3276 31.8906L66.0272 31.6823L66.0552 31.5711L66.3291 31.4678L66.6014 31.1483L66.6403 30.8993L66.5968 30.7427L66.645 30.3731L66.9205 29.4084L66.922 29.341L66.8162 29.1625L66.7804 28.9933L66.8131 28.4108L66.7135 28.1758L66.6403 27.6293L66.5096 27.468L65.9805 27.2424L65.7907 27.2393L65.7471 27.1892L65.7346 27.0279L65.6428 26.9198L65.3721 26.8744L65.2227 26.9558L65.0048 26.9418L64.5722 26.7053L64.4384 26.6959L64.1333 26.7789L63.7256 27.0686L63.6431 27.1688L63.5669 27.1563L65.856 25.3036L66.2217 25.3396L66.4038 25.1956L66.645 24.8557L66.7119 24.6756L66.9531 24.4924L67.0496 24.0413L67.2239 23.9693L67.6036 23.606L67.6768 23.4165L67.7219 23.1189L67.9709 22.3844L68.2759 22.1432L68.5062 21.8676L68.6354 21.6405L68.7069 21.4401L68.6789 21.155L68.8019 21.0282L68.64 20.7807L69.2127 20.2968L69.1925 20.04L69.2703 19.6672L69.5411 19.4214L69.5971 19.3102L69.7371 18.8372L69.7496 18.5851L69.6827 18.5021L69.5286 18.5271L69.4866 18.4504L69.4944 18.3533L69.6718 18.3298L69.7605 18.2139L69.871 17.5264L69.8461 17.3103L69.9192 17.1489L70.039 17.0785H70.1371L70.1744 17.0409L70.1651 16.9563L70.218 16.8389L70.3083 16.7559L70.5168 16.9093L70.5868 17.1975L70.772 17.2163L70.8918 17.0033L70.9867 17.4622L71.1408 17.4684L71.1859 17.3917L71.1968 17.2445L71.3291 17.2382L71.5921 17.3212L71.6699 17.4293L71.4474 17.6955L71.5516 17.8051L71.5548 17.8913L71.7431 17.5718L71.8193 17.3306H71.8893L71.9516 17.4904V17.5812L71.8162 17.7253L71.7742 17.8803L71.7866 18.3047L71.8271 18.3564L71.9002 18.3752L71.9905 18.3533L72.1399 18.2076L72.0667 18.051L72.0885 17.9571L72.2939 17.7331L72.4573 17.694L72.7888 17.7864L73.0222 17.6125L73.03 17.7566L72.974 17.7895L72.7981 18.0291L72.89 18.1199L72.9055 18.062L73.1 17.968L73.1903 18.0917L73.1685 18.2812L73.4222 18.5553L73.556 18.4864L73.8019 18.5913L73.9217 18.9672L73.9046 19.116L73.5638 19.5435L73.5046 19.6829L73.5202 19.7863L73.6136 19.6249L73.8859 19.3618L74.0151 19.3571L74.1505 19.484L74.2314 19.78L74.1894 19.9726L74.0384 20.0024L73.8781 20.1449L73.6976 20.3782L73.7085 20.4988L73.528 20.8669L73.4315 21.4181L73.4642 21.4714L73.5996 21.5074ZM73.6805 21.5779L73.6712 21.4542L73.7536 21.2145L73.6898 21.047L73.7101 20.9436L73.8517 20.7494L73.9373 20.7197L73.945 21.0877L73.9108 21.2975L73.7863 21.3915L73.6805 21.5779ZM72.7001 17.5436L72.6316 17.4716L72.6192 17.3776L72.7437 17.2022L72.8744 17.1975L72.9802 17.2633L72.9958 17.3165L72.9662 17.3729L72.7001 17.5436ZM73.2448 18.1982L73.1996 18.1513L73.209 18.0682L73.3739 17.9289L73.4486 17.9398L73.5264 18.0729L73.5046 18.1685L73.4424 18.1419L73.2448 18.1982ZM71.0412 17.4449L71.0085 17.4371L71.1564 16.8764L71.2031 16.8905L71.2077 16.9266L71.1439 17.4058L71.0412 17.4449Z" fill="#08868B" stroke="white" stroke-width="1.19048"/>
<path d="M84.3262 58.5305L84.1846 58.4443L83.7893 58.3175L83.5434 58.33L83.3753 58.3801L83.2446 58.4757L82.9054 58.5211L82.6969 58.5007L82.9567 58.8562L82.9536 58.9831L82.7778 58.9659L82.6144 58.85L82.5661 58.8531L82.2284 59.0583L82.0464 59.3605L82.0931 59.4701L82.3 59.5751L82.3809 59.6784L82.3763 59.9791L82.3296 60.2203L82.3623 60.2845L82.5661 60.3393L82.5926 60.6087L82.5428 60.6745L82.395 60.7121L82.244 60.7074L82.1195 60.6525L81.8892 60.6666L81.8223 60.7528L81.8985 60.864L82.0168 60.9078L82.0868 60.8624L82.1678 60.8765L82.3389 61.0754L82.5366 61.5155L82.5817 61.896L82.4977 62.3612L82.2316 62.6885L82.0386 62.8232L81.9981 62.8921L81.9608 63.1614L81.8238 63.5201L81.6511 63.719L81.5002 64.2264L81.4146 64.2765L80.6131 64.2718L80.3455 64.5944L80.3206 64.6602L80.4124 65.1488L80.3237 65.3524L80.2552 65.7189L80.3003 65.7408L79.9066 66.1088L79.7137 66.1511L79.6265 66.2294L79.7417 66.339L79.3744 67.2865L79.0787 67.8676L79.0647 67.985L79.2888 68.0054L79.334 68.1009L79.3013 68.1823L78.9076 68.3358L77.4276 69.0453L77.2144 69.0766L77.2176 69.0045L77.1413 68.9779L76.7476 68.9356L76.6589 68.945L76.4068 69.0922L76.2123 69.1173L75.7143 69.1298L75.6583 69.0797L75.5789 69.0922L74.9409 69.371L74.7775 69.4916L74.5114 69.6122L74.4335 69.5683L74.0305 69.595L73.5777 69.8048L73.2011 69.9207L73.0952 69.9974L72.9007 70.1118L72.5584 70.1462L72.258 70.306L72.0666 70.5002L71.788 70.6051L71.4177 70.6442L71.0535 70.6317L71.052 70.555L71.1064 70.4782L71.0924 70.4234L70.9072 70.4751L70.8792 70.8353L70.9166 70.8713L70.9088 71.0029L70.7921 71.1564L70.5898 71.2065L70.5011 71.1391L69.9393 71.2957L69.9097 71.2127L69.5969 71.2503L69.4227 71.2112L69.1068 70.6928L69.2966 70.5816L69.2157 70.3138L68.9356 70.1838L68.657 69.9912L68.5465 69.739L68.629 69.4947L68.6586 68.9544L68.6181 68.494L68.9076 68.068L69.0165 67.7266L69.0243 67.5277L68.9885 67.4698L68.4127 67.263L68.2571 67.2709L68.2135 67.3272L68.0921 67.3758L67.8416 67.3836L67.8462 67.2505L67.7171 66.9389L67.5148 66.6585L67.4572 66.3124L67.409 66.2153L67.286 66.0994L67.3156 65.7956L67.5521 65.4777L67.5615 65.39L67.4992 65.1472L67.2067 64.9577L67.1164 64.8622L67.1615 64.491L67.2502 64.3329L67.2191 64.17L66.7102 63.6454L66.5079 63.6908L66.3757 63.791L66.1189 63.6688L65.7485 63.6861L65.7003 63.7816L65.7314 63.8536L65.6629 64.0087L65.2303 64.1152L65.0576 64.0478L64.8226 63.8208L64.6654 64.0165L63.3925 64.123L63.3209 64.1982L63.2462 64.3845L63.2882 64.7823L63.2244 64.8512L63.0392 64.7698L63.0377 64.3344L62.9988 64.1841L62.9427 64.123L62.8556 64.1152L62.8151 64.1449L62.7513 64.3219L62.6471 64.4691L62.563 64.5192L62.4665 64.5161L62.2782 64.1872L62.2269 63.9648L62.2487 63.8223L61.9872 63.6986L61.648 63.4762L61.3383 63.5686L61.0862 63.5342L60.8263 63.589L60.1587 63.4386L59.7619 63.4261L59.4927 63.1834L59.376 63.1614L59.1425 63.257L58.92 63.5216L58.6212 63.5796L58.2866 63.7534L58.0968 63.9304L58.145 63.5201L58.0532 63.0174L58.2073 62.3627L58.2975 62.3236L58.4314 62.3956L58.4874 62.3596L58.489 62.3063L58.4018 62.2108L58.4905 61.9132L58.7457 61.5844L58.892 61.4685L58.962 61.4466L59.0927 61.4716L59.2204 61.4278L59.3511 61.2242L59.3417 61.0676L59.53 60.6823L59.7495 60.3534L60.0965 60.2688L60.4824 60.1185L61.0598 60.2156L61.5562 59.9588L61.7927 60.0057L61.9966 60.2281H62.0479L62.5008 59.7708L63.1435 59.3574L63.4563 59.4968L64.057 59.4717L64.2873 59.5156L64.5596 59.514L64.6499 59.4999L64.7354 59.4247L65.4124 59.716L65.5213 59.8366L66.2823 59.4075L66.357 59.2321L66.4908 59.0911L66.6713 59.0598L67.1522 58.7372L66.967 58.1953L67.0464 57.8993L67.16 57.7584L67.1864 57.6472L67.1584 57.4906L67.0853 57.3951L66.8394 57.3058L66.6993 57.3794L66.5297 57.2056L66.5966 56.8704L67.1008 56.399L67.4619 55.9746V55.8806L67.2051 55.1665L66.9841 55.0052L66.8518 54.9519L66.7196 54.7624L66.7834 54.5322L66.9452 54.3365L67.051 54.0875L67.0028 53.8416L67.0853 53.6035L67.2829 53.5847L67.6393 53.3483L68.1622 53.2073L68.2446 53.1243L68.1373 52.4572L68.0548 52.4274L67.9894 52.3319L67.9832 52.0343L68.0968 51.9247L68.1855 51.7775L68.1092 51.5958L67.9972 51.5801L68.1092 51.0821L68.1668 51.0383L68.3489 51.0023L68.7815 51.1808L68.8438 51.1604L68.9325 51.0759L68.8422 50.4854L69.0243 50.2521L69.4009 50.4839L69.5409 50.7595L70.0436 50.8128L70.1992 50.6546L70.2786 51.032L70.056 51.5707L70.1183 51.6068L70.3268 51.4642L70.4357 51.3076L70.5478 51.2873L70.8792 51.3468L71.0411 51.2262L71.329 50.8237L71.483 50.8472L71.7056 50.7642L71.9872 50.5215L72.1351 50.3382L72.4494 50.274L72.9739 49.9827L73.0734 49.8089L73.7379 49.3344L74.3324 49.0869L74.6125 49.101L74.7993 49.1793L75.1385 49.184L75.4933 49.267L75.6256 49.3391L75.4248 49.7682L75.4015 49.9075L75.442 50.1409L75.5369 50.2192L76.3663 50.4479L76.4659 50.4212L76.592 50.2458L76.8845 50.1064L77.16 50.0657L77.5848 50.1832L77.756 50.2678L78.4329 50.8378L78.5854 50.8096L78.9231 51.0633L79.3168 51.2544L79.4616 51.2888L79.5409 51.256L79.779 51.4502L80.4622 51.2575L80.5213 51.2857L81.5359 52.2567L81.6044 52.8769L81.6931 52.844L82.0993 52.9145L82.328 52.8362L82.5335 52.6811L82.8431 52.7046L83.268 52.7923L83.6197 52.9614L83.9605 53.057L84.2904 53.0523L84.7308 53.4391L84.8444 53.4986L84.9829 53.5096L85.1043 53.6693L85.1696 53.8525L84.9409 54.3349L84.169 54.9958L84.1457 55.4108L84.2328 55.5706V55.6363L84.0741 55.7475L83.6881 55.7099L83.5605 55.8478L83.4329 56.3646L83.3504 57.0536L83.3847 57.0928L83.4391 57.063L83.4703 56.9926L83.5699 56.955L83.6601 57.1476L83.6259 57.3841L83.6492 57.464L84.2935 57.9432L84.376 58.1061L84.3775 58.1891L84.2717 58.4005L84.3262 58.5305Z" fill="#08868B" stroke="white" stroke-width="1.19048"/>
<path d="M58.0968 63.9314L58.0346 64.3167L57.991 64.3793L57.7576 64.5015L57.5521 64.5077L57.479 64.5422L57.2891 64.7035L56.9795 65.1232L56.8659 65.225L56.7087 65.272L56.6122 65.5351L56.5873 65.994L56.1843 66.564L56.0349 66.6454L55.9991 66.705L56.0473 67.0072L56.0349 67.156L55.8466 67.5225L55.5353 67.8764L55.5898 68.0095L55.5462 68.199L55.3221 68.3603L55.2599 68.5498L54.9907 68.8145L54.7946 69.1966L54.4911 69.4895L53.3147 70.1989L53.1186 70.3775L53.0034 70.6186L52.8727 70.7878L52.0308 71.1433L51.8581 71.2717L51.7134 71.6366L51.7165 71.8167L51.4908 72.3742L51.3866 72.4807L51.1282 72.6389L50.9555 72.689L50.9042 72.7438L50.6598 73.9842L50.6038 74.1126L50.2334 74.3569L49.8366 73.992L49.306 73.696L48.685 74.0045L48.5792 74.122L48.3209 74.1987L47.9194 74.2661L47.5521 74.194L47.395 74.0922L47.3218 73.4235L47.272 73.3139L47.132 73.1651L47.0962 72.7783L47.1755 72.5684L47.076 72.4447L47.0619 72.3758V71.9263L46.9234 71.6178L46.8301 71.1887L46.8223 71.0759L46.9141 70.8629L46.9172 70.6108L46.6729 70.4401L46.6138 70.3148L46.5889 69.9765L46.3321 69.6915L45.9944 69.6508L45.7594 69.6993L45.4746 69.6539L45.0918 69.347L45.0047 69.1136L44.765 69.1653L44.4273 69.5944L44.2717 69.5004L44.0041 69.6273L43.836 69.6524L43.5652 69.5443L43.1668 69.4676L42.6284 69.5036L42.0588 69.3924L41.9841 69.2499L41.6745 69.2295L41.536 69.3109L41.1469 69.1731L41.2885 68.0346L41.2216 67.6618L41.315 67.4395L41.4675 67.2108L41.5609 66.2665L41.4581 65.9016L41.4504 65.6306L41.3321 65.4803L41.2652 65.4662L41.1889 65.568L41.0893 65.0574L40.9664 64.7646L40.7781 64.4482L40.7236 64.1616L41.3508 63.8014L41.469 63.6636L40.8154 63.0591L41.6527 61.2706L41.827 61.2612L41.7834 60.9276L41.6682 60.9073L42.1709 59.2895L42.2736 59.1078L41.7927 58.1917L41.7974 57.8925L41.9063 57.9239L42.0651 58.0961L42.3996 58.3342L43.2742 58.0256L43.5932 57.7124L43.9076 57.2504L43.9216 57.0672L44.1394 56.8401L44.5425 56.8448L44.7853 56.8104L44.9051 56.8636L45.1634 56.7837L45.3735 56.588L45.6878 56.5112L45.8855 56.5426L46.0037 56.7227L46.4379 56.9184L46.8456 56.992L46.9468 57.0468L46.9888 57.1815L47.1102 57.3413L47.5817 57.5229L47.7778 57.6968L47.9708 57.786L48.6741 57.6874L48.8702 57.5621L48.9465 57.429L49.169 57.3334L49.5487 57.3444L49.7961 57.5073L49.8428 57.7218L49.8802 57.761L50.0342 57.7672L50.3657 57.6294L50.5229 57.6388L51.3975 56.6976L51.606 56.6772L51.4146 57.7124L51.1345 57.8221L50.8761 58.2653L50.8466 58.3373L50.8699 58.4203L51.0722 58.4375L51.343 58.6364L52.0619 58.6787L52.1506 58.5894L52.5646 58.5769L52.7 58.5894L52.8821 58.6787L53.1233 58.6302L53.1528 58.9074L53.1124 59.3114L53.1482 59.4853L53.1917 59.5495L53.2944 59.5792L53.4718 59.4743L53.822 59.6152L53.8344 59.681L53.6306 59.9566L53.5419 60.1399L53.5014 60.2714L53.5216 60.3231L54.113 60.4327L54.5456 60.4077L54.9658 60.6708L55.1432 60.6974L55.3673 60.8086L55.4715 60.9041L55.9493 61.1484L56.0551 61.2816L56.5764 61.4914L56.8083 61.4977L57.104 61.565L57.3561 61.8078L57.8463 61.9033L58.2602 62.2541L58.2976 62.3246L58.2073 62.3637L58.0532 63.0184L58.145 63.5211L58.0968 63.9314Z" fill="#08868B" stroke="white" stroke-width="1.19048"/>
<path d="M34.4443 47.6814L34.6731 47.4575L35.3127 47.055L35.3936 46.6713L35.6161 46.0793L35.7609 45.9102L36.0161 45.8272L36.083 45.7629L36.1733 45.6314L36.2542 45.279L36.5125 44.9642L36.5996 44.6134L36.6105 44.3456L36.5203 44.1123L36.5265 43.7912L36.2884 43.2681L36.1484 43.2728L36.0581 43.193L35.9912 42.684L36.013 42.4773L36.2246 42.3081L36.4425 42.0341L36.4689 41.9166L36.2495 41.3544L36.083 41.287L35.9103 41.2698L35.3656 41.2839L35.1757 41.1101L35.2131 41.0224L32.5427 41.0145L32.6828 39.605L32.4493 39.1744L32.4073 38.8987L32.412 38.7735L32.5676 38.2222L32.5085 37.9199L32.6547 37.6584L32.5256 37.3029L32.5022 37.0852L32.4618 36.9897L32.3404 36.9161L32.3311 36.8612L32.5318 36.0798L32.6501 35.8574L32.5567 35.6632L32.3388 35.5113L39.7851 35.4612L39.9734 35.3468L40.1571 34.5293L40.3718 33.8684L40.3002 33.5646L40.1975 33.3501L40.182 33.2169L40.2473 33.0838L40.3812 32.9836L40.5679 32.6986L40.6099 32.5404L40.557 32.4088L40.5663 32.2898L40.5975 32.1943L40.7811 32.0063L40.9632 32.1755L41.3444 32.8113L41.4067 33.087L41.6199 33.7071L41.8253 34.0094L41.9451 34.2631L41.9093 34.6452L41.984 35.0211L42.0976 35.3656L42.3357 35.5395L42.8026 35.9701L43.3286 36.2364L43.3644 36.3836L43.3581 36.5559L43.3939 36.6326L43.5418 36.6952L43.6694 36.6686L43.923 36.7391L44.0071 36.8518L44.0382 37.021L44.0926 37.0711L44.3058 37.0006L44.8801 37.234L50.1773 37.613L59.9766 38.158L59.8754 38.3177L59.7883 38.6137L59.6171 38.8095L59.5486 39.3012L59.4817 39.4343L59.4241 39.4766L59.1222 40.3051L59.0382 40.7702L59.032 41.2322L58.7394 42.1703L58.7487 42.305L58.965 42.5149L58.9401 42.6511L58.8125 42.7905L58.8048 42.8688L58.9759 43.2212L58.9028 43.7395L58.9044 43.9854L58.9853 44.0763L59.0537 44.5539L58.9386 44.9862L59.0911 45.5092L59.2405 45.5891L59.365 45.5922L59.3774 45.6909L59.3354 45.8679L59.1845 46.0026L59.13 46.1435L59.1549 46.5695L59.0942 46.7371L58.783 47.2335L58.6227 47.6454L58.4344 47.7675L58.4531 48.5788L58.2041 49.0627L58.1138 49.4918L58.1885 49.6704L58.1901 49.7956L58.008 50.2451L57.8773 50.704L57.661 50.9279L57.4727 51.0423L57.2813 50.9358L57.1147 50.9765L56.858 51.1347L56.5592 51.4385L56.5001 51.5544L56.4005 52.1965L56.29 52.3468L55.9818 53.003L55.9321 53.0469L55.5088 53.1815L55.0964 53.2019L54.8785 53.6122L54.6062 53.7641L54.5937 54.0053L54.4661 54.2293L54.2669 54.3921L54.1891 54.5503L54.1378 54.8557L53.9433 55.1721L53.6445 55.4493L53.3301 55.5808L53.2212 55.7014L53.1621 56.1571L52.7652 56.7601L52.703 57.2941L52.7279 57.4053L52.9473 57.7483L52.9753 58.2855L53.1231 58.63L52.8819 58.6785L52.6999 58.5893L52.5645 58.5767L52.1505 58.5893L52.0618 58.6785L51.3429 58.6363L51.0721 58.4374L50.8698 58.4201L50.8465 58.3371L50.876 58.2651L51.1344 57.8219L51.4145 57.7123L51.6059 56.6771L51.3973 56.6974L50.5228 57.6387L50.3656 57.6293L50.0341 57.7671L49.8801 57.7608L49.8427 57.7217L49.796 57.5071L49.5486 57.3442L49.1689 57.3333L48.9464 57.4288L48.8701 57.5619L48.674 57.6872L47.9706 57.7859L47.7777 57.6966L47.5816 57.5228L47.1101 57.3411L46.9887 57.1814L46.9467 57.0467L46.8455 56.9919L46.4378 56.9183L46.0036 56.7225L45.8854 56.5424L45.6877 56.5111L45.3734 56.5878L45.1633 56.7836L44.905 56.8634L44.7851 56.8102L44.5424 56.8446L44.1393 56.8399L43.9215 57.067L43.9075 57.2503L43.5931 57.7123L43.2741 58.0255L42.3995 58.334L42.0649 58.096L41.9062 57.9237L41.7973 57.8924L41.6946 57.7874L41.6448 57.6621L41.7288 57.551L41.3491 57.2142L41.1499 57.3129L41.069 57.3051L40.8869 57.1986L40.8169 57.089L40.5025 56.8681L40.2084 56.7491L40.1617 56.699L40.1151 56.5236L40.0793 56.0647L39.9843 55.7875L39.9548 55.2143L40.0917 54.9575L40.2691 54.7868L40.322 54.508L40.3142 54.212L40.1649 54.2214L40.1026 54.3154L40.0435 54.3405L35.8636 54.1713L35.7002 52.1902L34.8645 51.2302L35.6239 51.2208L35.5695 50.0384L35.1586 49.2052L35.0824 48.8967L35.1228 48.7307L35.2178 48.6446L35.3189 48.4441L35.0948 47.9852L34.6109 47.8224L34.4443 47.6814Z" fill="#08868B" stroke="white" stroke-width="1.19048"/>
<path d="M59.9761 38.158L50.1769 37.613L44.8797 37.234L44.3054 37.0006L44.0922 37.0711L44.0378 37.0225L44.0066 36.8518L43.9211 36.7391L43.6674 36.6686L43.5398 36.6952L43.392 36.6342L43.3562 36.5559L43.3624 36.3836L43.3266 36.2364L42.8006 35.9701L42.3338 35.5379L42.0941 35.364L41.9821 35.0195L41.9074 34.6452L41.9432 34.2631L41.8233 34.0078L41.6164 33.7056L41.4032 33.0869L41.3425 32.8113L40.9612 32.1755L40.7776 32.0063L40.6889 31.9186L40.6655 31.6117L40.5659 31.4144L40.3185 31.17L40.152 31.0792L40.0944 30.9899L39.9653 30.6235L39.9699 30.4465L40.0602 30.2946L40.2858 30.1176L40.4072 29.9125L45.0602 19.8519L44.7785 19.5903L44.7987 19.4682L44.7692 19.393L44.5529 19.4478L44.4206 19.5433L44.1296 19.4212L43.9584 19.0813L43.5398 18.8543L43.3422 18.6444L43.3297 18.5504L43.1243 18.422L42.9111 18.3985L42.561 18.2967L42.1906 18.0916L41.898 17.9866L41.6879 17.8159L41.5899 17.675L40.8772 17.2772L40.1551 16.6868L40.1084 16.6179L40.1022 16.4722L40.0166 16.1856L39.7303 15.993L39.6213 16.0228L39.5653 15.9914L39.2805 15.6813L39.2883 15.3509L39.3428 15.2428L39.3148 15.1786L39.0518 15.0455L39.0144 14.939L38.9864 14.5835L39.0533 14.3564L38.9911 13.5953L38.7437 10.9376L38.8604 10.9878L38.9273 11.0786L38.9242 11.1538L38.9942 11.2164L39.1374 11.2603L39.3506 11.1491L39.4237 11.0222L39.8454 11.0582L39.9715 10.8938L39.8874 10.6103L40.166 10.5539L40.3854 10.2987L40.7963 10.4568L41.0888 10.4615L41.1728 10.2235L41.6911 9.96979L41.9976 10.0309L42.1781 10.0136L42.2544 9.97449L42.4411 9.7427L42.5034 9.52345L42.7306 9.35118L42.8644 9.33395L42.9656 9.40599L43.2939 9.22902L43.3577 9.24625L43.4153 9.40129L43.5289 9.47177L43.8448 9.54694L44.0954 9.58609L44.1825 9.49213L44.4424 9.43105L44.5638 9.4749L44.6914 9.47334L44.8252 9.42009L45.1738 9.46707L45.9005 9.68319L46.0499 9.66127L46.2055 9.52502L46.2009 9.16795L45.8787 8.77642L45.6858 8.67776L45.762 8.41465L45.9659 8.18757L46.0094 8.01373L46.0577 7.98711L46.1682 8.01686L46.2973 8.13589L46.663 8.30973L48.4713 7.94482L48.7156 8.20949L48.8744 8.21889L48.9428 8.17347L49.0393 8.26274L49.0969 8.62294L49.0004 8.82654L48.9615 9.53755L48.9989 9.76306L49.0471 9.84763L49.2292 9.85076L49.3972 9.80535L49.9248 9.86329L50.1255 9.94003L50.4259 10.1045L50.5301 10.2298L50.6064 10.4302L50.7916 10.449L50.969 10.5806L51.0935 10.734L51.2242 10.7763L51.4312 10.7544L51.4903 10.6886L51.6366 10.6667L52.0785 11.0833L52.1844 11.0786L52.2606 11.2634L52.1548 11.2994L52.1252 11.4122L52.2435 11.8554L52.5578 12.2093L52.9578 12.3236L52.9842 12.3753L52.9173 12.8671L52.9469 13.1975L53.0512 13.434L53.1476 13.5217L53.2394 13.8052L53.2192 14.0526L53.4526 14.5976L53.5803 14.6274L53.7016 14.571L54.1576 15.0847L54.1451 15.4652L54.209 15.6124L54.3568 15.6422L54.4081 15.7158L54.4564 15.9632L54.4237 16.0713L54.4408 16.2749L54.7318 16.4926L54.7987 16.7275L55.0244 16.8888L55.4586 16.9953L55.6609 16.9765L55.7807 16.9233L55.927 16.9327L55.8445 17.0485L55.8896 17.2976L55.8632 17.3806L55.6624 17.5544L55.4461 17.581L55.3683 17.5528L55.2376 17.4291L55.1349 17.4056L54.6089 17.6531L54.5513 17.7376L54.3023 17.8504L54.2043 17.8473L53.9631 17.9397L53.9693 18.0305L54.9746 17.8645L55.1115 17.9678L55.1318 18.0399V18.1432L55.0353 18.2216L55.082 18.2779L55.18 18.2466L55.3138 18.09L55.4726 18.0884L55.555 18.0461L55.6484 18.0649L55.8149 17.9992L55.9923 17.9099L56.5028 17.5434L56.7362 17.4886L57.0225 17.3618L57.5143 17.0736L57.5983 16.917L57.7026 16.8356L58.0278 16.6774L58.1305 16.5646L58.0916 16.4597L58.1243 16.3955L58.3001 16.3516L58.4698 16.361L58.5336 16.3939L58.5927 16.989L58.5118 17.3931L58.5631 17.6468L58.6892 17.8974L58.893 18.1088L58.9397 18.3656L58.9211 18.4392L58.6347 18.7274L58.5616 18.7478L58.4262 18.6663L58.143 18.5849L57.9469 18.5363L57.8022 18.5583L57.4707 18.3954L57.4302 18.22L57.2933 18.137L56.9385 18.7352L56.8436 19.1064L56.9494 19.5715L57.0241 19.6718L57.1672 19.7689L57.0101 19.5903L56.9432 19.169L56.9618 19.0876L57.3618 18.4267L57.7212 18.6115L57.7384 18.682L58.1321 19.0657L58.0932 19.382L57.978 19.4682L58.0403 19.8331L58.1212 20.01L58.2955 20.1275L58.4106 20.151L58.4916 20.2277L58.4386 20.1275L58.3188 20.0899L58.1321 19.927L58.0978 19.8205L58.1507 19.1628L58.2784 18.9764L58.5009 19.0907L58.6301 19.2787L58.616 19.4024L58.8028 19.5371L58.8417 19.4917L58.6861 19.2943L58.5429 18.9654V18.8965L58.8946 18.5332L59.1467 18.5473L59.447 18.6475L59.5 18.7352L59.405 18.8276L59.4548 18.8715L59.5295 18.8762L59.6898 18.8496L59.8968 18.7086L60.5333 18.5583L60.6531 18.5896L60.9239 18.7556L61.4172 18.6898L61.5837 18.6256L61.7424 18.4674L61.8949 18.375L62.1657 18.2952L62.2855 18.3061L62.2949 18.4236L61.9774 19.0532L61.94 19.2881L61.8685 19.4556L61.7393 19.6169L61.7377 19.7548L61.828 19.9771L61.7782 20.364L61.9151 20.1776L61.9167 19.9584L62.1564 19.4885L62.3322 18.9889L62.5065 18.7446L62.5485 18.7023L62.6668 18.6945L62.757 18.6397L63.0403 18.6037L63.1772 18.3923L63.4122 18.1276L63.6238 17.7736L63.7047 17.7016L63.8277 17.7783L63.9242 17.7063L64.1763 18.0728L64.3615 18.1652L64.3537 18.0493L64.2992 17.9318L64.3957 17.7736L64.9419 17.6938L64.7816 17.6437L64.2354 17.7157L64.1872 17.6828L64.2323 17.3023L64.3117 17.2568L64.4159 17.3163L64.5746 17.3336L64.7412 16.8481L64.6353 16.6304L64.64 16.5239L64.8221 16.2404L65.264 15.852L65.3201 15.8395L65.4928 16.0181L65.9488 15.6907L66.0203 15.6798L66.0826 15.7503L66.0981 15.8395L66.0484 15.9444L66.2149 15.9194L66.3409 15.8286L66.3969 15.7064L66.495 15.6766L66.5386 15.7001L66.6537 15.9178L66.8607 16.1058L66.8918 16.0181L66.8747 15.9585L66.7253 15.8818L66.7035 15.8364L66.6833 15.6485L66.7097 15.5827L66.7782 15.5529L67.133 15.5936L67.3166 15.6954L67.4131 15.8552L67.6668 15.9664L67.9235 15.8442L68.006 16.1794L67.9282 16.2279L67.9235 16.3203L68.0667 16.2389L68.2472 15.8708L68.3064 15.9069L68.2706 16.1152L68.3344 16.1841L68.725 16.1433L68.795 16.2451L68.8666 16.5082L68.7732 16.657L68.9055 16.5787L68.946 16.6367L69.2401 16.6586L69.7894 16.4644L69.7412 16.7118L69.6244 16.9984L69.8532 16.9217L69.945 16.8246L70.0431 17.0783L69.9232 17.1488L69.8501 17.3101L69.875 17.5262L69.7645 18.2137L69.6758 18.3296L69.4984 18.3531L69.4906 18.4502L69.5326 18.5269L69.6867 18.5019L69.7536 18.5849L69.7412 18.837L69.6011 19.31L69.5451 19.4212L69.2743 19.6671L69.1965 20.0398L69.2167 20.2966L68.6441 20.7806L68.8059 21.028L68.683 21.1549L68.711 21.4399L68.6394 21.6403L68.5102 21.8674L68.2799 22.1431L67.9749 22.3842L67.7259 23.1187L67.6808 23.4163L67.6076 23.6058L67.2279 23.9691L67.0536 24.0412L66.9572 24.4922L66.716 24.6754L66.649 24.8555L66.4078 25.1954L66.2258 25.3395L65.8601 25.3034L63.5709 27.1561L63.6472 27.1687L64.0035 27.2955L64.2945 27.2579L64.4953 27.2767L64.654 27.5367L64.7147 27.5852L64.8501 27.6072L65.0462 27.7904L65.04 27.8891L64.9824 27.994L64.8703 28.0519L64.7194 28.0629L64.6742 28.1068L64.6883 28.3276L64.8454 28.5374L64.7023 28.9681L64.6027 29.0433L64.3755 29.1153L64.3366 29.1874L64.3817 29.3753L64.3521 29.5852L64.1498 29.6086L63.9148 29.8185L63.7826 30.0174L63.8059 30.2539L63.7686 30.3322L63.3795 30.5201L62.8488 30.6986L62.4645 30.9774L62.4349 31.0322L62.5018 31.3752L62.5112 31.7933L62.312 32.1222L62.0925 32.3853L62.0692 32.4746L62.0957 32.6124L62.1875 32.7628L62.4474 33.0353L62.5641 33.0854L62.5874 33.1324L62.4847 33.7651L62.2108 34.5716L62.0428 34.6985L61.7782 35.2059L61.7502 35.3609L61.6039 35.6021L61.4888 35.7352L61.3254 35.7603L61.1122 35.9044L60.9519 36.205L60.7636 36.4681L60.5799 36.6389L60.401 36.8863L60.2251 37.5848L59.9761 38.158ZM63.269 17.7502L62.5656 18.0571L62.0381 18.1386L61.7237 18.09L61.6226 18.267L61.3362 18.4533L61.2242 18.3578L61.1293 18.1182L61.0935 18.162L61.1588 18.3547L61.1059 18.4815L60.9954 18.5457L60.4088 18.2889L60.2843 18.4017L59.6322 18.599L59.1343 18.5097L59.0082 18.4142L58.9709 18.1245L58.9351 18.0602L58.7623 17.9005L58.5974 17.6499L58.5647 17.3712L58.6456 16.9405L58.7421 16.881L59.016 16.9374L59.1607 16.8199L59.1732 16.7322L58.9709 16.7995L58.781 16.7792L58.6347 16.668L58.6067 16.5035L58.6596 15.708L58.7732 15.5889L58.8277 15.7064L59.1016 15.8004L59.1872 15.791L59.1156 15.7252L58.9179 15.6907L58.7779 15.3525L58.8339 15.0894L58.9724 14.7808L59.1794 14.5725L59.3288 14.4833L59.5373 14.4065L59.7427 14.3862L60.2812 14.4676L61.4032 14.7448L61.9789 14.6728L61.9961 14.6258L62.1735 14.5287L62.5096 14.4708L62.9593 14.5162L63.3951 14.6446L64.4035 14.7777L64.5015 14.8513L64.4937 15.0439L64.3848 15.1598L64.279 15.3947L64.223 15.8098L64.0891 16.3266L63.8884 16.4331L63.8339 16.5411L63.8697 16.7275L63.5616 17.1315L63.3453 17.6797L63.269 17.7502ZM55.9223 17.7235L55.8056 17.6437L55.9768 17.2913L55.9628 17.011L56.0017 16.9781L56.3643 16.9029L56.5043 16.7682L56.5277 16.6899L56.4965 16.3234L56.6304 15.9194L56.8264 15.686L57.1828 15.4558L57.6294 15.4245L57.7415 15.7941L57.5703 16.1371L57.438 16.6132L57.2668 16.7181L57.0583 17.036L56.9369 17.1488L56.1682 17.6672L55.9223 17.7235ZM60.3543 14.1372L60.194 14.098L59.8127 14.1105L59.6898 14.0855L59.6447 14.0448L59.5855 13.8741L59.5871 13.6799L59.8221 13.6141L60.1162 13.6204L60.457 13.4183L61.2055 13.3244L61.3254 13.3651L61.4312 13.4716L61.4032 13.6313L61.0048 13.849L60.7278 14.2374L60.5566 14.3157L60.3543 14.1372ZM61.0997 14.1372L61.3892 13.9492L61.6973 13.9539L61.954 14.051L62.0365 14.2061L62.0443 14.3032L61.9074 14.4238L61.4639 14.4676L61.2818 14.5177L60.9301 14.3784L60.899 14.2953L61.0997 14.1372ZM58.4573 14.8247L58.3795 14.784L58.2846 14.7902L58.0449 14.6822L58.0776 14.5005L58.1772 14.3564L58.476 14.2938L58.8432 14.1528L59.0487 14.1654L59.1732 14.2719L59.1872 14.2922L58.8868 14.5444L58.7203 14.5976L58.4573 14.8247ZM59.9232 13.3071L59.7956 13.2602L59.7692 13.0002L59.7925 12.9062L59.9746 12.7011L60.3559 12.557L60.3948 12.5758L60.4772 12.6823L60.4835 12.8217L60.18 13.1333L59.9232 13.3071ZM57.771 16.4738L57.7493 16.4096L57.7788 16.2639L57.9407 15.8239L58.3437 15.5592L58.4558 15.5153L58.5631 15.5373L58.5382 15.8176L58.2955 15.8865L58.0434 16.2295L57.771 16.4738ZM59.4688 13.7222L59.2836 13.6736L59.237 13.5984L59.3739 13.4481L59.4844 12.8295L59.6229 12.6369L59.668 12.6572L59.6789 12.7073L59.6758 13.0957L59.7692 13.3886L59.7194 13.5264L59.5591 13.589L59.4688 13.7222ZM57.1641 15.318L57.1221 15.2883L57.1408 15.1927L57.2264 15.1363L57.4116 14.8685L57.5298 14.6274L57.6434 14.524L57.8691 14.4394L57.838 14.6728L57.7757 14.8294L57.508 15.0894L57.1641 15.318ZM59.3225 14.217L59.2292 14.1936L59.0985 14.0824L58.9491 13.8255L58.9413 13.766L58.9771 13.7206L59.1031 13.6298L59.391 13.7613L59.4362 13.8287L59.4735 14.156L59.3225 14.217ZM58.4853 19.003L58.3842 18.9858L58.2472 18.9044L58.1399 18.9764L58.0231 18.9326L57.7617 18.6601V18.5645L57.9609 18.563L58.4371 18.7697L58.4853 19.003ZM55.194 18.1354L55.2002 17.9741L55.1691 17.9271L55.2625 17.7721L55.6297 17.6343L55.7511 17.6938L55.8865 17.8285L55.8414 17.8833L55.6811 17.9569L55.2858 18.0211L55.194 18.1354ZM57.1704 17.0877L57.1423 17.083L57.1439 17.0282L57.2279 16.881L57.5065 16.6273L57.5718 16.4331L57.5796 16.2295L57.617 16.1825L57.6668 16.2514V16.4879L57.5283 16.9154L57.4318 17.0172L57.1704 17.0877ZM58.1507 15.5373L58.4075 15.0737L58.5445 15.0408L58.655 15.0706L58.697 15.2068L58.6067 15.318L58.1507 15.5373ZM63.0403 18.5081L62.9095 18.4533L62.8566 18.2873L63.0185 18.018L63.185 17.9663L63.2146 17.9819L63.2114 18.0978L63.0963 18.4486L63.0403 18.5081ZM57.8302 15.459L57.7461 15.4276L57.7959 15.1082L58.0029 14.8247L58.0387 14.831L58.2395 14.9688L58.2379 15.0079L57.9967 15.1082L57.8302 15.459ZM58.1772 16.2467L58.2892 16.2514L58.227 16.3219L58.0807 16.3704L58.0636 16.5458L57.9407 16.657L57.6777 16.7886L57.6528 16.7604L57.6948 16.6304L57.7679 16.5317L58.0371 16.2702L58.1772 16.2467ZM54.6665 17.8457L54.5809 17.8159L54.57 17.7611L54.6369 17.6985L55.1909 17.4479L55.2749 17.5575L55.2734 17.5888L55.0555 17.7032L54.6665 17.8457ZM64.5529 17.0971L64.3926 17.0673L64.265 16.9436L64.4004 16.7479L64.6089 16.7463L64.6385 16.9327L64.6229 17.0251L64.5529 17.0971ZM58.7561 14.1372L58.3888 14.2468L58.297 14.2484L58.269 14.2155L58.4293 14.0526L58.5911 13.9727L58.753 13.9994L58.8215 14.0526L58.8448 14.0886L58.8215 14.1215L58.7561 14.1372ZM57.936 15.4824L57.9235 15.3634L57.9625 15.2851L58.3484 15.0565L58.2083 15.3697L58.0823 15.4684L57.936 15.4824ZM58.269 16.1919L58.199 16.1731L58.1881 16.1371L58.3095 15.9022L58.4947 15.9053L58.476 16.1167L58.269 16.1919ZM62.6325 18.671L62.589 18.635L62.729 18.3844L62.8348 18.3218L62.8706 18.4392L62.95 18.4972L62.9095 18.5786L62.8426 18.6319L62.7446 18.6037L62.6325 18.671ZM58.4838 15.0189L58.3453 15.0079L58.3484 14.9782L58.7156 14.69L58.7219 14.8403L58.6861 14.939L58.6472 14.9923L58.4838 15.0189ZM68.9817 16.6194L68.9226 16.5364L68.9522 16.4174L69.1109 16.2749L69.1498 16.2984L69.1856 16.5725L68.9817 16.6194Z" fill="#08868B" stroke="white" stroke-width="1.19048"/>
<path d="M97.2316 32.5051L96.8425 32.1825L96.7149 32.1418L96.3026 32.1089L95.9431 32.2765L95.7128 32.477L95.6427 32.7589L95.3471 32.9202L95.0343 32.9906L94.8569 32.9875V33.0815L94.7324 33.1645L94.3931 33.2099L93.7893 33.1692L93.5388 33.307L93.4532 33.4072L93.17 33.4229L93.0315 33.5309L92.9474 33.65L93.0081 33.7643L93.0097 33.8489L92.9474 33.924L92.6704 34.1636L92.4619 34.1887L92.2051 34.3202L91.9562 34.1965L91.8083 34.0493L91.7538 33.6985L91.7912 33.6218L91.7632 33.5748L91.5858 33.5247L91.5173 33.5701L91.2823 33.6092L91.2885 33.5388L91.6823 33.1253L91.7087 33.058L91.5967 32.7651L91.5904 32.6915L91.648 32.5694L92.1149 32.4018L92.132 32.3548L92.0542 32.1371L91.5095 31.8364L91.2792 31.9006L90.9337 32.098L90.789 32.3344L90.5587 32.4707L90.3953 32.5192L89.9751 32.8137L89.7386 33.0705L89.4849 33.1065L89.0757 33.2584L88.9558 33.2068L88.9636 33.1003L88.8656 32.9061L88.8064 32.8935L88.6617 33.0079L88.4267 33.058L88.2727 33.0063L88.0548 32.7072L87.9926 32.6931L87.9661 32.6539L88.1513 32.4785L88.4018 31.932L88.3489 31.7456L88.2415 31.7331L88.0486 31.5937L88.0517 31.3337L87.9972 31.2209L87.907 31.1755L87.8696 31.1113L87.8883 30.9657L87.9148 30.9062L88.0844 30.8075L88.1871 30.6023L88.1062 30.3972L88.2665 29.9273L88.3972 29.7472L88.4096 29.6627L88.4983 29.5906L88.7987 29.8475L88.9387 29.9133L89.3869 30.0088L89.5674 29.8318L90.0701 29.5718L90.1977 29.4607L90.2132 29.2978L90.277 29.149L90.7719 28.9595L90.9944 28.9407L91.5017 28.7778L91.6013 28.7904L91.6838 28.8593L91.6854 29.0456L91.2201 29.5484L91.1516 29.6987L91.0925 29.9712L91.0287 30.0307L90.8964 30.0699L90.8637 30.1184L90.8513 30.3878L91.4006 30.4692L91.4504 30.5052L91.4986 30.7214L91.5438 30.7574L92.034 30.56L92.3094 30.5475L92.6129 30.5945L92.7514 30.7777L92.6704 31.0189L92.7996 31.1348L93.1653 30.9892L93.2431 30.8733L93.3287 30.6838L93.2556 30.5366L93.2307 30.3142L93.3054 30.2218L93.4625 30.2719L93.3801 30.0323L93.268 29.9101L93.3163 29.6783L93.5995 29.4669L93.8142 29.4591L93.8796 29.5202L93.864 29.6768L93.9605 29.7535L94.4927 29.8162L94.5752 29.871L95.4824 29.8099L95.8201 29.8569L96.203 30.0291L96.3648 29.9665L96.9095 29.9994L97.0542 29.9618L97.0682 30.3377L97.2938 31.0252L97.3032 31.1254L97.2752 31.2726L97.2176 31.3431L97.2129 31.4809L97.3032 31.365L97.3825 31.1301L97.3841 31.4402L97.4759 31.5984L97.4339 32.4096L97.3779 32.5036L97.2316 32.5051Z" fill="#08868B" stroke="white" stroke-width="1.19048"/>
<path d="M89.116 36.897L88.9262 36.4209L88.9246 36.2737L88.5963 36.139L88.5185 36.081L88.4484 35.951L88.5434 35.8117L88.5402 35.7146L88.4702 35.6645L88.3146 35.666L88.2477 35.7349L88.2025 36.0074L88.1356 36.0309L88.0749 35.9902L87.9909 35.7318L87.745 35.5517L87.2797 35.4891L86.9125 35.3685L86.7024 35.2416L86.5732 35.0161L86.3414 34.9284L86.2495 34.9456L85.8558 35.1743L85.5991 35.2432L85.4792 35.5642L85.1322 35.6347L85.0871 35.6739L85.126 35.8868L85.0995 35.9792L84.9284 36.1734L84.5564 36.3347L84.4568 36.3253L84.337 36.2423L84.2187 36.269L84.1409 36.4052L84.0211 36.9643L83.5745 37.1021L83.4469 37.2462L83.2975 37.2822L83.0111 37.1851L83.1543 36.922L83.1139 36.6088L82.7699 36.4663L82.6579 36.1625L82.6672 35.7349L82.5988 35.6551L82.1615 35.4389L81.8191 35.3935L81.6386 35.4342L81.4985 35.3716L81.9063 35.1727L82.2128 34.9049L82.2969 34.7686L82.6532 34.5604L82.8042 34.5165L83.4095 33.9104L83.5247 33.6348L83.534 33.2793L83.4889 33.1947L83.2368 32.9473L83.2477 32.6043L83.1543 32.4273L83.145 32.2786L83.1621 32.2081L83.243 32.1564L83.5216 32.1313L84.2888 32.1627L84.4273 32.2002L84.6809 32.1705L85.0139 32.0452L85.2147 32.0295L85.694 32.0953L86.1375 32.3929L86.4223 32.5229L86.4939 32.6779L86.651 32.8455L86.8627 32.9207L86.9841 33.0099L87.0821 33.2668L87.3389 33.2589L87.5785 32.9003L87.745 32.7703L87.9925 32.6936L88.0547 32.7077L88.2726 33.0068L88.4266 33.0585L88.6616 33.0084L88.8063 32.894L88.8655 32.9066L88.9635 33.1008L88.9557 33.2072L89.0756 33.2589L89.4848 33.107L89.7385 33.071L89.975 32.8142L90.3952 32.5197L90.5586 32.4712L90.7889 32.3349L90.9336 32.0985L91.2791 31.9011L91.5094 31.8369L92.0541 32.1376L92.1319 32.3553L92.1148 32.4023L91.6479 32.5698L91.5904 32.692L91.5966 32.7656L91.7086 33.0585L91.6822 33.1258L91.2885 33.5393L91.2822 33.6097L91.5172 33.5706L91.5857 33.5252L91.7631 33.5753L91.7911 33.6223L91.7537 33.699L91.8082 34.0498L91.9561 34.197L92.205 34.3207L92.4618 34.1892L92.6703 34.1641L92.9473 33.9245L93.0096 33.8493L93.008 33.7648L92.9473 33.6505L93.0314 33.5314L93.1699 33.4234L93.4531 33.4077L93.5387 33.3075L93.7892 33.1697L94.393 33.2104L94.7323 33.165L94.8568 33.082V32.988L95.0342 32.9911L95.347 32.9207L95.6426 32.7593L95.7127 32.4774L95.943 32.277L96.3025 32.1094L96.7148 32.1423L96.8425 32.183L97.2315 32.5056L97.3684 32.5417L97.454 32.7327L97.2564 33.0021L97.2393 33.0882L97.2408 33.1634L97.3498 33.2213L97.3918 33.2996L97.4214 33.4657L97.1163 34.4648L96.6106 35.8665L96.5686 35.8336L96.1173 35.7913L95.8185 35.6645L95.5897 35.6942L95.1913 35.8962L94.8428 35.7631L94.5315 35.8007L94.2903 35.9949L94.2716 36.0654L93.9324 36.424L93.6507 36.5978L93.4702 36.59L93.1808 36.756L92.9987 36.7733L92.5101 36.7278L92.121 36.8296L91.8238 36.7545L91.5468 36.59L91.2511 36.258L90.8543 35.9417L90.6862 35.9604L90.4263 35.9135L90.2707 35.7224L90.1431 35.8164L90.1291 35.9244L89.7587 36.4397L89.421 36.5587L89.3214 36.7294L89.116 36.897Z" fill="#08868B" stroke="white" stroke-width="1.19048"/>
<path d="M80.9338 21.1926L81.1376 21.2114L81.245 21.1753L81.5936 21.2552L81.7477 21.3883L81.7975 21.4823L81.7803 21.6076L81.6107 21.8973L81.3648 22.2058L81.3368 22.4345L81.382 22.6365L81.6621 23.3757L82.1523 24.3811L82.2207 24.6521L82.4324 24.9011L82.4293 25.0201L82.3141 25.2331L82.437 25.8392L82.3624 26.0898L82.518 26.4045L82.6113 26.8728L82.5195 27.1202L82.395 27.2111L82.5382 27.3191L82.5553 27.3787L82.7016 28.6566L82.6643 28.7271L82.7825 29.1295L82.9459 29.9439L83.1031 30.3621L83.307 30.4639L83.7053 30.5375L83.8252 30.7191L83.8236 30.8272L83.5902 31.1796L83.4128 31.6666L83.4252 31.8185L83.531 31.925L83.5217 32.1318L83.2431 32.1568L83.1622 32.2085L83.1451 32.279L83.1544 32.4277L83.2478 32.6047L83.2369 32.9477L83.489 33.1951L83.5342 33.2797L83.5248 33.6352L83.4097 33.9108L82.8043 34.5169L82.6534 34.5608L82.297 34.7691L82.213 34.9053L81.9064 35.1731L81.4987 35.372L81.4286 35.5537L81.1952 35.9139L81.0318 36.0188L80.9089 35.9906L80.5976 36.0501L80.6148 36.426L80.3253 36.7079L80.2755 36.7001L80.179 36.603L79.8429 36.6014L79.7153 36.7549L79.5955 36.8113L79.1706 36.8645L78.9356 37.0744L78.808 37.2654L78.5435 37.2811L78.3132 37.3813L77.8463 37.3985L77.7187 37.3547L77.6892 37.3108L77.7094 37.2075L77.4433 37.054L77.2363 36.9929L77.02 37.0791L76.6885 37.1464L76.6387 37.1182L76.5749 36.9726L76.3415 36.9005L76.038 36.9037L75.5338 37.1621L75.5245 37.3077L75.8731 38.0031L75.8918 38.1832L75.8466 38.5856L75.8077 38.7282L75.6957 38.8628L75.2366 39.6537L74.7744 40.0327L74.5643 40.0985L74.334 40.0155L74.1255 39.9889L73.7831 40.1063L73.6011 40.2457L73.4968 40.382L73.3194 40.4415L73.2027 40.6686L73.1513 40.7014L72.823 40.6732L72.5429 40.7547L71.8924 40.465L71.6169 40.075L71.5345 39.7289L71.4318 39.566L71.2077 39.3562L70.8451 39.3593L70.3876 39.3264L70.3953 39.0257L70.4358 38.8597L70.6148 38.476L70.635 37.48L70.7533 37.2607L70.7579 37.1809L70.4887 36.7016L70.4156 36.202L70.3066 35.8982L70.4202 35.585L70.6848 35.3657L70.8715 34.9774L70.8918 34.7409L70.9447 34.6109L70.9914 34.578L71.2154 34.1489L71.3135 33.7856L71.3742 33.3204L71.5267 32.8537L71.8582 32.5483L72.2814 32.4293L72.6876 32.3808L72.8541 32.3228L73.1187 32.0832L73.2821 32.0769L73.4906 31.9955L73.9356 31.593L74.2998 31.4505L74.6126 31.1373L74.7106 31.001V30.929L75.0063 30.6283L75.0841 30.5938L75.2148 30.5563L75.2506 30.6032L75.4249 30.5625L75.5805 30.4686L75.8077 30.4388L75.9649 30.4717L76.3555 30.7567L76.5905 30.7411L76.9702 30.6064L77.0994 30.6001L77.2005 30.644L77.5553 30.5985L77.7436 30.3934L77.8214 30.1647L77.8401 29.9752L77.8852 29.9063L77.9459 29.5618L77.9257 29.4287L77.8992 29.3504L77.6487 29.2079L77.3717 28.8899L77.2923 28.5297L77.2752 28.1993L77.3017 27.8109L77.9397 27.1171L77.9724 27.031L77.9879 26.6504L77.9023 26.1837L77.6565 25.7452L77.8339 25.2957L77.8774 25.0655L77.8183 24.8666L77.6269 24.7351L77.5724 24.4344L77.6923 24.2699L77.7919 24.2433L77.9195 23.9332L78.2136 23.6435L78.3505 23.3569L78.3443 23.0766L78.7987 22.5425L78.9248 22.5676L79.4399 22.4956L80.0826 21.8738L80.3611 21.5183L80.4218 21.2787L80.3222 21.1957L80.288 21.0829L80.3596 20.8574L80.4732 20.8762L80.7019 21.0125L80.7813 21.0923L80.761 21.1409L80.9338 21.1926Z" fill="#08868B" stroke="white" stroke-width="1.19048"/>
<path d="M63.9791 79.5281L63.1636 79.5234L63.1123 79.5923L62.8415 79.6299L62.7232 79.6189L62.7061 79.5579L62.4618 79.6471L62.2517 79.8711L61.7304 80.2047L61.5063 80.1796L61.3149 80.0825L60.8278 79.6753L60.6675 79.6142L60.5492 79.6127L60.1073 79.727L59.7447 79.7536L59.6186 79.7489L59.3977 79.6299L59.2249 79.6518L58.9868 79.7536L58.895 79.9838L58.7814 80.1201L58.4904 80.2736L57.9349 80.2094L57.6236 80.3895L57.5116 80.51L57.4042 80.7591L57.5365 81.2273L57.4011 81.362L57.2579 81.3651L57.1412 81.4246L57.1148 81.5014L56.9078 81.2054L56.2464 81.2258L55.6613 81.1584L55.4154 80.9736L55.3905 80.9094L55.2302 80.8107L54.5673 80.7544L53.7441 80.4913L53.3799 80.5805L52.9613 80.5758L52.647 80.355L52.5972 80.2751L52.4322 80.2375L52.3497 80.236L52.2392 80.2939L51.6744 80.2908L51.6401 80.1013L51.2464 79.4467L51.2495 79.041L51.0955 78.59L50.5632 78.2188L50.3936 78.3958L50.0637 78.3786L49.8925 78.4459L49.726 78.5869L49.4988 78.4177L49.3712 78.4271L49.3276 78.0826L49.4303 77.8367L49.5969 77.6378L49.7867 77.2964L49.796 77.2432L49.7198 77.1257L49.7229 76.9315L49.863 76.3615L50.059 75.8885L50.0201 75.5283L50.2193 75.1556L50.1866 74.9958L50.0559 74.858L50.0077 74.6074L50.1104 74.4414L50.2333 74.3569L50.6037 74.1125L50.6597 73.9841L50.904 72.7438L50.9554 72.689L51.1281 72.6388L51.3865 72.4807L51.4907 72.3742L51.7164 71.8166L51.7133 71.6365L51.858 71.2716L52.0307 71.1432L52.8726 70.7877L53.3799 70.4291L53.9759 70.5309L54.6 70.5136L55.1088 70.5591L55.2971 70.462L55.3516 70.368L55.4652 70.3101L55.6473 70.3555L55.8776 70.4776L56.2697 70.5497L56.6806 70.7204L56.8844 70.7407L57.0509 70.6562L57.4524 70.6546L57.5738 70.8112L57.8462 70.9428L58.3924 71.068L58.4904 71.1479L58.6009 71.3546L58.8701 71.3656L58.9355 71.3124L59.1922 71.3359L59.295 71.4204L60.1213 71.4408L60.5835 71.3077L60.7593 71.5504L61.318 71.9936L61.4565 72.2692L61.458 72.6984L61.3974 72.7892L61.3725 72.916L61.4316 73.2042L61.6339 73.4407L61.6214 73.7163L61.5654 73.804L61.7973 74.2738L61.9856 74.4539L62.0898 74.4978L62.1677 74.6043L62.1599 74.7437L62.303 75.0522L62.3964 75.0976L62.4353 75.1665L62.3964 75.331L62.1988 75.6645L62.2486 75.984L62.342 76.0435L62.4991 76.0764L62.8695 76.0576L63.4017 75.9746L63.4795 76.0357L63.7254 76.006L63.9728 76.0263L64.2234 76.2236L64.2016 76.2878L64.0631 76.3896L63.9557 76.9065L64.0102 77.0286L64.1767 77.1116L64.2778 76.9785L64.449 76.5463L64.5673 76.5196L64.9003 76.6105L64.8381 76.9159L64.9517 77.4327L65.1726 77.5235L65.1975 77.7302L64.9875 77.89L64.8925 78.1218L64.8069 78.103L64.849 77.7991L65.073 77.6504L64.8536 77.6942L64.7151 77.7709L64.5797 77.7678L64.5268 77.7067L64.4381 77.6801L64.3541 77.7381L64.3105 77.8837L64.3914 78.009L64.2778 78.1593L64.2312 78.175L63.8452 78.092L63.7223 78.0074L63.6523 78.0262L63.6242 78.1672L63.6772 78.2251L63.9277 78.3128L64.1456 78.2737L64.477 78.3676L64.519 78.4428L64.3681 78.5493L64.1284 78.9847L63.9355 79.1053L63.5589 79.1945L63.5278 79.265L63.9868 79.2337L64.0102 79.42L63.9791 79.5281Z" fill="#08868B" stroke="white" stroke-width="1.19048"/>
<path d="M75.1215 71.8353L75.1106 71.7131L75.1698 71.6708L75.6662 71.7053L76.0692 71.6129L75.6755 71.3701L75.4577 71.2918L75.0204 71.3983L74.8087 71.6489L74.6485 71.699L74.5395 71.6912L74.3294 71.3545H74.2547L74.1147 71.4203L73.9653 71.5863L73.4751 71.7116L73.4222 71.8541L73.3926 72.1516L73.7334 72.172L73.8999 72.3302L73.721 72.4993L73.5747 72.4727L73.3537 72.4993L73.279 72.4586L73.0254 72.1877L73.0176 72.1234L73.1872 71.5753L73.3568 71.3952L73.7225 71.237L73.8003 71.2605L74.2314 71.2041L74.4648 71.093L74.7216 70.7562L74.6049 70.4994L74.3403 70.4978L73.8501 70.5808L73.5747 70.5198L73.3833 70.2708L73.2961 70.0875L73.0985 70.0029L73.2043 69.9262L73.5809 69.8103L74.0338 69.6005L74.4353 69.5738L74.5131 69.6161L74.7807 69.4955L74.9441 69.3749L75.5806 69.0946L75.6615 69.0836L75.7175 69.1322L76.2155 69.1212L76.41 69.0946L76.6637 68.9474L76.7524 68.938L77.1461 68.9803L77.2224 69.0069L77.2193 69.0805L77.434 69.0492L78.9139 68.3398L79.3077 68.1847L79.3403 68.1033L79.2968 68.0077L79.0727 67.9874L79.0867 67.8699L79.3808 67.2889L79.748 66.343L79.6345 66.2318L79.7216 66.155L79.9146 66.1128L80.3083 65.7432L80.6086 65.8622L80.7129 66.5998L81.1019 66.7768L81.7757 66.935L82.241 66.877L82.4931 67.043L82.4807 67.2419L82.3344 67.4941L82.3002 67.8276L82.4776 68.8895L82.3998 68.9959L81.9205 69.27L80.9914 69.5738L80.551 69.8432L80.0064 70.4211L79.9893 70.6811L80.0375 70.8674L80.0079 71.1211L79.8943 71.3529L79.6111 71.4328L78.5918 71.4062L77.6908 71.5158L77.3189 71.4438L77.2426 71.3842L77.2333 71.2778L77.3936 71.046L77.4978 70.8189L77.4838 70.7218L77.3624 70.6936L76.9283 70.8737L76.8878 70.9818L76.936 71.1055L77.1508 71.2887L77.1897 71.4406L77.0979 71.5221L76.8442 71.6019L76.5999 71.5972L75.3487 71.7648L75.1215 71.8353ZM74.3263 72.1469L74.2221 71.995L74.5504 71.7523L74.8399 71.8995L74.9068 72.0091L74.524 72.0874L74.4602 72.0326H74.387L74.3263 72.1469Z" fill="#08868B" stroke="white" stroke-width="1.19048"/>
<path d="M97.0549 29.9621L96.9102 29.9997L96.3655 29.9668L96.2037 30.0294L95.8208 29.8572L95.4831 29.8102L94.5759 29.8713L94.4934 29.8165L93.9612 29.7538L93.8647 29.6771L93.8803 29.5205L93.8149 29.4594L93.6002 29.4672L93.3169 29.6786L93.2687 29.9104L93.3807 30.0326L93.4632 30.2722L93.306 30.2221L93.2313 30.3145L93.2562 30.5369L93.3294 30.6841L93.2438 30.8736L93.166 30.9895L92.8003 31.1351L92.6711 31.0192L92.752 30.778L92.6135 30.5948L92.3101 30.5478L92.0347 30.5604L91.5445 30.7577L91.4993 30.7217L91.4511 30.5055L91.4013 30.4695L90.852 30.3881L90.8644 30.1187L90.8971 30.0702L91.0294 30.031L91.0932 29.9715L91.1523 29.699L91.2208 29.5487L91.6861 29.0459L91.6845 28.8596L91.602 28.7907L91.5024 28.7781L90.9951 28.941L90.7726 28.9598L90.2777 29.1493L90.2139 29.2981L90.1984 29.461L90.0707 29.5721L89.5681 29.8321L89.3876 30.0091L88.9394 29.9136L88.7994 29.8478L88.499 29.5909L88.4103 29.663L88.3076 29.7225L88.208 29.6959L88.2609 29.3874L88.4803 29.035L88.6111 28.8972L88.6904 28.8862L88.8118 28.9661L88.9721 28.9254L89.0608 28.7531L89.288 28.5166L89.5059 28.1345L89.4825 28.0186L89.5837 27.757L89.7191 27.6678L89.8498 27.4924L90.3633 26.4447L90.7695 26.1299L91.5304 25.8809L91.6036 25.9999L91.7374 26.1173L92.2245 26.1158L92.4144 26.18L92.6773 26.454L92.8828 26.5324L93.401 26.4822L93.8492 26.5637L94.2444 26.5261L94.607 26.4118L95.3073 26.5558L95.5049 26.5621L95.8084 26.6968L95.9671 26.8252L96.0667 26.9724L96.4262 27.7148L96.504 27.9951L96.4978 28.1125L96.7281 28.9551L96.7608 29.2182L96.8728 29.3028L97.0222 29.7241L97.0549 29.9621Z" fill="#08868B" stroke="white" stroke-width="1.19048"/>
<path d="M31.3884 46.883L31.1877 46.6559L31.1192 46.3615L30.8764 46.28L30.7426 46.3302L30.4609 46.3427L29.8276 46.0592L29.826 45.9966L29.7233 45.901L29.5257 45.9934L29.2175 45.7303L28.981 45.5784L28.8472 45.3498L28.8036 45.1321L28.6417 45.071L28.3663 45.2464L28.1764 45.2417L27.957 45.1164L27.8216 44.9081L27.3346 44.6607L27.0295 44.6341L26.8521 44.7186L26.7121 44.8518L26.4895 44.8251L26.4413 44.7782L26.1083 44.6983L25.6321 44.6544L25.5138 44.5871L25.3302 44.4007L25.2835 44.0922L25.0376 44.0155L24.7435 43.8636L24.6159 43.5942L24.5708 43.5629L24.1475 43.519L24.0884 43.4642L23.9576 42.8832L23.8207 42.7438L23.746 42.9255L23.6433 42.8753L23.6013 42.7751L23.6978 42.5355L23.567 42.2975L23.3554 42.2364L23.1593 41.6929L23.1329 41.433L23.3741 40.9772L23.3414 40.7173L23.1609 40.4087L23.0442 40.0705L23.0348 39.7118L23.1313 39.6335L23.1905 39.419L23.3523 39.2545L23.4083 39.0243L23.371 38.791L23.3056 38.6516L23.2916 38.412L23.3756 38.1536L23.1936 37.8122L23.0348 37.7526L22.8652 37.9061L22.8559 37.986L22.7252 38.1363H22.6365L22.2972 37.9766L21.4911 37.9891L20.6181 38.2679L20.3551 38.2663L20.1248 38.3415L19.6626 38.1442L20.1699 37.7432L20.4687 37.6524L20.7099 37.3689L20.7332 37.2812L20.7083 37.0792L21.3246 37.1199L21.7712 37.0683L21.8833 37.1262L22.2427 37.4911L22.3003 37.488L22.4902 37.3642L22.5104 37.2515L22.5742 37.1685L22.7423 37.0902L22.8621 37.1105L23.0753 37.0495L23.2776 36.86L23.5639 36.7002L23.6231 36.7143L23.7227 37.0683L23.8285 37.1513L23.9343 37.1387L24.3296 36.6438L24.2891 36.3698L24.3716 36.2382L24.6439 36.0409L24.7155 36.044L24.8462 36.1302L25.1248 36.1458L25.3115 35.9783L25.643 35.9187L26.2452 35.9908L26.2079 35.7621L26.225 35.4787L26.5456 35.2892L26.6716 35.1091L26.7276 34.9493L26.7012 34.8789L26.5611 34.7692L26.5689 34.6643L26.7541 34.4153L27.14 34.3323L27.1805 34.2978L27.1665 34.1146L27.4342 34.0363L27.6489 33.6354L29.328 33.626L29.6626 33.8029L29.7326 33.8797L29.8571 34.1788L30.0641 34.3777L30.4594 34.5312L30.6539 35.0433L30.7255 35.0762L30.878 35.0558L30.9745 35.0871L31.0803 35.5382L31.5845 35.77L31.6903 35.7402L31.7743 35.4677L32.0731 35.2986L32.2894 35.3424L32.3454 35.4019L32.3392 35.5116L32.5571 35.6635L32.6505 35.8577L32.5322 36.0801L32.3314 36.8615L32.3408 36.9163L32.4622 36.99L32.5026 37.0855L32.526 37.3032L32.6551 37.6587L32.5088 37.9202L32.568 38.2225L32.4124 38.7737L32.4077 38.899L32.4497 39.1747L32.6831 39.6053L32.5431 41.0148L35.2135 41.0227L35.1761 41.1104L35.366 41.2842L35.9107 41.2701L36.0834 41.2873L36.2499 41.3547L36.4693 41.9169L36.4429 42.0343L36.225 42.3084L36.0134 42.4776L35.9916 42.6843L36.0585 43.1933L36.1487 43.2731L36.2888 43.2684L36.5269 43.7915L36.5207 44.1126L36.6109 44.3459L36.6 44.6137L36.5129 44.9645L36.2546 45.2793L36.1736 45.6317L36.0834 45.7632L36.0165 45.8274L35.7613 45.9104L35.6165 46.0796L35.394 46.6716L35.3131 47.0553L34.6735 47.4577L34.4447 47.6817L34.3296 47.6754L33.9265 47.4327L33.7289 47.2087L32.6271 47.3591L32.4217 47.2917L32.3828 47.2448L31.8568 47.3481L31.7821 47.3231L31.7012 47.1116L31.3884 46.883Z" fill="#08868B" stroke="white" stroke-width="1.19048"/>
<path d="M38.7475 10.9327L38.9965 13.5904L36.1191 13.5794L36.1237 13.6859L35.7612 14.1965L35.5028 14.671L35.4919 14.848L35.313 15.2614L35.2959 15.3648L35.3317 15.4791L35.5091 15.6999L35.5059 15.7829L35.4406 15.844L35.1247 15.9301L34.9053 16.151L34.7107 16.223L34.4275 16.187L34.2843 15.7939L33.9933 15.4744L33.5529 15.3288L33.304 15.3382L33.2184 15.4775L32.8931 15.5887L32.6939 15.6968L32.5352 15.8941L32.4076 16.3593L32.4652 16.6412L32.4263 16.9121L32.3096 17.2707L32.378 17.6012L32.0108 17.4383L31.8022 17.5041L31.7198 17.4931L31.5579 17.1736L31.3276 16.9152L31.0226 16.7101L30.9417 16.7038L30.162 16.0116L30.1838 15.833L30.4702 15.8847L30.6476 15.678L30.6569 15.5872L30.481 14.9091L30.3908 14.7681L30.2009 14.6365L30.064 14.2967L30.0189 13.5168L30.1076 13.3664L30.2274 12.8904L30.1247 12.6429L30.0687 12.3939L30.3208 12.1652L30.313 12.0948L30.1776 11.9194L30.148 11.5654L29.8897 10.82L29.4649 10.2343L29.5753 9.99934L29.717 9.47939L29.6407 9.37603L29.3373 9.22725L29.1256 9.21002L28.9887 9.24291L28.8377 9.18497L28.6494 9.00173L28.6401 8.85139L28.542 8.83416L28.3662 8.89994L28.2713 8.89837L28.1546 8.84512L28.0425 8.72297L28.0892 8.65093L28.125 8.29386L28.0783 8.2594L27.5539 8.22338L26.9703 8.24531L26.4552 8.13568L26.4241 8.04171L26.5486 7.76608L26.5673 7.5343L26.4537 7.2571L26.1518 6.7027L26.0382 6.38009L25.965 5.7975L26.088 5.56572L26.0755 5.41537L25.7892 5.10215L25.453 4.93614L25.0157 4.50077L24.8508 4.21731L24.8057 4.06696L24.6283 3.96516L24.5894 3.90409L24.594 3.77253L24.6392 3.72085L24.7792 3.73182L24.9535 3.83518L25.0998 4.10611L25.1947 4.12021L25.7223 4.0419L25.9323 4.05756L26.2296 4.14996L26.3245 4.3379L26.4101 4.64015L26.4941 4.69497L26.6435 4.68244L26.7587 4.58064L26.9065 4.518L27.4014 4.54305L27.4745 4.55088L27.6784 4.74038L27.7717 4.76387L27.8527 4.74195L27.9476 4.49764L28.1514 4.51956L28.3771 4.66521L28.9887 5.38092L29.1521 5.47018L29.2626 5.48741L29.4975 5.38092L29.6127 5.20395L29.6283 5.0724L29.4991 4.64015L29.5551 4.36765L29.6267 4.3238L29.927 4.31597L30.0842 4.1437L30.3254 3.97299L30.4421 3.98083L31.049 4.19068L31.1409 4.16406L31.2654 4.0513L31.4256 4.00432L31.6015 4.05913L31.7618 4.02624L31.9703 3.82578L32.1259 3.78663L32.3049 3.82265L32.4776 3.81169L32.5834 3.67857L32.5912 3.46715L33.0627 3.18368L33.4253 3.21344L33.8548 3.15236L33.9933 2.97539L34.0073 2.8642L34.0992 2.6888L34.2159 2.66844L34.5038 2.52749L34.6749 2.36461L34.8477 2.09681L34.6609 1.53928L34.4789 1.4829L34.5785 1.45471L34.801 1.46567L34.9255 1.51579L35.481 1.50013L35.646 1.35135L35.7612 1.31689L35.9744 1.38267L36.0568 1.58783L36.2187 1.71312L36.2934 1.92767L36.1891 2.69506L36.0771 2.91118L35.8825 3.02081L35.8919 3.15079L36.1424 3.215L36.3945 3.18055L36.7602 3.3074L37.0434 3.47967L36.9065 3.70363L36.9049 3.88373L37.2691 4.41933L37.3002 4.66208L37.0652 5.11938L36.7727 5.3402L36.6606 5.57511L36.7026 5.63619L36.712 5.97603L36.4832 6.35346L36.3432 6.78727L36.2949 7.18976L36.2809 7.60791L36.4334 7.90077L36.5128 8.1764L36.5112 8.39565L36.7556 8.55696L36.8956 8.58828L36.9158 8.69478L36.8443 9.50132L36.8629 9.61721L37.1446 9.66263L37.0419 9.84586L37.1135 9.92416L37.4481 10.0401L37.6753 10.3407L38.0892 10.7699L38.7475 10.9327Z" fill="#08868B" stroke="white" stroke-width="1.19048"/>
<path d="M52.3452 101.315L52.2892 101.317L51.9873 101.143L51.9562 101.071L52.0371 100.402L51.9655 99.7364L51.9889 99.5689L52.0869 99.3747L52.5289 99.0019L52.658 98.7576L53.0159 98.3567L52.7887 98.0983L52.6222 98.0012L52.2721 97.9072L51.9111 97.5549L51.7228 97.3012L51.7072 97.0521L51.6403 96.8673L51.4489 96.5494L51.1283 96.1986L51.024 96.1062L50.6521 95.9167L50.4265 95.9496L50.1308 95.7131L49.8943 95.4579L49.6997 95.3357L49.6779 95.0695L49.3823 94.7312L48.8656 94.6591L48.7225 94.5855L48.4532 94.3256L48.1793 94.3459L47.8417 94.1298L47.5444 93.5488L47.3717 93.3154L46.978 92.9834L46.869 92.996L46.7648 93.2763L46.3617 93.6271L45.9462 93.6459L45.9618 93.198L46.024 92.9975L45.9634 92.8409L45.3953 92.169L45.0265 91.8918L44.6873 91.5692L44.415 91.2388L43.9963 90.8927L43.7007 90.8708L43.3661 90.9036L43.1887 91.1166L43.1793 91.267L43.0191 91.4189L42.8463 91.422L42.7561 91.3468L42.2643 91.3688L42.1632 91.2936L42.1383 91.1511L42.062 91.1166L42.1943 91.0822L42.3561 90.9694L42.7483 90.5356L42.7654 90.2474L42.8588 90.0517L42.9864 89.9812L43.1871 89.9703L43.2867 89.9295L43.4299 89.7729L44.278 88.7581L44.376 88.5357L44.4025 88.3619L44.5301 88.1943L44.7169 88.0612L44.93 87.997L45.2351 87.3361L45.2506 87.2405L45.2989 87.1826L45.5541 87.0479L45.8077 86.766L45.94 86.5859L46.0194 86.3839L46.2279 86.055L46.3726 86.0096L46.6169 86.0378L46.7025 86.1615L46.7757 85.961L46.743 85.8702L46.5329 85.7418L46.5251 85.6854L46.5796 85.6337L46.7477 85.5742L46.8753 85.4239L47.3094 85.2751L47.4728 85.1075L47.4884 84.9634L47.616 84.8209L47.9599 84.6408L48.3443 84.5782L48.6197 84.2947L48.6431 84.1287L48.8485 83.7591L48.8999 83.7528L48.9076 83.8092L48.9528 83.8405L49.1597 83.8139L49.5394 83.637L49.9565 83.5446L50.1448 83.4553L50.4716 83.0873L50.5494 83.0888L50.6537 83.0277L50.8108 82.8163L51.1703 82.702L51.217 82.7615L51.7648 82.8226L52.2721 82.6425L52.3592 82.5156L52.5693 82.6065L52.546 82.7505L53.0253 82.7458L53.2789 82.9009L53.6773 82.8429L53.9761 83.023L54.3776 82.9588L54.6173 82.987L55.053 82.962L55.4047 83.106L55.7906 83.3253L55.9462 83.7074L56.1937 83.7372L56.2077 83.662L56.4893 83.6072L57.3546 84.1616L57.5678 84.4043L57.6783 84.3996L57.921 84.5531L58.3925 85.0997L58.6478 85.4458L58.7225 85.6776L59.0601 86.0942L59.2422 86.1803L60.2833 86.3463L60.6117 86.2837L61.133 86.3369L61.2699 86.7034L60.9462 86.9508L60.7486 87.015L60.635 87.3063L60.6692 87.6493L60.6101 87.8936L60.5292 88.0972L60.3455 88.1285L60.1448 88.3932L60.1401 88.614L60.4202 88.7972L60.4623 88.7659L60.4187 88.614L60.4202 88.4637L60.6521 88.3352L60.898 88.4355L61.0116 88.578L61.1937 88.7111L61.2637 88.7064L61.0458 88.9773L60.4389 90.0799L59.7838 91.8965L58.8034 93.5378L57.9568 94.5808L56.9437 95.5142L55.996 96.0906L55.5136 96.7655L55.4856 96.6982L55.5868 96.4508L55.6397 96.1094L55.456 95.8415L55.4716 95.7758L55.6163 95.7491L55.7735 95.8118L55.8606 95.9026L56.0194 95.9089L56.4209 95.6881L56.5485 95.5816L56.992 95.0006L57.1087 94.8925L57.1787 94.9223L57.3375 94.8925L57.5009 94.7609L57.6456 94.562L57.7032 94.3303L57.7312 94.1846L57.6954 93.8557L57.7265 93.6412L57.9708 93.6302L58.086 93.6772L58.128 93.8072L58.1825 93.7665L58.1373 93.5472L58.2167 93.223L58.2914 93.1338L58.7178 92.8848L58.8314 92.7156L58.9045 92.2849L58.8718 91.9279L58.959 91.8214L59.0368 91.9467L59.0944 91.9514L59.1613 91.8856L59.2344 91.4032L59.2189 91.3343L59.071 91.1433L58.9668 91.1386L58.9263 91.2466L58.9528 91.3077L58.931 91.397L58.8765 91.4283L58.6415 91.4252L58.3287 91.4878L58.2758 91.7399L58.1934 91.7478L58.0673 91.6789L58.0829 91.4111L57.9553 91.2717L57.7934 91.3234L57.7 91.2482L57.5864 91.0509L57.5242 90.8238L57.5429 90.7345L57.4433 90.6264L57.3484 91.0509L57.4168 91.4032L57.6113 91.7337L57.5226 91.8605L57.4075 92.2583L57.4666 92.7328L57.4386 92.8534L57.3639 92.7955L57.4044 92.7579L57.3997 92.6467L57.3266 92.4463L57.2565 92.3852L57.1741 92.4885L57.1694 92.7031L56.95 93.2152L56.9422 93.5112L56.9764 93.5926L56.8644 93.7023L56.6138 93.8025L56.5189 94.0499L55.8824 94.2958L55.7704 94.3788L55.6879 94.6278L55.6723 94.9833L55.5214 95.3388L55.1541 95.5424L55.137 95.8181L55.2117 95.948L55.2506 96.1078L55.1028 96.1955L55.0639 96.432L55.1308 96.5259L55.2366 96.504L55.4389 96.6027L55.4623 96.7452L55.1308 97.0036L54.7698 97.7115L54.4694 98.7889L54.1566 99.4921L53.8952 99.8868L52.6829 101.066L52.3452 101.315Z" fill="#08868B" stroke="white" stroke-width="1.19048"/>
<path d="M61.2641 88.7068L61.194 88.7115L61.012 88.5784L60.8984 88.4343L60.6509 88.3357L60.4206 88.4641L60.4191 88.6144L60.4626 88.7664L60.4206 88.7977L60.1405 88.6144L60.1467 88.3936L60.3459 88.129L60.5295 88.0976L60.612 87.8925L60.6696 87.6497L60.6354 87.3068L60.749 87.0155L60.9466 86.9497L61.2703 86.7022L61.1333 86.3358L60.612 86.2825L60.2837 86.3452L59.2426 86.1792L59.0621 86.0946L58.7244 85.678L58.6481 85.4462L58.3945 85.1001L57.9229 84.5536L57.6786 84.3985L57.5681 84.4032L57.3549 84.1605L56.4897 83.6061L56.208 83.6593L56.194 83.7345L55.945 83.7047L55.7894 83.3226L55.405 83.1049L55.0518 82.9593L54.6176 82.9843L54.378 82.9561L53.9749 83.0204L53.6777 82.8402L53.2778 82.8966L53.0241 82.7431L52.5448 82.7479L52.5681 82.6022L52.3581 82.5114L52.2709 82.6382L51.7636 82.8199L51.2158 82.7588L51.4415 82.2999L51.5551 81.9726L51.4648 81.4636L51.5286 80.9609L51.5224 80.5616L51.6718 80.2875L52.2367 80.2906L52.3472 80.2311L52.4296 80.2327L52.5946 80.2703L52.6428 80.3502L52.9587 80.571L53.3758 80.5757L53.7399 80.4848L54.5632 80.7479L55.2261 80.8043L55.3848 80.903L55.4113 80.9672L55.6556 81.152L56.2423 81.2178L56.9036 81.1974L57.1106 81.495L57.1386 81.4167L57.2538 81.3572L57.397 81.354L57.5323 81.2193L57.4001 80.7511L57.5074 80.5036L57.6195 80.3815L57.9307 80.2029L58.4863 80.2656L58.7773 80.1137L58.8909 79.9774L58.9827 79.7456L59.2208 79.6438L59.3935 79.6219L59.6145 79.7409L59.7406 79.7456L60.1032 79.719L60.5451 79.6047L60.6618 79.6063L60.8237 79.6689L61.3092 80.0761L61.5006 80.1732L61.7247 80.1982L62.246 79.8647L62.4561 79.6407L62.6989 79.5514L62.7175 79.6125L62.8358 79.6235L63.1066 79.5875L63.1579 79.5186L63.9734 79.5233L63.9127 79.73L63.992 79.9884L63.9811 80.0495L63.7477 80.228L63.5952 80.1528L63.4676 79.7566L63.4645 79.932L63.5563 80.358L63.8224 80.618L63.9096 80.7667L63.7524 81.1254L63.7275 81.4887L63.7431 81.556L63.8613 81.6704L63.9018 82.5881L63.95 82.6742L64.0169 82.7056L64.1368 82.6257L64.1912 82.7385L64.2068 82.8747L64.1337 82.8841L64.0667 82.8402L63.8816 82.9389L63.8286 83.5403L63.9173 83.9459L63.8286 84.0634L63.8769 84.3656L64.0185 84.66L63.8847 85.0265L63.8037 85.6545L63.5376 86.3875L63.4847 86.3718L63.4287 86.2528L63.4614 86.1009L63.3182 85.9161L63.2778 85.9677L63.3058 86.3483L63.4863 86.4783L63.3431 86.7383L63.0879 86.8401L62.4452 87.3162L62.0095 87.7171L61.4259 88.4124L61.2641 88.7068ZM64.0465 84.5489L64.0232 84.4753L64.0621 84.2012L64.1803 83.8253L64.1181 83.6405L64.143 83.4808L64.3609 83.3618L64.3951 83.3712L64.4978 83.5184L64.4138 83.9193L64.2862 84.054L64.1943 84.245L64.2255 84.4283L64.0465 84.5489ZM63.9765 80.7323L63.6855 80.4159L64.0823 80.0338L64.1212 80.0401L64.2224 80.2045L64.0885 80.4112L63.9765 80.7323Z" fill="#08868B" stroke="white" stroke-width="1.19048"/>
<path d="M90.9306 42.3007L90.4793 42.4401L90.2381 42.3399L90.1541 42.2867L90.0794 42.1739L89.7806 42.0298L89.6872 41.9484L89.6686 41.8842L89.7215 41.8231L89.7417 41.6007L89.7184 41.5396L89.4958 41.3031L89.4149 41.0698L89.2453 40.9649L89.0959 40.7143L89.0928 40.5937L89.1846 40.3463L89.2344 40.2993L89.4989 40.3008L89.6748 40.4183L90.0716 40.2633L90.179 40.1771L90.2257 40.0863L90.1074 39.6556L90.1198 39.5178L90.2226 39.2641L90.235 38.777L90.1183 38.5969L89.8086 38.2915L89.611 37.9L89.5767 37.5649L89.681 37.3848L90.6863 37.8515L91.259 38.0002L92.1024 38.481L92.3047 38.8647L92.5786 39.0918L92.8369 39.2155L92.9085 39.2202L93.4672 39.5695L93.5606 39.7746L93.1902 39.8937L92.479 40.3541L92.3281 40.4935L92.0869 40.8396L92.0371 40.8364L92.0542 40.6642L91.8908 40.3791L91.7367 40.4042L91.7896 40.5859H91.9826L92.0184 40.6235L91.9375 40.932L91.7398 41.2593L91.6574 41.2045L91.5998 41.0995L91.4457 41.0745L91.4768 41.181L91.6527 41.2781L91.6122 41.5553L91.4784 41.7354L91.3337 42.0533L91.2123 42.0768L91.1656 42.0047L91.2403 41.7855L91.3041 41.7651L91.3523 41.6978L91.4099 41.5349L91.2839 41.477L91.2994 41.5835L91.2294 41.7604L91.1547 41.8387L91.1142 42.0094L91.1578 42.1222L91.1174 42.2036L90.9306 42.3007Z" fill="#08868B" stroke="white" stroke-width="1.19048"/>
<path d="M65.1969 77.7298L65.172 77.5216L64.951 77.4323L64.8374 76.9155L64.8997 76.6101L64.5667 76.5193L64.4484 76.5459L64.2772 76.9797L64.1745 77.1128L64.0095 77.0298L63.9551 76.9076L64.0625 76.3908L64.201 76.2875L64.2227 76.2248L63.9722 76.0259L63.7248 76.0056L63.4789 76.0353L63.4011 75.9758L62.8704 76.0588L62.5001 76.0776L62.3429 76.0447L62.2495 75.9836L62.1982 75.6642L62.3973 75.3321L62.4362 75.1677L62.3973 75.0988L62.304 75.0518L62.1608 74.7433L62.1701 74.6039L62.0923 74.4974L61.9881 74.452L61.7998 74.2735L61.5679 73.8021L61.6239 73.7159L61.6364 73.4403L61.4341 73.2023L61.3749 72.9141L61.4014 72.7872L61.4621 72.6964L61.459 72.2673L61.3205 71.9917L60.7618 71.5485L60.586 71.3057L60.1238 71.4404L59.2974 71.42L59.1947 71.3355L58.938 71.3135L58.8726 71.3668L58.6049 71.3558L58.4929 71.1491L58.3949 71.0692L57.8486 70.9439L57.5763 70.8124L57.4549 70.6558L57.0534 70.6573L56.8869 70.7419L56.6815 70.7216L56.2707 70.5509L55.877 70.4788L55.6466 70.3551L55.4646 70.3097L55.351 70.3676L55.2981 70.4616L55.1098 70.5587L54.5993 70.5133L53.9753 70.5305L53.3793 70.4287L52.8735 70.7873L53.0043 70.6182L53.1179 70.377L53.3139 70.1985L54.4904 69.4875L54.7939 69.1946L54.9899 68.8141L55.2592 68.5494L55.3214 68.3599L55.5455 68.1986L55.5891 68.0075L55.5346 67.876L55.8458 67.522L56.0341 67.1556L56.045 67.0083L55.9968 66.7061L56.0326 66.645L56.182 66.5636L56.5866 65.9935L56.6115 65.5346L56.708 65.2715L56.8651 65.2246L56.9787 65.1243L57.2884 64.7046L57.4783 64.5449L57.5514 64.5089L57.7553 64.5026L57.9887 64.3804L58.0323 64.3178L58.0945 63.9325L58.2844 63.7556L58.6189 63.5817L58.9177 63.5238L59.1403 63.2591L59.3737 63.1636L59.4904 63.1855L59.7596 63.4282L60.1564 63.4408L60.824 63.5911L61.0839 63.5347L61.336 63.5692L61.6473 63.4768L61.9865 63.6992L62.2464 63.8229L62.2262 63.967L62.2775 64.1894L62.4658 64.5167L62.5639 64.5214L62.6479 64.4713L62.7522 64.3241L62.816 64.1471L62.8564 64.1173L62.942 64.1252L62.998 64.1862L63.0369 64.3366L63.0385 64.772L63.2252 64.855L63.289 64.7845L63.247 64.3867L63.3233 64.2003L63.3933 64.1252L64.6663 64.0202L64.8234 63.8245L65.0568 64.0531L65.2311 64.1205L65.6638 64.0124L65.7322 63.8574L65.7011 63.7853L65.7494 63.6898L66.1197 63.6726L66.378 63.7947L66.5103 63.6945L66.7142 63.6491L67.2215 64.1737L67.2526 64.3366L67.1639 64.4948L67.1188 64.8659L67.209 64.9615L67.5032 65.151L67.5654 65.3937L67.5561 65.4814L67.3195 65.7993L67.2915 66.1031L67.4145 66.219L67.4627 66.3146L67.5203 66.6607L67.7226 66.9426L67.8517 67.2542L67.8471 67.3873L68.0976 67.3795L68.219 67.331L68.2626 67.2746L68.4182 67.2667L68.994 67.4735L69.0298 67.5314L69.022 67.7303L68.9131 68.0717L68.6236 68.4977L68.6641 68.9581L68.6345 69.4984L68.552 69.7427L68.6641 69.9933L68.9411 70.1875L69.2227 70.3175L69.3021 70.5869L69.1138 70.6965L69.4282 71.2149L69.604 71.254L69.9168 71.2164L69.9448 71.2994L70.5081 71.1428L70.5953 71.2086L70.7991 71.1585L70.9159 71.005L70.9236 70.8735L70.8863 70.8359L70.9127 70.4757L71.0979 70.424L71.1119 70.4788L71.0575 70.5555L71.059 70.6307L71.4232 70.6433L71.7951 70.6041L72.0737 70.4992L72.2651 70.305L72.5654 70.1452L72.9093 70.1108L73.1023 69.9965L73.2999 70.081L73.3871 70.2643L73.5785 70.5133L73.8539 70.5743L74.3441 70.4913L74.6087 70.4929L74.7254 70.7497L74.4686 71.0865L74.2352 71.1977L73.8041 71.254L73.7263 71.2305L73.3606 71.3887L73.191 71.5688L73.0214 72.1169L73.0292 72.1812L73.2828 72.4521L73.3575 72.4928L73.3482 72.5241L73.0852 72.5899L72.9202 72.4615L72.6899 72.6353L72.623 72.7371L72.665 72.7716L72.5467 72.8718L72.0456 73.1146L71.6955 73.2242L71.6519 73.2931L71.6582 73.4434L71.736 73.6862L71.6862 73.752L71.4683 73.7927L71.3594 73.6924L71.1508 73.647L70.6653 73.5687L70.5315 73.5922L70.3261 73.6455L70.0569 73.7739L69.979 73.8538L69.7907 74.1905L69.5869 74.2797L69.5091 74.2609L69.5993 74.1873L69.5246 73.9963L69.3426 73.8632L69.2134 74.0558L69.2539 74.1732L69.2072 74.2688L68.0214 74.9328L67.8735 75.0612L67.8253 75.2429L67.3164 75.7127L66.8107 76.0181L66.5119 76.1011L65.8116 76.6038L65.449 76.9108L65.3447 76.9233L65.2763 77.0204L65.4163 77.0877L65.519 77.0971L65.6638 77.0408V77.1598L65.5673 77.3649L65.3619 77.4981L65.1969 77.7298ZM72.0923 74.1263L71.8527 74.0245L71.6722 74.0526L71.5959 73.9931L71.6115 73.871L71.7593 73.7692L71.9289 73.4795L72.041 73.5186L72.1437 73.6204L72.1639 74.0761L72.0923 74.1263Z" fill="#08868B" stroke="white" stroke-width="1.19048"/>
<path d="M69.6755 45.4521L68.8414 45.6745L68.5706 45.8843L68.1722 46.0566H67.931L67.2261 46.2132L66.8339 46.5389L66.5569 46.6799L66.4853 46.6423L66.2504 46.232L66.1648 46.2273L66.0854 46.7441L65.978 46.7566L65.4567 46.6501L64.9696 46.4199L65.0568 46.1756L65.0225 46.0597L64.3176 46.1427L63.8881 46.0895L63.8009 46.174L63.7542 46.3306L63.6375 46.4481L63.4601 46.4403L63.3652 45.9548L63.1925 45.3738L63.0306 45.0793L62.8517 44.8742L62.668 45.0261L62.4393 45.4004L62.1856 46.3306L62.0876 46.3667L61.4542 46.1427L60.9734 45.8749L60.3618 45.8123L60.0194 45.651L59.6459 45.5883L59.7269 45.2219L59.9167 44.9274L59.9214 44.6596L59.8342 44.7066L59.5526 45.0339L59.4499 45.2266L59.4187 45.521L59.3658 45.5915L59.2413 45.5883L59.0919 45.5084L58.9394 44.9854L59.0546 44.5531L58.9861 44.0755L58.9052 43.9846L58.9036 43.7388L58.9768 43.2204L58.8056 42.868L58.8134 42.7897L58.941 42.6503L58.9659 42.5141L58.7496 42.3042L58.7402 42.1695L59.0328 41.2314L59.039 40.7694L59.1231 40.3043L59.425 39.4758L59.4825 39.4336L59.5494 39.3004L59.6179 38.8087L59.7891 38.6129L59.8762 38.3169L59.9774 38.1572L60.2295 37.5793L60.4053 36.8824L60.5843 36.6349L60.7695 36.4627L60.9578 36.1996L61.1181 35.8989L61.3313 35.7548L61.4947 35.7297L61.6083 35.5966L61.7546 35.3554L61.7826 35.2004L62.0471 34.693L62.2167 34.5677L62.4906 33.7612L62.5933 33.1285L62.57 33.0815L62.4548 33.0314L62.195 32.7589L62.1016 32.6101L62.0767 32.4723L62.0985 32.383L62.3179 32.1183L62.5186 31.7894L62.5093 31.3713L62.4424 31.0299L62.472 30.9751L62.8563 30.6963L63.387 30.5178L63.776 30.3283L63.8134 30.25L63.79 30.0135L63.9239 29.8146L64.1588 29.6047L64.3596 29.5812L64.3892 29.3714L64.344 29.1835L64.3829 29.1114L64.6101 29.0394L64.7097 28.9642L64.8545 28.5335L64.6957 28.3237L64.6817 28.1044L64.7269 28.0606L64.8778 28.048L64.9898 27.9901L65.0474 27.8867L65.0521 27.7865L64.856 27.6033L64.7206 27.5813L64.6599 27.5328L64.5012 27.2728L64.3005 27.254L64.0095 27.2932L63.6531 27.1663L63.7356 27.0661L64.1433 26.7764L64.4483 26.6934L64.5837 26.7012L65.0163 26.9392L65.2342 26.9518L65.382 26.8703L65.6528 26.9157L65.7446 27.0238L65.757 27.1851L65.8006 27.2352L65.9905 27.2399L66.5196 27.4639L66.6503 27.6252L66.7234 28.1733L66.823 28.4082L66.7903 28.9908L66.8261 29.16L66.9304 29.3369L66.9288 29.4058L66.6534 30.369L66.6052 30.7402L66.6487 30.8968L66.6098 31.1458L66.3375 31.4653L66.0636 31.5702L66.0356 31.6814L66.3375 31.8881L66.4029 31.8458L66.6161 31.8834L66.655 31.9382L66.6721 32.076L66.5756 32.2624L66.7079 32.4879L66.8448 32.477L67.3117 33.1285L67.4533 33.2616L67.8081 33.7345L68.1411 33.5247L68.8056 33.3775L69.0857 33.5685L69.0982 33.8426L68.9986 34.3516L69.0593 34.563L68.5317 34.6178L68.3232 34.7024L68.2345 34.7885L68.1287 35.0125L68.0151 35.4322L68.0726 35.6358L67.6634 36.0351L67.6229 36.1448L67.654 36.2105L67.9777 36.2559L68.124 36.364L68.2391 36.613L68.2485 36.873L68.345 37.0359L68.9488 37.3413L68.9628 37.4243L68.7076 37.7077L68.7278 37.9661L69.0608 38.2198L69.2149 38.6693L69.4234 38.9825L69.5339 39.0107L69.8109 38.9778L69.9665 39.0248L70.0941 39.0937L70.189 39.2221L70.3882 39.3255L70.8457 39.3584L70.7384 39.4602L70.7041 39.6137L70.617 39.6873L70.0225 40.0036L69.523 40.4139L69.4934 40.4719L69.6942 40.7538L69.6381 40.8149L69.481 40.8571L69.3409 40.9527L69.1044 41.4992L68.9472 41.612L68.8694 41.7937L68.9052 41.9377L69.1946 42.2431L69.7533 42.3481L70.0443 42.5031L70.0521 42.6221L69.9649 42.6926L69.6475 42.8195L69.5806 42.9698L69.5946 43.0481L69.649 43.0998L69.8093 43.0716L69.9525 43.117L70.0428 43.1969L70.0879 43.2971L69.9385 43.4083L69.7595 43.4741L69.4561 43.7356L69.4265 43.8687L69.4187 44.326L69.4732 44.5218L69.6195 44.6252L69.7829 44.6628L69.8467 44.7019L69.8731 44.7677L69.8809 44.9337L69.6693 45.3064L69.6755 45.4521Z" fill="#08868B" stroke="white" stroke-width="1.19048"/>
</svg>
