<svg width="835" height="249" viewBox="0 0 835 249" fill="none" xmlns="http://www.w3.org/2000/svg">
<g clip-path="url(#clip0_18_271)">
<path d="M370.374 0.950881L294.387 78.0678L222.116 78.5331C174.116 78.8432 145.51 105.247 135.871 157.162L135.329 72.4847C135.91 38.7533 170.052 3.00578 206.322 0.912109H370.412L370.374 0.950881Z" fill="url(#paint0_linear_18_271)"/>
<path d="M0.078125 248.508L76.065 171.391L148.336 170.925C196.336 170.615 224.942 144.212 234.581 92.2964L235.123 176.974C234.542 210.705 200.4 246.453 164.129 248.546H0.078125V248.508Z" fill="url(#paint1_linear_18_271)"/>
</g>
<path d="M777.177 187.638V99.9149C783.934 101.429 790.691 101.429 797.448 99.9149V187.638H777.177ZM787.312 86.8089C783.235 86.8089 780.148 85.7604 778.051 83.6635C775.954 81.5665 774.905 78.8288 774.905 75.4504C774.905 72.1884 775.954 69.509 778.051 67.412C780.148 65.3151 783.235 64.2666 787.312 64.2666C791.506 64.2666 794.652 65.3151 796.749 67.412C798.846 69.509 799.894 72.1884 799.894 75.4504C799.894 78.8288 798.846 81.5665 796.749 83.6635C794.652 85.7604 791.506 86.8089 787.312 86.8089Z" fill="#333333"/>
<path d="M811.912 187.638V99.9149C818.669 101.429 825.426 101.429 832.183 99.9149V187.638H811.912ZM822.048 86.8089C817.97 86.8089 814.883 85.7604 812.786 83.6635C810.689 81.5665 809.641 78.8288 809.641 75.4504C809.641 72.1884 810.689 69.509 812.786 67.412C814.883 65.3151 817.97 64.2666 822.048 64.2666C826.242 64.2666 829.387 65.3151 831.484 67.412C833.581 69.509 834.629 72.1884 834.629 75.4504C834.629 78.8288 833.581 81.5665 831.484 83.6635C829.387 85.7604 826.242 86.8089 822.048 86.8089Z" fill="#333333"/>
<path d="M710.505 187.638V100.265H730.775V187.638H710.505ZM730.775 143.602L727.455 121.06C729.902 113.371 733.28 107.663 737.591 103.935C741.901 100.09 746.619 98.168 751.745 98.168C754.424 98.168 756.754 98.634 758.735 99.5659C760.832 100.498 762.521 101.896 763.803 103.76C765.084 105.624 765.725 108.012 765.725 110.924C765.725 114.536 764.793 117.274 762.929 119.138C761.065 120.885 758.735 121.759 755.939 121.759C753.958 121.759 752.153 121.467 750.522 120.885C749.007 120.303 747.376 120.011 745.629 120.011C741.202 120.011 737.591 122.166 734.795 126.477C732.115 130.787 730.775 136.496 730.775 143.602Z" fill="#333333"/>
<path d="M652.395 187.638V90.3038C652.395 83.4304 653.735 77.722 656.415 73.1786C659.211 68.6352 662.939 65.2568 667.598 63.0433C672.258 60.8299 677.501 59.7231 683.326 59.7231C689.034 59.7231 693.461 60.7716 696.606 62.8686C699.752 64.849 701.324 67.645 701.324 71.2564C701.324 73.7029 700.626 75.6251 699.228 77.023C697.946 78.421 696.257 79.12 694.16 79.12C692.645 79.12 691.073 78.887 689.442 78.421C687.811 77.8385 686.005 77.5473 684.025 77.5473C680.996 77.5473 678.316 78.5958 675.986 80.6927C673.773 82.6732 672.666 86.1099 672.666 91.0028V187.638H652.395ZM647.328 118.263C644.648 118.263 642.377 117.506 640.513 115.991C638.649 114.477 637.717 112.205 637.717 109.176C637.717 106.264 638.649 104.05 640.513 102.536C642.377 101.022 644.648 100.264 647.328 100.264H699.228V118.263H647.328Z" fill="#333333"/>
<path d="M612.8 187.638V137.835C612.8 130.38 611.169 125.079 607.907 121.933C604.645 118.788 600.684 117.215 596.024 117.215C592.646 117.215 589.384 118.031 586.238 119.662C583.093 121.293 580.53 123.739 578.549 127.001C576.569 130.263 575.579 134.399 575.579 139.408L568.764 121.06C570.977 115.701 573.948 111.39 577.676 108.129C581.403 104.75 585.481 102.245 589.908 100.614C594.335 98.9835 598.703 98.168 603.014 98.168C608.606 98.168 613.673 99.4494 618.217 102.012C622.76 104.575 626.372 108.536 629.051 113.895C631.73 119.138 633.07 125.953 633.07 134.34V187.638H612.8ZM497.991 187.638V100.265H518.262V187.638H497.991ZM555.308 187.638V137.835C555.308 130.38 553.677 125.079 550.415 121.933C547.27 118.788 543.367 117.215 538.707 117.215C535.212 117.215 531.892 118.031 528.747 119.662C525.718 121.293 523.213 123.739 521.232 127.001C519.252 130.263 518.262 134.399 518.262 139.408L514.417 121.06C516.281 115.701 518.844 111.39 522.106 108.129C525.368 104.75 529.038 102.245 533.115 100.614C537.193 98.9835 541.445 98.168 545.872 98.168C551.464 98.168 556.531 99.4494 561.075 102.012C565.618 104.459 569.171 108.303 571.734 113.546C574.297 118.672 575.579 125.195 575.579 133.117V187.638H555.308Z" fill="#333333"/>
<path d="M460.27 187.638V99.9149C467.027 101.429 473.783 101.429 480.54 99.9149V187.638H460.27ZM470.405 86.8089C466.328 86.8089 463.24 85.7604 461.143 83.6635C459.047 81.5665 457.998 78.8288 457.998 75.4504C457.998 72.1884 459.047 69.509 461.143 67.412C463.24 65.3151 466.328 64.2666 470.405 64.2666C474.599 64.2666 477.744 65.3151 479.841 67.412C481.938 69.509 482.987 72.1884 482.987 75.4504C482.987 78.8288 481.938 81.5665 479.841 83.6635C477.744 85.7604 474.599 86.8089 470.405 86.8089Z" fill="#333333"/>
<path d="M400.937 189.734C392.084 189.734 383.929 188.744 376.473 186.764C369.134 184.667 362.784 181.929 357.426 178.551V158.105C365.114 162.998 372.687 166.668 380.143 169.114C387.715 171.561 394.938 172.784 401.811 172.784C410.315 172.784 416.49 171.269 420.334 168.241C424.295 165.095 426.276 161.309 426.276 156.882C426.276 153.154 424.994 150.183 422.431 147.97C419.985 145.64 416.665 143.776 412.471 142.378C408.393 140.864 403.85 139.524 398.84 138.359C393.948 137.077 388.996 135.679 383.987 134.165C379.094 132.534 374.609 130.495 370.532 128.049C366.454 125.486 363.134 122.224 360.571 118.263C358.008 114.186 356.727 109.06 356.727 102.885C356.727 95.779 358.532 89.5464 362.144 84.1875C365.755 78.7121 371.056 74.46 378.046 71.431C385.035 68.2856 393.482 66.7129 403.384 66.7129C411.539 66.7129 418.529 67.7031 424.353 69.6836C430.295 71.664 435.129 74.3435 438.857 77.7219C440.838 79.3529 442.352 81.1003 443.401 82.9643C444.449 84.7118 444.973 86.7505 444.973 89.0804C444.973 91.7599 444.158 93.9733 442.527 95.7208C441.013 97.4683 438.799 98.342 435.887 98.342C433.324 98.342 430.994 97.643 428.897 96.245C426.916 94.7306 424.819 92.9831 422.606 91.0026C420.392 89.0222 417.655 87.2747 414.393 85.7603C411.131 84.2458 406.879 83.4885 401.636 83.4885C394.414 83.4885 388.88 85.0613 385.035 88.2067C381.191 91.3521 379.269 95.1965 379.269 99.74C379.269 103.468 380.55 106.439 383.113 108.652C385.676 110.865 388.996 112.729 393.074 114.244C397.151 115.642 401.636 116.982 406.529 118.263C411.539 119.428 416.49 120.826 421.383 122.457C426.392 123.971 430.936 126.01 435.013 128.573C439.207 131.136 442.527 134.456 444.973 138.534C447.536 142.611 448.818 147.737 448.818 153.911C448.818 161.134 447.012 167.483 443.401 172.959C439.789 178.318 434.43 182.453 427.324 185.366C420.218 188.278 411.422 189.734 400.937 189.734Z" fill="#333333"/>
<defs>
<linearGradient id="paint0_linear_18_271" x1="135.329" y1="79.0759" x2="370.374" y2="79.0759" gradientUnits="userSpaceOnUse">
<stop stop-color="#FF962C"/>
<stop offset="1" stop-color="#E57300"/>
</linearGradient>
<linearGradient id="paint1_linear_18_271" x1="0.078125" y1="170.383" x2="235.161" y2="170.383" gradientUnits="userSpaceOnUse">
<stop stop-color="#FF962C"/>
<stop offset="1" stop-color="#E57300"/>
</linearGradient>
<clipPath id="clip0_18_271">
<rect width="370.295" height="247.557" fill="white" transform="translate(0.078125 0.950684)"/>
</clipPath>
</defs>
</svg>
